mtllib material.mtl
usemtl mat1
v 0.00000003 0.05955500 0.03484500
v 0.00000003 0.05980000 0.03330000
v -0.00627797 0.05972400 0.03358601
v -0.00649697 0.05980000 0.03266001
v -0.01234297 0.05972400 0.03186101
v -0.01274297 0.05980000 0.03076501
v -0.01798697 0.05972400 0.02905002
v -0.01849997 0.05980000 0.02768802
v -0.02301897 0.05972400 0.02525102
v -0.02354698 0.05980000 0.02354702
v -0.02726698 0.05972400 0.02059103
v -0.02768798 0.05980000 0.01850003
v -0.03058598 0.05972400 0.01523003
v -0.03076499 0.05980000 0.01274303
v -0.03286399 0.05972400 0.00935103
v -0.03265999 0.05980000 0.00649703
v -0.03402200 0.05972400 0.00315303
v -0.03330000 0.05980000 0.00000003
v -0.03402200 0.05972400 -0.00315297
v -0.03266001 0.05980000 -0.00649697
v -0.03286401 0.05972400 -0.00935097
v -0.03076501 0.05980000 -0.01274297
v -0.03058602 0.05972400 -0.01522997
v -0.02768802 0.05980000 -0.01849997
v -0.02726702 0.05972400 -0.02059097
v -0.02354702 0.05980000 -0.02354698
v -0.02301903 0.05972400 -0.02525098
v -0.01850003 0.05980000 -0.02768798
v -0.01798703 0.05972400 -0.02904998
v -0.01274303 0.05980000 -0.03076499
v -0.01234303 0.05972400 -0.03186099
v -0.00649703 0.05980000 -0.03265999
v -0.00627803 0.05972400 -0.03358599
v -0.00000003 0.05980000 -0.03330000
v -0.00000003 0.05955500 -0.03484500
v -0.00657804 0.05913000 -0.03518999
v -0.00000004 0.05884500 -0.03623900
v -0.00682304 0.05801400 -0.03649799
v -0.00000004 0.05773900 -0.03734500
v -0.00698204 0.05651000 -0.03735099
v -0.00000004 0.05634500 -0.03805500
v -0.00703804 0.05480000 -0.03764799
v -0.00000004 0.05480000 -0.03830000
v -0.01372704 0.05651000 -0.03543299
v -0.01383604 0.05480000 -0.03571399
v -0.02000403 0.05651000 -0.03230698
v -0.02016203 0.05480000 -0.03256298
v -0.02559903 0.05651000 -0.02808097
v -0.02580303 0.05480000 -0.02830397
v -0.03032302 0.05651000 -0.02289897
v -0.03056402 0.05480000 -0.02308097
v -0.03401502 0.05651000 -0.01693697
v -0.03428502 0.05480000 -0.01707197
v -0.03654801 0.05651000 -0.01039896
v -0.03683801 0.05480000 -0.01048096
v -0.03783600 0.05651000 -0.00350596
v -0.03813700 0.05480000 -0.00353396
v -0.03783600 0.05651000 0.00350604
v -0.03813700 0.05480000 0.00353404
v -0.03654799 0.05651000 0.01039904
v -0.03683799 0.05480000 0.01048104
v -0.03401498 0.05651000 0.01693703
v -0.03428498 0.05480000 0.01707203
v -0.03032298 0.05651000 0.02289903
v -0.03056398 0.05480000 0.02308103
v -0.02559897 0.05651000 0.02808103
v -0.02580297 0.05480000 0.02830403
v -0.02000397 0.05651000 0.03230702
v -0.02016197 0.05480000 0.03256302
v -0.01372696 0.05651000 0.03543301
v -0.01383596 0.05480000 0.03571401
v -0.00698196 0.05651000 0.03735101
v -0.00703796 0.05480000 0.03764801
v 0.00000004 0.05634500 0.03805500
v 0.00000004 0.05480000 0.03830000
v 0.00000004 0.05773900 0.03734500
v -0.00682296 0.05801400 0.03649801
v -0.01341297 0.05801400 0.03462301
v -0.01954697 0.05801400 0.03156902
v -0.02501397 0.05801400 0.02744003
v -0.02963098 0.05801400 0.02237603
v -0.03323798 0.05801400 0.01655003
v -0.03571299 0.05801400 0.01016104
v -0.03697200 0.05801400 0.00342604
v -0.03697200 0.05801400 -0.00342596
v -0.03571301 0.05801400 -0.01016096
v -0.03323802 0.05801400 -0.01654997
v -0.02963102 0.05801400 -0.02237597
v -0.02501403 0.05801400 -0.02743997
v -0.01954703 0.05801400 -0.03156898
v -0.01341303 0.05801400 -0.03462299
v 0.00000004 0.05884500 0.03623900
v -0.00657796 0.05913000 0.03519001
v -0.01293197 0.05913000 0.03338301
v -0.01884597 0.05913000 0.03043802
v -0.02411797 0.05913000 0.02645702
v -0.02856898 0.05913000 0.02157403
v -0.03204698 0.05913000 0.01595703
v -0.03443299 0.05913000 0.00979703
v -0.03564700 0.05913000 0.00330304
v -0.03564700 0.05913000 -0.00330296
v -0.03443301 0.05913000 -0.00979697
v -0.03204702 0.05913000 -0.01595697
v -0.02856902 0.05913000 -0.02157397
v -0.02411803 0.05913000 -0.02645698
v -0.01884603 0.05913000 -0.03043798
v -0.01293203 0.05913000 -0.03338299
v -0.00000004 0.04418100 -0.03830000
v -0.00665104 0.04402500 -0.03771799
v -0.00000004 0.05480000 -0.03830000
v -0.00703804 0.05480000 -0.03764799
v -0.01309904 0.04356200 -0.03598999
v -0.01383604 0.05480000 -0.03571399
v -0.01915003 0.04280600 -0.03316898
v -0.02016203 0.05480000 -0.03256298
v -0.02461903 0.04178000 -0.02933998
v -0.02580303 0.05480000 -0.02830397
v -0.02933902 0.04051500 -0.02461897
v -0.03056402 0.05480000 -0.02308097
v -0.03316902 0.03904900 -0.01914997
v -0.03428502 0.05480000 -0.01707197
v -0.03599001 0.03742800 -0.01309896
v -0.03683801 0.05480000 -0.01048096
v -0.03771801 0.03570000 -0.00665096
v -0.03813700 0.05480000 -0.00353396
v -0.03830000 0.03391800 0.00000004
v -0.03813700 0.05480000 0.00353404
v -0.03771799 0.03213600 0.00665104
v -0.03683799 0.05480000 0.01048104
v -0.03598999 0.03040800 0.01309904
v -0.03428498 0.05480000 0.01707203
v -0.03316898 0.02878700 0.01915003
v -0.03056398 0.05480000 0.02308103
v -0.02933898 0.02732200 0.02461903
v -0.02580297 0.05480000 0.02830403
v -0.02461897 0.02605700 0.02934002
v -0.02016197 0.05480000 0.03256302
v -0.01914997 0.02503100 0.03316902
v -0.01383596 0.05480000 0.03571401
v -0.01309896 0.02427500 0.03599001
v -0.00703796 0.05480000 0.03764801
v -0.00665096 0.02381200 0.03771801
v 0.00000004 0.05480000 0.03830000
v 0.00000004 0.02365600 0.03830000
v 0.00000004 -0.05430000 0.03550000
v -0.00652297 -0.05430000 0.03489601
v 0.00000004 -0.06050000 0.03550000
v -0.00652297 -0.06050000 0.03489601
v -0.01282397 -0.05430000 0.03310301
v -0.01282397 -0.06050000 0.03310301
v -0.01868797 -0.05430000 0.03018302
v -0.01868797 -0.06050000 0.03018302
v -0.02391597 -0.05430000 0.02623502
v -0.02391597 -0.06050000 0.02623502
v -0.02832998 -0.05430000 0.02139403
v -0.02832998 -0.06050000 0.02139403
v -0.03177798 -0.05430000 0.01582403
v -0.03177798 -0.06050000 0.01582403
v -0.03414499 -0.05430000 0.00971503
v -0.03414499 -0.06050000 0.00971503
v -0.03534900 -0.05430000 0.00327604
v -0.03534900 -0.06050000 0.00327604
v -0.03534900 -0.05430000 -0.00327596
v -0.03534900 -0.06050000 -0.00327596
v -0.03414501 -0.05430000 -0.00971497
v -0.03414501 -0.06050000 -0.00971497
v -0.03177802 -0.05430000 -0.01582397
v -0.03177802 -0.06050000 -0.01582397
v -0.02833002 -0.05430000 -0.02139397
v -0.02833002 -0.06050000 -0.02139397
v -0.02391603 -0.05430000 -0.02623498
v -0.02391603 -0.06050000 -0.02623498
v -0.01868803 -0.05430000 -0.03018298
v -0.01868803 -0.06050000 -0.03018298
v -0.01282403 -0.05430000 -0.03310299
v -0.01282403 -0.06050000 -0.03310299
v -0.00652303 -0.05430000 -0.03489599
v -0.00652303 -0.06050000 -0.03489599
v -0.00000004 -0.06050000 -0.03550000
v -0.00000004 -0.05430000 -0.03550000
v 0.00000004 -0.05430000 0.03830000
v 0.00000004 -0.04930000 0.03830000
v -0.00703796 -0.05430000 0.03764801
v -0.00703796 -0.04930000 0.03764801
v -0.01383596 -0.05430000 0.03571401
v -0.01383596 -0.04930000 0.03571401
v -0.02016197 -0.05430000 0.03256302
v -0.02016197 -0.04930000 0.03256302
v -0.02580297 -0.05430000 0.02830403
v -0.02580297 -0.04930000 0.02830403
v -0.03056398 -0.05430000 0.02308103
v -0.03056398 -0.04930000 0.02308103
v -0.03428498 -0.05430000 0.01707203
v -0.03428498 -0.04930000 0.01707203
v -0.03683799 -0.05430000 0.01048104
v -0.03683799 -0.04930000 0.01048104
v -0.03813700 -0.05430000 0.00353404
v -0.03813700 -0.04930000 0.00353404
v -0.03813700 -0.05430000 -0.00353396
v -0.03813700 -0.04930000 -0.00353396
v -0.03683801 -0.05430000 -0.01048096
v -0.03683801 -0.04930000 -0.01048096
v -0.03428502 -0.05430000 -0.01707197
v -0.03428502 -0.04930000 -0.01707197
v -0.03056402 -0.05430000 -0.02308097
v -0.03056402 -0.04930000 -0.02308097
v -0.02580303 -0.05430000 -0.02830397
v -0.02580303 -0.04930000 -0.02830397
v -0.02016203 -0.05430000 -0.03256298
v -0.02016203 -0.04930000 -0.03256298
v -0.01383604 -0.05430000 -0.03571399
v -0.01383604 -0.04930000 -0.03571399
v -0.00703804 -0.05430000 -0.03764799
v -0.00703804 -0.04930000 -0.03764799
v -0.00000004 -0.05430000 -0.03830000
v -0.00000004 -0.04930000 -0.03830000
v -0.00000004 -0.05430000 -0.03830000
v -0.00000004 -0.04930000 -0.03830000
v 0.00703796 -0.05430000 -0.03764801
v 0.00703796 -0.04930000 -0.03764801
v 0.01383596 -0.05430000 -0.03571401
v 0.01383596 -0.04930000 -0.03571401
v 0.02016197 -0.05430000 -0.03256302
v 0.02016197 -0.04930000 -0.03256302
v 0.02580297 -0.05430000 -0.02830403
v 0.02580297 -0.04930000 -0.02830403
v 0.03056398 -0.05430000 -0.02308103
v 0.03056398 -0.04930000 -0.02308103
v 0.03428498 -0.05430000 -0.01707203
v 0.03428498 -0.04930000 -0.01707203
v 0.03683799 -0.05430000 -0.01048104
v 0.03683799 -0.04930000 -0.01048104
v 0.03813700 -0.05430000 -0.00353404
v 0.03813700 -0.04930000 -0.00353404
v 0.03813700 -0.05430000 0.00353396
v 0.03813700 -0.04930000 0.00353396
v 0.03683801 -0.05430000 0.01048096
v 0.03683801 -0.04930000 0.01048096
v 0.03428502 -0.05430000 0.01707197
v 0.03428502 -0.04930000 0.01707197
v 0.03056402 -0.05430000 0.02308097
v 0.03056402 -0.04930000 0.02308097
v 0.02580303 -0.05430000 0.02830397
v 0.02580303 -0.04930000 0.02830397
v 0.02016203 -0.05430000 0.03256298
v 0.02016203 -0.04930000 0.03256298
v 0.01383604 -0.05430000 0.03571399
v 0.01383604 -0.04930000 0.03571399
v 0.00703804 -0.05430000 0.03764799
v 0.00703804 -0.04930000 0.03764799
v 0.00000004 -0.06050000 0.03550000
v -0.00652297 -0.06050000 0.03489601
v 0.00652303 -0.06050000 0.03489599
v 0.01282403 -0.06050000 0.03310299
v -0.01282397 -0.06050000 0.03310301
v 0.01868803 -0.06050000 0.03018298
v -0.01868797 -0.06050000 0.03018302
v 0.02391603 -0.06050000 0.02623498
v -0.02391597 -0.06050000 0.02623502
v 0.02833002 -0.06050000 0.02139397
v 0.03177802 -0.06050000 0.01582397
v 0.03414501 -0.06050000 0.00971497
v 0.03534900 -0.06050000 0.00327596
v 0.03534900 -0.06050000 -0.00327604
v 0.03414499 -0.06050000 -0.00971503
v 0.03177798 -0.06050000 -0.01582403
v 0.02832998 -0.06050000 -0.02139403
v 0.02391597 -0.06050000 -0.02623502
v 0.01868797 -0.06050000 -0.03018302
v -0.02832998 -0.06050000 0.02139403
v 0.01282397 -0.06050000 -0.03310301
v 0.00652297 -0.06050000 -0.03489601
v -0.00000004 -0.06050000 -0.03550000
v -0.00652303 -0.06050000 -0.03489599
v -0.01282403 -0.06050000 -0.03310299
v -0.01868803 -0.06050000 -0.03018298
v -0.02391603 -0.06050000 -0.02623498
v -0.02833002 -0.06050000 -0.02139397
v -0.03177798 -0.06050000 0.01582403
v -0.03177802 -0.06050000 -0.01582397
v -0.03414499 -0.06050000 0.00971503
v -0.03414501 -0.06050000 -0.00971497
v -0.03534900 -0.06050000 0.00327604
v -0.03534900 -0.06050000 -0.00327596
v -0.00000004 -0.06050000 -0.03550000
v -0.00000004 -0.05430000 -0.03550000
v 0.00652297 -0.06050000 -0.03489601
v 0.00652297 -0.05430000 -0.03489601
v 0.01282397 -0.05430000 -0.03310301
v 0.01282397 -0.06050000 -0.03310301
v 0.01868797 -0.05430000 -0.03018302
v 0.01868797 -0.06050000 -0.03018302
v 0.02391597 -0.05430000 -0.02623502
v 0.02391597 -0.06050000 -0.02623502
v 0.02832998 -0.05430000 -0.02139403
v 0.02832998 -0.06050000 -0.02139403
v 0.03177798 -0.05430000 -0.01582403
v 0.03177798 -0.06050000 -0.01582403
v 0.03414499 -0.05430000 -0.00971503
v 0.03414499 -0.06050000 -0.00971503
v 0.03534900 -0.05430000 -0.00327604
v 0.03534900 -0.06050000 -0.00327604
v 0.03534900 -0.05430000 0.00327596
v 0.03534900 -0.06050000 0.00327596
v 0.03414501 -0.05430000 0.00971497
v 0.03414501 -0.06050000 0.00971497
v 0.03177802 -0.05430000 0.01582397
v 0.03177802 -0.06050000 0.01582397
v 0.02833002 -0.05430000 0.02139397
v 0.02833002 -0.06050000 0.02139397
v 0.02391603 -0.05430000 0.02623498
v 0.02391603 -0.06050000 0.02623498
v 0.01868803 -0.05430000 0.03018298
v 0.01868803 -0.06050000 0.03018298
v 0.01282403 -0.05430000 0.03310299
v 0.01282403 -0.06050000 0.03310299
v 0.00652303 -0.05430000 0.03489599
v 0.00652303 -0.06050000 0.03489599
v -0.00703796 -0.05430000 0.03764801
v -0.00652297 -0.05430000 0.03489601
v 0.00000004 -0.05430000 0.03830000
v 0.00000004 -0.05430000 0.03550000
v 0.00652303 -0.05430000 0.03489599
v -0.01282397 -0.05430000 0.03310301
v -0.01383596 -0.05430000 0.03571401
v -0.01868797 -0.05430000 0.03018302
v -0.02016197 -0.05430000 0.03256302
v -0.02391597 -0.05430000 0.02623502
v -0.02580297 -0.05430000 0.02830403
v -0.02832998 -0.05430000 0.02139403
v -0.03056398 -0.05430000 0.02308103
v -0.03177798 -0.05430000 0.01582403
v -0.03428498 -0.05430000 0.01707203
v -0.03414499 -0.05430000 0.00971503
v -0.03683799 -0.05430000 0.01048104
v -0.03534900 -0.05430000 0.00327604
v -0.03813700 -0.05430000 0.00353404
v -0.03534900 -0.05430000 -0.00327596
v -0.03813700 -0.05430000 -0.00353396
v -0.03683801 -0.05430000 -0.01048096
v -0.03414501 -0.05430000 -0.00971497
v -0.03428502 -0.05430000 -0.01707197
v -0.03177802 -0.05430000 -0.01582397
v -0.03056402 -0.05430000 -0.02308097
v -0.02833002 -0.05430000 -0.02139397
v -0.02580303 -0.05430000 -0.02830397
v -0.02391603 -0.05430000 -0.02623498
v -0.02016203 -0.05430000 -0.03256298
v -0.01868803 -0.05430000 -0.03018298
v -0.01383604 -0.05430000 -0.03571399
v -0.01282403 -0.05430000 -0.03310299
v -0.00703804 -0.05430000 -0.03764799
v -0.00652303 -0.05430000 -0.03489599
v -0.00000004 -0.05430000 -0.03830000
v -0.00000004 -0.05430000 -0.03550000
v 0.00652297 -0.05430000 -0.03489601
v 0.00703796 -0.05430000 -0.03764801
v 0.01282397 -0.05430000 -0.03310301
v 0.01383596 -0.05430000 -0.03571401
v 0.01868797 -0.05430000 -0.03018302
v 0.02016197 -0.05430000 -0.03256302
v 0.02391597 -0.05430000 -0.02623502
v 0.02580297 -0.05430000 -0.02830403
v 0.02832998 -0.05430000 -0.02139403
v 0.03056398 -0.05430000 -0.02308103
v 0.03177798 -0.05430000 -0.01582403
v 0.03428498 -0.05430000 -0.01707203
v 0.03414499 -0.05430000 -0.00971503
v 0.03683799 -0.05430000 -0.01048104
v 0.03534900 -0.05430000 -0.00327604
v 0.03813700 -0.05430000 -0.00353404
v 0.03813700 -0.05430000 0.00353396
v 0.03534900 -0.05430000 0.00327596
v 0.03683801 -0.05430000 0.01048096
v 0.03414501 -0.05430000 0.00971497
v 0.03428502 -0.05430000 0.01707197
v 0.03177802 -0.05430000 0.01582397
v 0.03056402 -0.05430000 0.02308097
v 0.02833002 -0.05430000 0.02139397
v 0.02580303 -0.05430000 0.02830397
v 0.02391603 -0.05430000 0.02623498
v 0.02016203 -0.05430000 0.03256298
v 0.01868803 -0.05430000 0.03018298
v 0.01383604 -0.05430000 0.03571399
v 0.01282403 -0.05430000 0.03310299
v 0.00703804 -0.05430000 0.03764799
v 0.00000004 0.02365600 0.03830000
v 0.00665104 0.02381200 0.03771799
v 0.00000004 0.05480000 0.03830000
v 0.00703804 0.05480000 0.03764799
v 0.01309904 0.02427500 0.03598999
v 0.01383604 0.05480000 0.03571399
v 0.01915003 0.02503100 0.03316898
v 0.02016203 0.05480000 0.03256298
v 0.02461903 0.02605700 0.02933998
v 0.02580303 0.05480000 0.02830397
v 0.02933902 0.02732200 0.02461897
v 0.03056402 0.05480000 0.02308097
v 0.03316902 0.02878700 0.01914997
v 0.03428502 0.05480000 0.01707197
v 0.03599001 0.03040800 0.01309896
v 0.03683801 0.05480000 0.01048096
v 0.03771801 0.03213600 0.00665096
v 0.03813700 0.05480000 0.00353396
v 0.03830000 0.03391800 -0.00000004
v 0.03813700 0.05480000 -0.00353404
v 0.03771799 0.03570000 -0.00665104
v 0.03683799 0.05480000 -0.01048104
v 0.03598999 0.03742800 -0.01309904
v 0.03428498 0.05480000 -0.01707203
v 0.03316898 0.03904900 -0.01915003
v 0.03056398 0.05480000 -0.02308103
v 0.02933898 0.04051500 -0.02461903
v 0.02580297 0.05480000 -0.02830403
v 0.02461897 0.04178000 -0.02934002
v 0.02016197 0.05480000 -0.03256302
v 0.01914997 0.04280600 -0.03316902
v 0.01383596 0.05480000 -0.03571401
v 0.01309896 0.04356200 -0.03599001
v 0.00703796 0.05480000 -0.03764801
v 0.00665096 0.04402500 -0.03771801
v 0.00000003 0.05980000 0.03330000
v 0.00649703 0.05980000 0.03265999
v -0.00649697 0.05980000 0.03266001
v -0.01274297 0.05980000 0.03076501
v 0.01274303 0.05980000 0.03076499
v -0.01849997 0.05980000 0.02768802
v 0.01850003 0.05980000 0.02768798
v -0.02354698 0.05980000 0.02354702
v 0.02354702 0.05980000 0.02354698
v -0.02768798 0.05980000 0.01850003
v 0.02768802 0.05980000 0.01849997
v -0.03076499 0.05980000 0.01274303
v 0.03076501 0.05980000 0.01274297
v -0.03265999 0.05980000 0.00649703
v 0.03266001 0.05980000 0.00649697
v -0.03330000 0.05980000 0.00000003
v 0.03330000 0.05980000 -0.00000003
v -0.03266001 0.05980000 -0.00649697
v 0.03265999 0.05980000 -0.00649703
v -0.03076501 0.05980000 -0.01274297
v 0.03076499 0.05980000 -0.01274303
v -0.02768802 0.05980000 -0.01849997
v 0.02768798 0.05980000 -0.01850003
v -0.02354702 0.05980000 -0.02354698
v 0.02354698 0.05980000 -0.02354702
v -0.01850003 0.05980000 -0.02768798
v 0.01849997 0.05980000 -0.02768802
v -0.01274303 0.05980000 -0.03076499
v 0.01274297 0.05980000 -0.03076501
v -0.00649703 0.05980000 -0.03265999
v 0.00649697 0.05980000 -0.03266001
v -0.00000003 0.05980000 -0.03330000
v -0.00000004 0.05480000 -0.03830000
v -0.00000004 0.05634500 -0.03805500
v 0.00703796 0.05480000 -0.03764801
v 0.00698196 0.05651000 -0.03735101
v 0.01383596 0.05480000 -0.03571401
v 0.01372696 0.05651000 -0.03543301
v 0.02016197 0.05480000 -0.03256302
v 0.02000397 0.05651000 -0.03230702
v 0.02580297 0.05480000 -0.02830403
v 0.02559897 0.05651000 -0.02808103
v 0.03056398 0.05480000 -0.02308103
v 0.03032298 0.05651000 -0.02289903
v 0.03428498 0.05480000 -0.01707203
v 0.03401498 0.05651000 -0.01693703
v 0.03683799 0.05480000 -0.01048104
v 0.03654799 0.05651000 -0.01039904
v 0.03813700 0.05480000 -0.00353404
v 0.03783600 0.05651000 -0.00350604
v 0.03813700 0.05480000 0.00353396
v 0.03783600 0.05651000 0.00350596
v 0.03683801 0.05480000 0.01048096
v 0.03654801 0.05651000 0.01039896
v 0.03428502 0.05480000 0.01707197
v 0.03401502 0.05651000 0.01693697
v 0.03056402 0.05480000 0.02308097
v 0.03032302 0.05651000 0.02289897
v 0.02580303 0.05480000 0.02830397
v 0.02559903 0.05651000 0.02808097
v 0.02016203 0.05480000 0.03256298
v 0.02000403 0.05651000 0.03230698
v 0.01383604 0.05480000 0.03571399
v 0.01372704 0.05651000 0.03543299
v 0.00703804 0.05480000 0.03764799
v 0.00698204 0.05651000 0.03735099
v 0.00682304 0.05801400 0.03649799
v 0.00657804 0.05913000 0.03518999
v 0.00627803 0.05972400 0.03358599
v 0.00649703 0.05980000 0.03265999
v 0.01234303 0.05972400 0.03186099
v 0.01274303 0.05980000 0.03076499
v 0.01798703 0.05972400 0.02904998
v 0.01850003 0.05980000 0.02768798
v 0.02301903 0.05972400 0.02525098
v 0.02354702 0.05980000 0.02354698
v 0.02726702 0.05972400 0.02059097
v 0.02768802 0.05980000 0.01849997
v 0.03058602 0.05972400 0.01522997
v 0.03076501 0.05980000 0.01274297
v 0.03286401 0.05972400 0.00935097
v 0.03266001 0.05980000 0.00649697
v 0.03402200 0.05972400 0.00315297
v 0.03330000 0.05980000 -0.00000003
v 0.03402200 0.05972400 -0.00315303
v 0.03265999 0.05980000 -0.00649703
v 0.03286399 0.05972400 -0.00935103
v 0.03076499 0.05980000 -0.01274303
v 0.03058598 0.05972400 -0.01523003
v 0.02768798 0.05980000 -0.01850003
v 0.02726698 0.05972400 -0.02059103
v 0.02354698 0.05980000 -0.02354702
v 0.02301897 0.05972400 -0.02525102
v 0.01849997 0.05980000 -0.02768802
v 0.01798697 0.05972400 -0.02905002
v 0.01274297 0.05980000 -0.03076501
v 0.01234297 0.05972400 -0.03186101
v 0.00649697 0.05980000 -0.03266001
v 0.00627797 0.05972400 -0.03358601
v -0.00000003 0.05980000 -0.03330000
v -0.00000003 0.05955500 -0.03484500
v 0.00657796 0.05913000 -0.03519001
v -0.00000004 0.05884500 -0.03623900
v 0.00682296 0.05801400 -0.03649801
v -0.00000004 0.05773900 -0.03734500
v 0.01293197 0.05913000 -0.03338301
v 0.01884597 0.05913000 -0.03043802
v 0.02411797 0.05913000 -0.02645702
v 0.02856898 0.05913000 -0.02157403
v 0.03204698 0.05913000 -0.01595703
v 0.03443299 0.05913000 -0.00979703
v 0.03564700 0.05913000 -0.00330304
v 0.03564700 0.05913000 0.00330296
v 0.03443301 0.05913000 0.00979697
v 0.03204702 0.05913000 0.01595697
v 0.02856902 0.05913000 0.02157397
v 0.02411803 0.05913000 0.02645698
v 0.01884603 0.05913000 0.03043798
v 0.01293203 0.05913000 0.03338299
v 0.01341297 0.05801400 -0.03462301
v 0.01954697 0.05801400 -0.03156902
v 0.02501397 0.05801400 -0.02744003
v 0.02963098 0.05801400 -0.02237603
v 0.03323798 0.05801400 -0.01655003
v 0.03571299 0.05801400 -0.01016104
v 0.03697200 0.05801400 -0.00342604
v 0.03697200 0.05801400 0.00342596
v 0.03571301 0.05801400 0.01016096
v 0.03323802 0.05801400 0.01654997
v 0.02963102 0.05801400 0.02237597
v 0.02501403 0.05801400 0.02743997
v 0.01954703 0.05801400 0.03156898
v 0.01341303 0.05801400 0.03462299
vn -95.10565000 0.00000000 -30.90170000
vn -100.00000000 0.00000000 0.00000000
vn -98.48077000 3.19078000 -17.06915000
vn -100.00000000 0.00000000 0.00000000
vn -98.48077000 6.27290000 -16.19221000
vn -100.00000000 0.00000000 0.00000000
vn -98.48077000 9.14140000 -14.76386000
vn -100.00000000 0.00000000 0.00000000
vn -98.48077000 11.69860000 -12.83276000
vn -100.00000000 0.00000000 0.00000000
vn -98.48077000 13.85742000 -10.46464000
vn -100.00000000 0.00000000 0.00000000
vn -98.48077000 15.54435000 -7.74016000
vn -100.00000000 0.00000000 0.00000000
vn -98.48077000 16.70193000 -4.75211000
vn -100.00000000 0.00000000 0.00000000
vn -98.48077000 17.29074000 -1.60222000
vn -100.00000000 0.00000000 0.00000000
vn -98.48077000 17.29074000 1.60222000
vn -100.00000000 0.00000000 0.00000000
vn -98.48077000 16.70193000 4.75211000
vn -100.00000000 0.00000000 0.00000000
vn -98.48077000 15.54435000 7.74016000
vn -100.00000000 0.00000000 0.00000000
vn -98.48077000 13.85742000 10.46464000
vn -100.00000000 0.00000000 0.00000000
vn -98.48077000 11.69860000 12.83276000
vn -100.00000000 0.00000000 0.00000000
vn -98.48077000 9.14140000 14.76386000
vn -100.00000000 0.00000000 0.00000000
vn -98.48077000 6.27290000 16.19221000
vn -100.00000000 0.00000000 0.00000000
vn -98.48077000 3.19078000 17.06915000
vn -100.00000000 0.00000000 0.00000000
vn -95.10565000 0.00000000 30.90170000
vn -86.60254000 9.18748000 49.14866000
vn -80.90170000 0.00000000 58.77853000
vn -64.27876000 14.07603000 75.30011000
vn -58.77853000 0.00000000 80.90170000
vn -34.20202000 17.26681000 92.36926000
vn -30.90170000 0.00000000 95.10565000
vn 0.00000000 18.37495000 98.29731000
vn 0.00000000 0.00000000 100.00000000
vn -34.20202000 33.94561000 87.62373000
vn 0.00000000 36.12417000 93.24722000
vn -34.20202000 49.46844000 79.89428000
vn 0.00000000 52.64322000 85.02171000
vn -34.20202000 63.30668000 69.44412000
vn 0.00000000 67.36957000 73.90089000
vn -34.20202000 74.98909000 56.62913000
vn 0.00000000 79.80172000 60.26346000
vn -34.20202000 84.11784000 41.88570000
vn 0.00000000 89.51633000 44.57384000
vn -34.20202000 90.38205000 25.71591000
vn 0.00000000 96.18256000 27.36630000
vn -34.20202000 93.56840000 8.67039000
vn 0.00000000 99.57342000 9.22684000
vn -34.20202000 93.56840000 -8.67039000
vn 0.00000000 99.57342000 -9.22684000
vn -34.20202000 90.38205000 -25.71591000
vn 0.00000000 96.18256000 -27.36630000
vn -34.20202000 84.11784000 -41.88570000
vn 0.00000000 89.51633000 -44.57384000
vn -34.20202000 74.98909000 -56.62913000
vn 0.00000000 79.80172000 -60.26346000
vn -34.20202000 63.30668000 -69.44412000
vn 0.00000000 67.36957000 -73.90089000
vn -34.20202000 49.46844000 -79.89428000
vn 0.00000000 52.64322000 -85.02171000
vn -34.20202000 33.94561000 -87.62373000
vn 0.00000000 36.12417000 -93.24722000
vn -34.20202000 17.26681000 -92.36926000
vn 0.00000000 18.37495000 -98.29731000
vn -30.90170000 0.00000000 -95.10565000
vn 0.00000000 0.00000000 -100.00000000
vn -58.77853000 0.00000000 -80.90170000
vn -64.27876000 14.07603000 -75.30011000
vn -64.27876000 27.67272000 -71.43152000
vn -64.27876000 40.32704000 -65.13041000
vn -64.27876000 51.60808000 -56.61137000
vn -64.27876000 61.13167000 -46.16449000
vn -64.27876000 68.57349000 -34.14554000
vn -64.27876000 73.68012000 -20.96380000
vn -64.27876000 76.27766000 -7.06817000
vn -64.27876000 76.27766000 7.06817000
vn -64.27876000 73.68012000 20.96380000
vn -64.27876000 68.57349000 34.14554000
vn -64.27876000 61.13167000 46.16449000
vn -64.27876000 51.60808000 56.61137000
vn -64.27876000 40.32704000 65.13041000
vn -64.27876000 27.67272000 71.43152000
vn -80.90170000 0.00000000 -58.77853000
vn -86.60254000 9.18748000 -49.14866000
vn -86.60254000 18.06208000 -46.62361000
vn -86.60254000 26.32161000 -42.51086000
vn -86.60254000 33.68478000 -36.95045000
vn -86.60254000 39.90086000 -30.13173000
vn -86.60254000 44.75816000 -22.28692000
vn -86.60254000 48.09128000 -13.68315000
vn -86.60254000 49.78671000 -4.61342000
vn -86.60254000 49.78671000 4.61342000
vn -86.60254000 48.09128000 13.68315000
vn -86.60254000 44.75816000 22.28692000
vn -86.60254000 39.90086000 30.13173000
vn -86.60254000 33.68478000 36.95045000
vn -86.60254000 26.32161000 42.51086000
vn -86.60254000 18.06208000 46.62361000
vn 0.00000000 0.00000000 100.00000000
vn 0.00000000 17.36482000 98.48077000
vn 0.00000000 0.00000000 100.00000000
vn 0.00000000 18.37495000 98.29731000
vn 0.00000000 34.20202000 93.96926000
vn 0.00000000 36.12417000 93.24722000
vn 0.00000000 50.00000000 86.60254000
vn 0.00000000 52.64322000 85.02171000
vn 0.00000000 64.27876000 76.60445000
vn 0.00000000 67.36957000 73.90089000
vn 0.00000000 76.60445000 64.27876000
vn 0.00000000 79.80172000 60.26346000
vn 0.00000000 86.60254000 50.00000000
vn 0.00000000 89.51633000 44.57384000
vn 0.00000000 93.96926000 34.20202000
vn 0.00000000 96.18256000 27.36630000
vn 0.00000000 98.48077000 17.36482000
vn 0.00000000 99.57342000 9.22684000
vn -0.00000000 100.00000000 0.00000000
vn 0.00000000 99.57342000 -9.22684000
vn 0.00000000 98.48077000 -17.36482000
vn 0.00000000 96.18256000 -27.36630000
vn 0.00000000 93.96926000 -34.20202000
vn 0.00000000 89.51633000 -44.57384000
vn 0.00000000 86.60254000 -50.00000000
vn 0.00000000 79.80172000 -60.26346000
vn 0.00000000 76.60445000 -64.27876000
vn 0.00000000 67.36957000 -73.90089000
vn 0.00000000 64.27876000 -76.60445000
vn 0.00000000 52.64322000 -85.02171000
vn 0.00000000 50.00000000 -86.60254000
vn 0.00000000 36.12417000 -93.24722000
vn 0.00000000 34.20202000 -93.96926000
vn 0.00000000 18.37495000 -98.29731000
vn 0.00000000 17.36482000 -98.48077000
vn 0.00000000 0.00000000 -100.00000000
vn 0.00000000 0.00000000 -100.00000000
vn 0.00000000 0.00000000 -100.00000000
vn 0.00000000 18.37495000 -98.29731000
vn 0.00000000 0.00000000 -100.00000000
vn 0.00000000 18.37495000 -98.29731000
vn 0.00000000 36.12417000 -93.24722000
vn 0.00000000 36.12417000 -93.24722000
vn 0.00000000 52.64322000 -85.02171000
vn 0.00000000 52.64322000 -85.02171000
vn 0.00000000 67.36957000 -73.90089000
vn 0.00000000 67.36957000 -73.90089000
vn 0.00000000 79.80172000 -60.26346000
vn 0.00000000 79.80172000 -60.26346000
vn 0.00000000 89.51633000 -44.57384000
vn 0.00000000 89.51633000 -44.57384000
vn 0.00000000 96.18256000 -27.36630000
vn 0.00000000 96.18256000 -27.36630000
vn 0.00000000 99.57342000 -9.22684000
vn 0.00000000 99.57342000 -9.22684000
vn 0.00000000 99.57342000 9.22684000
vn 0.00000000 99.57342000 9.22684000
vn 0.00000000 96.18256000 27.36630000
vn 0.00000000 96.18256000 27.36630000
vn 0.00000000 89.51633000 44.57384000
vn 0.00000000 89.51633000 44.57384000
vn 0.00000000 79.80172000 60.26346000
vn 0.00000000 79.80172000 60.26346000
vn 0.00000000 67.36957000 73.90089000
vn 0.00000000 67.36957000 73.90089000
vn 0.00000000 52.64322000 85.02171000
vn 0.00000000 52.64322000 85.02171000
vn 0.00000000 36.12417000 93.24722000
vn 0.00000000 36.12417000 93.24722000
vn 0.00000000 18.37495000 98.29731000
vn 0.00000000 18.37495000 98.29731000
vn 0.00000000 0.00000000 100.00000000
vn 0.00000000 0.00000000 100.00000000
vn 0.00000000 0.00000000 -100.00000000
vn 0.00000000 0.00000000 -100.00000000
vn 0.00000000 18.37495000 -98.29731000
vn 0.00000000 18.37495000 -98.29731000
vn 0.00000000 36.12417000 -93.24722000
vn 0.00000000 36.12417000 -93.24722000
vn 0.00000000 52.64322000 -85.02171000
vn 0.00000000 52.64322000 -85.02171000
vn 0.00000000 67.36957000 -73.90089000
vn 0.00000000 67.36957000 -73.90089000
vn 0.00000000 79.80172000 -60.26346000
vn 0.00000000 79.80172000 -60.26346000
vn 0.00000000 89.51633000 -44.57384000
vn 0.00000000 89.51633000 -44.57384000
vn 0.00000000 96.18256000 -27.36630000
vn 0.00000000 96.18256000 -27.36630000
vn 0.00000000 99.57342000 -9.22684000
vn 0.00000000 99.57342000 -9.22684000
vn 0.00000000 99.57342000 9.22684000
vn 0.00000000 99.57342000 9.22684000
vn 0.00000000 96.18256000 27.36630000
vn 0.00000000 96.18256000 27.36630000
vn 0.00000000 89.51633000 44.57384000
vn 0.00000000 89.51633000 44.57384000
vn 0.00000000 79.80172000 60.26346000
vn 0.00000000 79.80172000 60.26346000
vn 0.00000000 67.36957000 73.90089000
vn 0.00000000 67.36957000 73.90089000
vn 0.00000000 52.64322000 85.02171000
vn 0.00000000 52.64322000 85.02171000
vn 0.00000000 36.12417000 93.24722000
vn 0.00000000 36.12417000 93.24722000
vn 0.00000000 18.37495000 98.29731000
vn 0.00000000 18.37495000 98.29731000
vn 0.00000000 0.00000000 100.00000000
vn 0.00000000 0.00000000 100.00000000
vn 0.00000000 0.00000000 100.00000000
vn 0.00000000 0.00000000 100.00000000
vn 0.00000000 -18.37495000 98.29731000
vn 0.00000000 -18.37495000 98.29731000
vn 0.00000000 -36.12417000 93.24722000
vn 0.00000000 -36.12417000 93.24722000
vn 0.00000000 -52.64322000 85.02171000
vn 0.00000000 -52.64322000 85.02171000
vn 0.00000000 -67.36957000 73.90089000
vn 0.00000000 -67.36957000 73.90089000
vn 0.00000000 -79.80172000 60.26346000
vn 0.00000000 -79.80172000 60.26346000
vn 0.00000000 -89.51633000 44.57384000
vn 0.00000000 -89.51633000 44.57384000
vn 0.00000000 -96.18256000 27.36630000
vn 0.00000000 -96.18256000 27.36630000
vn 0.00000000 -99.57342000 9.22684000
vn 0.00000000 -99.57342000 9.22684000
vn 0.00000000 -99.57342000 -9.22684000
vn 0.00000000 -99.57342000 -9.22684000
vn 0.00000000 -96.18256000 -27.36630000
vn 0.00000000 -96.18256000 -27.36630000
vn 0.00000000 -89.51633000 -44.57384000
vn 0.00000000 -89.51633000 -44.57384000
vn 0.00000000 -79.80172000 -60.26346000
vn 0.00000000 -79.80172000 -60.26346000
vn 0.00000000 -67.36957000 -73.90089000
vn 0.00000000 -67.36957000 -73.90089000
vn 0.00000000 -52.64322000 -85.02171000
vn 0.00000000 -52.64322000 -85.02171000
vn 0.00000000 -36.12417000 -93.24722000
vn 0.00000000 -36.12417000 -93.24722000
vn 0.00000000 -18.37495000 -98.29731000
vn 0.00000000 -18.37495000 -98.29731000
vn 100.00000000 0.00000000 0.00000000
vn 100.00000000 0.00000000 0.00000000
vn 100.00000000 0.00000000 0.00000000
vn 100.00000000 0.00000000 0.00000000
vn 100.00000000 0.00000000 0.00000000
vn 100.00000000 0.00000000 0.00000000
vn 100.00000000 0.00000000 0.00000000
vn 100.00000000 0.00000000 0.00000000
vn 100.00000000 0.00000000 0.00000000
vn 100.00000000 0.00000000 0.00000000
vn 100.00000000 0.00000000 0.00000000
vn 100.00000000 0.00000000 0.00000000
vn 100.00000000 0.00000000 0.00000000
vn 100.00000000 0.00000000 0.00000000
vn 100.00000000 0.00000000 0.00000000
vn 100.00000000 0.00000000 0.00000000
vn 100.00000000 0.00000000 0.00000000
vn 100.00000000 0.00000000 0.00000000
vn 100.00000000 0.00000000 0.00000000
vn 100.00000000 0.00000000 0.00000000
vn 100.00000000 0.00000000 0.00000000
vn 100.00000000 0.00000000 0.00000000
vn 100.00000000 0.00000000 0.00000000
vn 100.00000000 0.00000000 0.00000000
vn 100.00000000 0.00000000 0.00000000
vn 100.00000000 0.00000000 0.00000000
vn 100.00000000 0.00000000 0.00000000
vn 100.00000000 0.00000000 0.00000000
vn 100.00000000 0.00000000 0.00000000
vn 100.00000000 0.00000000 0.00000000
vn 100.00000000 0.00000000 0.00000000
vn 100.00000000 0.00000000 0.00000000
vn 100.00000000 0.00000000 0.00000000
vn 100.00000000 0.00000000 0.00000000
vn 0.00000000 0.00000000 100.00000000
vn 0.00000000 0.00000000 100.00000000
vn 0.00000000 -18.37495000 98.29731000
vn 0.00000000 -18.37495000 98.29731000
vn 0.00000000 -36.12417000 93.24722000
vn 0.00000000 -36.12417000 93.24722000
vn 0.00000000 -52.64322000 85.02171000
vn 0.00000000 -52.64322000 85.02171000
vn 0.00000000 -67.36957000 73.90089000
vn 0.00000000 -67.36957000 73.90089000
vn 0.00000000 -79.80172000 60.26346000
vn 0.00000000 -79.80172000 60.26346000
vn 0.00000000 -89.51633000 44.57384000
vn 0.00000000 -89.51633000 44.57384000
vn 0.00000000 -96.18256000 27.36630000
vn 0.00000000 -96.18256000 27.36630000
vn 0.00000000 -99.57342000 9.22684000
vn 0.00000000 -99.57342000 9.22684000
vn 0.00000000 -99.57342000 -9.22684000
vn 0.00000000 -99.57342000 -9.22684000
vn 0.00000000 -96.18256000 -27.36630000
vn 0.00000000 -96.18256000 -27.36630000
vn 0.00000000 -89.51633000 -44.57384000
vn 0.00000000 -89.51633000 -44.57384000
vn 0.00000000 -79.80172000 -60.26346000
vn 0.00000000 -79.80172000 -60.26346000
vn 0.00000000 -67.36957000 -73.90089000
vn 0.00000000 -67.36957000 -73.90089000
vn 0.00000000 -52.64322000 -85.02171000
vn 0.00000000 -52.64322000 -85.02171000
vn 0.00000000 -36.12417000 -93.24722000
vn 0.00000000 -36.12417000 -93.24722000
vn 0.00000000 -18.37495000 -98.29731000
vn 0.00000000 -18.37495000 -98.29731000
vn 100.00000000 0.00000000 0.00000000
vn 100.00000000 0.00000000 0.00000000
vn 100.00000000 0.00000000 0.00000000
vn 100.00000000 0.00000000 0.00000000
vn 100.00000000 0.00000000 0.00000000
vn 100.00000000 0.00000000 0.00000000
vn 100.00000000 0.00000000 0.00000000
vn 100.00000000 0.00000000 0.00000000
vn 100.00000000 0.00000000 0.00000000
vn 100.00000000 0.00000000 0.00000000
vn 100.00000000 0.00000000 0.00000000
vn 100.00000000 0.00000000 0.00000000
vn 100.00000000 0.00000000 0.00000000
vn 100.00000000 0.00000000 0.00000000
vn 100.00000000 0.00000000 0.00000000
vn 100.00000000 0.00000000 0.00000000
vn 100.00000000 0.00000000 0.00000000
vn 100.00000000 0.00000000 0.00000000
vn 100.00000000 0.00000000 0.00000000
vn 100.00000000 0.00000000 0.00000000
vn 100.00000000 0.00000000 0.00000000
vn 100.00000000 0.00000000 0.00000000
vn 100.00000000 0.00000000 0.00000000
vn 100.00000000 0.00000000 0.00000000
vn 100.00000000 0.00000000 0.00000000
vn 100.00000000 0.00000000 0.00000000
vn 100.00000000 0.00000000 0.00000000
vn 100.00000000 0.00000000 0.00000000
vn 100.00000000 0.00000000 0.00000000
vn 100.00000000 0.00000000 0.00000000
vn 100.00000000 0.00000000 0.00000000
vn 100.00000000 0.00000000 0.00000000
vn 100.00000000 0.00000000 0.00000000
vn 100.00000000 0.00000000 0.00000000
vn 100.00000000 0.00000000 0.00000000
vn 100.00000000 0.00000000 0.00000000
vn 100.00000000 0.00000000 0.00000000
vn 100.00000000 0.00000000 0.00000000
vn 100.00000000 0.00000000 0.00000000
vn 100.00000000 0.00000000 0.00000000
vn 100.00000000 0.00000000 0.00000000
vn 100.00000000 0.00000000 0.00000000
vn 100.00000000 0.00000000 0.00000000
vn 100.00000000 0.00000000 0.00000000
vn 100.00000000 0.00000000 0.00000000
vn 100.00000000 0.00000000 0.00000000
vn 100.00000000 0.00000000 0.00000000
vn 100.00000000 0.00000000 0.00000000
vn 100.00000000 0.00000000 0.00000000
vn 100.00000000 0.00000000 0.00000000
vn 100.00000000 0.00000000 0.00000000
vn 100.00000000 0.00000000 0.00000000
vn 100.00000000 0.00000000 0.00000000
vn 100.00000000 0.00000000 0.00000000
vn 100.00000000 0.00000000 0.00000000
vn 100.00000000 0.00000000 0.00000000
vn 100.00000000 0.00000000 0.00000000
vn 100.00000000 0.00000000 0.00000000
vn 100.00000000 0.00000000 0.00000000
vn 100.00000000 0.00000000 0.00000000
vn 100.00000000 0.00000000 0.00000000
vn 100.00000000 0.00000000 0.00000000
vn 100.00000000 0.00000000 0.00000000
vn 100.00000000 0.00000000 0.00000000
vn 100.00000000 0.00000000 0.00000000
vn 100.00000000 0.00000000 0.00000000
vn 100.00000000 0.00000000 0.00000000
vn 100.00000000 0.00000000 0.00000000
vn 0.00000000 0.00000000 -100.00000000
vn 0.00000000 -17.36482000 -98.48077000
vn 0.00000000 0.00000000 -100.00000000
vn 0.00000000 -18.37495000 -98.29731000
vn 0.00000000 -34.20202000 -93.96926000
vn 0.00000000 -36.12417000 -93.24722000
vn 0.00000000 -50.00000000 -86.60254000
vn 0.00000000 -52.64322000 -85.02171000
vn 0.00000000 -64.27876000 -76.60445000
vn 0.00000000 -67.36957000 -73.90089000
vn 0.00000000 -76.60445000 -64.27876000
vn 0.00000000 -79.80172000 -60.26346000
vn 0.00000000 -86.60254000 -50.00000000
vn 0.00000000 -89.51633000 -44.57384000
vn 0.00000000 -93.96926000 -34.20202000
vn 0.00000000 -96.18256000 -27.36630000
vn 0.00000000 -98.48077000 -17.36482000
vn 0.00000000 -99.57342000 -9.22684000
vn 0.00000000 -100.00000000 0.00000000
vn 0.00000000 -99.57342000 9.22684000
vn 0.00000000 -98.48077000 17.36482000
vn 0.00000000 -96.18256000 27.36630000
vn 0.00000000 -93.96926000 34.20202000
vn 0.00000000 -89.51633000 44.57384000
vn 0.00000000 -86.60254000 50.00000000
vn 0.00000000 -79.80172000 60.26346000
vn 0.00000000 -76.60445000 64.27876000
vn 0.00000000 -67.36957000 73.90089000
vn 0.00000000 -64.27876000 76.60445000
vn 0.00000000 -52.64322000 85.02171000
vn 0.00000000 -50.00000000 86.60254000
vn 0.00000000 -36.12417000 93.24722000
vn 0.00000000 -34.20202000 93.96926000
vn 0.00000000 -18.37495000 98.29731000
vn 0.00000000 -17.36482000 98.48077000
vn -100.00000000 0.00000000 0.00000000
vn -100.00000000 0.00000000 0.00000000
vn -100.00000000 0.00000000 0.00000000
vn -100.00000000 0.00000000 0.00000000
vn -100.00000000 0.00000000 0.00000000
vn -100.00000000 0.00000000 0.00000000
vn -100.00000000 0.00000000 0.00000000
vn -100.00000000 0.00000000 0.00000000
vn -100.00000000 0.00000000 0.00000000
vn -100.00000000 0.00000000 0.00000000
vn -100.00000000 0.00000000 0.00000000
vn -100.00000000 0.00000000 0.00000000
vn -100.00000000 0.00000000 0.00000000
vn -100.00000000 0.00000000 0.00000000
vn -100.00000000 0.00000000 0.00000000
vn -100.00000000 0.00000000 0.00000000
vn -100.00000000 0.00000000 0.00000000
vn -100.00000000 0.00000000 0.00000000
vn -100.00000000 0.00000000 0.00000000
vn -100.00000000 0.00000000 0.00000000
vn -100.00000000 0.00000000 0.00000000
vn -100.00000000 0.00000000 0.00000000
vn -100.00000000 0.00000000 0.00000000
vn -100.00000000 0.00000000 0.00000000
vn -100.00000000 0.00000000 0.00000000
vn -100.00000000 0.00000000 0.00000000
vn -100.00000000 0.00000000 0.00000000
vn -100.00000000 0.00000000 0.00000000
vn -100.00000000 0.00000000 0.00000000
vn -100.00000000 0.00000000 0.00000000
vn -100.00000000 0.00000000 0.00000000
vn -100.00000000 0.00000000 0.00000000
vn 0.00000000 0.00000000 100.00000000
vn -30.90170000 0.00000000 95.10565000
vn 0.00000000 -18.37495000 98.29731000
vn -34.20202000 -17.26681000 92.36926000
vn 0.00000000 -36.12417000 93.24722000
vn -34.20202000 -33.94561000 87.62373000
vn 0.00000000 -52.64322000 85.02171000
vn -34.20202000 -49.46844000 79.89428000
vn 0.00000000 -67.36957000 73.90089000
vn -34.20202000 -63.30668000 69.44412000
vn 0.00000000 -79.80172000 60.26346000
vn -34.20202000 -74.98909000 56.62913000
vn 0.00000000 -89.51633000 44.57384000
vn -34.20202000 -84.11784000 41.88570000
vn 0.00000000 -96.18256000 27.36630000
vn -34.20202000 -90.38205000 25.71591000
vn 0.00000000 -99.57342000 9.22684000
vn -34.20202000 -93.56840000 8.67039000
vn 0.00000000 -99.57342000 -9.22684000
vn -34.20202000 -93.56840000 -8.67039000
vn 0.00000000 -96.18256000 -27.36630000
vn -34.20202000 -90.38205000 -25.71591000
vn 0.00000000 -89.51633000 -44.57384000
vn -34.20202000 -84.11784000 -41.88570000
vn 0.00000000 -79.80172000 -60.26346000
vn -34.20202000 -74.98909000 -56.62913000
vn 0.00000000 -67.36957000 -73.90089000
vn -34.20202000 -63.30668000 -69.44412000
vn 0.00000000 -52.64322000 -85.02171000
vn -34.20202000 -49.46844000 -79.89428000
vn 0.00000000 -36.12417000 -93.24722000
vn -34.20202000 -33.94561000 -87.62373000
vn 0.00000000 -18.37495000 -98.29731000
vn -34.20202000 -17.26681000 -92.36926000
vn -64.27876000 -14.07603000 -75.30011000
vn -86.60254000 -9.18748000 -49.14866000
vn -98.48077000 -3.19078000 -17.06915000
vn -100.00000000 0.00000000 0.00000000
vn -98.48077000 -6.27290000 -16.19221000
vn -100.00000000 0.00000000 0.00000000
vn -98.48077000 -9.14140000 -14.76386000
vn -100.00000000 0.00000000 0.00000000
vn -98.48077000 -11.69860000 -12.83276000
vn -100.00000000 0.00000000 0.00000000
vn -98.48077000 -13.85742000 -10.46464000
vn -100.00000000 0.00000000 0.00000000
vn -98.48077000 -15.54435000 -7.74016000
vn -100.00000000 0.00000000 0.00000000
vn -98.48077000 -16.70193000 -4.75211000
vn -100.00000000 0.00000000 0.00000000
vn -98.48077000 -17.29074000 -1.60222000
vn -100.00000000 0.00000000 0.00000000
vn -98.48077000 -17.29074000 1.60222000
vn -100.00000000 0.00000000 0.00000000
vn -98.48077000 -16.70193000 4.75211000
vn -100.00000000 0.00000000 0.00000000
vn -98.48077000 -15.54435000 7.74016000
vn -100.00000000 0.00000000 0.00000000
vn -98.48077000 -13.85742000 10.46464000
vn -100.00000000 0.00000000 0.00000000
vn -98.48077000 -11.69860000 12.83276000
vn -100.00000000 0.00000000 0.00000000
vn -98.48077000 -9.14140000 14.76386000
vn -100.00000000 0.00000000 0.00000000
vn -98.48077000 -6.27290000 16.19221000
vn -100.00000000 0.00000000 0.00000000
vn -98.48077000 -3.19078000 17.06915000
vn -100.00000000 0.00000000 0.00000000
vn -95.10565000 0.00000000 30.90170000
vn -86.60254000 -9.18748000 49.14866000
vn -80.90170000 0.00000000 58.77853000
vn -64.27876000 -14.07603000 75.30011000
vn -58.77853000 0.00000000 80.90170000
vn -86.60254000 -18.06208000 46.62361000
vn -86.60254000 -26.32161000 42.51086000
vn -86.60254000 -33.68478000 36.95045000
vn -86.60254000 -39.90086000 30.13173000
vn -86.60254000 -44.75816000 22.28692000
vn -86.60254000 -48.09128000 13.68315000
vn -86.60254000 -49.78671000 4.61342000
vn -86.60254000 -49.78671000 -4.61342000
vn -86.60254000 -48.09128000 -13.68315000
vn -86.60254000 -44.75816000 -22.28692000
vn -86.60254000 -39.90086000 -30.13173000
vn -86.60254000 -33.68478000 -36.95045000
vn -86.60254000 -26.32161000 -42.51086000
vn -86.60254000 -18.06208000 -46.62361000
vn -64.27876000 -27.67272000 71.43152000
vn -64.27876000 -40.32704000 65.13041000
vn -64.27876000 -51.60808000 56.61137000
vn -64.27876000 -61.13167000 46.16449000
vn -64.27876000 -68.57349000 34.14554000
vn -64.27876000 -73.68012000 20.96380000
vn -64.27876000 -76.27766000 7.06817000
vn -64.27876000 -76.27766000 -7.06817000
vn -64.27876000 -73.68012000 -20.96380000
vn -64.27876000 -68.57349000 -34.14554000
vn -64.27876000 -61.13167000 -46.16449000
vn -64.27876000 -51.60808000 -56.61137000
vn -64.27876000 -40.32704000 -65.13041000
vn -64.27876000 -27.67272000 -71.43152000
vt 0.62832000 0.00000000
vt 0.78540000 0.00000000
vt 0.69813000 0.68072000
vt 0.78540000 0.72326000
vt 0.69813000 1.36144000
vt 0.78540000 1.44653000
vt 0.69813000 2.04216000
vt 0.78540000 2.16979000
vt 0.69813000 2.72288000
vt 0.78540000 2.89306000
vt 0.69813000 3.40360000
vt 0.78540000 3.61632000
vt 0.69813000 4.08431000
vt 0.78540000 4.33958000
vt 0.69813000 4.76503000
vt 0.78540000 5.06285000
vt 0.69813000 5.44575000
vt 0.78540000 5.78611000
vt 0.69813000 6.12647000
vt 0.78540000 6.50938000
vt 0.69813000 6.80719000
vt 0.78540000 7.23264000
vt 0.69813000 7.48791000
vt 0.78540000 7.95590000
vt 0.69813000 8.16863000
vt 0.78540000 8.67917000
vt 0.69813000 8.84935000
vt 0.78540000 9.40243000
vt 0.69813000 9.53007000
vt 0.78540000 10.12570000
vt 0.69813000 10.21079000
vt 0.78540000 10.84896000
vt 0.69813000 10.89150000
vt 0.78540000 11.57222000
vt 0.62832000 11.57222000
vt 0.52360000 10.89150000
vt 0.47124000 11.57222000
vt 0.34907000 10.89150000
vt 0.31416000 11.57222000
vt 0.17453000 10.89150000
vt 0.15708000 11.57222000
vt -0.00000000 10.89150000
vt -0.00000000 11.57222000
vt 0.17453000 10.21079000
vt -0.00000000 10.21079000
vt 0.17453000 9.53007000
vt -0.00000000 9.53007000
vt 0.17453000 8.84935000
vt -0.00000000 8.84935000
vt 0.17453000 8.16863000
vt -0.00000000 8.16863000
vt 0.17453000 7.48791000
vt -0.00000000 7.48791000
vt 0.17453000 6.80719000
vt -0.00000000 6.80719000
vt 0.17453000 6.12647000
vt -0.00000000 6.12647000
vt 0.17453000 5.44575000
vt -0.00000000 5.44575000
vt 0.17453000 4.76503000
vt -0.00000000 4.76503000
vt 0.17453000 4.08431000
vt -0.00000000 4.08431000
vt 0.17453000 3.40360000
vt -0.00000000 3.40360000
vt 0.17453000 2.72288000
vt -0.00000000 2.72288000
vt 0.17453000 2.04216000
vt -0.00000000 2.04216000
vt 0.17453000 1.36144000
vt -0.00000000 1.36144000
vt 0.17453000 0.68072000
vt -0.00000000 0.68072000
vt 0.15708000 0.00000000
vt 0.00000000 0.00000000
vt 0.31416000 0.00000000
vt 0.34907000 0.68072000
vt 0.34907000 1.36144000
vt 0.34907000 2.04216000
vt 0.34907000 2.72288000
vt 0.34907000 3.40360000
vt 0.34907000 4.08431000
vt 0.34907000 4.76503000
vt 0.34907000 5.44575000
vt 0.34907000 6.12647000
vt 0.34907000 6.80719000
vt 0.34907000 7.48791000
vt 0.34907000 8.16863000
vt 0.34907000 8.84935000
vt 0.34907000 9.53007000
vt 0.34907000 10.21079000
vt 0.47124000 0.00000000
vt 0.52360000 0.68072000
vt 0.52360000 1.36144000
vt 0.52360000 2.04216000
vt 0.52360000 2.72288000
vt 0.52360000 3.40360000
vt 0.52360000 4.08431000
vt 0.52360000 4.76503000
vt 0.52360000 5.44575000
vt 0.52360000 6.12647000
vt 0.52360000 6.80719000
vt 0.52360000 7.48791000
vt 0.52360000 8.16863000
vt 0.52360000 8.84935000
vt 0.52360000 9.53007000
vt 0.52360000 10.21079000
vt -12.80178000 0.00000000
vt -12.78618000 0.66846000
vt -13.86372000 0.00000000
vt -13.86372000 0.70778000
vt -12.73988000 1.33692000
vt -13.86372000 1.41556000
vt -12.66428000 2.00538000
vt -13.86372000 2.12335000
vt -12.56168000 2.67384000
vt -13.86372000 2.83113000
vt -12.43519000 3.34230000
vt -13.86372000 3.53891000
vt -12.28865000 4.01077000
vt -13.86372000 4.24669000
vt -12.12653000 4.67923000
vt -13.86372000 4.95448000
vt -11.95374000 5.34769000
vt -13.86372000 5.66226000
vt -11.77553000 6.01615000
vt -13.86372000 6.37004000
vt -11.59732000 6.68461000
vt -13.86372000 7.07782000
vt -11.42453000 7.35307000
vt -13.86372000 7.78561000
vt -11.26241000 8.02153000
vt -13.86372000 8.49339000
vt -11.11587000 8.69000000
vt -13.86372000 9.20117000
vt -10.98938000 9.35846000
vt -13.86372000 9.90895000
vt -10.88678000 10.02692000
vt -13.86372000 10.61674000
vt -10.81118000 10.69538000
vt -13.86372000 11.32452000
vt -10.76488000 11.36384000
vt -13.86372000 12.03230000
vt -10.74928000 12.03230000
vt 0.00000000 0.00000000
vt 0.00000000 0.65604000
vt -0.62000000 0.00000000
vt -0.62000000 0.65604000
vt 0.00000000 1.31208000
vt -0.62000000 1.31208000
vt 0.00000000 1.96812000
vt -0.62000000 1.96812000
vt 0.00000000 2.62415000
vt -0.62000000 2.62415000
vt 0.00000000 3.28019000
vt -0.62000000 3.28019000
vt 0.00000000 3.93623000
vt -0.62000000 3.93623000
vt 0.00000000 4.59227000
vt -0.62000000 4.59227000
vt 0.00000000 5.24831000
vt -0.62000000 5.24831000
vt 0.00000000 5.90435000
vt -0.62000000 5.90435000
vt 0.00000000 6.56038000
vt -0.62000000 6.56038000
vt 0.00000000 7.21642000
vt -0.62000000 7.21642000
vt 0.00000000 7.87246000
vt -0.62000000 7.87246000
vt 0.00000000 8.52850000
vt -0.62000000 8.52850000
vt 0.00000000 9.18454000
vt -0.62000000 9.18454000
vt 0.00000000 9.84058000
vt -0.62000000 9.84058000
vt 0.00000000 10.49662000
vt -0.62000000 10.49662000
vt -0.62000000 11.15265000
vt 0.00000000 11.15265000
vt -0.50000000 0.00000000
vt 0.00000000 0.00000000
vt -0.50000000 0.70778000
vt -0.00000000 0.70778000
vt -0.50000000 1.41556000
vt -0.00000000 1.41556000
vt -0.50000000 2.12335000
vt -0.00000000 2.12335000
vt -0.50000000 2.83113000
vt -0.00000000 2.83113000
vt -0.50000000 3.53891000
vt -0.00000000 3.53891000
vt -0.50000000 4.24669000
vt -0.00000000 4.24669000
vt -0.50000000 4.95448000
vt -0.00000000 4.95448000
vt -0.50000000 5.66226000
vt -0.00000000 5.66226000
vt -0.50000000 6.37004000
vt -0.00000000 6.37004000
vt -0.50000000 7.07782000
vt -0.00000000 7.07782000
vt -0.50000000 7.78561000
vt -0.00000000 7.78561000
vt -0.50000000 8.49339000
vt -0.00000000 8.49339000
vt -0.50000000 9.20117000
vt -0.00000000 9.20117000
vt -0.50000000 9.90895000
vt -0.00000000 9.90895000
vt -0.50000000 10.61674000
vt -0.00000000 10.61674000
vt -0.50000000 11.32452000
vt -0.00000000 11.32452000
vt -0.50000000 12.03230000
vt -0.00000000 12.03230000
vt -0.50000000 -12.03230000
vt -0.00000000 -12.03230000
vt -0.50000000 -11.32452000
vt -0.00000000 -11.32452000
vt -0.50000000 -10.61674000
vt -0.00000000 -10.61674000
vt -0.50000000 -9.90895000
vt -0.00000000 -9.90895000
vt -0.50000000 -9.20117000
vt -0.00000000 -9.20117000
vt -0.50000000 -8.49339000
vt -0.00000000 -8.49339000
vt -0.50000000 -7.78561000
vt -0.00000000 -7.78561000
vt -0.50000000 -7.07782000
vt -0.00000000 -7.07782000
vt -0.50000000 -6.37004000
vt -0.00000000 -6.37004000
vt -0.50000000 -5.66226000
vt -0.00000000 -5.66226000
vt -0.50000000 -4.95448000
vt -0.00000000 -4.95448000
vt -0.50000000 -4.24669000
vt -0.00000000 -4.24669000
vt -0.50000000 -3.53891000
vt -0.00000000 -3.53891000
vt -0.50000000 -2.83113000
vt -0.00000000 -2.83113000
vt -0.50000000 -2.12335000
vt -0.00000000 -2.12335000
vt -0.50000000 -1.41556000
vt -0.00000000 -1.41556000
vt -0.50000000 -0.70778000
vt -0.00000000 -0.70778000
vt 0.00000000 -3.55000000
vt 0.65231000 -3.48955000
vt -0.65231000 -3.48955000
vt -1.28241000 -3.31028000
vt 1.28241000 -3.31028000
vt -1.86883000 -3.01827000
vt 1.86883000 -3.01827000
vt -2.39162000 -2.62348000
vt 2.39162000 -2.62348000
vt -2.83296000 -2.13935000
vt -3.17783000 -1.58237000
vt -3.41448000 -0.97150000
vt -3.53486000 -0.32755000
vt -3.53486000 0.32755000
vt -3.41448000 0.97150000
vt -3.17783000 1.58237000
vt -2.83296000 2.13935000
vt -2.39162000 2.62348000
vt -1.86883000 3.01827000
vt 2.83296000 -2.13935000
vt -1.28241000 3.31028000
vt -0.65231000 3.48955000
vt 0.00000000 3.55000000
vt 0.65231000 3.48955000
vt 1.28241000 3.31028000
vt 1.86883000 3.01827000
vt 2.39162000 2.62348000
vt 2.83296000 2.13935000
vt 3.17783000 -1.58237000
vt 3.17783000 1.58237000
vt 3.41448000 -0.97150000
vt 3.41448000 0.97150000
vt 3.53486000 -0.32755000
vt 3.53486000 0.32755000
vt -0.62000000 -11.15265000
vt 0.00000000 -11.15265000
vt -0.62000000 -10.49662000
vt 0.00000000 -10.49662000
vt 0.00000000 -9.84058000
vt -0.62000000 -9.84058000
vt 0.00000000 -9.18454000
vt -0.62000000 -9.18454000
vt 0.00000000 -8.52850000
vt -0.62000000 -8.52850000
vt 0.00000000 -7.87246000
vt -0.62000000 -7.87246000
vt 0.00000000 -7.21642000
vt -0.62000000 -7.21642000
vt 0.00000000 -6.56038000
vt -0.62000000 -6.56038000
vt 0.00000000 -5.90435000
vt -0.62000000 -5.90435000
vt 0.00000000 -5.24831000
vt -0.62000000 -5.24831000
vt 0.00000000 -4.59227000
vt -0.62000000 -4.59227000
vt 0.00000000 -3.93623000
vt -0.62000000 -3.93623000
vt 0.00000000 -3.28019000
vt -0.62000000 -3.28019000
vt 0.00000000 -2.62415000
vt -0.62000000 -2.62415000
vt 0.00000000 -1.96812000
vt -0.62000000 -1.96812000
vt 0.00000000 -1.31208000
vt -0.62000000 -1.31208000
vt 0.00000000 -0.65604000
vt -0.62000000 -0.65604000
vt 0.70376000 -4.23979000
vt 0.65231000 -3.96456000
vt 0.00000000 -4.30500000
vt 0.00000000 -4.02500000
vt -0.65231000 -3.96456000
vt 1.28241000 -3.78528000
vt 1.38356000 -4.04637000
vt 1.86883000 -3.49327000
vt 2.01624000 -3.73133000
vt 2.39162000 -3.09848000
vt 2.58025000 -3.30540000
vt 2.83296000 -2.61435000
vt 3.05641000 -2.78309000
vt 3.17783000 -2.05737000
vt 3.42848000 -2.18218000
vt 3.41448000 -1.44650000
vt 3.68379000 -1.52313000
vt 3.53486000 -0.80255000
vt 3.81366000 -0.82839000
vt 3.53486000 -0.14745000
vt 3.81366000 -0.12161000
vt 3.68379000 0.57313000
vt 3.41448000 0.49650000
vt 3.42848000 1.23218000
vt 3.17783000 1.10737000
vt 3.05641000 1.83309000
vt 2.83296000 1.66435000
vt 2.58025000 2.35540000
vt 2.39162000 2.14848000
vt 2.01624000 2.78133000
vt 1.86883000 2.54327000
vt 1.38356000 3.09637000
vt 1.28241000 2.83528000
vt 0.70376000 3.28979000
vt 0.65231000 3.01456000
vt 0.00000000 3.35500000
vt 0.00000000 3.07500000
vt -0.65231000 3.01456000
vt -0.70376000 3.28979000
vt -1.28241000 2.83528000
vt -1.38356000 3.09637000
vt -1.86883000 2.54327000
vt -2.01624000 2.78133000
vt -2.39162000 2.14848000
vt -2.58025000 2.35540000
vt -2.83296000 1.66435000
vt -3.05641000 1.83309000
vt -3.17783000 1.10737000
vt -3.42848000 1.23218000
vt -3.41448000 0.49650000
vt -3.68379000 0.57313000
vt -3.53486000 -0.14745000
vt -3.81366000 -0.12161000
vt -3.81366000 -0.82839000
vt -3.53486000 -0.80255000
vt -3.68379000 -1.52313000
vt -3.41448000 -1.44650000
vt -3.42848000 -2.18218000
vt -3.17783000 -2.05737000
vt -3.05641000 -2.78309000
vt -2.83296000 -2.61435000
vt -2.58025000 -3.30540000
vt -2.39162000 -3.09848000
vt -2.01624000 -3.73133000
vt -1.86883000 -3.49327000
vt -1.38356000 -4.04637000
vt -1.28241000 -3.78528000
vt -0.70376000 -4.23979000
vt -10.74928000 -12.03230000
vt -10.76488000 -11.36384000
vt -13.86372000 -12.03230000
vt -13.86372000 -11.32452000
vt -10.81118000 -10.69538000
vt -13.86372000 -10.61674000
vt -10.88678000 -10.02692000
vt -13.86372000 -9.90895000
vt -10.98938000 -9.35846000
vt -13.86372000 -9.20117000
vt -11.11587000 -8.69000000
vt -13.86372000 -8.49339000
vt -11.26241000 -8.02153000
vt -13.86372000 -7.78561000
vt -11.42453000 -7.35307000
vt -13.86372000 -7.07782000
vt -11.59732000 -6.68461000
vt -13.86372000 -6.37004000
vt -11.77553000 -6.01615000
vt -13.86372000 -5.66226000
vt -11.95374000 -5.34769000
vt -13.86372000 -4.95448000
vt -12.12653000 -4.67923000
vt -13.86372000 -4.24669000
vt -12.28865000 -4.01077000
vt -13.86372000 -3.53891000
vt -12.43519000 -3.34230000
vt -13.86372000 -2.83113000
vt -12.56168000 -2.67384000
vt -13.86372000 -2.12335000
vt -12.66428000 -2.00538000
vt -13.86372000 -1.41556000
vt -12.73988000 -1.33692000
vt -13.86372000 -0.70778000
vt -12.78618000 -0.66846000
vt -0.00000000 -3.33000000
vt 0.64965000 -3.26602000
vt -0.64965000 -3.26602000
vt -1.27434000 -3.07652000
vt 1.27434000 -3.07652000
vt -1.85005000 -2.76879000
vt 1.85005000 -2.76879000
vt -2.35467000 -2.35467000
vt 2.35467000 -2.35467000
vt -2.76879000 -1.85005000
vt 2.76879000 -1.85005000
vt -3.07652000 -1.27434000
vt 3.07652000 -1.27434000
vt -3.26602000 -0.64965000
vt 3.26602000 -0.64965000
vt -3.33000000 -0.00000000
vt 3.33000000 -0.00000000
vt -3.26602000 0.64965000
vt 3.26602000 0.64965000
vt -3.07652000 1.27434000
vt 3.07652000 1.27434000
vt -2.76879000 1.85005000
vt 2.76879000 1.85005000
vt -2.35467000 2.35467000
vt 2.35467000 2.35467000
vt -1.85005000 2.76879000
vt 1.85005000 2.76879000
vt -1.27434000 3.07652000
vt 1.27434000 3.07652000
vt -0.64965000 3.26602000
vt 0.64965000 3.26602000
vt -0.00000000 3.33000000
vt -0.00000000 -11.57222000
vt 0.15708000 -11.57222000
vt -0.00000000 -10.89150000
vt 0.17453000 -10.89150000
vt -0.00000000 -10.21079000
vt 0.17453000 -10.21079000
vt -0.00000000 -9.53007000
vt 0.17453000 -9.53007000
vt -0.00000000 -8.84935000
vt 0.17453000 -8.84935000
vt -0.00000000 -8.16863000
vt 0.17453000 -8.16863000
vt -0.00000000 -7.48791000
vt 0.17453000 -7.48791000
vt -0.00000000 -6.80719000
vt 0.17453000 -6.80719000
vt -0.00000000 -6.12647000
vt 0.17453000 -6.12647000
vt -0.00000000 -5.44575000
vt 0.17453000 -5.44575000
vt -0.00000000 -4.76503000
vt 0.17453000 -4.76503000
vt -0.00000000 -4.08431000
vt 0.17453000 -4.08431000
vt -0.00000000 -3.40360000
vt 0.17453000 -3.40360000
vt -0.00000000 -2.72288000
vt 0.17453000 -2.72288000
vt -0.00000000 -2.04216000
vt 0.17453000 -2.04216000
vt -0.00000000 -1.36144000
vt 0.17453000 -1.36144000
vt -0.00000000 -0.68072000
vt 0.17453000 -0.68072000
vt 0.34907000 -0.68072000
vt 0.52360000 -0.68072000
vt 0.69813000 -0.68072000
vt 0.78540000 -0.72326000
vt 0.69813000 -1.36144000
vt 0.78540000 -1.44653000
vt 0.69813000 -2.04216000
vt 0.78540000 -2.16979000
vt 0.69813000 -2.72288000
vt 0.78540000 -2.89306000
vt 0.69813000 -3.40360000
vt 0.78540000 -3.61632000
vt 0.69813000 -4.08431000
vt 0.78540000 -4.33958000
vt 0.69813000 -4.76503000
vt 0.78540000 -5.06285000
vt 0.69813000 -5.44575000
vt 0.78540000 -5.78611000
vt 0.69813000 -6.12647000
vt 0.78540000 -6.50938000
vt 0.69813000 -6.80719000
vt 0.78540000 -7.23264000
vt 0.69813000 -7.48791000
vt 0.78540000 -7.95590000
vt 0.69813000 -8.16863000
vt 0.78540000 -8.67917000
vt 0.69813000 -8.84935000
vt 0.78540000 -9.40243000
vt 0.69813000 -9.53007000
vt 0.78540000 -10.12570000
vt 0.69813000 -10.21079000
vt 0.78540000 -10.84896000
vt 0.69813000 -10.89150000
vt 0.78540000 -11.57222000
vt 0.62832000 -11.57222000
vt 0.52360000 -10.89150000
vt 0.47124000 -11.57222000
vt 0.34907000 -10.89150000
vt 0.31416000 -11.57222000
vt 0.52360000 -10.21079000
vt 0.52360000 -9.53007000
vt 0.52360000 -8.84935000
vt 0.52360000 -8.16863000
vt 0.52360000 -7.48791000
vt 0.52360000 -6.80719000
vt 0.52360000 -6.12647000
vt 0.52360000 -5.44575000
vt 0.52360000 -4.76503000
vt 0.52360000 -4.08431000
vt 0.52360000 -3.40360000
vt 0.52360000 -2.72288000
vt 0.52360000 -2.04216000
vt 0.52360000 -1.36144000
vt 0.34907000 -10.21079000
vt 0.34907000 -9.53007000
vt 0.34907000 -8.84935000
vt 0.34907000 -8.16863000
vt 0.34907000 -7.48791000
vt 0.34907000 -6.80719000
vt 0.34907000 -6.12647000
vt 0.34907000 -5.44575000
vt 0.34907000 -4.76503000
vt 0.34907000 -4.08431000
vt 0.34907000 -3.40360000
vt 0.34907000 -2.72288000
vt 0.34907000 -2.04216000
vt 0.34907000 -1.36144000
f 1/1/1 2/2/2 3/3/3
f 3/3/3 2/2/2 4/4/4
f 3/3/3 4/4/4 5/5/5
f 5/5/5 4/4/4 6/6/6
f 5/5/5 6/6/6 7/7/7
f 7/7/7 6/6/6 8/8/8
f 7/7/7 8/8/8 9/9/9
f 9/9/9 8/8/8 10/10/10
f 9/9/9 10/10/10 11/11/11
f 11/11/11 10/10/10 12/12/12
f 11/11/11 12/12/12 13/13/13
f 13/13/13 12/12/12 14/14/14
f 13/13/13 14/14/14 15/15/15
f 15/15/15 14/14/14 16/16/16
f 15/15/15 16/16/16 17/17/17
f 17/17/17 16/16/16 18/18/18
f 17/17/17 18/18/18 19/19/19
f 19/19/19 18/18/18 20/20/20
f 19/19/19 20/20/20 21/21/21
f 21/21/21 20/20/20 22/22/22
f 21/21/21 22/22/22 23/23/23
f 23/23/23 22/22/22 24/24/24
f 23/23/23 24/24/24 25/25/25
f 25/25/25 24/24/24 26/26/26
f 25/25/25 26/26/26 27/27/27
f 27/27/27 26/26/26 28/28/28
f 27/27/27 28/28/28 29/29/29
f 29/29/29 28/28/28 30/30/30
f 29/29/29 30/30/30 31/31/31
f 31/31/31 30/30/30 32/32/32
f 31/31/31 32/32/32 33/33/33
f 33/33/33 32/32/32 34/34/34
f 33/33/33 34/34/34 35/35/35
f 33/33/33 35/35/35 36/36/36
f 36/36/36 35/35/35 37/37/37
f 36/36/36 37/37/37 38/38/38
f 38/38/38 37/37/37 39/39/39
f 38/38/38 39/39/39 40/40/40
f 40/40/40 39/39/39 41/41/41
f 40/40/40 41/41/41 42/42/42
f 42/42/42 41/41/41 43/43/43
f 40/40/40 42/42/42 44/44/44
f 44/44/44 42/42/42 45/45/45
f 44/44/44 45/45/45 46/46/46
f 46/46/46 45/45/45 47/47/47
f 46/46/46 47/47/47 48/48/48
f 48/48/48 47/47/47 49/49/49
f 48/48/48 49/49/49 50/50/50
f 50/50/50 49/49/49 51/51/51
f 50/50/50 51/51/51 52/52/52
f 52/52/52 51/51/51 53/53/53
f 52/52/52 53/53/53 54/54/54
f 54/54/54 53/53/53 55/55/55
f 54/54/54 55/55/55 56/56/56
f 56/56/56 55/55/55 57/57/57
f 56/56/56 57/57/57 58/58/58
f 58/58/58 57/57/57 59/59/59
f 58/58/58 59/59/59 60/60/60
f 60/60/60 59/59/59 61/61/61
f 60/60/60 61/61/61 62/62/62
f 62/62/62 61/61/61 63/63/63
f 62/62/62 63/63/63 64/64/64
f 64/64/64 63/63/63 65/65/65
f 64/64/64 65/65/65 66/66/66
f 66/66/66 65/65/65 67/67/67
f 66/66/66 67/67/67 68/68/68
f 68/68/68 67/67/67 69/69/69
f 68/68/68 69/69/69 70/70/70
f 70/70/70 69/69/69 71/71/71
f 70/70/70 71/71/71 72/72/72
f 72/72/72 71/71/71 73/73/73
f 72/72/72 73/73/73 74/74/74
f 74/74/74 73/73/73 75/75/75
f 74/74/74 76/76/76 72/72/72
f 72/72/72 76/76/76 77/77/77
f 72/72/72 77/77/77 70/70/70
f 70/70/70 77/77/77 78/78/78
f 70/70/70 78/78/78 68/68/68
f 68/68/68 78/78/78 79/79/79
f 68/68/68 79/79/79 66/66/66
f 66/66/66 79/79/79 80/80/80
f 66/66/66 80/80/80 64/64/64
f 64/64/64 80/80/80 81/81/81
f 64/64/64 81/81/81 62/62/62
f 62/62/62 81/81/81 82/82/82
f 62/62/62 82/82/82 60/60/60
f 60/60/60 82/82/82 83/83/83
f 60/60/60 83/83/83 58/58/58
f 58/58/58 83/83/83 84/84/84
f 58/58/58 84/84/84 56/56/56
f 56/56/56 84/84/84 85/85/85
f 56/56/56 85/85/85 54/54/54
f 54/54/54 85/85/85 86/86/86
f 54/54/54 86/86/86 52/52/52
f 52/52/52 86/86/86 87/87/87
f 52/52/52 87/87/87 50/50/50
f 50/50/50 87/87/87 88/88/88
f 50/50/50 88/88/88 48/48/48
f 48/48/48 88/88/88 89/89/89
f 48/48/48 89/89/89 46/46/46
f 46/46/46 89/89/89 90/90/90
f 46/46/46 90/90/90 44/44/44
f 44/44/44 90/90/90 91/91/91
f 44/44/44 91/91/91 40/40/40
f 40/40/40 91/91/91 38/38/38
f 76/76/76 92/92/92 77/77/77
f 77/77/77 92/92/92 93/93/93
f 77/77/77 93/93/93 78/78/78
f 78/78/78 93/93/93 94/94/94
f 78/78/78 94/94/94 79/79/79
f 79/79/79 94/94/94 95/95/95
f 79/79/79 95/95/95 80/80/80
f 80/80/80 95/95/95 96/96/96
f 80/80/80 96/96/96 81/81/81
f 81/81/81 96/96/96 97/97/97
f 81/81/81 97/97/97 82/82/82
f 82/82/82 97/97/97 98/98/98
f 82/82/82 98/98/98 83/83/83
f 83/83/83 98/98/98 99/99/99
f 83/83/83 99/99/99 84/84/84
f 84/84/84 99/99/99 100/100/100
f 84/84/84 100/100/100 85/85/85
f 85/85/85 100/100/100 101/101/101
f 85/85/85 101/101/101 86/86/86
f 86/86/86 101/101/101 102/102/102
f 86/86/86 102/102/102 87/87/87
f 87/87/87 102/102/102 103/103/103
f 87/87/87 103/103/103 88/88/88
f 88/88/88 103/103/103 104/104/104
f 88/88/88 104/104/104 89/89/89
f 89/89/89 104/104/104 105/105/105
f 89/89/89 105/105/105 90/90/90
f 90/90/90 105/105/105 106/106/106
f 90/90/90 106/106/106 91/91/91
f 91/91/91 106/106/106 107/107/107
f 91/91/91 107/107/107 38/38/38
f 38/38/38 107/107/107 36/36/36
f 92/92/92 1/1/1 93/93/93
f 93/93/93 1/1/1 3/3/3
f 93/93/93 3/3/3 94/94/94
f 94/94/94 3/3/3 5/5/5
f 94/94/94 5/5/5 95/95/95
f 95/95/95 5/5/5 7/7/7
f 95/95/95 7/7/7 96/96/96
f 96/96/96 7/7/7 9/9/9
f 96/96/96 9/9/9 97/97/97
f 97/97/97 9/9/9 11/11/11
f 97/97/97 11/11/11 98/98/98
f 98/98/98 11/11/11 13/13/13
f 98/98/98 13/13/13 99/99/99
f 99/99/99 13/13/13 15/15/15
f 99/99/99 15/15/15 100/100/100
f 100/100/100 15/15/15 17/17/17
f 100/100/100 17/17/17 101/101/101
f 101/101/101 17/17/17 19/19/19
f 101/101/101 19/19/19 102/102/102
f 102/102/102 19/19/19 21/21/21
f 102/102/102 21/21/21 103/103/103
f 103/103/103 21/21/21 23/23/23
f 103/103/103 23/23/23 104/104/104
f 104/104/104 23/23/23 25/25/25
f 104/104/104 25/25/25 105/105/105
f 105/105/105 25/25/25 27/27/27
f 105/105/105 27/27/27 106/106/106
f 106/106/106 27/27/27 29/29/29
f 106/106/106 29/29/29 107/107/107
f 107/107/107 29/29/29 31/31/31
f 107/107/107 31/31/31 36/36/36
f 36/36/36 31/31/31 33/33/33
f 108/108/108 109/109/109 110/110/110
f 110/110/110 109/109/109 111/111/111
f 111/111/111 109/109/109 112/112/112
f 111/111/111 112/112/112 113/113/113
f 113/113/113 112/112/112 114/114/114
f 113/113/113 114/114/114 115/115/115
f 115/115/115 114/114/114 116/116/116
f 115/115/115 116/116/116 117/117/117
f 117/117/117 116/116/116 118/118/118
f 117/117/117 118/118/118 119/119/119
f 119/119/119 118/118/118 120/120/120
f 119/119/119 120/120/120 121/121/121
f 121/121/121 120/120/120 122/122/122
f 121/121/121 122/122/122 123/123/123
f 123/123/123 122/122/122 124/124/124
f 123/123/123 124/124/124 125/125/125
f 125/125/125 124/124/124 126/126/126
f 125/125/125 126/126/126 127/127/127
f 127/127/127 126/126/126 128/128/128
f 127/127/127 128/128/128 129/129/129
f 129/129/129 128/128/128 130/130/130
f 129/129/129 130/130/130 131/131/131
f 131/131/131 130/130/130 132/132/132
f 131/131/131 132/132/132 133/133/133
f 133/133/133 132/132/132 134/134/134
f 133/133/133 134/134/134 135/135/135
f 135/135/135 134/134/134 136/136/136
f 135/135/135 136/136/136 137/137/137
f 137/137/137 136/136/136 138/138/138
f 137/137/137 138/138/138 139/139/139
f 139/139/139 138/138/138 140/140/140
f 139/139/139 140/140/140 141/141/141
f 141/141/141 140/140/140 142/142/142
f 141/141/141 142/142/142 143/143/143
f 143/143/143 142/142/142 144/144/144
f 145/145/145 146/146/146 147/147/147
f 147/147/147 146/146/146 148/148/148
f 148/148/148 146/146/146 149/149/149
f 148/148/148 149/149/149 150/150/150
f 150/150/150 149/149/149 151/151/151
f 150/150/150 151/151/151 152/152/152
f 152/152/152 151/151/151 153/153/153
f 152/152/152 153/153/153 154/154/154
f 154/154/154 153/153/153 155/155/155
f 154/154/154 155/155/155 156/156/156
f 156/156/156 155/155/155 157/157/157
f 156/156/156 157/157/157 158/158/158
f 158/158/158 157/157/157 159/159/159
f 158/158/158 159/159/159 160/160/160
f 160/160/160 159/159/159 161/161/161
f 160/160/160 161/161/161 162/162/162
f 162/162/162 161/161/161 163/163/163
f 162/162/162 163/163/163 164/164/164
f 164/164/164 163/163/163 165/165/165
f 164/164/164 165/165/165 166/166/166
f 166/166/166 165/165/165 167/167/167
f 166/166/166 167/167/167 168/168/168
f 168/168/168 167/167/167 169/169/169
f 168/168/168 169/169/169 170/170/170
f 170/170/170 169/169/169 171/171/171
f 170/170/170 171/171/171 172/172/172
f 172/172/172 171/171/171 173/173/173
f 172/172/172 173/173/173 174/174/174
f 174/174/174 173/173/173 175/175/175
f 174/174/174 175/175/175 176/176/176
f 176/176/176 175/175/175 177/177/177
f 176/176/176 177/177/177 178/178/178
f 178/178/178 177/177/177 179/179/179
f 179/179/179 177/177/177 180/180/180
f 181/181/181 182/182/182 183/183/183
f 183/183/183 182/182/182 184/184/184
f 183/183/183 184/184/184 185/185/185
f 185/185/185 184/184/184 186/186/186
f 185/185/185 186/186/186 187/187/187
f 187/187/187 186/186/186 188/188/188
f 187/187/187 188/188/188 189/189/189
f 189/189/189 188/188/188 190/190/190
f 189/189/189 190/190/190 191/191/191
f 191/191/191 190/190/190 192/192/192
f 191/191/191 192/192/192 193/193/193
f 193/193/193 192/192/192 194/194/194
f 193/193/193 194/194/194 195/195/195
f 195/195/195 194/194/194 196/196/196
f 195/195/195 196/196/196 197/197/197
f 197/197/197 196/196/196 198/198/198
f 197/197/197 198/198/198 199/199/199
f 199/199/199 198/198/198 200/200/200
f 199/199/199 200/200/200 201/201/201
f 201/201/201 200/200/200 202/202/202
f 201/201/201 202/202/202 203/203/203
f 203/203/203 202/202/202 204/204/204
f 203/203/203 204/204/204 205/205/205
f 205/205/205 204/204/204 206/206/206
f 205/205/205 206/206/206 207/207/207
f 207/207/207 206/206/206 208/208/208
f 207/207/207 208/208/208 209/209/209
f 209/209/209 208/208/208 210/210/210
f 209/209/209 210/210/210 211/211/211
f 211/211/211 210/210/210 212/212/212
f 211/211/211 212/212/212 213/213/213
f 213/213/213 212/212/212 214/214/214
f 213/213/213 214/214/214 215/215/215
f 215/215/215 214/214/214 216/216/216
f 217/217/217 218/218/218 219/219/219
f 219/219/219 218/218/218 220/220/220
f 219/219/219 220/220/220 221/221/221
f 221/221/221 220/220/220 222/222/222
f 221/221/221 222/222/222 223/223/223
f 223/223/223 222/222/222 224/224/224
f 223/223/223 224/224/224 225/225/225
f 225/225/225 224/224/224 226/226/226
f 225/225/225 226/226/226 227/227/227
f 227/227/227 226/226/226 228/228/228
f 227/227/227 228/228/228 229/229/229
f 229/229/229 228/228/228 230/230/230
f 229/229/229 230/230/230 231/231/231
f 231/231/231 230/230/230 232/232/232
f 231/231/231 232/232/232 233/233/233
f 233/233/233 232/232/232 234/234/234
f 233/233/233 234/234/234 235/235/235
f 235/235/235 234/234/234 236/236/236
f 235/235/235 236/236/236 237/237/237
f 237/237/237 236/236/236 238/238/238
f 237/237/237 238/238/238 239/239/239
f 239/239/239 238/238/238 240/240/240
f 239/239/239 240/240/240 241/241/241
f 241/241/241 240/240/240 242/242/242
f 241/241/241 242/242/242 243/243/243
f 243/243/243 242/242/242 244/244/244
f 243/243/243 244/244/244 245/245/245
f 245/245/245 244/244/244 246/246/246
f 245/245/245 246/246/246 247/247/247
f 247/247/247 246/246/246 248/248/248
f 247/247/247 248/248/248 249/249/249
f 249/249/249 248/248/248 250/250/250
f 249/249/249 250/250/250 181/181/181
f 181/181/181 250/250/250 182/182/182
f 251/251/251 252/252/252 253/253/253
f 253/253/253 252/252/252 254/254/254
f 254/254/254 252/252/252 255/255/255
f 254/254/254 255/255/255 256/256/256
f 256/256/256 255/255/255 257/257/257
f 256/256/256 257/257/257 258/258/258
f 258/258/258 257/257/257 259/259/259
f 258/258/258 259/259/259 260/260/260
f 260/260/260 259/259/259 261/261/261
f 261/261/261 259/259/259 262/262/262
f 262/262/262 259/259/259 263/263/263
f 263/263/263 259/259/259 264/264/264
f 264/264/264 259/259/259 265/265/265
f 265/265/265 259/259/259 266/266/266
f 266/266/266 259/259/259 267/267/267
f 267/267/267 259/259/259 268/268/268
f 268/268/268 259/259/259 269/269/269
f 269/269/269 259/259/259 270/270/270
f 269/269/269 270/270/270 271/271/271
f 271/271/271 270/270/270 272/272/272
f 272/272/272 270/270/270 273/273/273
f 273/273/273 270/270/270 274/274/274
f 274/274/274 270/270/270 275/275/275
f 275/275/275 270/270/270 276/276/276
f 276/276/276 270/270/270 277/277/277
f 277/277/277 270/270/270 278/278/278
f 278/278/278 270/270/270 279/279/279
f 278/278/278 279/279/279 280/280/280
f 280/280/280 279/279/279 281/281/281
f 280/280/280 281/281/281 282/282/282
f 282/282/282 281/281/281 283/283/283
f 282/282/282 283/283/283 284/284/284
f 285/285/285 286/286/286 287/287/287
f 287/287/287 286/286/286 288/288/288
f 287/287/287 288/288/288 289/289/289
f 287/287/287 289/289/289 290/290/290
f 290/290/290 289/289/289 291/291/291
f 290/290/290 291/291/291 292/292/292
f 292/292/292 291/291/291 293/293/293
f 292/292/292 293/293/293 294/294/294
f 294/294/294 293/293/293 295/295/295
f 294/294/294 295/295/295 296/296/296
f 296/296/296 295/295/295 297/297/297
f 296/296/296 297/297/297 298/298/298
f 298/298/298 297/297/297 299/299/299
f 298/298/298 299/299/299 300/300/300
f 300/300/300 299/299/299 301/301/301
f 300/300/300 301/301/301 302/302/302
f 302/302/302 301/301/301 303/303/303
f 302/302/302 303/303/303 304/304/304
f 304/304/304 303/303/303 305/305/305
f 304/304/304 305/305/305 306/306/306
f 306/306/306 305/305/305 307/307/307
f 306/306/306 307/307/307 308/308/308
f 308/308/308 307/307/307 309/309/309
f 308/308/308 309/309/309 310/310/310
f 310/310/310 309/309/309 311/311/311
f 310/310/310 311/311/311 312/312/312
f 312/312/312 311/311/311 313/313/313
f 312/312/312 313/313/313 314/314/314
f 314/314/314 313/313/313 315/315/315
f 314/314/314 315/315/315 316/316/316
f 316/316/316 315/315/315 317/317/317
f 316/316/316 317/317/317 318/318/318
f 318/318/318 317/317/317 145/145/145
f 318/318/318 145/145/145 147/147/147
f 319/319/319 320/320/320 321/321/321
f 321/321/321 320/320/320 322/322/322
f 321/321/321 322/322/322 323/323/323
f 320/320/320 319/319/319 324/324/324
f 324/324/324 319/319/319 325/325/325
f 324/324/324 325/325/325 326/326/326
f 326/326/326 325/325/325 327/327/327
f 326/326/326 327/327/327 328/328/328
f 328/328/328 327/327/327 329/329/329
f 328/328/328 329/329/329 330/330/330
f 330/330/330 329/329/329 331/331/331
f 330/330/330 331/331/331 332/332/332
f 332/332/332 331/331/331 333/333/333
f 332/332/332 333/333/333 334/334/334
f 334/334/334 333/333/333 335/335/335
f 334/334/334 335/335/335 336/336/336
f 336/336/336 335/335/335 337/337/337
f 336/336/336 337/337/337 338/338/338
f 338/338/338 337/337/337 339/339/339
f 338/338/338 339/339/339 340/340/340
f 338/338/338 340/340/340 341/341/341
f 341/341/341 340/340/340 342/342/342
f 341/341/341 342/342/342 343/343/343
f 343/343/343 342/342/342 344/344/344
f 343/343/343 344/344/344 345/345/345
f 345/345/345 344/344/344 346/346/346
f 345/345/345 346/346/346 347/347/347
f 347/347/347 346/346/346 348/348/348
f 347/347/347 348/348/348 349/349/349
f 349/349/349 348/348/348 350/350/350
f 349/349/349 350/350/350 351/351/351
f 351/351/351 350/350/350 352/352/352
f 351/351/351 352/352/352 353/353/353
f 353/353/353 352/352/352 354/354/354
f 353/353/353 354/354/354 355/355/355
f 355/355/355 354/354/354 356/356/356
f 356/356/356 354/354/354 357/357/357
f 356/356/356 357/357/357 358/358/358
f 358/358/358 357/357/357 359/359/359
f 358/358/358 359/359/359 360/360/360
f 360/360/360 359/359/359 361/361/361
f 360/360/360 361/361/361 362/362/362
f 362/362/362 361/361/361 363/363/363
f 362/362/362 363/363/363 364/364/364
f 364/364/364 363/363/363 365/365/365
f 364/364/364 365/365/365 366/366/366
f 366/366/366 365/365/365 367/367/367
f 366/366/366 367/367/367 368/368/368
f 368/368/368 367/367/367 369/369/369
f 368/368/368 369/369/369 370/370/370
f 370/370/370 369/369/369 371/371/371
f 370/370/370 371/371/371 372/372/372
f 370/370/370 372/372/372 373/373/373
f 373/373/373 372/372/372 374/374/374
f 373/373/373 374/374/374 375/375/375
f 375/375/375 374/374/374 376/376/376
f 375/375/375 376/376/376 377/377/377
f 377/377/377 376/376/376 378/378/378
f 377/377/377 378/378/378 379/379/379
f 379/379/379 378/378/378 380/380/380
f 379/379/379 380/380/380 381/381/381
f 381/381/381 380/380/380 382/382/382
f 381/381/381 382/382/382 383/383/383
f 383/383/383 382/382/382 384/384/384
f 383/383/383 384/384/384 385/385/385
f 385/385/385 384/384/384 386/386/386
f 385/385/385 386/386/386 323/323/323
f 323/323/323 386/386/386 321/321/321
f 387/387/387 388/388/388 389/389/389
f 389/389/389 388/388/388 390/390/390
f 390/390/390 388/388/388 391/391/391
f 390/390/390 391/391/391 392/392/392
f 392/392/392 391/391/391 393/393/393
f 392/392/392 393/393/393 394/394/394
f 394/394/394 393/393/393 395/395/395
f 394/394/394 395/395/395 396/396/396
f 396/396/396 395/395/395 397/397/397
f 396/396/396 397/397/397 398/398/398
f 398/398/398 397/397/397 399/399/399
f 398/398/398 399/399/399 400/400/400
f 400/400/400 399/399/399 401/401/401
f 400/400/400 401/401/401 402/402/402
f 402/402/402 401/401/401 403/403/403
f 402/402/402 403/403/403 404/404/404
f 404/404/404 403/403/403 405/405/405
f 404/404/404 405/405/405 406/406/406
f 406/406/406 405/405/405 407/407/407
f 406/406/406 407/407/407 408/408/408
f 408/408/408 407/407/407 409/409/409
f 408/408/408 409/409/409 410/410/410
f 410/410/410 409/409/409 411/411/411
f 410/410/410 411/411/411 412/412/412
f 412/412/412 411/411/411 413/413/413
f 412/412/412 413/413/413 414/414/414
f 414/414/414 413/413/413 415/415/415
f 414/414/414 415/415/415 416/416/416
f 416/416/416 415/415/415 417/417/417
f 416/416/416 417/417/417 418/418/418
f 418/418/418 417/417/417 419/419/419
f 418/418/418 419/419/419 420/420/420
f 420/420/420 419/419/419 421/421/421
f 420/420/420 421/421/421 110/110/110
f 110/110/110 421/421/421 108/108/108
f 422/422/422 423/423/423 424/424/424
f 424/424/424 423/423/423 425/425/425
f 425/425/425 423/423/423 426/426/426
f 425/425/425 426/426/426 427/427/427
f 427/427/427 426/426/426 428/428/428
f 427/427/427 428/428/428 429/429/429
f 429/429/429 428/428/428 430/430/430
f 429/429/429 430/430/430 431/431/431
f 431/431/431 430/430/430 432/432/432
f 431/431/431 432/432/432 433/433/433
f 433/433/433 432/432/432 434/434/434
f 433/433/433 434/434/434 435/435/435
f 435/435/435 434/434/434 436/436/436
f 435/435/435 436/436/436 437/437/437
f 437/437/437 436/436/436 438/438/438
f 437/437/437 438/438/438 439/439/439
f 439/439/439 438/438/438 440/440/440
f 439/439/439 440/440/440 441/441/441
f 441/441/441 440/440/440 442/442/442
f 441/441/441 442/442/442 443/443/443
f 443/443/443 442/442/442 444/444/444
f 443/443/443 444/444/444 445/445/445
f 445/445/445 444/444/444 446/446/446
f 445/445/445 446/446/446 447/447/447
f 447/447/447 446/446/446 448/448/448
f 447/447/447 448/448/448 449/449/449
f 449/449/449 448/448/448 450/450/450
f 449/449/449 450/450/450 451/451/451
f 451/451/451 450/450/450 452/452/452
f 451/451/451 452/452/452 453/453/453
f 454/454/454 455/455/455 456/456/456
f 456/456/456 455/455/455 457/457/457
f 456/456/456 457/457/457 458/458/458
f 458/458/458 457/457/457 459/459/459
f 458/458/458 459/459/459 460/460/460
f 460/460/460 459/459/459 461/461/461
f 460/460/460 461/461/461 462/462/462
f 462/462/462 461/461/461 463/463/463
f 462/462/462 463/463/463 464/464/464
f 464/464/464 463/463/463 465/465/465
f 464/464/464 465/465/465 466/466/466
f 466/466/466 465/465/465 467/467/467
f 466/466/466 467/467/467 468/468/468
f 468/468/468 467/467/467 469/469/469
f 468/468/468 469/469/469 470/470/470
f 470/470/470 469/469/469 471/471/471
f 470/470/470 471/471/471 472/472/472
f 472/472/472 471/471/471 473/473/473
f 472/472/472 473/473/473 474/474/474
f 474/474/474 473/473/473 475/475/475
f 474/474/474 475/475/475 476/476/476
f 476/476/476 475/475/475 477/477/477
f 476/476/476 477/477/477 478/478/478
f 478/478/478 477/477/477 479/479/479
f 478/478/478 479/479/479 480/480/480
f 480/480/480 479/479/479 481/481/481
f 480/480/480 481/481/481 482/482/482
f 482/482/482 481/481/481 483/483/483
f 482/482/482 483/483/483 484/484/484
f 484/484/484 483/483/483 485/485/485
f 484/484/484 485/485/485 486/486/486
f 486/486/486 485/485/485 487/487/487
f 486/486/486 487/487/487 74/74/74
f 74/74/74 487/487/487 76/76/76
f 76/76/76 487/487/487 488/488/488
f 76/76/76 488/488/488 92/92/92
f 92/92/92 488/488/488 489/489/489
f 92/92/92 489/489/489 1/1/1
f 1/1/1 489/489/489 490/490/490
f 1/1/1 490/490/490 2/2/2
f 2/2/2 490/490/490 491/491/491
f 491/491/491 490/490/490 492/492/492
f 491/491/491 492/492/492 493/493/493
f 493/493/493 492/492/492 494/494/494
f 493/493/493 494/494/494 495/495/495
f 495/495/495 494/494/494 496/496/496
f 495/495/495 496/496/496 497/497/497
f 497/497/497 496/496/496 498/498/498
f 497/497/497 498/498/498 499/499/499
f 499/499/499 498/498/498 500/500/500
f 499/499/499 500/500/500 501/501/501
f 501/501/501 500/500/500 502/502/502
f 501/501/501 502/502/502 503/503/503
f 503/503/503 502/502/502 504/504/504
f 503/503/503 504/504/504 505/505/505
f 505/505/505 504/504/504 506/506/506
f 505/505/505 506/506/506 507/507/507
f 507/507/507 506/506/506 508/508/508
f 507/507/507 508/508/508 509/509/509
f 509/509/509 508/508/508 510/510/510
f 509/509/509 510/510/510 511/511/511
f 511/511/511 510/510/510 512/512/512
f 511/511/511 512/512/512 513/513/513
f 513/513/513 512/512/512 514/514/514
f 513/513/513 514/514/514 515/515/515
f 515/515/515 514/514/514 516/516/516
f 515/515/515 516/516/516 517/517/517
f 517/517/517 516/516/516 518/518/518
f 517/517/517 518/518/518 519/519/519
f 519/519/519 518/518/518 520/520/520
f 519/519/519 520/520/520 521/521/521
f 521/521/521 520/520/520 522/522/522
f 522/522/522 520/520/520 523/523/523
f 522/522/522 523/523/523 524/524/524
f 524/524/524 523/523/523 525/525/525
f 524/524/524 525/525/525 526/526/526
f 526/526/526 525/525/525 457/457/457
f 526/526/526 457/457/457 455/455/455
f 74/74/74 75/75/75 486/486/486
f 523/523/523 520/520/520 527/527/527
f 527/527/527 520/520/520 518/518/518
f 527/527/527 518/518/518 528/528/528
f 528/528/528 518/518/518 516/516/516
f 528/528/528 516/516/516 529/529/529
f 529/529/529 516/516/516 514/514/514
f 529/529/529 514/514/514 530/530/530
f 530/530/530 514/514/514 512/512/512
f 530/530/530 512/512/512 531/531/531
f 531/531/531 512/512/512 510/510/510
f 531/531/531 510/510/510 532/532/532
f 532/532/532 510/510/510 508/508/508
f 532/532/532 508/508/508 533/533/533
f 533/533/533 508/508/508 506/506/506
f 533/533/533 506/506/506 534/534/534
f 534/534/534 506/506/506 504/504/504
f 534/534/534 504/504/504 535/535/535
f 535/535/535 504/504/504 502/502/502
f 535/535/535 502/502/502 536/536/536
f 536/536/536 502/502/502 500/500/500
f 536/536/536 500/500/500 537/537/537
f 537/537/537 500/500/500 498/498/498
f 537/537/537 498/498/498 538/538/538
f 538/538/538 498/498/498 496/496/496
f 538/538/538 496/496/496 539/539/539
f 539/539/539 496/496/496 494/494/494
f 539/539/539 494/494/494 540/540/540
f 540/540/540 494/494/494 492/492/492
f 540/540/540 492/492/492 489/489/489
f 489/489/489 492/492/492 490/490/490
f 459/459/459 457/457/457 525/525/525
f 525/525/525 523/523/523 541/541/541
f 541/541/541 523/523/523 527/527/527
f 541/541/541 527/527/527 542/542/542
f 542/542/542 527/527/527 528/528/528
f 542/542/542 528/528/528 543/543/543
f 543/543/543 528/528/528 529/529/529
f 543/543/543 529/529/529 544/544/544
f 544/544/544 529/529/529 530/530/530
f 544/544/544 530/530/530 545/545/545
f 545/545/545 530/530/530 531/531/531
f 545/545/545 531/531/531 546/546/546
f 546/546/546 531/531/531 532/532/532
f 546/546/546 532/532/532 547/547/547
f 547/547/547 532/532/532 533/533/533
f 547/547/547 533/533/533 548/548/548
f 548/548/548 533/533/533 534/534/534
f 548/548/548 534/534/534 549/549/549
f 549/549/549 534/534/534 535/535/535
f 549/549/549 535/535/535 550/550/550
f 550/550/550 535/535/535 536/536/536
f 550/550/550 536/536/536 551/551/551
f 551/551/551 536/536/536 537/537/537
f 551/551/551 537/537/537 552/552/552
f 552/552/552 537/537/537 538/538/538
f 552/552/552 538/538/538 553/553/553
f 553/553/553 538/538/538 539/539/539
f 553/553/553 539/539/539 554/554/554
f 554/554/554 539/539/539 540/540/540
f 554/554/554 540/540/540 488/488/488
f 488/488/488 540/540/540 489/489/489
f 461/461/461 459/459/459 541/541/541
f 541/541/541 459/459/459 525/525/525
f 461/461/461 541/541/541 542/542/542
f 463/463/463 461/461/461 542/542/542
f 463/463/463 542/542/542 543/543/543
f 465/465/465 463/463/463 543/543/543
f 465/465/465 543/543/543 544/544/544
f 467/467/467 465/465/465 544/544/544
f 467/467/467 544/544/544 545/545/545
f 469/469/469 467/467/467 545/545/545
f 469/469/469 545/545/545 546/546/546
f 471/471/471 469/469/469 546/546/546
f 471/471/471 546/546/546 547/547/547
f 473/473/473 471/471/471 547/547/547
f 473/473/473 547/547/547 548/548/548
f 475/475/475 473/473/473 548/548/548
f 475/475/475 548/548/548 549/549/549
f 477/477/477 475/475/475 549/549/549
f 477/477/477 549/549/549 550/550/550
f 479/479/479 477/477/477 550/550/550
f 479/479/479 550/550/550 551/551/551
f 481/481/481 479/479/479 551/551/551
f 481/481/481 551/551/551 552/552/552
f 483/483/483 481/481/481 552/552/552
f 483/483/483 552/552/552 553/553/553
f 485/485/485 483/483/483 553/553/553
f 485/485/485 553/553/553 554/554/554
f 487/487/487 485/485/485 554/554/554
f 487/487/487 554/554/554 488/488/488

