mtllib material.mtl
usemtl mat0
v 0.00000006 0.05855500 0.07834500
v 0.00000006 0.05880000 0.07680000
v -0.00524394 0.05826301 0.07851000
v -0.01021094 0.05790701 0.07680000
v -0.01556294 0.05639002 0.07851000
v -0.02011094 0.05525402 0.07680000
v -0.02538195 0.05270503 0.07851000
v -0.02939995 0.05092203 0.07680000
v -0.03438495 0.04732603 0.07851000
v -0.03779595 0.04504304 0.07680000
v -0.04228196 0.04042604 0.07851000
v -0.04504296 0.03779605 0.07680000
v -0.04882097 0.03222705 0.07851000
v -0.05092197 0.02940005 0.07680000
v -0.05379098 0.02299105 0.07851000
v -0.05525398 0.02011106 0.07680000
v -0.05703199 0.01301706 0.07851000
v -0.05790699 0.01021106 0.07680000
v -0.05844000 0.00262506 0.07851000
v -0.05880000 0.00000006 0.07680000
v -0.05796901 -0.00785194 0.07851000
v -0.05790701 -0.01021094 0.07680000
v -0.05563502 -0.01807694 0.07851000
v -0.05525402 -0.02011094 0.07680000
v -0.05151303 -0.02772095 0.07851000
v -0.05092203 -0.02939995 0.07680000
v -0.04573604 -0.03647295 0.07851000
v -0.04504304 -0.03779595 0.07680000
v -0.03848804 -0.04405396 0.07851000
v -0.03779605 -0.04504296 0.07680000
v -0.03000405 -0.05021797 0.07851000
v -0.02940005 -0.05092197 0.07680000
v -0.02055505 -0.05476798 0.07851000
v -0.02011106 -0.05525398 0.07680000
v -0.01044506 -0.05755799 0.07851000
v -0.01021106 -0.05790699 0.07680000
v -0.00000006 -0.05855500 0.07834500
v -0.00000006 -0.05880000 0.07680000
v -0.00000006 -0.05784500 0.07973900
v -0.01029006 -0.05670399 0.08001400
v -0.02025005 -0.05395498 0.08001400
v -0.02955805 -0.04947297 0.08001400
v -0.03791704 -0.04339996 0.08001400
v -0.04505704 -0.03593195 0.08001400
v -0.05074903 -0.02730895 0.08001400
v -0.05481002 -0.01780895 0.08001400
v -0.05710901 -0.00773594 0.08001400
v -0.05757200 0.00258606 0.08001400
v -0.05618499 0.01282406 0.08001400
v -0.05299298 0.02265005 0.08001400
v -0.04809697 0.03174805 0.08001400
v -0.04165496 0.03982604 0.08001400
v -0.03387395 0.04662403 0.08001400
v -0.02500495 0.05192303 0.08001400
v -0.01533194 0.05555302 0.08001400
v -0.00516594 0.05739801 0.08001400
v 0.00000006 0.05784500 0.07973900
v 0.00000006 0.05673900 0.08084500
v -0.00504694 0.05607301 0.08113000
v 0.00000006 0.05534500 0.08155500
v -0.00489995 0.05444800 0.08172400
v 0.00000005 0.05380000 0.08180000
v -0.00988595 0.05288401 0.08180000
v -0.01454395 0.05269801 0.08172400
v -0.01943495 0.05016702 0.08180000
v -0.02371995 0.04925402 0.08172400
v -0.02832195 0.04574203 0.08180000
v -0.03213296 0.04422803 0.08172400
v -0.03624496 0.03975904 0.08180000
v -0.03951396 0.03777904 0.08172400
v -0.04293297 0.03242204 0.08180000
v -0.04562497 0.03011705 0.08172400
v -0.04815998 0.02398105 0.08180000
v -0.05026898 0.02148605 0.08172400
v -0.05174599 0.01472305 0.08180000
v -0.05329799 0.01216505 0.08172400
v -0.05357000 0.00496405 0.08180000
v -0.05461300 0.00245305 0.08172400
v -0.05357000 -0.00496395 0.08180000
v -0.05417301 -0.00733795 0.08172400
v -0.05174601 -0.01472295 0.08180000
v -0.05199302 -0.01689295 0.08172400
v -0.04816002 -0.02398095 0.08180000
v -0.04814103 -0.02590595 0.08172400
v -0.04293303 -0.03242196 0.08180000
v -0.04274103 -0.03408496 0.08172400
v -0.03624504 -0.03975896 0.08180000
v -0.03596804 -0.04116896 0.08172400
v -0.02832205 -0.04574197 0.08180000
v -0.02803905 -0.04692997 0.08172400
v -0.01943505 -0.05016698 0.08180000
v -0.01920905 -0.05118198 0.08172400
v -0.00988605 -0.05288399 0.08180000
v -0.00976105 -0.05378999 0.08172400
v -0.00000005 -0.05380000 0.08180000
v -0.00000006 -0.05534500 0.08155500
v -0.01005306 -0.05539499 0.08113000
v -0.00000006 -0.05673900 0.08084500
v -0.01497795 0.05427101 0.08113000
v -0.02442795 0.05072502 0.08113000
v -0.03309195 0.04554803 0.08113000
v -0.04069296 0.03890704 0.08113000
v -0.04698597 0.03101605 0.08113000
v -0.05176898 0.02212705 0.08113000
v -0.05488799 0.01252805 0.08113000
v -0.05624300 0.00252606 0.08113000
v -0.05579001 -0.00755694 0.08113000
v -0.05354402 -0.01739795 0.08113000
v -0.04957803 -0.02667895 0.08113000
v -0.04401704 -0.03510196 0.08113000
v -0.03704204 -0.04239796 0.08113000
v -0.02887605 -0.04833097 0.08113000
v -0.01978205 -0.05270998 0.08113000
v -0.00000006 -0.05600000 -0.07130000
v -0.00972406 -0.05514899 -0.07130000
v -0.00000006 -0.05600000 -0.07850000
v -0.00972406 -0.05514899 -0.07850000
v -0.01915305 -0.05262298 -0.07130000
v -0.01915305 -0.05262298 -0.07850000
v -0.02800005 -0.04849697 -0.07130000
v -0.02800005 -0.04849697 -0.07850000
v -0.03599604 -0.04289796 -0.07130000
v -0.03599604 -0.04289796 -0.07850000
v -0.04289804 -0.03599596 -0.07130000
v -0.04289804 -0.03599596 -0.07850000
v -0.04849703 -0.02799995 -0.07130000
v -0.04849703 -0.02799995 -0.07850000
v -0.05262302 -0.01915295 -0.07130000
v -0.05262302 -0.01915295 -0.07850000
v -0.05514901 -0.00972394 -0.07130000
v -0.05514901 -0.00972394 -0.07850000
v -0.05600000 0.00000006 -0.07130000
v -0.05600000 0.00000006 -0.07850000
v -0.05514899 0.00972406 -0.07130000
v -0.05514899 0.00972406 -0.07850000
v -0.05262298 0.01915305 -0.07130000
v -0.05262298 0.01915305 -0.07850000
v -0.04849697 0.02800005 -0.07130000
v -0.04849697 0.02800005 -0.07850000
v -0.04289796 0.03599604 -0.07130000
v -0.04289796 0.03599604 -0.07850000
v -0.03599596 0.04289804 -0.07130000
v -0.03599596 0.04289804 -0.07850000
v -0.02799995 0.04849703 -0.07130000
v -0.02799995 0.04849703 -0.07850000
v -0.01915295 0.05262302 -0.07130000
v -0.01915295 0.05262302 -0.07850000
v -0.00972394 0.05514901 -0.07130000
v -0.00972394 0.05514901 -0.07850000
v 0.00000006 0.05600000 -0.07850000
v 0.00000006 0.05600000 -0.07130000
v -0.00000006 -0.05880000 -0.06330000
v -0.01021106 -0.05790699 -0.06330000
v -0.00000006 -0.05880000 -0.07130000
v -0.01021106 -0.05790699 -0.07130000
v -0.02011106 -0.05525398 -0.06330000
v -0.02011106 -0.05525398 -0.07130000
v -0.02940005 -0.05092197 -0.06330000
v -0.02940005 -0.05092197 -0.07130000
v -0.03779605 -0.04504296 -0.06330000
v -0.03779605 -0.04504296 -0.07130000
v -0.04504304 -0.03779595 -0.06330000
v -0.04504304 -0.03779595 -0.07130000
v -0.05092203 -0.02939995 -0.06330000
v -0.05092203 -0.02939995 -0.07130000
v -0.05525402 -0.02011094 -0.06330000
v -0.05525402 -0.02011094 -0.07130000
v -0.05790701 -0.01021094 -0.06330000
v -0.05790701 -0.01021094 -0.07130000
v -0.05880000 0.00000006 -0.06330000
v -0.05880000 0.00000006 -0.07130000
v -0.05790699 0.01021106 -0.06330000
v -0.05790699 0.01021106 -0.07130000
v -0.05525398 0.02011106 -0.06330000
v -0.05525398 0.02011106 -0.07130000
v -0.05092197 0.02940005 -0.06330000
v -0.05092197 0.02940005 -0.07130000
v -0.04504296 0.03779605 -0.06330000
v -0.04504296 0.03779605 -0.07130000
v -0.03779595 0.04504304 -0.06330000
v -0.03779595 0.04504304 -0.07130000
v -0.02939995 0.05092203 -0.06330000
v -0.02939995 0.05092203 -0.07130000
v -0.02011094 0.05525402 -0.06330000
v -0.02011094 0.05525402 -0.07130000
v -0.01021094 0.05790701 -0.06330000
v -0.01021094 0.05790701 -0.07130000
v 0.00000006 0.05880000 -0.07130000
v 0.00000006 0.05880000 -0.06330000
v 0.00000006 0.05880000 0.07680000
v 0.00000006 0.05880000 0.07167400
v -0.01021094 0.05790701 0.07680000
v -0.01021094 0.05790701 0.07143400
v -0.02011094 0.05525402 0.07680000
v -0.02011094 0.05525402 0.07072300
v -0.02939995 0.05092203 0.07680000
v -0.02939995 0.05092203 0.06956300
v -0.03779595 0.04504304 0.07680000
v -0.03779595 0.04504304 0.06798700
v -0.04504296 0.03779605 0.07680000
v -0.04504296 0.03779605 0.06604500
v -0.05092197 0.02940005 0.07680000
v -0.05092197 0.02940005 0.06379600
v -0.05525398 0.02011106 0.07680000
v -0.05525398 0.02011106 0.06130700
v -0.05790699 0.01021106 0.07680000
v -0.05790699 0.01021106 0.05865400
v -0.05880000 0.00000006 0.07680000
v -0.05880000 0.00000006 0.05591800
v -0.05790701 -0.01021094 0.07680000
v -0.05790701 -0.01021094 0.05318200
v -0.05525402 -0.02011094 0.07680000
v -0.05525402 -0.02011094 0.05052900
v -0.05092203 -0.02939995 0.07680000
v -0.05092203 -0.02939995 0.04804000
v -0.04504304 -0.03779595 0.07680000
v -0.04504304 -0.03779595 0.04579100
v -0.03779605 -0.04504296 0.07680000
v -0.03779605 -0.04504296 0.04384900
v -0.02940005 -0.05092197 0.07680000
v -0.02940005 -0.05092197 0.04227400
v -0.02011106 -0.05525398 0.07680000
v -0.02011106 -0.05525398 0.04111300
v -0.01021106 -0.05790699 0.07680000
v -0.01021106 -0.05790699 0.04040200
v -0.00000006 -0.05880000 0.07680000
v -0.00000006 -0.05880000 0.04016300
v -0.00000006 -0.05880000 0.04016300
v 0.01021094 -0.05790701 0.04040200
v -0.00000006 -0.05880000 0.07680000
v 0.01021094 -0.05790701 0.07680000
v 0.02011094 -0.05525402 0.04111300
v 0.02011094 -0.05525402 0.07680000
v 0.02939995 -0.05092203 0.04227400
v 0.02939995 -0.05092203 0.07680000
v 0.03779595 -0.04504304 0.04384900
v 0.03779595 -0.04504304 0.07680000
v 0.04504296 -0.03779605 0.04579100
v 0.04504296 -0.03779605 0.07680000
v 0.05092197 -0.02940005 0.04804000
v 0.05092197 -0.02940005 0.07680000
v 0.05525398 -0.02011106 0.05052900
v 0.05525398 -0.02011106 0.07680000
v 0.05790699 -0.01021106 0.05318200
v 0.05790699 -0.01021106 0.07680000
v 0.05880000 -0.00000006 0.05591800
v 0.05880000 -0.00000006 0.07680000
v 0.05790701 0.01021094 0.05865400
v 0.05790701 0.01021094 0.07680000
v 0.05525402 0.02011094 0.06130700
v 0.05525402 0.02011094 0.07680000
v 0.05092203 0.02939995 0.06379600
v 0.05092203 0.02939995 0.07680000
v 0.04504304 0.03779595 0.06604500
v 0.04504304 0.03779595 0.07680000
v 0.03779605 0.04504296 0.06798700
v 0.03779605 0.04504296 0.07680000
v 0.02940005 0.05092197 0.06956300
v 0.02940005 0.05092197 0.07680000
v 0.02011106 0.05525398 0.07072300
v 0.02011106 0.05525398 0.07680000
v 0.01021106 0.05790699 0.07143400
v 0.01021106 0.05790699 0.07680000
v 0.00000005 0.05380000 0.08180000
v -0.00988595 0.05288401 0.08180000
v 0.00988605 0.05288399 0.08180000
v 0.01943505 0.05016698 0.08180000
v -0.01943495 0.05016702 0.08180000
v 0.02832205 0.04574197 0.08180000
v -0.02832195 0.04574203 0.08180000
v 0.03624504 0.03975896 0.08180000
v -0.03624496 0.03975904 0.08180000
v 0.04293303 0.03242196 0.08180000
v 0.04816002 0.02398095 0.08180000
v 0.05174601 0.01472295 0.08180000
v 0.05357000 0.00496395 0.08180000
v 0.05357000 -0.00496405 0.08180000
v 0.05174599 -0.01472305 0.08180000
v 0.04815998 -0.02398105 0.08180000
v 0.04293297 -0.03242204 0.08180000
v 0.03624496 -0.03975904 0.08180000
v 0.02832195 -0.04574203 0.08180000
v -0.04293297 0.03242204 0.08180000
v 0.01943495 -0.05016702 0.08180000
v 0.00988595 -0.05288401 0.08180000
v -0.00000005 -0.05380000 0.08180000
v -0.00988605 -0.05288399 0.08180000
v -0.01943505 -0.05016698 0.08180000
v -0.02832205 -0.04574197 0.08180000
v -0.03624504 -0.03975896 0.08180000
v -0.04293303 -0.03242196 0.08180000
v -0.04815998 0.02398105 0.08180000
v -0.04816002 -0.02398095 0.08180000
v -0.05174599 0.01472305 0.08180000
v -0.05174601 -0.01472295 0.08180000
v -0.05357000 0.00496405 0.08180000
v -0.05357000 -0.00496395 0.08180000
v 0.00000006 0.05880000 -0.07130000
v 0.00000006 0.05880000 -0.06330000
v 0.01021106 0.05790699 -0.07130000
v 0.01021106 0.05790699 -0.06330000
v 0.02011106 0.05525398 -0.06330000
v 0.02011106 0.05525398 -0.07130000
v 0.02940005 0.05092197 -0.06330000
v 0.02940005 0.05092197 -0.07130000
v 0.03779605 0.04504296 -0.06330000
v 0.03779605 0.04504296 -0.07130000
v 0.04504304 0.03779595 -0.06330000
v 0.04504304 0.03779595 -0.07130000
v 0.05092203 0.02939995 -0.06330000
v 0.05092203 0.02939995 -0.07130000
v 0.05525402 0.02011094 -0.06330000
v 0.05525402 0.02011094 -0.07130000
v 0.05790701 0.01021094 -0.06330000
v 0.05790701 0.01021094 -0.07130000
v 0.05880000 -0.00000006 -0.06330000
v 0.05880000 -0.00000006 -0.07130000
v 0.05790699 -0.01021106 -0.06330000
v 0.05790699 -0.01021106 -0.07130000
v 0.05525398 -0.02011106 -0.06330000
v 0.05525398 -0.02011106 -0.07130000
v 0.05092197 -0.02940005 -0.06330000
v 0.05092197 -0.02940005 -0.07130000
v 0.04504296 -0.03779605 -0.06330000
v 0.04504296 -0.03779605 -0.07130000
v 0.03779595 -0.04504304 -0.06330000
v 0.03779595 -0.04504304 -0.07130000
v 0.02939995 -0.05092203 -0.06330000
v 0.02939995 -0.05092203 -0.07130000
v 0.02011094 -0.05525402 -0.06330000
v 0.02011094 -0.05525402 -0.07130000
v 0.01021094 -0.05790701 -0.06330000
v 0.01021094 -0.05790701 -0.07130000
v -0.00000006 -0.05600000 -0.07850000
v -0.00972406 -0.05514899 -0.07850000
v 0.00972394 -0.05514901 -0.07850000
v 0.01915295 -0.05262302 -0.07850000
v -0.01915305 -0.05262298 -0.07850000
v 0.02799995 -0.04849703 -0.07850000
v -0.02800005 -0.04849697 -0.07850000
v 0.03599596 -0.04289804 -0.07850000
v -0.03599604 -0.04289796 -0.07850000
v 0.04289796 -0.03599604 -0.07850000
v -0.04289804 -0.03599596 -0.07850000
v 0.04849697 -0.02800005 -0.07850000
v -0.04849703 -0.02799995 -0.07850000
v 0.05262298 -0.01915305 -0.07850000
v -0.05262302 -0.01915295 -0.07850000
v 0.05514899 -0.00972406 -0.07850000
v -0.05514901 -0.00972394 -0.07850000
v 0.05600000 -0.00000006 -0.07850000
v -0.05600000 0.00000006 -0.07850000
v 0.05514901 0.00972394 -0.07850000
v -0.05514899 0.00972406 -0.07850000
v 0.05262302 0.01915295 -0.07850000
v -0.05262298 0.01915305 -0.07850000
v 0.04849703 0.02799995 -0.07850000
v -0.04849697 0.02800005 -0.07850000
v 0.04289804 0.03599596 -0.07850000
v -0.04289796 0.03599604 -0.07850000
v 0.03599604 0.04289796 -0.07850000
v -0.03599596 0.04289804 -0.07850000
v 0.02800005 0.04849697 -0.07850000
v -0.02799995 0.04849703 -0.07850000
v 0.01915305 0.05262298 -0.07850000
v -0.01915295 0.05262302 -0.07850000
v 0.00972406 0.05514899 -0.07850000
v -0.00972394 0.05514901 -0.07850000
v 0.00000006 0.05600000 -0.07850000
v 0.00000006 0.05600000 -0.07850000
v 0.00000006 0.05600000 -0.07130000
v 0.00972406 0.05514899 -0.07850000
v 0.00972406 0.05514899 -0.07130000
v 0.01915305 0.05262298 -0.07130000
v 0.01915305 0.05262298 -0.07850000
v 0.02800005 0.04849697 -0.07130000
v 0.02800005 0.04849697 -0.07850000
v 0.03599604 0.04289796 -0.07130000
v 0.03599604 0.04289796 -0.07850000
v 0.04289804 0.03599596 -0.07130000
v 0.04289804 0.03599596 -0.07850000
v 0.04849703 0.02799995 -0.07130000
v 0.04849703 0.02799995 -0.07850000
v 0.05262302 0.01915295 -0.07130000
v 0.05262302 0.01915295 -0.07850000
v 0.05514901 0.00972394 -0.07130000
v 0.05514901 0.00972394 -0.07850000
v 0.05600000 -0.00000006 -0.07130000
v 0.05600000 -0.00000006 -0.07850000
v 0.05514899 -0.00972406 -0.07130000
v 0.05514899 -0.00972406 -0.07850000
v 0.05262298 -0.01915305 -0.07130000
v 0.05262298 -0.01915305 -0.07850000
v 0.04849697 -0.02800005 -0.07130000
v 0.04849697 -0.02800005 -0.07850000
v 0.04289796 -0.03599604 -0.07130000
v 0.04289796 -0.03599604 -0.07850000
v 0.03599596 -0.04289804 -0.07130000
v 0.03599596 -0.04289804 -0.07850000
v 0.02799995 -0.04849703 -0.07130000
v 0.02799995 -0.04849703 -0.07850000
v 0.01915295 -0.05262302 -0.07130000
v 0.01915295 -0.05262302 -0.07850000
v 0.00972394 -0.05514901 -0.07130000
v 0.00972394 -0.05514901 -0.07850000
v -0.01021106 -0.05790699 -0.07130000
v -0.00972406 -0.05514899 -0.07130000
v -0.00000006 -0.05880000 -0.07130000
v -0.00000006 -0.05600000 -0.07130000
v 0.01021094 -0.05790701 -0.07130000
v 0.00972394 -0.05514901 -0.07130000
v 0.01915295 -0.05262302 -0.07130000
v -0.01915305 -0.05262298 -0.07130000
v -0.02011106 -0.05525398 -0.07130000
v -0.02800005 -0.04849697 -0.07130000
v -0.02940005 -0.05092197 -0.07130000
v -0.03599604 -0.04289796 -0.07130000
v -0.03779605 -0.04504296 -0.07130000
v -0.04289804 -0.03599596 -0.07130000
v -0.04504304 -0.03779595 -0.07130000
v -0.04849703 -0.02799995 -0.07130000
v -0.05092203 -0.02939995 -0.07130000
v -0.05262302 -0.01915295 -0.07130000
v -0.05525402 -0.02011094 -0.07130000
v -0.05514901 -0.00972394 -0.07130000
v -0.05790701 -0.01021094 -0.07130000
v -0.05600000 0.00000006 -0.07130000
v -0.05880000 0.00000006 -0.07130000
v -0.05790699 0.01021106 -0.07130000
v -0.05514899 0.00972406 -0.07130000
v -0.05525398 0.02011106 -0.07130000
v -0.05262298 0.01915305 -0.07130000
v -0.05092197 0.02940005 -0.07130000
v -0.04849697 0.02800005 -0.07130000
v -0.04504296 0.03779605 -0.07130000
v -0.04289796 0.03599604 -0.07130000
v -0.03779595 0.04504304 -0.07130000
v -0.03599596 0.04289804 -0.07130000
v -0.02939995 0.05092203 -0.07130000
v -0.02799995 0.04849703 -0.07130000
v -0.02011094 0.05525402 -0.07130000
v -0.01915295 0.05262302 -0.07130000
v -0.01021094 0.05790701 -0.07130000
v -0.00972394 0.05514901 -0.07130000
v 0.00000006 0.05880000 -0.07130000
v 0.00000006 0.05600000 -0.07130000
v 0.00972406 0.05514899 -0.07130000
v 0.01021106 0.05790699 -0.07130000
v 0.01915305 0.05262298 -0.07130000
v 0.02011106 0.05525398 -0.07130000
v 0.02800005 0.04849697 -0.07130000
v 0.02940005 0.05092197 -0.07130000
v 0.03599604 0.04289796 -0.07130000
v 0.03779605 0.04504296 -0.07130000
v 0.04289804 0.03599596 -0.07130000
v 0.04504304 0.03779595 -0.07130000
v 0.04849703 0.02799995 -0.07130000
v 0.05092203 0.02939995 -0.07130000
v 0.05262302 0.01915295 -0.07130000
v 0.05525402 0.02011094 -0.07130000
v 0.05514901 0.00972394 -0.07130000
v 0.05790701 0.01021094 -0.07130000
v 0.05600000 -0.00000006 -0.07130000
v 0.05880000 -0.00000006 -0.07130000
v 0.05790699 -0.01021106 -0.07130000
v 0.05514899 -0.00972406 -0.07130000
v 0.05525398 -0.02011106 -0.07130000
v 0.05262298 -0.01915305 -0.07130000
v 0.05092197 -0.02940005 -0.07130000
v 0.04849697 -0.02800005 -0.07130000
v 0.04504296 -0.03779605 -0.07130000
v 0.04289796 -0.03599604 -0.07130000
v 0.03779595 -0.04504304 -0.07130000
v 0.03599596 -0.04289804 -0.07130000
v 0.02939995 -0.05092203 -0.07130000
v 0.02799995 -0.04849703 -0.07130000
v 0.02011094 -0.05525402 -0.07130000
v 0.00988595 -0.05288401 0.08180000
v -0.00000005 -0.05380000 0.08180000
v 0.00976095 -0.05379001 0.08172400
v -0.00000006 -0.05534500 0.08155500
v 0.01005294 -0.05539501 0.08113000
v -0.00000006 -0.05673900 0.08084500
v 0.01028994 -0.05670401 0.08001400
v -0.00000006 -0.05784500 0.07973900
v 0.01044494 -0.05755801 0.07851000
v -0.00000006 -0.05855500 0.07834500
v 0.01021094 -0.05790701 0.07680000
v -0.00000006 -0.05880000 0.07680000
v 0.02011094 -0.05525402 0.07680000
v 0.02055495 -0.05476802 0.07851000
v 0.02024995 -0.05395502 0.08001400
v 0.02955795 -0.04947303 0.08001400
v 0.02887595 -0.04833103 0.08113000
v 0.03704196 -0.04239804 0.08113000
v 0.03596796 -0.04116904 0.08172400
v 0.04274097 -0.03408504 0.08172400
v 0.03624496 -0.03975904 0.08180000
v 0.04293297 -0.03242204 0.08180000
v 0.04814097 -0.02590605 0.08172400
v 0.04815998 -0.02398105 0.08180000
v 0.05199298 -0.01689305 0.08172400
v 0.05174599 -0.01472305 0.08180000
v 0.05417299 -0.00733805 0.08172400
v 0.05357000 -0.00496405 0.08180000
v 0.05461300 0.00245295 0.08172400
v 0.05357000 0.00496395 0.08180000
v 0.05329801 0.01216495 0.08172400
v 0.05174601 0.01472295 0.08180000
v 0.05026902 0.02148595 0.08172400
v 0.04816002 0.02398095 0.08180000
v 0.04562503 0.03011695 0.08172400
v 0.04293303 0.03242196 0.08180000
v 0.03951404 0.03777896 0.08172400
v 0.03624504 0.03975896 0.08180000
v 0.03213304 0.04422797 0.08172400
v 0.02832205 0.04574197 0.08180000
v 0.02372005 0.04925398 0.08172400
v 0.01943505 0.05016698 0.08180000
v 0.01454405 0.05269799 0.08172400
v 0.00988605 0.05288399 0.08180000
v 0.00490005 0.05444800 0.08172400
v 0.00504706 0.05607299 0.08113000
v 0.00516606 0.05739799 0.08001400
v 0.00524406 0.05826299 0.07851000
v 0.01021106 0.05790699 0.07680000
v 0.01556306 0.05638998 0.07851000
v 0.02011106 0.05525398 0.07680000
v 0.02538205 0.05270497 0.07851000
v 0.02940005 0.05092197 0.07680000
v 0.03438505 0.04732597 0.07851000
v 0.03779605 0.04504296 0.07680000
v 0.04228204 0.04042596 0.07851000
v 0.04504304 0.03779595 0.07680000
v 0.04882103 0.03222695 0.07851000
v 0.05092203 0.02939995 0.07680000
v 0.05379102 0.02299095 0.07851000
v 0.05525402 0.02011094 0.07680000
v 0.05703201 0.01301694 0.07851000
v 0.05790701 0.01021094 0.07680000
v 0.05844000 0.00262494 0.07851000
v 0.05880000 -0.00000006 0.07680000
v 0.05796899 -0.00785206 0.07851000
v 0.05790699 -0.01021106 0.07680000
v 0.05563498 -0.01807706 0.07851000
v 0.05525398 -0.02011106 0.07680000
v 0.05151297 -0.02772105 0.07851000
v 0.05092197 -0.02940005 0.07680000
v 0.04573596 -0.03647305 0.07851000
v 0.04504296 -0.03779605 0.07680000
v 0.03848796 -0.04405404 0.07851000
v 0.03779595 -0.04504304 0.07680000
v 0.03000395 -0.05021803 0.07851000
v 0.02939995 -0.05092203 0.07680000
v 0.02832195 -0.04574203 0.08180000
v 0.02803895 -0.04693003 0.08172400
v 0.01978195 -0.05271002 0.08113000
v 0.01943495 -0.05016702 0.08180000
v 0.01920895 -0.05118202 0.08172400
v 0.03791696 -0.04340004 0.08001400
v 0.04401696 -0.03510204 0.08113000
v 0.04505696 -0.03593205 0.08001400
v 0.04957797 -0.02667905 0.08113000
v 0.05074897 -0.02730905 0.08001400
v 0.05354398 -0.01739805 0.08113000
v 0.05480998 -0.01780905 0.08001400
v 0.05578999 -0.00755706 0.08113000
v 0.05710899 -0.00773606 0.08001400
v 0.05624300 0.00252594 0.08113000
v 0.05757200 0.00258594 0.08001400
v 0.05488801 0.01252795 0.08113000
v 0.05618501 0.01282394 0.08001400
v 0.05176902 0.02212695 0.08113000
v 0.05299302 0.02264995 0.08001400
v 0.04698603 0.03101595 0.08113000
v 0.04809703 0.03174795 0.08001400
v 0.04069304 0.03890696 0.08113000
v 0.04165504 0.03982596 0.08001400
v 0.03309205 0.04554797 0.08113000
v 0.03387405 0.04662397 0.08001400
v 0.02442805 0.05072498 0.08113000
v 0.02500505 0.05192297 0.08001400
v 0.01497805 0.05427099 0.08113000
v 0.01533206 0.05555298 0.08001400
vn 0.00000000 30.90170000 95.10565000
vn 0.00000000 0.00000000 100.00000000
vn 8.42334000 34.20202000 93.59097000
vn 17.36482000 0.00000000 98.48077000
vn 24.99929000 34.20202000 90.58288000
vn 34.20202000 0.00000000 93.96926000
vn 40.77174000 34.20202000 84.66338000
vn 50.00000000 0.00000000 86.60254000
vn 55.23375000 34.20202000 76.02273000
vn 64.27876000 0.00000000 76.60445000
vn 67.92050000 34.20202000 64.93864000
vn 76.60445000 0.00000000 64.27876000
vn 78.42423000 34.20202000 51.76738000
vn 86.60254000 0.00000000 50.00000000
vn 86.40735000 34.20202000 36.93227000
vn 93.96926000 0.00000000 34.20202000
vn 91.61326000 34.20202000 20.91013000
vn 98.48077000 0.00000000 17.36482000
vn 93.87464000 34.20202000 4.21592000
vn 100.00000000 0.00000000 0.00000000
vn 93.11882000 34.20202000 -12.61380000
vn 98.48077000 0.00000000 -17.36482000
vn 89.37008000 34.20202000 -29.03810000
vn 93.96926000 0.00000000 -34.20202000
vn 82.74891000 34.20202000 -44.52909000
vn 86.60254000 0.00000000 -50.00000000
vn 73.46812000 34.20202000 -58.58888000
vn 76.60445000 0.00000000 -64.27876000
vn 61.82602000 34.20202000 -70.76557000
vn 64.27876000 0.00000000 -76.60445000
vn 48.19677000 34.20202000 -80.66780000
vn 50.00000000 0.00000000 -86.60254000
vn 33.01843000 34.20202000 -87.97730000
vn 34.20202000 0.00000000 -93.96926000
vn 16.77886000 34.20202000 -92.45914000
vn 17.36482000 0.00000000 -98.48077000
vn 0.00000000 30.90170000 -95.10565000
vn 0.00000000 0.00000000 -100.00000000
vn 0.00000000 58.77853000 -80.90170000
vn 13.67825000 64.27876000 -75.37338000
vn 26.91687000 64.27876000 -71.71975000
vn 39.29036000 64.27876000 -65.76099000
vn 50.40103000 64.27876000 -57.68862000
vn 59.89177000 64.27876000 -47.76209000
vn 67.45753000 64.27876000 -36.30045000
vn 72.85516000 64.27876000 -23.67208000
vn 75.91116000 64.27876000 -10.28286000
vn 76.52731000 64.27876000 3.43684000
vn 74.68381000 64.27876000 17.04609000
vn 70.43991000 64.27876000 30.10746000
vn 63.93202000 64.27876000 42.20116000
vn 55.36930000 64.27876000 52.93847000
vn 45.02696000 64.27876000 61.97430000
vn 33.23742000 64.27876000 69.01822000
vn 20.37960000 64.27876000 73.84384000
vn 6.86677000 64.27876000 76.29606000
vn 0.00000000 58.77853000 80.90170000
vn 0.00000000 80.90170000 58.77853000
vn 4.48197000 86.60254000 49.79871000
vn 0.00000000 95.10565000 30.90170000
vn 1.55657000 98.48077000 17.29491000
vn 0.00000000 100.00000000 0.00000000
vn 0.00000000 100.00000000 0.00000000
vn 4.61968000 98.48077000 16.73904000
vn 0.00000000 100.00000000 0.00000000
vn 7.53431000 98.48077000 15.64516000
vn 0.00000000 100.00000000 0.00000000
vn 10.20678000 98.48077000 14.04843000
vn 0.00000000 100.00000000 0.00000000
vn 12.55120000 98.48077000 12.00018000
vn 0.00000000 100.00000000 0.00000000
vn 14.49221000 98.48077000 9.56623000
vn 0.00000000 100.00000000 0.00000000
vn 15.96743000 98.48077000 6.82481000
vn 0.00000000 100.00000000 0.00000000
vn 16.92945000 98.48077000 3.86404000
vn 0.00000000 100.00000000 0.00000000
vn 17.34733000 98.48077000 0.77907000
vn 0.00000000 100.00000000 0.00000000
vn 17.20766000 98.48077000 -2.33094000
vn 0.00000000 100.00000000 0.00000000
vn 16.51492000 98.48077000 -5.36602000
vn 0.00000000 100.00000000 0.00000000
vn 15.29138000 98.48077000 -8.22864000
vn 0.00000000 100.00000000 0.00000000
vn 13.57636000 98.48077000 -10.82679000
vn 0.00000000 100.00000000 0.00000000
vn 11.42499000 98.48077000 -13.07695000
vn 0.00000000 100.00000000 0.00000000
vn 8.90640000 98.48077000 -14.90681000
vn 0.00000000 100.00000000 0.00000000
vn 6.10156000 98.48077000 -16.25755000
vn 0.00000000 100.00000000 0.00000000
vn 3.10061000 98.48077000 -17.08576000
vn 0.00000000 100.00000000 0.00000000
vn 0.00000000 95.10565000 -30.90170000
vn 8.92784000 86.60254000 -49.19648000
vn 0.00000000 80.90170000 -58.77853000
vn 13.30184000 86.60254000 48.19814000
vn 21.69419000 86.60254000 45.04844000
vn 29.38926000 86.60254000 40.45085000
vn 36.13974000 86.60254000 34.55313000
vn 41.72866000 86.60254000 27.54485000
vn 45.97639000 86.60254000 19.65125000
vn 48.74640000 86.60254000 11.12605000
vn 49.94965000 86.60254000 2.24324000
vn 49.54749000 86.60254000 -6.71166000
vn 47.55283000 86.60254000 -15.45085000
vn 44.02978000 86.60254000 -23.69343000
vn 39.09158000 86.60254000 -31.17449000
vn 32.89694000 86.60254000 -37.65357000
vn 25.64496000 86.60254000 -42.92244000
vn 17.56874000 86.60254000 -46.81174000
vn 0.00000000 0.00000000 -100.00000000
vn 17.36482000 0.00000000 -98.48077000
vn 0.00000000 0.00000000 -100.00000000
vn 17.36482000 0.00000000 -98.48077000
vn 34.20202000 0.00000000 -93.96926000
vn 34.20202000 0.00000000 -93.96926000
vn 50.00000000 0.00000000 -86.60254000
vn 50.00000000 0.00000000 -86.60254000
vn 64.27876000 0.00000000 -76.60445000
vn 64.27876000 0.00000000 -76.60445000
vn 76.60445000 0.00000000 -64.27876000
vn 76.60445000 0.00000000 -64.27876000
vn 86.60254000 0.00000000 -50.00000000
vn 86.60254000 0.00000000 -50.00000000
vn 93.96926000 0.00000000 -34.20202000
vn 93.96926000 0.00000000 -34.20202000
vn 98.48077000 0.00000000 -17.36482000
vn 98.48077000 0.00000000 -17.36482000
vn 100.00000000 0.00000000 0.00000000
vn 100.00000000 0.00000000 0.00000000
vn 98.48077000 0.00000000 17.36482000
vn 98.48077000 0.00000000 17.36482000
vn 93.96926000 0.00000000 34.20202000
vn 93.96926000 0.00000000 34.20202000
vn 86.60254000 0.00000000 50.00000000
vn 86.60254000 0.00000000 50.00000000
vn 76.60445000 0.00000000 64.27876000
vn 76.60445000 0.00000000 64.27876000
vn 64.27876000 0.00000000 76.60445000
vn 64.27876000 0.00000000 76.60445000
vn 50.00000000 0.00000000 86.60254000
vn 50.00000000 0.00000000 86.60254000
vn 34.20202000 0.00000000 93.96926000
vn 34.20202000 0.00000000 93.96926000
vn 17.36482000 0.00000000 98.48077000
vn 17.36482000 0.00000000 98.48077000
vn 0.00000000 0.00000000 100.00000000
vn 0.00000000 0.00000000 100.00000000
vn 0.00000000 0.00000000 -100.00000000
vn 17.36482000 0.00000000 -98.48077000
vn 0.00000000 0.00000000 -100.00000000
vn 17.36482000 0.00000000 -98.48077000
vn 34.20202000 0.00000000 -93.96926000
vn 34.20202000 0.00000000 -93.96926000
vn 50.00000000 0.00000000 -86.60254000
vn 50.00000000 0.00000000 -86.60254000
vn 64.27876000 0.00000000 -76.60445000
vn 64.27876000 0.00000000 -76.60445000
vn 76.60445000 0.00000000 -64.27876000
vn 76.60445000 0.00000000 -64.27876000
vn 86.60254000 0.00000000 -50.00000000
vn 86.60254000 0.00000000 -50.00000000
vn 93.96926000 0.00000000 -34.20202000
vn 93.96926000 0.00000000 -34.20202000
vn 98.48077000 0.00000000 -17.36482000
vn 98.48077000 0.00000000 -17.36482000
vn 100.00000000 0.00000000 0.00000000
vn 100.00000000 0.00000000 0.00000000
vn 98.48077000 0.00000000 17.36482000
vn 98.48077000 0.00000000 17.36482000
vn 93.96926000 0.00000000 34.20202000
vn 93.96926000 0.00000000 34.20202000
vn 86.60254000 0.00000000 50.00000000
vn 86.60254000 0.00000000 50.00000000
vn 76.60445000 0.00000000 64.27876000
vn 76.60445000 0.00000000 64.27876000
vn 64.27876000 0.00000000 76.60445000
vn 64.27876000 0.00000000 76.60445000
vn 50.00000000 0.00000000 86.60254000
vn 50.00000000 0.00000000 86.60254000
vn 34.20202000 0.00000000 93.96926000
vn 34.20202000 0.00000000 93.96926000
vn 17.36482000 0.00000000 98.48077000
vn 17.36482000 0.00000000 98.48077000
vn 0.00000000 0.00000000 100.00000000
vn 0.00000000 0.00000000 100.00000000
vn 0.00000000 0.00000000 100.00000000
vn 0.00000000 0.00000000 100.00000000
vn 17.36482000 0.00000000 98.48077000
vn 17.36482000 0.00000000 98.48077000
vn 34.20202000 0.00000000 93.96926000
vn 34.20202000 0.00000000 93.96926000
vn 50.00000000 0.00000000 86.60254000
vn 50.00000000 0.00000000 86.60254000
vn 64.27876000 0.00000000 76.60445000
vn 64.27876000 0.00000000 76.60445000
vn 76.60445000 0.00000000 64.27876000
vn 76.60445000 0.00000000 64.27876000
vn 86.60254000 0.00000000 50.00000000
vn 86.60254000 0.00000000 50.00000000
vn 93.96926000 0.00000000 34.20202000
vn 93.96926000 0.00000000 34.20202000
vn 98.48077000 0.00000000 17.36482000
vn 98.48077000 0.00000000 17.36482000
vn 100.00000000 0.00000000 0.00000000
vn 100.00000000 0.00000000 0.00000000
vn 98.48077000 0.00000000 -17.36482000
vn 98.48077000 0.00000000 -17.36482000
vn 93.96926000 0.00000000 -34.20202000
vn 93.96926000 0.00000000 -34.20202000
vn 86.60254000 0.00000000 -50.00000000
vn 86.60254000 0.00000000 -50.00000000
vn 76.60445000 0.00000000 -64.27876000
vn 76.60445000 0.00000000 -64.27876000
vn 64.27876000 0.00000000 -76.60445000
vn 64.27876000 0.00000000 -76.60445000
vn 50.00000000 0.00000000 -86.60254000
vn 50.00000000 0.00000000 -86.60254000
vn 34.20202000 0.00000000 -93.96926000
vn 34.20202000 0.00000000 -93.96926000
vn 17.36482000 0.00000000 -98.48077000
vn 17.36482000 0.00000000 -98.48077000
vn 0.00000000 0.00000000 -100.00000000
vn 0.00000000 0.00000000 -100.00000000
vn 0.00000000 0.00000000 -100.00000000
vn -17.36482000 0.00000000 -98.48077000
vn 0.00000000 0.00000000 -100.00000000
vn -17.36482000 0.00000000 -98.48077000
vn -34.20202000 0.00000000 -93.96926000
vn -34.20202000 0.00000000 -93.96926000
vn -50.00000000 0.00000000 -86.60254000
vn -50.00000000 0.00000000 -86.60254000
vn -64.27876000 0.00000000 -76.60445000
vn -64.27876000 0.00000000 -76.60445000
vn -76.60445000 0.00000000 -64.27876000
vn -76.60445000 0.00000000 -64.27876000
vn -86.60254000 0.00000000 -50.00000000
vn -86.60254000 0.00000000 -50.00000000
vn -93.96926000 0.00000000 -34.20202000
vn -93.96926000 0.00000000 -34.20202000
vn -98.48077000 0.00000000 -17.36482000
vn -98.48077000 0.00000000 -17.36482000
vn -100.00000000 0.00000000 -0.00000000
vn -100.00000000 0.00000000 -0.00000000
vn -98.48077000 0.00000000 17.36482000
vn -98.48077000 0.00000000 17.36482000
vn -93.96926000 0.00000000 34.20202000
vn -93.96926000 0.00000000 34.20202000
vn -86.60254000 0.00000000 50.00000000
vn -86.60254000 0.00000000 50.00000000
vn -76.60445000 0.00000000 64.27876000
vn -76.60445000 0.00000000 64.27876000
vn -64.27876000 0.00000000 76.60445000
vn -64.27876000 0.00000000 76.60445000
vn -50.00000000 0.00000000 86.60254000
vn -50.00000000 0.00000000 86.60254000
vn -34.20202000 0.00000000 93.96926000
vn -34.20202000 0.00000000 93.96926000
vn -17.36482000 0.00000000 98.48077000
vn -17.36482000 0.00000000 98.48077000
vn 0.00000000 100.00000000 0.00000000
vn 0.00000000 100.00000000 0.00000000
vn 0.00000000 100.00000000 0.00000000
vn 0.00000000 100.00000000 0.00000000
vn 0.00000000 100.00000000 0.00000000
vn 0.00000000 100.00000000 0.00000000
vn 0.00000000 100.00000000 0.00000000
vn 0.00000000 100.00000000 0.00000000
vn 0.00000000 100.00000000 0.00000000
vn 0.00000000 100.00000000 0.00000000
vn 0.00000000 100.00000000 0.00000000
vn 0.00000000 100.00000000 0.00000000
vn 0.00000000 100.00000000 0.00000000
vn 0.00000000 100.00000000 0.00000000
vn 0.00000000 100.00000000 0.00000000
vn 0.00000000 100.00000000 0.00000000
vn 0.00000000 100.00000000 0.00000000
vn 0.00000000 100.00000000 0.00000000
vn 0.00000000 100.00000000 0.00000000
vn 0.00000000 100.00000000 0.00000000
vn 0.00000000 100.00000000 0.00000000
vn 0.00000000 100.00000000 0.00000000
vn 0.00000000 100.00000000 0.00000000
vn 0.00000000 100.00000000 0.00000000
vn 0.00000000 100.00000000 0.00000000
vn 0.00000000 100.00000000 0.00000000
vn 0.00000000 100.00000000 0.00000000
vn 0.00000000 100.00000000 0.00000000
vn 0.00000000 100.00000000 0.00000000
vn 0.00000000 100.00000000 0.00000000
vn 0.00000000 100.00000000 0.00000000
vn 0.00000000 100.00000000 0.00000000
vn 0.00000000 100.00000000 0.00000000
vn 0.00000000 100.00000000 0.00000000
vn 0.00000000 0.00000000 100.00000000
vn 0.00000000 0.00000000 100.00000000
vn -17.36482000 0.00000000 98.48077000
vn -17.36482000 0.00000000 98.48077000
vn -34.20202000 0.00000000 93.96926000
vn -34.20202000 0.00000000 93.96926000
vn -50.00000000 0.00000000 86.60254000
vn -50.00000000 0.00000000 86.60254000
vn -64.27876000 0.00000000 76.60445000
vn -64.27876000 0.00000000 76.60445000
vn -76.60445000 0.00000000 64.27876000
vn -76.60445000 0.00000000 64.27876000
vn -86.60254000 0.00000000 50.00000000
vn -86.60254000 0.00000000 50.00000000
vn -93.96926000 0.00000000 34.20202000
vn -93.96926000 0.00000000 34.20202000
vn -98.48077000 0.00000000 17.36482000
vn -98.48077000 0.00000000 17.36482000
vn -100.00000000 0.00000000 -0.00000000
vn -100.00000000 0.00000000 -0.00000000
vn -98.48077000 0.00000000 -17.36482000
vn -98.48077000 0.00000000 -17.36482000
vn -93.96926000 0.00000000 -34.20202000
vn -93.96926000 0.00000000 -34.20202000
vn -86.60254000 0.00000000 -50.00000000
vn -86.60254000 0.00000000 -50.00000000
vn -76.60445000 0.00000000 -64.27876000
vn -76.60445000 0.00000000 -64.27876000
vn -64.27876000 0.00000000 -76.60445000
vn -64.27876000 0.00000000 -76.60445000
vn -50.00000000 0.00000000 -86.60254000
vn -50.00000000 0.00000000 -86.60254000
vn -34.20202000 0.00000000 -93.96926000
vn -34.20202000 0.00000000 -93.96926000
vn -17.36482000 0.00000000 -98.48077000
vn -17.36482000 0.00000000 -98.48077000
vn 0.00000000 -100.00000000 0.00000000
vn 0.00000000 -100.00000000 0.00000000
vn 0.00000000 -100.00000000 0.00000000
vn 0.00000000 -100.00000000 0.00000000
vn 0.00000000 -100.00000000 0.00000000
vn 0.00000000 -100.00000000 0.00000000
vn 0.00000000 -100.00000000 0.00000000
vn 0.00000000 -100.00000000 0.00000000
vn 0.00000000 -100.00000000 0.00000000
vn 0.00000000 -100.00000000 0.00000000
vn 0.00000000 -100.00000000 0.00000000
vn 0.00000000 -100.00000000 0.00000000
vn 0.00000000 -100.00000000 0.00000000
vn 0.00000000 -100.00000000 0.00000000
vn 0.00000000 -100.00000000 0.00000000
vn 0.00000000 -100.00000000 0.00000000
vn 0.00000000 -100.00000000 0.00000000
vn 0.00000000 -100.00000000 0.00000000
vn 0.00000000 -100.00000000 0.00000000
vn 0.00000000 -100.00000000 0.00000000
vn 0.00000000 -100.00000000 0.00000000
vn 0.00000000 -100.00000000 0.00000000
vn 0.00000000 -100.00000000 0.00000000
vn 0.00000000 -100.00000000 0.00000000
vn 0.00000000 -100.00000000 0.00000000
vn 0.00000000 -100.00000000 0.00000000
vn 0.00000000 -100.00000000 0.00000000
vn 0.00000000 -100.00000000 0.00000000
vn 0.00000000 -100.00000000 0.00000000
vn 0.00000000 -100.00000000 0.00000000
vn 0.00000000 -100.00000000 0.00000000
vn 0.00000000 -100.00000000 0.00000000
vn 0.00000000 -100.00000000 0.00000000
vn 0.00000000 -100.00000000 0.00000000
vn 0.00000000 -100.00000000 0.00000000
vn 0.00000000 -100.00000000 0.00000000
vn 0.00000000 0.00000000 100.00000000
vn 0.00000000 0.00000000 100.00000000
vn -17.36482000 0.00000000 98.48077000
vn -17.36482000 0.00000000 98.48077000
vn -34.20202000 0.00000000 93.96926000
vn -34.20202000 0.00000000 93.96926000
vn -50.00000000 0.00000000 86.60254000
vn -50.00000000 0.00000000 86.60254000
vn -64.27876000 0.00000000 76.60445000
vn -64.27876000 0.00000000 76.60445000
vn -76.60445000 0.00000000 64.27876000
vn -76.60445000 0.00000000 64.27876000
vn -86.60254000 0.00000000 50.00000000
vn -86.60254000 0.00000000 50.00000000
vn -93.96926000 0.00000000 34.20202000
vn -93.96926000 0.00000000 34.20202000
vn -98.48077000 0.00000000 17.36482000
vn -98.48077000 0.00000000 17.36482000
vn -100.00000000 0.00000000 -0.00000000
vn -100.00000000 0.00000000 -0.00000000
vn -98.48077000 0.00000000 -17.36482000
vn -98.48077000 0.00000000 -17.36482000
vn -93.96926000 0.00000000 -34.20202000
vn -93.96926000 0.00000000 -34.20202000
vn -86.60254000 0.00000000 -50.00000000
vn -86.60254000 0.00000000 -50.00000000
vn -76.60445000 0.00000000 -64.27876000
vn -76.60445000 0.00000000 -64.27876000
vn -64.27876000 0.00000000 -76.60445000
vn -64.27876000 0.00000000 -76.60445000
vn -50.00000000 0.00000000 -86.60254000
vn -50.00000000 0.00000000 -86.60254000
vn -34.20202000 0.00000000 -93.96926000
vn -34.20202000 0.00000000 -93.96926000
vn -17.36482000 0.00000000 -98.48077000
vn -17.36482000 0.00000000 -98.48077000
vn 0.00000000 -100.00000000 0.00000000
vn 0.00000000 -100.00000000 0.00000000
vn 0.00000000 -100.00000000 0.00000000
vn 0.00000000 -100.00000000 0.00000000
vn 0.00000000 -100.00000000 0.00000000
vn 0.00000000 -100.00000000 0.00000000
vn 0.00000000 -100.00000000 0.00000000
vn 0.00000000 -100.00000000 0.00000000
vn 0.00000000 -100.00000000 0.00000000
vn 0.00000000 -100.00000000 0.00000000
vn 0.00000000 -100.00000000 0.00000000
vn 0.00000000 -100.00000000 0.00000000
vn 0.00000000 -100.00000000 0.00000000
vn 0.00000000 -100.00000000 0.00000000
vn 0.00000000 -100.00000000 0.00000000
vn 0.00000000 -100.00000000 0.00000000
vn 0.00000000 -100.00000000 0.00000000
vn 0.00000000 -100.00000000 0.00000000
vn 0.00000000 -100.00000000 0.00000000
vn 0.00000000 -100.00000000 0.00000000
vn 0.00000000 -100.00000000 0.00000000
vn 0.00000000 -100.00000000 0.00000000
vn 0.00000000 -100.00000000 0.00000000
vn 0.00000000 -100.00000000 0.00000000
vn 0.00000000 -100.00000000 0.00000000
vn 0.00000000 -100.00000000 0.00000000
vn 0.00000000 -100.00000000 0.00000000
vn 0.00000000 -100.00000000 0.00000000
vn 0.00000000 -100.00000000 0.00000000
vn 0.00000000 -100.00000000 0.00000000
vn 0.00000000 -100.00000000 0.00000000
vn 0.00000000 -100.00000000 0.00000000
vn 0.00000000 -100.00000000 0.00000000
vn 0.00000000 -100.00000000 0.00000000
vn 0.00000000 -100.00000000 0.00000000
vn 0.00000000 -100.00000000 0.00000000
vn 0.00000000 -100.00000000 0.00000000
vn 0.00000000 -100.00000000 0.00000000
vn 0.00000000 -100.00000000 0.00000000
vn 0.00000000 -100.00000000 0.00000000
vn 0.00000000 -100.00000000 0.00000000
vn 0.00000000 -100.00000000 0.00000000
vn 0.00000000 -100.00000000 0.00000000
vn 0.00000000 -100.00000000 0.00000000
vn 0.00000000 -100.00000000 0.00000000
vn 0.00000000 -100.00000000 0.00000000
vn 0.00000000 -100.00000000 0.00000000
vn 0.00000000 -100.00000000 0.00000000
vn 0.00000000 -100.00000000 0.00000000
vn 0.00000000 -100.00000000 0.00000000
vn 0.00000000 -100.00000000 0.00000000
vn 0.00000000 -100.00000000 0.00000000
vn 0.00000000 -100.00000000 0.00000000
vn 0.00000000 -100.00000000 0.00000000
vn 0.00000000 -100.00000000 0.00000000
vn 0.00000000 -100.00000000 0.00000000
vn 0.00000000 -100.00000000 0.00000000
vn 0.00000000 -100.00000000 0.00000000
vn 0.00000000 -100.00000000 0.00000000
vn 0.00000000 -100.00000000 0.00000000
vn 0.00000000 -100.00000000 0.00000000
vn 0.00000000 -100.00000000 0.00000000
vn 0.00000000 -100.00000000 0.00000000
vn 0.00000000 -100.00000000 0.00000000
vn 0.00000000 -100.00000000 0.00000000
vn 0.00000000 -100.00000000 0.00000000
vn 0.00000000 -100.00000000 0.00000000
vn 0.00000000 -100.00000000 0.00000000
vn 0.00000000 -100.00000000 0.00000000
vn 0.00000000 -100.00000000 0.00000000
vn 0.00000000 -100.00000000 0.00000000
vn 0.00000000 -100.00000000 0.00000000
vn 0.00000000 100.00000000 0.00000000
vn 0.00000000 100.00000000 0.00000000
vn -3.10061000 98.48077000 -17.08576000
vn 0.00000000 95.10565000 -30.90170000
vn -8.92784000 86.60254000 -49.19648000
vn 0.00000000 80.90170000 -58.77853000
vn -13.67825000 64.27876000 -75.37338000
vn 0.00000000 58.77853000 -80.90170000
vn -16.77886000 34.20202000 -92.45914000
vn 0.00000000 30.90170000 -95.10565000
vn -17.36482000 0.00000000 -98.48077000
vn 0.00000000 0.00000000 -100.00000000
vn -34.20202000 0.00000000 -93.96926000
vn -33.01843000 34.20202000 -87.97730000
vn -26.91687000 64.27876000 -71.71975000
vn -39.29036000 64.27876000 -65.76099000
vn -25.64496000 86.60254000 -42.92244000
vn -32.89694000 86.60254000 -37.65357000
vn -11.42499000 98.48077000 -13.07695000
vn -13.57636000 98.48077000 -10.82679000
vn 0.00000000 100.00000000 0.00000000
vn 0.00000000 100.00000000 0.00000000
vn -15.29138000 98.48077000 -8.22864000
vn 0.00000000 100.00000000 0.00000000
vn -16.51492000 98.48077000 -5.36602000
vn 0.00000000 100.00000000 0.00000000
vn -17.20766000 98.48077000 -2.33094000
vn 0.00000000 100.00000000 0.00000000
vn -17.34733000 98.48077000 0.77907000
vn 0.00000000 100.00000000 0.00000000
vn -16.92945000 98.48077000 3.86404000
vn 0.00000000 100.00000000 0.00000000
vn -15.96743000 98.48077000 6.82481000
vn 0.00000000 100.00000000 0.00000000
vn -14.49221000 98.48077000 9.56623000
vn 0.00000000 100.00000000 0.00000000
vn -12.55120000 98.48077000 12.00018000
vn 0.00000000 100.00000000 0.00000000
vn -10.20678000 98.48077000 14.04843000
vn 0.00000000 100.00000000 0.00000000
vn -7.53431000 98.48077000 15.64516000
vn 0.00000000 100.00000000 0.00000000
vn -4.61968000 98.48077000 16.73904000
vn 0.00000000 100.00000000 0.00000000
vn -1.55657000 98.48077000 17.29491000
vn -4.48197000 86.60254000 49.79871000
vn -6.86677000 64.27876000 76.29606000
vn -8.42334000 34.20202000 93.59097000
vn -17.36482000 0.00000000 98.48077000
vn -24.99929000 34.20202000 90.58288000
vn -34.20202000 0.00000000 93.96926000
vn -40.77174000 34.20202000 84.66338000
vn -50.00000000 0.00000000 86.60254000
vn -55.23375000 34.20202000 76.02273000
vn -64.27876000 0.00000000 76.60445000
vn -67.92050000 34.20202000 64.93864000
vn -76.60445000 0.00000000 64.27876000
vn -78.42423000 34.20202000 51.76738000
vn -86.60254000 0.00000000 50.00000000
vn -86.40735000 34.20202000 36.93227000
vn -93.96926000 0.00000000 34.20202000
vn -91.61326000 34.20202000 20.91013000
vn -98.48077000 0.00000000 17.36482000
vn -93.87464000 34.20202000 4.21592000
vn -100.00000000 0.00000000 -0.00000000
vn -93.11882000 34.20202000 -12.61380000
vn -98.48077000 0.00000000 -17.36482000
vn -89.37008000 34.20202000 -29.03810000
vn -93.96926000 0.00000000 -34.20202000
vn -82.74891000 34.20202000 -44.52909000
vn -86.60254000 0.00000000 -50.00000000
vn -73.46812000 34.20202000 -58.58888000
vn -76.60445000 0.00000000 -64.27876000
vn -61.82602000 34.20202000 -70.76557000
vn -64.27876000 0.00000000 -76.60445000
vn -48.19677000 34.20202000 -80.66780000
vn -50.00000000 0.00000000 -86.60254000
vn 0.00000000 100.00000000 0.00000000
vn -8.90640000 98.48077000 -14.90681000
vn -17.56874000 86.60254000 -46.81174000
vn 0.00000000 100.00000000 0.00000000
vn -6.10156000 98.48077000 -16.25755000
vn -50.40103000 64.27876000 -57.68862000
vn -39.09158000 86.60254000 -31.17449000
vn -59.89177000 64.27876000 -47.76209000
vn -44.02978000 86.60254000 -23.69343000
vn -67.45753000 64.27876000 -36.30045000
vn -47.55283000 86.60254000 -15.45085000
vn -72.85516000 64.27876000 -23.67208000
vn -49.54749000 86.60254000 -6.71166000
vn -75.91116000 64.27876000 -10.28286000
vn -49.94965000 86.60254000 2.24324000
vn -76.52731000 64.27876000 3.43684000
vn -48.74640000 86.60254000 11.12605000
vn -74.68381000 64.27876000 17.04609000
vn -45.97639000 86.60254000 19.65125000
vn -70.43991000 64.27876000 30.10746000
vn -41.72866000 86.60254000 27.54485000
vn -63.93202000 64.27876000 42.20116000
vn -36.13974000 86.60254000 34.55313000
vn -55.36930000 64.27876000 52.93847000
vn -29.38926000 86.60254000 40.45085000
vn -45.02696000 64.27876000 61.97430000
vn -21.69419000 86.60254000 45.04844000
vn -33.23742000 64.27876000 69.01822000
vn -13.30184000 86.60254000 48.19814000
vn -20.37960000 64.27876000 73.84384000
vt -0.15708000 0.00000000
vt -0.00000000 0.00000000
vt -0.17453000 0.51464000
vt -0.00000000 1.00069000
vt -0.17453000 1.54393000
vt -0.00000000 2.00139000
vt -0.17453000 2.57321000
vt -0.00000000 3.00208000
vt -0.17453000 3.60250000
vt -0.00000000 4.00278000
vt -0.17453000 4.63178000
vt -0.00000000 5.00347000
vt -0.17453000 5.66107000
vt -0.00000000 6.00416000
vt -0.17453000 6.69035000
vt -0.00000000 7.00486000
vt -0.17453000 7.71964000
vt -0.00000000 8.00555000
vt -0.17453000 8.74892000
vt -0.00000000 9.00624000
vt -0.17453000 9.77821000
vt -0.00000000 10.00694000
vt -0.17453000 10.80749000
vt -0.00000000 11.00763000
vt -0.17453000 11.83678000
vt -0.00000000 12.00833000
vt -0.17453000 12.86606000
vt -0.00000000 13.00902000
vt -0.17453000 13.89535000
vt -0.00000000 14.00971000
vt -0.17453000 14.92463000
vt -0.00000000 15.01041000
vt -0.17453000 15.95392000
vt -0.00000000 16.01110000
vt -0.17453000 16.98320000
vt -0.00000000 17.01180000
vt -0.15708000 18.01249000
vt -0.00000000 18.01249000
vt -0.31416000 18.01249000
vt -0.34907000 16.98320000
vt -0.34907000 15.95392000
vt -0.34907000 14.92463000
vt -0.34907000 13.89535000
vt -0.34907000 12.86606000
vt -0.34907000 11.83678000
vt -0.34907000 10.80749000
vt -0.34907000 9.77821000
vt -0.34907000 8.74892000
vt -0.34907000 7.71964000
vt -0.34907000 6.69035000
vt -0.34907000 5.66107000
vt -0.34907000 4.63178000
vt -0.34907000 3.60250000
vt -0.34907000 2.57321000
vt -0.34907000 1.54393000
vt -0.34907000 0.51464000
vt -0.31416000 0.00000000
vt -0.47124000 0.00000000
vt -0.52360000 0.51464000
vt -0.62832000 0.00000000
vt -0.69813000 0.51464000
vt -0.78540000 0.00000000
vt -0.78540000 1.05956000
vt -0.69813000 1.54393000
vt -0.78540000 2.11912000
vt -0.69813000 2.57321000
vt -0.78540000 3.17867000
vt -0.69813000 3.60250000
vt -0.78540000 4.23823000
vt -0.69813000 4.63178000
vt -0.78540000 5.29779000
vt -0.69813000 5.66107000
vt -0.78540000 6.35735000
vt -0.69813000 6.69035000
vt -0.78540000 7.41691000
vt -0.69813000 7.71964000
vt -0.78540000 8.47646000
vt -0.69813000 8.74892000
vt -0.78540000 9.53602000
vt -0.69813000 9.77821000
vt -0.78540000 10.59558000
vt -0.69813000 10.80749000
vt -0.78540000 11.65514000
vt -0.69813000 11.83678000
vt -0.78540000 12.71470000
vt -0.69813000 12.86606000
vt -0.78540000 13.77426000
vt -0.69813000 13.89535000
vt -0.78540000 14.83382000
vt -0.69813000 14.92463000
vt -0.78540000 15.89337000
vt -0.69813000 15.95392000
vt -0.78540000 16.95293000
vt -0.69813000 16.98320000
vt -0.78540000 18.01249000
vt -0.62832000 18.01249000
vt -0.52360000 16.98320000
vt -0.47124000 18.01249000
vt -0.52360000 1.54393000
vt -0.52360000 2.57321000
vt -0.52360000 3.60250000
vt -0.52360000 4.63178000
vt -0.52360000 5.66107000
vt -0.52360000 6.69035000
vt -0.52360000 7.71964000
vt -0.52360000 8.74892000
vt -0.52360000 9.77821000
vt -0.52360000 10.80749000
vt -0.52360000 11.83678000
vt -0.52360000 12.86606000
vt -0.52360000 13.89535000
vt -0.52360000 14.92463000
vt -0.52360000 15.95392000
vt -0.00000000 0.00000000
vt -0.00000000 0.97738000
vt -0.72000000 0.00000000
vt -0.72000000 0.97738000
vt -0.00000000 1.95477000
vt -0.72000000 1.95477000
vt -0.00000000 2.93215000
vt -0.72000000 2.93215000
vt -0.00000000 3.90954000
vt -0.72000000 3.90954000
vt -0.00000000 4.88692000
vt -0.72000000 4.88692000
vt -0.00000000 5.86431000
vt -0.72000000 5.86431000
vt -0.00000000 6.84169000
vt -0.72000000 6.84169000
vt -0.00000000 7.81908000
vt -0.72000000 7.81908000
vt -0.00000000 8.79646000
vt -0.72000000 8.79646000
vt -0.00000000 9.77384000
vt -0.72000000 9.77384000
vt -0.00000000 10.75123000
vt -0.72000000 10.75123000
vt -0.00000000 11.72861000
vt -0.72000000 11.72861000
vt -0.00000000 12.70600000
vt -0.72000000 12.70600000
vt -0.00000000 13.68338000
vt -0.72000000 13.68338000
vt -0.00000000 14.66077000
vt -0.72000000 14.66077000
vt -0.00000000 15.63815000
vt -0.72000000 15.63815000
vt -0.00000000 16.61553000
vt -0.72000000 16.61553000
vt -0.72000000 17.59292000
vt -0.00000000 17.59292000
vt -0.00000000 0.00000000
vt -0.00000000 1.02625000
vt -0.80000000 0.00000000
vt -0.80000000 1.02625000
vt -0.00000000 2.05251000
vt -0.80000000 2.05251000
vt -0.00000000 3.07876000
vt -0.80000000 3.07876000
vt -0.00000000 4.10501000
vt -0.80000000 4.10501000
vt -0.00000000 5.13127000
vt -0.80000000 5.13127000
vt -0.00000000 6.15752000
vt -0.80000000 6.15752000
vt -0.00000000 7.18378000
vt -0.80000000 7.18378000
vt -0.00000000 8.21003000
vt -0.80000000 8.21003000
vt -0.00000000 9.23628000
vt -0.80000000 9.23628000
vt -0.00000000 10.26254000
vt -0.80000000 10.26254000
vt -0.00000000 11.28879000
vt -0.80000000 11.28879000
vt -0.00000000 12.31504000
vt -0.80000000 12.31504000
vt -0.00000000 13.34130000
vt -0.80000000 13.34130000
vt -0.00000000 14.36755000
vt -0.80000000 14.36755000
vt -0.00000000 15.39380000
vt -0.80000000 15.39380000
vt -0.00000000 16.42006000
vt -0.80000000 16.42006000
vt -0.00000000 17.44631000
vt -0.80000000 17.44631000
vt -0.80000000 18.47256000
vt -0.00000000 18.47256000
vt -19.84764000 0.00000000
vt -19.33499000 0.00000000
vt -19.84764000 1.02625000
vt -19.31105000 1.02625000
vt -19.84764000 2.05251000
vt -19.23997000 2.05251000
vt -19.84764000 3.07876000
vt -19.12390000 3.07876000
vt -19.84764000 4.10501000
vt -18.96638000 4.10501000
vt -19.84764000 5.13127000
vt -18.77218000 5.13127000
vt -19.84764000 6.15752000
vt -18.54722000 6.15752000
vt -19.84764000 7.18378000
vt -18.29831000 7.18378000
vt -19.84764000 8.21003000
vt -18.03304000 8.21003000
vt -19.84764000 9.23628000
vt -17.75944000 9.23628000
vt -19.84764000 10.26254000
vt -17.48586000 10.26254000
vt -19.84764000 11.28879000
vt -17.22058000 11.28879000
vt -19.84764000 12.31504000
vt -16.97168000 12.31504000
vt -19.84764000 13.34130000
vt -16.74671000 13.34130000
vt -19.84764000 14.36755000
vt -16.55251000 14.36755000
vt -19.84764000 15.39380000
vt -16.39499000 15.39380000
vt -19.84764000 16.42006000
vt -16.27892000 16.42006000
vt -19.84764000 17.44631000
vt -16.20784000 17.44631000
vt -19.84764000 18.47256000
vt -16.18390000 18.47256000
vt -16.18390000 -18.47256000
vt -16.20784000 -17.44631000
vt -19.84764000 -18.47256000
vt -19.84764000 -17.44631000
vt -16.27892000 -16.42006000
vt -19.84764000 -16.42006000
vt -16.39499000 -15.39380000
vt -19.84764000 -15.39380000
vt -16.55251000 -14.36755000
vt -19.84764000 -14.36755000
vt -16.74671000 -13.34130000
vt -19.84764000 -13.34130000
vt -16.97168000 -12.31504000
vt -19.84764000 -12.31504000
vt -17.22058000 -11.28879000
vt -19.84764000 -11.28879000
vt -17.48586000 -10.26254000
vt -19.84764000 -10.26254000
vt -17.75944000 -9.23628000
vt -19.84764000 -9.23628000
vt -18.03304000 -8.21003000
vt -19.84764000 -8.21003000
vt -18.29831000 -7.18378000
vt -19.84764000 -7.18378000
vt -18.54722000 -6.15752000
vt -19.84764000 -6.15752000
vt -18.77218000 -5.13127000
vt -19.84764000 -5.13127000
vt -18.96638000 -4.10501000
vt -19.84764000 -4.10501000
vt -19.12390000 -3.07876000
vt -19.84764000 -3.07876000
vt -19.23997000 -2.05251000
vt -19.84764000 -2.05251000
vt -19.31105000 -1.02625000
vt -19.84764000 -1.02625000
vt 0.00000000 -5.38000000
vt 0.98857000 -5.28840000
vt -0.98857000 -5.28840000
vt -1.94348000 -5.01670000
vt 1.94348000 -5.01670000
vt -2.83220000 -4.57417000
vt 2.83220000 -4.57417000
vt -3.62448000 -3.97587000
vt 3.62448000 -3.97587000
vt -4.29333000 -3.24217000
vt -4.81598000 -2.39807000
vt -5.17462000 -1.47231000
vt -5.35705000 -0.49640000
vt -5.35705000 0.49640000
vt -5.17462000 1.47231000
vt -4.81598000 2.39807000
vt -4.29333000 3.24217000
vt -3.62448000 3.97587000
vt -2.83220000 4.57417000
vt 4.29333000 -3.24217000
vt -1.94348000 5.01670000
vt -0.98857000 5.28840000
vt 0.00000000 5.38000000
vt 0.98857000 5.28840000
vt 1.94348000 5.01670000
vt 2.83220000 4.57417000
vt 3.62448000 3.97587000
vt 4.29333000 3.24217000
vt 4.81598000 -2.39807000
vt 4.81598000 2.39807000
vt 5.17462000 -1.47231000
vt 5.17462000 1.47231000
vt 5.35705000 -0.49640000
vt 5.35705000 0.49640000
vt -0.80000000 -18.47256000
vt -0.00000000 -18.47256000
vt -0.80000000 -17.44631000
vt -0.00000000 -17.44631000
vt -0.00000000 -16.42006000
vt -0.80000000 -16.42006000
vt -0.00000000 -15.39380000
vt -0.80000000 -15.39380000
vt -0.00000000 -14.36755000
vt -0.80000000 -14.36755000
vt -0.00000000 -13.34130000
vt -0.80000000 -13.34130000
vt -0.00000000 -12.31504000
vt -0.80000000 -12.31504000
vt -0.00000000 -11.28879000
vt -0.80000000 -11.28879000
vt -0.00000000 -10.26254000
vt -0.80000000 -10.26254000
vt 0.00000000 -9.23628000
vt -0.80000000 -9.23628000
vt 0.00000000 -8.21003000
vt -0.80000000 -8.21003000
vt 0.00000000 -7.18378000
vt -0.80000000 -7.18378000
vt -0.00000000 -6.15752000
vt -0.80000000 -6.15752000
vt 0.00000000 -5.13127000
vt -0.80000000 -5.13127000
vt -0.00000000 -4.10501000
vt -0.80000000 -4.10501000
vt 0.00000000 -3.07876000
vt -0.80000000 -3.07876000
vt 0.00000000 -2.05251000
vt -0.80000000 -2.05251000
vt 0.00000000 -1.02625000
vt -0.80000000 -1.02625000
vt -0.00000000 5.60000000
vt -0.97243000 5.51492000
vt 0.97243000 5.51492000
vt 1.91531000 5.26228000
vt -1.91531000 5.26228000
vt 2.80000000 4.84974000
vt -2.80000000 4.84974000
vt 3.59961000 4.28985000
vt -3.59961000 4.28985000
vt 4.28985000 3.59961000
vt -4.28985000 3.59961000
vt 4.84974000 2.80000000
vt -4.84974000 2.80000000
vt 5.26228000 1.91531000
vt -5.26228000 1.91531000
vt 5.51492000 0.97243000
vt -5.51492000 0.97243000
vt 5.60000000 0.00000000
vt -5.60000000 0.00000000
vt 5.51492000 -0.97243000
vt -5.51492000 -0.97243000
vt 5.26228000 -1.91531000
vt -5.26228000 -1.91531000
vt 4.84974000 -2.80000000
vt -4.84974000 -2.80000000
vt 4.28985000 -3.59961000
vt -4.28985000 -3.59961000
vt 3.59961000 -4.28985000
vt -3.59961000 -4.28985000
vt 2.80000000 -4.84974000
vt -2.80000000 -4.84974000
vt 1.91531000 -5.26228000
vt -1.91531000 -5.26228000
vt 0.97243000 -5.51492000
vt -0.97243000 -5.51492000
vt -0.00000000 -5.60000000
vt -0.72000000 -17.59292000
vt -0.00000000 -17.59292000
vt -0.72000000 -16.61553000
vt -0.00000000 -16.61553000
vt -0.00000000 -15.63815000
vt -0.72000000 -15.63815000
vt -0.00000000 -14.66077000
vt -0.72000000 -14.66077000
vt -0.00000000 -13.68338000
vt -0.72000000 -13.68338000
vt -0.00000000 -12.70600000
vt -0.72000000 -12.70600000
vt -0.00000000 -11.72861000
vt -0.72000000 -11.72861000
vt -0.00000000 -10.75123000
vt -0.72000000 -10.75123000
vt -0.00000000 -9.77384000
vt -0.72000000 -9.77384000
vt 0.00000000 -8.79646000
vt -0.72000000 -8.79646000
vt 0.00000000 -7.81908000
vt -0.72000000 -7.81908000
vt 0.00000000 -6.84169000
vt -0.72000000 -6.84169000
vt 0.00000000 -5.86431000
vt -0.72000000 -5.86431000
vt 0.00000000 -4.88692000
vt -0.72000000 -4.88692000
vt 0.00000000 -3.90954000
vt -0.72000000 -3.90954000
vt 0.00000000 -2.93215000
vt -0.72000000 -2.93215000
vt 0.00000000 -1.95477000
vt -0.72000000 -1.95477000
vt 0.00000000 -0.97738000
vt -0.72000000 -0.97738000
vt 6.29067000 1.02105000
vt 6.01492000 0.97243000
vt 6.38000000 0.00000000
vt 6.10000000 0.00000000
vt 6.29067000 -1.02105000
vt 6.01492000 -0.97243000
vt 5.76228000 -1.91531000
vt 5.76228000 1.91531000
vt 6.02539000 2.01108000
vt 5.34974000 2.80000000
vt 5.59223000 2.94000000
vt 4.78985000 3.59961000
vt 5.00434000 3.77959000
vt 4.09961000 4.28985000
vt 4.27959000 4.50434000
vt 3.30000000 4.84974000
vt 3.44000000 5.09223000
vt 2.41531000 5.26228000
vt 2.51108000 5.52539000
vt 1.47243000 5.51492000
vt 1.52105000 5.79067000
vt 0.50000000 5.60000000
vt 0.50000000 5.88000000
vt -0.52105000 5.79067000
vt -0.47243000 5.51492000
vt -1.51108000 5.52539000
vt -1.41531000 5.26228000
vt -2.44000000 5.09223000
vt -2.30000000 4.84974000
vt -3.27959000 4.50434000
vt -3.09961000 4.28985000
vt -4.00434000 3.77959000
vt -3.78985000 3.59961000
vt -4.59223000 2.94000000
vt -4.34974000 2.80000000
vt -5.02539000 2.01108000
vt -4.76228000 1.91531000
vt -5.29067000 1.02105000
vt -5.01492000 0.97243000
vt -5.38000000 0.00000000
vt -5.10000000 0.00000000
vt -5.01492000 -0.97243000
vt -5.29067000 -1.02105000
vt -4.76228000 -1.91531000
vt -5.02539000 -2.01108000
vt -4.34974000 -2.80000000
vt -4.59223000 -2.94000000
vt -3.78985000 -3.59961000
vt -4.00434000 -3.77959000
vt -3.09961000 -4.28985000
vt -3.27959000 -4.50434000
vt -2.30000000 -4.84974000
vt -2.44000000 -5.09223000
vt -1.41531000 -5.26228000
vt -1.51108000 -5.52539000
vt -0.47243000 -5.51492000
vt -0.52105000 -5.79067000
vt 0.50000000 -5.60000000
vt 0.50000000 -5.88000000
vt 1.52105000 -5.79067000
vt 1.47243000 -5.51492000
vt 2.51108000 -5.52539000
vt 2.41531000 -5.26228000
vt 3.44000000 -5.09223000
vt 3.30000000 -4.84974000
vt 4.27959000 -4.50434000
vt 4.09961000 -4.28985000
vt 5.00434000 -3.77959000
vt 4.78985000 -3.59961000
vt 5.59223000 -2.94000000
vt 5.34974000 -2.80000000
vt 6.02539000 -2.01108000
vt -0.78540000 -16.95293000
vt -0.78540000 -18.01249000
vt -0.69813000 -16.98320000
vt -0.62832000 -18.01249000
vt -0.52360000 -16.98320000
vt -0.47124000 -18.01249000
vt -0.34907000 -16.98320000
vt -0.31416000 -18.01249000
vt -0.17453000 -16.98320000
vt -0.15708000 -18.01249000
vt -0.00000000 -17.01180000
vt -0.00000000 -18.01249000
vt -0.00000000 -16.01110000
vt -0.17453000 -15.95392000
vt -0.34907000 -15.95392000
vt -0.34907000 -14.92463000
vt -0.52360000 -14.92463000
vt -0.52360000 -13.89535000
vt -0.69813000 -13.89535000
vt -0.69813000 -12.86606000
vt -0.78540000 -13.77426000
vt -0.78540000 -12.71470000
vt -0.69813000 -11.83678000
vt -0.78540000 -11.65514000
vt -0.69813000 -10.80749000
vt -0.78540000 -10.59558000
vt -0.69813000 -9.77821000
vt -0.78540000 -9.53602000
vt -0.69813000 -8.74892000
vt -0.78540000 -8.47646000
vt -0.69813000 -7.71964000
vt -0.78540000 -7.41691000
vt -0.69813000 -6.69035000
vt -0.78540000 -6.35735000
vt -0.69813000 -5.66107000
vt -0.78540000 -5.29779000
vt -0.69813000 -4.63178000
vt -0.78540000 -4.23823000
vt -0.69813000 -3.60250000
vt -0.78540000 -3.17867000
vt -0.69813000 -2.57321000
vt -0.78540000 -2.11912000
vt -0.69813000 -1.54393000
vt -0.78540000 -1.05956000
vt -0.69813000 -0.51464000
vt -0.52360000 -0.51464000
vt -0.34907000 -0.51464000
vt -0.17453000 -0.51464000
vt -0.00000000 -1.00069000
vt -0.17453000 -1.54393000
vt -0.00000000 -2.00139000
vt -0.17453000 -2.57321000
vt -0.00000000 -3.00208000
vt -0.17453000 -3.60250000
vt -0.00000000 -4.00278000
vt -0.17453000 -4.63178000
vt -0.00000000 -5.00347000
vt -0.17453000 -5.66107000
vt -0.00000000 -6.00416000
vt -0.17453000 -6.69035000
vt -0.00000000 -7.00486000
vt -0.17453000 -7.71964000
vt -0.00000000 -8.00555000
vt -0.17453000 -8.74892000
vt -0.00000000 -9.00624000
vt -0.17453000 -9.77821000
vt -0.00000000 -10.00694000
vt -0.17453000 -10.80749000
vt -0.00000000 -11.00763000
vt -0.17453000 -11.83678000
vt -0.00000000 -12.00833000
vt -0.17453000 -12.86606000
vt -0.00000000 -13.00902000
vt -0.17453000 -13.89535000
vt -0.00000000 -14.00971000
vt -0.17453000 -14.92463000
vt -0.00000000 -15.01041000
vt -0.78540000 -14.83382000
vt -0.69813000 -14.92463000
vt -0.52360000 -15.95392000
vt -0.78540000 -15.89337000
vt -0.69813000 -15.95392000
vt -0.34907000 -13.89535000
vt -0.52360000 -12.86606000
vt -0.34907000 -12.86606000
vt -0.52360000 -11.83678000
vt -0.34907000 -11.83678000
vt -0.52360000 -10.80749000
vt -0.34907000 -10.80749000
vt -0.52360000 -9.77821000
vt -0.34907000 -9.77821000
vt -0.52360000 -8.74892000
vt -0.34907000 -8.74892000
vt -0.52360000 -7.71964000
vt -0.34907000 -7.71964000
vt -0.52360000 -6.69035000
vt -0.34907000 -6.69035000
vt -0.52360000 -5.66107000
vt -0.34907000 -5.66107000
vt -0.52360000 -4.63178000
vt -0.34907000 -4.63178000
vt -0.52360000 -3.60250000
vt -0.34907000 -3.60250000
vt -0.52360000 -2.57321000
vt -0.34907000 -2.57321000
vt -0.52360000 -1.54393000
vt -0.34907000 -1.54393000
f 1/1/1 2/2/2 3/3/3
f 3/3/3 2/2/2 4/4/4
f 3/3/3 4/4/4 5/5/5
f 5/5/5 4/4/4 6/6/6
f 5/5/5 6/6/6 7/7/7
f 7/7/7 6/6/6 8/8/8
f 7/7/7 8/8/8 9/9/9
f 9/9/9 8/8/8 10/10/10
f 9/9/9 10/10/10 11/11/11
f 11/11/11 10/10/10 12/12/12
f 11/11/11 12/12/12 13/13/13
f 13/13/13 12/12/12 14/14/14
f 13/13/13 14/14/14 15/15/15
f 15/15/15 14/14/14 16/16/16
f 15/15/15 16/16/16 17/17/17
f 17/17/17 16/16/16 18/18/18
f 17/17/17 18/18/18 19/19/19
f 19/19/19 18/18/18 20/20/20
f 19/19/19 20/20/20 21/21/21
f 21/21/21 20/20/20 22/22/22
f 21/21/21 22/22/22 23/23/23
f 23/23/23 22/22/22 24/24/24
f 23/23/23 24/24/24 25/25/25
f 25/25/25 24/24/24 26/26/26
f 25/25/25 26/26/26 27/27/27
f 27/27/27 26/26/26 28/28/28
f 27/27/27 28/28/28 29/29/29
f 29/29/29 28/28/28 30/30/30
f 29/29/29 30/30/30 31/31/31
f 31/31/31 30/30/30 32/32/32
f 31/31/31 32/32/32 33/33/33
f 33/33/33 32/32/32 34/34/34
f 33/33/33 34/34/34 35/35/35
f 35/35/35 34/34/34 36/36/36
f 35/35/35 36/36/36 37/37/37
f 37/37/37 36/36/36 38/38/38
f 37/37/37 39/39/39 35/35/35
f 35/35/35 39/39/39 40/40/40
f 35/35/35 40/40/40 33/33/33
f 33/33/33 40/40/40 41/41/41
f 33/33/33 41/41/41 31/31/31
f 31/31/31 41/41/41 42/42/42
f 31/31/31 42/42/42 29/29/29
f 29/29/29 42/42/42 43/43/43
f 29/29/29 43/43/43 27/27/27
f 27/27/27 43/43/43 44/44/44
f 27/27/27 44/44/44 25/25/25
f 25/25/25 44/44/44 45/45/45
f 25/25/25 45/45/45 23/23/23
f 23/23/23 45/45/45 46/46/46
f 23/23/23 46/46/46 21/21/21
f 21/21/21 46/46/46 47/47/47
f 21/21/21 47/47/47 19/19/19
f 19/19/19 47/47/47 48/48/48
f 19/19/19 48/48/48 17/17/17
f 17/17/17 48/48/48 49/49/49
f 17/17/17 49/49/49 15/15/15
f 15/15/15 49/49/49 50/50/50
f 15/15/15 50/50/50 13/13/13
f 13/13/13 50/50/50 51/51/51
f 13/13/13 51/51/51 11/11/11
f 11/11/11 51/51/51 52/52/52
f 11/11/11 52/52/52 9/9/9
f 9/9/9 52/52/52 53/53/53
f 9/9/9 53/53/53 7/7/7
f 7/7/7 53/53/53 54/54/54
f 7/7/7 54/54/54 5/5/5
f 5/5/5 54/54/54 55/55/55
f 5/5/5 55/55/55 3/3/3
f 3/3/3 55/55/55 56/56/56
f 3/3/3 56/56/56 57/57/57
f 57/57/57 56/56/56 58/58/58
f 58/58/58 56/56/56 59/59/59
f 58/58/58 59/59/59 60/60/60
f 60/60/60 59/59/59 61/61/61
f 60/60/60 61/61/61 62/62/62
f 62/62/62 61/61/61 63/63/63
f 63/63/63 61/61/61 64/64/64
f 63/63/63 64/64/64 65/65/65
f 65/65/65 64/64/64 66/66/66
f 65/65/65 66/66/66 67/67/67
f 67/67/67 66/66/66 68/68/68
f 67/67/67 68/68/68 69/69/69
f 69/69/69 68/68/68 70/70/70
f 69/69/69 70/70/70 71/71/71
f 71/71/71 70/70/70 72/72/72
f 71/71/71 72/72/72 73/73/73
f 73/73/73 72/72/72 74/74/74
f 73/73/73 74/74/74 75/75/75
f 75/75/75 74/74/74 76/76/76
f 75/75/75 76/76/76 77/77/77
f 77/77/77 76/76/76 78/78/78
f 77/77/77 78/78/78 79/79/79
f 79/79/79 78/78/78 80/80/80
f 79/79/79 80/80/80 81/81/81
f 81/81/81 80/80/80 82/82/82
f 81/81/81 82/82/82 83/83/83
f 83/83/83 82/82/82 84/84/84
f 83/83/83 84/84/84 85/85/85
f 85/85/85 84/84/84 86/86/86
f 85/85/85 86/86/86 87/87/87
f 87/87/87 86/86/86 88/88/88
f 87/87/87 88/88/88 89/89/89
f 89/89/89 88/88/88 90/90/90
f 89/89/89 90/90/90 91/91/91
f 91/91/91 90/90/90 92/92/92
f 91/91/91 92/92/92 93/93/93
f 93/93/93 92/92/92 94/94/94
f 93/93/93 94/94/94 95/95/95
f 95/95/95 94/94/94 96/96/96
f 96/96/96 94/94/94 97/97/97
f 96/96/96 97/97/97 98/98/98
f 98/98/98 97/97/97 40/40/40
f 98/98/98 40/40/40 39/39/39
f 57/57/57 1/1/1 3/3/3
f 64/64/64 61/61/61 59/59/59
f 59/59/59 56/56/56 99/99/99
f 99/99/99 56/56/56 55/55/55
f 99/99/99 55/55/55 100/100/100
f 100/100/100 55/55/55 54/54/54
f 100/100/100 54/54/54 101/101/101
f 101/101/101 54/54/54 53/53/53
f 101/101/101 53/53/53 102/102/102
f 102/102/102 53/53/53 52/52/52
f 102/102/102 52/52/52 103/103/103
f 103/103/103 52/52/52 51/51/51
f 103/103/103 51/51/51 104/104/104
f 104/104/104 51/51/51 50/50/50
f 104/104/104 50/50/50 105/105/105
f 105/105/105 50/50/50 49/49/49
f 105/105/105 49/49/49 106/106/106
f 106/106/106 49/49/49 48/48/48
f 106/106/106 48/48/48 107/107/107
f 107/107/107 48/48/48 47/47/47
f 107/107/107 47/47/47 108/108/108
f 108/108/108 47/47/47 46/46/46
f 108/108/108 46/46/46 109/109/109
f 109/109/109 46/46/46 45/45/45
f 109/109/109 45/45/45 110/110/110
f 110/110/110 45/45/45 44/44/44
f 110/110/110 44/44/44 111/111/111
f 111/111/111 44/44/44 43/43/43
f 111/111/111 43/43/43 112/112/112
f 112/112/112 43/43/43 42/42/42
f 112/112/112 42/42/42 113/113/113
f 113/113/113 42/42/42 41/41/41
f 113/113/113 41/41/41 97/97/97
f 97/97/97 41/41/41 40/40/40
f 66/66/66 64/64/64 99/99/99
f 99/99/99 64/64/64 59/59/59
f 66/66/66 99/99/99 100/100/100
f 68/68/68 66/66/66 100/100/100
f 68/68/68 100/100/100 101/101/101
f 70/70/70 68/68/68 101/101/101
f 70/70/70 101/101/101 102/102/102
f 72/72/72 70/70/70 102/102/102
f 72/72/72 102/102/102 103/103/103
f 74/74/74 72/72/72 103/103/103
f 74/74/74 103/103/103 104/104/104
f 76/76/76 74/74/74 104/104/104
f 76/76/76 104/104/104 105/105/105
f 78/78/78 76/76/76 105/105/105
f 78/78/78 105/105/105 106/106/106
f 80/80/80 78/78/78 106/106/106
f 80/80/80 106/106/106 107/107/107
f 82/82/82 80/80/80 107/107/107
f 82/82/82 107/107/107 108/108/108
f 84/84/84 82/82/82 108/108/108
f 84/84/84 108/108/108 109/109/109
f 86/86/86 84/84/84 109/109/109
f 86/86/86 109/109/109 110/110/110
f 88/88/88 86/86/86 110/110/110
f 88/88/88 110/110/110 111/111/111
f 90/90/90 88/88/88 111/111/111
f 90/90/90 111/111/111 112/112/112
f 92/92/92 90/90/90 112/112/112
f 92/92/92 112/112/112 113/113/113
f 94/94/94 92/92/92 113/113/113
f 94/94/94 113/113/113 97/97/97
f 114/114/114 115/115/115 116/116/116
f 116/116/116 115/115/115 117/117/117
f 117/117/117 115/115/115 118/118/118
f 117/117/117 118/118/118 119/119/119
f 119/119/119 118/118/118 120/120/120
f 119/119/119 120/120/120 121/121/121
f 121/121/121 120/120/120 122/122/122
f 121/121/121 122/122/122 123/123/123
f 123/123/123 122/122/122 124/124/124
f 123/123/123 124/124/124 125/125/125
f 125/125/125 124/124/124 126/126/126
f 125/125/125 126/126/126 127/127/127
f 127/127/127 126/126/126 128/128/128
f 127/127/127 128/128/128 129/129/129
f 129/129/129 128/128/128 130/130/130
f 129/129/129 130/130/130 131/131/131
f 131/131/131 130/130/130 132/132/132
f 131/131/131 132/132/132 133/133/133
f 133/133/133 132/132/132 134/134/134
f 133/133/133 134/134/134 135/135/135
f 135/135/135 134/134/134 136/136/136
f 135/135/135 136/136/136 137/137/137
f 137/137/137 136/136/136 138/138/138
f 137/137/137 138/138/138 139/139/139
f 139/139/139 138/138/138 140/140/140
f 139/139/139 140/140/140 141/141/141
f 141/141/141 140/140/140 142/142/142
f 141/141/141 142/142/142 143/143/143
f 143/143/143 142/142/142 144/144/144
f 143/143/143 144/144/144 145/145/145
f 145/145/145 144/144/144 146/146/146
f 145/145/145 146/146/146 147/147/147
f 147/147/147 146/146/146 148/148/148
f 147/147/147 148/148/148 149/149/149
f 149/149/149 148/148/148 150/150/150
f 150/150/150 148/148/148 151/151/151
f 152/152/152 153/153/153 154/154/154
f 154/154/154 153/153/153 155/155/155
f 155/155/155 153/153/153 156/156/156
f 155/155/155 156/156/156 157/157/157
f 157/157/157 156/156/156 158/158/158
f 157/157/157 158/158/158 159/159/159
f 159/159/159 158/158/158 160/160/160
f 159/159/159 160/160/160 161/161/161
f 161/161/161 160/160/160 162/162/162
f 161/161/161 162/162/162 163/163/163
f 163/163/163 162/162/162 164/164/164
f 163/163/163 164/164/164 165/165/165
f 165/165/165 164/164/164 166/166/166
f 165/165/165 166/166/166 167/167/167
f 167/167/167 166/166/166 168/168/168
f 167/167/167 168/168/168 169/169/169
f 169/169/169 168/168/168 170/170/170
f 169/169/169 170/170/170 171/171/171
f 171/171/171 170/170/170 172/172/172
f 171/171/171 172/172/172 173/173/173
f 173/173/173 172/172/172 174/174/174
f 173/173/173 174/174/174 175/175/175
f 175/175/175 174/174/174 176/176/176
f 175/175/175 176/176/176 177/177/177
f 177/177/177 176/176/176 178/178/178
f 177/177/177 178/178/178 179/179/179
f 179/179/179 178/178/178 180/180/180
f 179/179/179 180/180/180 181/181/181
f 181/181/181 180/180/180 182/182/182
f 181/181/181 182/182/182 183/183/183
f 183/183/183 182/182/182 184/184/184
f 183/183/183 184/184/184 185/185/185
f 185/185/185 184/184/184 186/186/186
f 185/185/185 186/186/186 187/187/187
f 187/187/187 186/186/186 188/188/188
f 188/188/188 186/186/186 189/189/189
f 190/190/190 191/191/191 192/192/192
f 192/192/192 191/191/191 193/193/193
f 192/192/192 193/193/193 194/194/194
f 194/194/194 193/193/193 195/195/195
f 194/194/194 195/195/195 196/196/196
f 196/196/196 195/195/195 197/197/197
f 196/196/196 197/197/197 198/198/198
f 198/198/198 197/197/197 199/199/199
f 198/198/198 199/199/199 200/200/200
f 200/200/200 199/199/199 201/201/201
f 200/200/200 201/201/201 202/202/202
f 202/202/202 201/201/201 203/203/203
f 202/202/202 203/203/203 204/204/204
f 204/204/204 203/203/203 205/205/205
f 204/204/204 205/205/205 206/206/206
f 206/206/206 205/205/205 207/207/207
f 206/206/206 207/207/207 208/208/208
f 208/208/208 207/207/207 209/209/209
f 208/208/208 209/209/209 210/210/210
f 210/210/210 209/209/209 211/211/211
f 210/210/210 211/211/211 212/212/212
f 212/212/212 211/211/211 213/213/213
f 212/212/212 213/213/213 214/214/214
f 214/214/214 213/213/213 215/215/215
f 214/214/214 215/215/215 216/216/216
f 216/216/216 215/215/215 217/217/217
f 216/216/216 217/217/217 218/218/218
f 218/218/218 217/217/217 219/219/219
f 218/218/218 219/219/219 220/220/220
f 220/220/220 219/219/219 221/221/221
f 220/220/220 221/221/221 222/222/222
f 222/222/222 221/221/221 223/223/223
f 222/222/222 223/223/223 224/224/224
f 224/224/224 223/223/223 225/225/225
f 224/224/224 225/225/225 226/226/226
f 226/226/226 225/225/225 227/227/227
f 228/228/228 229/229/229 230/230/230
f 230/230/230 229/229/229 231/231/231
f 231/231/231 229/229/229 232/232/232
f 231/231/231 232/232/232 233/233/233
f 233/233/233 232/232/232 234/234/234
f 233/233/233 234/234/234 235/235/235
f 235/235/235 234/234/234 236/236/236
f 235/235/235 236/236/236 237/237/237
f 237/237/237 236/236/236 238/238/238
f 237/237/237 238/238/238 239/239/239
f 239/239/239 238/238/238 240/240/240
f 239/239/239 240/240/240 241/241/241
f 241/241/241 240/240/240 242/242/242
f 241/241/241 242/242/242 243/243/243
f 243/243/243 242/242/242 244/244/244
f 243/243/243 244/244/244 245/245/245
f 245/245/245 244/244/244 246/246/246
f 245/245/245 246/246/246 247/247/247
f 247/247/247 246/246/246 248/248/248
f 247/247/247 248/248/248 249/249/249
f 249/249/249 248/248/248 250/250/250
f 249/249/249 250/250/250 251/251/251
f 251/251/251 250/250/250 252/252/252
f 251/251/251 252/252/252 253/253/253
f 253/253/253 252/252/252 254/254/254
f 253/253/253 254/254/254 255/255/255
f 255/255/255 254/254/254 256/256/256
f 255/255/255 256/256/256 257/257/257
f 257/257/257 256/256/256 258/258/258
f 257/257/257 258/258/258 259/259/259
f 259/259/259 258/258/258 260/260/260
f 259/259/259 260/260/260 261/261/261
f 261/261/261 260/260/260 262/262/262
f 261/261/261 262/262/262 263/263/263
f 263/263/263 262/262/262 191/191/191
f 263/263/263 191/191/191 190/190/190
f 264/264/264 265/265/265 266/266/266
f 266/266/266 265/265/265 267/267/267
f 267/267/267 265/265/265 268/268/268
f 267/267/267 268/268/268 269/269/269
f 269/269/269 268/268/268 270/270/270
f 269/269/269 270/270/270 271/271/271
f 271/271/271 270/270/270 272/272/272
f 271/271/271 272/272/272 273/273/273
f 273/273/273 272/272/272 274/274/274
f 274/274/274 272/272/272 275/275/275
f 275/275/275 272/272/272 276/276/276
f 276/276/276 272/272/272 277/277/277
f 277/277/277 272/272/272 278/278/278
f 278/278/278 272/272/272 279/279/279
f 279/279/279 272/272/272 280/280/280
f 280/280/280 272/272/272 281/281/281
f 281/281/281 272/272/272 282/282/282
f 282/282/282 272/272/272 283/283/283
f 282/282/282 283/283/283 284/284/284
f 284/284/284 283/283/283 285/285/285
f 285/285/285 283/283/283 286/286/286
f 286/286/286 283/283/283 287/287/287
f 287/287/287 283/283/283 288/288/288
f 288/288/288 283/283/283 289/289/289
f 289/289/289 283/283/283 290/290/290
f 290/290/290 283/283/283 291/291/291
f 291/291/291 283/283/283 292/292/292
f 291/291/291 292/292/292 293/293/293
f 293/293/293 292/292/292 294/294/294
f 293/293/293 294/294/294 295/295/295
f 295/295/295 294/294/294 296/296/296
f 295/295/295 296/296/296 297/297/297
f 298/298/298 299/299/299 300/300/300
f 300/300/300 299/299/299 301/301/301
f 300/300/300 301/301/301 302/302/302
f 300/300/300 302/302/302 303/303/303
f 303/303/303 302/302/302 304/304/304
f 303/303/303 304/304/304 305/305/305
f 305/305/305 304/304/304 306/306/306
f 305/305/305 306/306/306 307/307/307
f 307/307/307 306/306/306 308/308/308
f 307/307/307 308/308/308 309/309/309
f 309/309/309 308/308/308 310/310/310
f 309/309/309 310/310/310 311/311/311
f 311/311/311 310/310/310 312/312/312
f 311/311/311 312/312/312 313/313/313
f 313/313/313 312/312/312 314/314/314
f 313/313/313 314/314/314 315/315/315
f 315/315/315 314/314/314 316/316/316
f 315/315/315 316/316/316 317/317/317
f 317/317/317 316/316/316 318/318/318
f 317/317/317 318/318/318 319/319/319
f 319/319/319 318/318/318 320/320/320
f 319/319/319 320/320/320 321/321/321
f 321/321/321 320/320/320 322/322/322
f 321/321/321 322/322/322 323/323/323
f 323/323/323 322/322/322 324/324/324
f 323/323/323 324/324/324 325/325/325
f 325/325/325 324/324/324 326/326/326
f 325/325/325 326/326/326 327/327/327
f 327/327/327 326/326/326 328/328/328
f 327/327/327 328/328/328 329/329/329
f 329/329/329 328/328/328 330/330/330
f 329/329/329 330/330/330 331/331/331
f 331/331/331 330/330/330 332/332/332
f 331/331/331 332/332/332 333/333/333
f 333/333/333 332/332/332 152/152/152
f 333/333/333 152/152/152 154/154/154
f 334/334/334 335/335/335 336/336/336
f 336/336/336 335/335/335 337/337/337
f 337/337/337 335/335/335 338/338/338
f 337/337/337 338/338/338 339/339/339
f 339/339/339 338/338/338 340/340/340
f 339/339/339 340/340/340 341/341/341
f 341/341/341 340/340/340 342/342/342
f 341/341/341 342/342/342 343/343/343
f 343/343/343 342/342/342 344/344/344
f 343/343/343 344/344/344 345/345/345
f 345/345/345 344/344/344 346/346/346
f 345/345/345 346/346/346 347/347/347
f 347/347/347 346/346/346 348/348/348
f 347/347/347 348/348/348 349/349/349
f 349/349/349 348/348/348 350/350/350
f 349/349/349 350/350/350 351/351/351
f 351/351/351 350/350/350 352/352/352
f 351/351/351 352/352/352 353/353/353
f 353/353/353 352/352/352 354/354/354
f 353/353/353 354/354/354 355/355/355
f 355/355/355 354/354/354 356/356/356
f 355/355/355 356/356/356 357/357/357
f 357/357/357 356/356/356 358/358/358
f 357/357/357 358/358/358 359/359/359
f 359/359/359 358/358/358 360/360/360
f 359/359/359 360/360/360 361/361/361
f 361/361/361 360/360/360 362/362/362
f 361/361/361 362/362/362 363/363/363
f 363/363/363 362/362/362 364/364/364
f 363/363/363 364/364/364 365/365/365
f 365/365/365 364/364/364 366/366/366
f 365/365/365 366/366/366 367/367/367
f 367/367/367 366/366/366 368/368/368
f 367/367/367 368/368/368 369/369/369
f 370/370/370 371/371/371 372/372/372
f 372/372/372 371/371/371 373/373/373
f 372/372/372 373/373/373 374/374/374
f 372/372/372 374/374/374 375/375/375
f 375/375/375 374/374/374 376/376/376
f 375/375/375 376/376/376 377/377/377
f 377/377/377 376/376/376 378/378/378
f 377/377/377 378/378/378 379/379/379
f 379/379/379 378/378/378 380/380/380
f 379/379/379 380/380/380 381/381/381
f 381/381/381 380/380/380 382/382/382
f 381/381/381 382/382/382 383/383/383
f 383/383/383 382/382/382 384/384/384
f 383/383/383 384/384/384 385/385/385
f 385/385/385 384/384/384 386/386/386
f 385/385/385 386/386/386 387/387/387
f 387/387/387 386/386/386 388/388/388
f 387/387/387 388/388/388 389/389/389
f 389/389/389 388/388/388 390/390/390
f 389/389/389 390/390/390 391/391/391
f 391/391/391 390/390/390 392/392/392
f 391/391/391 392/392/392 393/393/393
f 393/393/393 392/392/392 394/394/394
f 393/393/393 394/394/394 395/395/395
f 395/395/395 394/394/394 396/396/396
f 395/395/395 396/396/396 397/397/397
f 397/397/397 396/396/396 398/398/398
f 397/397/397 398/398/398 399/399/399
f 399/399/399 398/398/398 400/400/400
f 399/399/399 400/400/400 401/401/401
f 401/401/401 400/400/400 402/402/402
f 401/401/401 402/402/402 403/403/403
f 403/403/403 402/402/402 404/404/404
f 403/403/403 404/404/404 405/405/405
f 405/405/405 404/404/404 114/114/114
f 405/405/405 114/114/114 116/116/116
f 406/406/406 407/407/407 408/408/408
f 408/408/408 407/407/407 409/409/409
f 408/408/408 409/409/409 410/410/410
f 410/410/410 409/409/409 411/411/411
f 410/410/410 411/411/411 412/412/412
f 407/407/407 406/406/406 413/413/413
f 413/413/413 406/406/406 414/414/414
f 413/413/413 414/414/414 415/415/415
f 415/415/415 414/414/414 416/416/416
f 415/415/415 416/416/416 417/417/417
f 417/417/417 416/416/416 418/418/418
f 417/417/417 418/418/418 419/419/419
f 419/419/419 418/418/418 420/420/420
f 419/419/419 420/420/420 421/421/421
f 421/421/421 420/420/420 422/422/422
f 421/421/421 422/422/422 423/423/423
f 423/423/423 422/422/422 424/424/424
f 423/423/423 424/424/424 425/425/425
f 425/425/425 424/424/424 426/426/426
f 425/425/425 426/426/426 427/427/427
f 427/427/427 426/426/426 428/428/428
f 427/427/427 428/428/428 429/429/429
f 427/427/427 429/429/429 430/430/430
f 430/430/430 429/429/429 431/431/431
f 430/430/430 431/431/431 432/432/432
f 432/432/432 431/431/431 433/433/433
f 432/432/432 433/433/433 434/434/434
f 434/434/434 433/433/433 435/435/435
f 434/434/434 435/435/435 436/436/436
f 436/436/436 435/435/435 437/437/437
f 436/436/436 437/437/437 438/438/438
f 438/438/438 437/437/437 439/439/439
f 438/438/438 439/439/439 440/440/440
f 440/440/440 439/439/439 441/441/441
f 440/440/440 441/441/441 442/442/442
f 442/442/442 441/441/441 443/443/443
f 442/442/442 443/443/443 444/444/444
f 444/444/444 443/443/443 445/445/445
f 444/444/444 445/445/445 446/446/446
f 446/446/446 445/445/445 447/447/447
f 447/447/447 445/445/445 448/448/448
f 447/447/447 448/448/448 449/449/449
f 449/449/449 448/448/448 450/450/450
f 449/449/449 450/450/450 451/451/451
f 451/451/451 450/450/450 452/452/452
f 451/451/451 452/452/452 453/453/453
f 453/453/453 452/452/452 454/454/454
f 453/453/453 454/454/454 455/455/455
f 455/455/455 454/454/454 456/456/456
f 455/455/455 456/456/456 457/457/457
f 457/457/457 456/456/456 458/458/458
f 457/457/457 458/458/458 459/459/459
f 459/459/459 458/458/458 460/460/460
f 459/459/459 460/460/460 461/461/461
f 461/461/461 460/460/460 462/462/462
f 461/461/461 462/462/462 463/463/463
f 463/463/463 462/462/462 464/464/464
f 463/463/463 464/464/464 465/465/465
f 463/463/463 465/465/465 466/466/466
f 466/466/466 465/465/465 467/467/467
f 466/466/466 467/467/467 468/468/468
f 468/468/468 467/467/467 469/469/469
f 468/468/468 469/469/469 470/470/470
f 470/470/470 469/469/469 471/471/471
f 470/470/470 471/471/471 472/472/472
f 472/472/472 471/471/471 473/473/473
f 472/472/472 473/473/473 474/474/474
f 474/474/474 473/473/473 475/475/475
f 474/474/474 475/475/475 476/476/476
f 476/476/476 475/475/475 477/477/477
f 476/476/476 477/477/477 412/412/412
f 412/412/412 477/477/477 410/410/410
f 478/478/478 479/479/479 480/480/480
f 480/480/480 479/479/479 481/481/481
f 480/480/480 481/481/481 482/482/482
f 482/482/482 481/481/481 483/483/483
f 482/482/482 483/483/483 484/484/484
f 484/484/484 483/483/483 485/485/485
f 484/484/484 485/485/485 486/486/486
f 486/486/486 485/485/485 487/487/487
f 486/486/486 487/487/487 488/488/488
f 488/488/488 487/487/487 489/489/489
f 488/488/488 490/490/490 486/486/486
f 486/486/486 490/490/490 491/491/491
f 486/486/486 491/491/491 492/492/492
f 492/492/492 491/491/491 493/493/493
f 492/492/492 493/493/493 494/494/494
f 494/494/494 493/493/493 495/495/495
f 494/494/494 495/495/495 496/496/496
f 496/496/496 495/495/495 497/497/497
f 496/496/496 497/497/497 498/498/498
f 498/498/498 497/497/497 499/499/499
f 499/499/499 497/497/497 500/500/500
f 499/499/499 500/500/500 501/501/501
f 501/501/501 500/500/500 502/502/502
f 501/501/501 502/502/502 503/503/503
f 503/503/503 502/502/502 504/504/504
f 503/503/503 504/504/504 505/505/505
f 505/505/505 504/504/504 506/506/506
f 505/505/505 506/506/506 507/507/507
f 507/507/507 506/506/506 508/508/508
f 507/507/507 508/508/508 509/509/509
f 509/509/509 508/508/508 510/510/510
f 509/509/509 510/510/510 511/511/511
f 511/511/511 510/510/510 512/512/512
f 511/511/511 512/512/512 513/513/513
f 513/513/513 512/512/512 514/514/514
f 513/513/513 514/514/514 515/515/515
f 515/515/515 514/514/514 516/516/516
f 515/515/515 516/516/516 517/517/517
f 517/517/517 516/516/516 518/518/518
f 517/517/517 518/518/518 519/519/519
f 519/519/519 518/518/518 520/520/520
f 519/519/519 520/520/520 521/521/521
f 521/521/521 520/520/520 522/522/522
f 521/521/521 522/522/522 62/62/62
f 62/62/62 522/522/522 60/60/60
f 60/60/60 522/522/522 523/523/523
f 60/60/60 523/523/523 58/58/58
f 58/58/58 523/523/523 524/524/524
f 58/58/58 524/524/524 57/57/57
f 57/57/57 524/524/524 525/525/525
f 57/57/57 525/525/525 1/1/1
f 1/1/1 525/525/525 2/2/2
f 2/2/2 525/525/525 526/526/526
f 526/526/526 525/525/525 527/527/527
f 526/526/526 527/527/527 528/528/528
f 528/528/528 527/527/527 529/529/529
f 528/528/528 529/529/529 530/530/530
f 530/530/530 529/529/529 531/531/531
f 530/530/530 531/531/531 532/532/532
f 532/532/532 531/531/531 533/533/533
f 532/532/532 533/533/533 534/534/534
f 534/534/534 533/533/533 535/535/535
f 534/534/534 535/535/535 536/536/536
f 536/536/536 535/535/535 537/537/537
f 536/536/536 537/537/537 538/538/538
f 538/538/538 537/537/537 539/539/539
f 538/538/538 539/539/539 540/540/540
f 540/540/540 539/539/539 541/541/541
f 540/540/540 541/541/541 542/542/542
f 542/542/542 541/541/541 543/543/543
f 542/542/542 543/543/543 544/544/544
f 544/544/544 543/543/543 545/545/545
f 544/544/544 545/545/545 546/546/546
f 546/546/546 545/545/545 547/547/547
f 546/546/546 547/547/547 548/548/548
f 548/548/548 547/547/547 549/549/549
f 548/548/548 549/549/549 550/550/550
f 550/550/550 549/549/549 551/551/551
f 550/550/550 551/551/551 552/552/552
f 552/552/552 551/551/551 553/553/553
f 552/552/552 553/553/553 554/554/554
f 554/554/554 553/553/553 491/491/491
f 554/554/554 491/491/491 490/490/490
f 498/498/498 555/555/555 496/496/496
f 496/496/496 555/555/555 556/556/556
f 496/496/496 556/556/556 494/494/494
f 494/494/494 556/556/556 557/557/557
f 494/494/494 557/557/557 492/492/492
f 492/492/492 557/557/557 484/484/484
f 492/492/492 484/484/484 486/486/486
f 555/555/555 558/558/558 556/556/556
f 556/556/556 558/558/558 559/559/559
f 556/556/556 559/559/559 557/557/557
f 557/557/557 559/559/559 482/482/482
f 557/557/557 482/482/482 484/484/484
f 558/558/558 478/478/478 559/559/559
f 559/559/559 478/478/478 480/480/480
f 559/559/559 480/480/480 482/482/482
f 491/491/491 553/553/553 493/493/493
f 493/493/493 553/553/553 560/560/560
f 493/493/493 560/560/560 495/495/495
f 495/495/495 560/560/560 561/561/561
f 495/495/495 561/561/561 497/497/497
f 497/497/497 561/561/561 500/500/500
f 553/553/553 551/551/551 560/560/560
f 560/560/560 551/551/551 562/562/562
f 560/560/560 562/562/562 561/561/561
f 561/561/561 562/562/562 563/563/563
f 561/561/561 563/563/563 500/500/500
f 500/500/500 563/563/563 502/502/502
f 551/551/551 549/549/549 562/562/562
f 562/562/562 549/549/549 564/564/564
f 562/562/562 564/564/564 563/563/563
f 563/563/563 564/564/564 565/565/565
f 563/563/563 565/565/565 502/502/502
f 502/502/502 565/565/565 504/504/504
f 549/549/549 547/547/547 564/564/564
f 564/564/564 547/547/547 566/566/566
f 564/564/564 566/566/566 565/565/565
f 565/565/565 566/566/566 567/567/567
f 565/565/565 567/567/567 504/504/504
f 504/504/504 567/567/567 506/506/506
f 547/547/547 545/545/545 566/566/566
f 566/566/566 545/545/545 568/568/568
f 566/566/566 568/568/568 567/567/567
f 567/567/567 568/568/568 569/569/569
f 567/567/567 569/569/569 506/506/506
f 506/506/506 569/569/569 508/508/508
f 545/545/545 543/543/543 568/568/568
f 568/568/568 543/543/543 570/570/570
f 568/568/568 570/570/570 569/569/569
f 569/569/569 570/570/570 571/571/571
f 569/569/569 571/571/571 508/508/508
f 508/508/508 571/571/571 510/510/510
f 543/543/543 541/541/541 570/570/570
f 570/570/570 541/541/541 572/572/572
f 570/570/570 572/572/572 571/571/571
f 571/571/571 572/572/572 573/573/573
f 571/571/571 573/573/573 510/510/510
f 510/510/510 573/573/573 512/512/512
f 541/541/541 539/539/539 572/572/572
f 572/572/572 539/539/539 574/574/574
f 572/572/572 574/574/574 573/573/573
f 573/573/573 574/574/574 575/575/575
f 573/573/573 575/575/575 512/512/512
f 512/512/512 575/575/575 514/514/514
f 539/539/539 537/537/537 574/574/574
f 574/574/574 537/537/537 576/576/576
f 574/574/574 576/576/576 575/575/575
f 575/575/575 576/576/576 577/577/577
f 575/575/575 577/577/577 514/514/514
f 514/514/514 577/577/577 516/516/516
f 537/537/537 535/535/535 576/576/576
f 576/576/576 535/535/535 578/578/578
f 576/576/576 578/578/578 577/577/577
f 577/577/577 578/578/578 579/579/579
f 577/577/577 579/579/579 516/516/516
f 516/516/516 579/579/579 518/518/518
f 535/535/535 533/533/533 578/578/578
f 578/578/578 533/533/533 580/580/580
f 578/578/578 580/580/580 579/579/579
f 579/579/579 580/580/580 581/581/581
f 579/579/579 581/581/581 518/518/518
f 518/518/518 581/581/581 520/520/520
f 533/533/533 531/531/531 580/580/580
f 580/580/580 531/531/531 582/582/582
f 580/580/580 582/582/582 581/581/581
f 581/581/581 582/582/582 583/583/583
f 581/581/581 583/583/583 520/520/520
f 520/520/520 583/583/583 522/522/522
f 531/531/531 529/529/529 582/582/582
f 582/582/582 529/529/529 584/584/584
f 582/582/582 584/584/584 583/583/583
f 583/583/583 584/584/584 523/523/523
f 583/583/583 523/523/523 522/522/522
f 529/529/529 527/527/527 584/584/584
f 584/584/584 527/527/527 524/524/524
f 584/584/584 524/524/524 523/523/523
f 525/525/525 524/524/524 527/527/527

