# File generated by ImageToStl.com - Free Image and 3D model conversion tools

mtllib finger_pad_1.mtl

o obj1
v 0.0705 -0.00875 0.12900001
v 0.0705 -0.00875 0.13705289
v 0.0705 -0.00915601 0.12900001
v 0.07462133 -0.00825 0.13363869
v 0.07457867 -0.00875 0.13290629
v 0.07499441 -0.00825 0.13318408
v 0.0748097 -0.00875 0.13247408
v 0.07527164 -0.00825 0.13266541
v 0.07544235 -0.00825 0.13210264
v 0.07495197 -0.00875 0.13200508
v 0.075 0.00875 0.13151737
v 0.0748097 0.00875 0.13247408
v 0.07495197 0.00875 0.13200508
v 0.07457867 0.00875 0.13290629
v 0.07297873 0.00875 0.12900001
v 0.07426777 0.00875 0.13328514
v 0.07451828 0.00875 0.12900001
v 0.075 -0.00875 0.13151737
v 0.07426777 -0.00875 0.13328514
v 0.07451828 -0.00875 0.12900001
v 0.07297873 -0.00875 0.12900001
v 0.07462133 0.00825 0.13363869
v 0.0705 0.00875 0.13705289
v 0.0705 0.00825 0.13776
v 0.07499441 0.00825 0.13318408
v 0.07527164 0.00825 0.13266541
v 0.07544235 0.00825 0.13210264
v 0.0705 -0.00825 0.13776
v 0.07499441 0 0.13318408
v 0.07527164 0 0.13266541
v 0.07544235 0 0.13210264
v 0.0755 0.00825 0.13151737
v 0.0755 -0.00825 0.13151737
v 0.075383 0.00836701 0.12900001
v 0.0755 0.00825 0.12900001
v 0.0755 -0.00438878 0.12900001
v 0.0755 -0.00825 0.12900001
v 0.075383 -0.008367 0.12900001
v 0.0705 -0.00993844 0.14104217
v 0.0705 -0.00975528 0.14180508
v 0.0705 -0.00945503 0.14252995
v 0.0705 -0.00904508 0.14319894
v 0.0705 -0.00853553 0.14379553
v 0.0705 -0.00793892 0.14430508
v 0.0705 -0.00726995 0.14471503
v 0.0705 -0.00654508 0.14501528
v 0.0705 -0.00578217 0.14519845
v 0.0705 -0.005 0.14525999
v 0.0705 0.005 0.14525999
v 0.0705 0.00578217 0.14519845
v 0.0705 0.00654509 0.14501528
v 0.0705 0.00726995 0.14471503
v 0.0705 0.00793893 0.14430508
v 0.0705 0.00853554 0.14379553
v 0.0705 0.00904509 0.14319894
v 0.0705 0.00945504 0.14252995
v 0.0705 0.00975529 0.14180508
v 0.0705 0.00993844 0.14104217
v 0.07 -0.01044402 0.14104272
v 0.07 -0.01027721 0.14180952
v 0.07 -0.01000297 0.14254479
v 0.07 -0.00962689 0.14323352
v 0.07 -0.00915662 0.14386174
v 0.07 -0.00860173 0.14441663
v 0.07 -0.00797352 0.14488691
v 0.07 -0.00728478 0.14526297
v 0.07 -0.00654953 0.14553721
v 0.07 -0.00578273 0.14570403
v 0.07 -0.005 0.14576
v 0.07 0.005 0.14576
v 0.07 0.00578273 0.14570403
v 0.07 0.00654953 0.14553721
v 0.07 0.00728478 0.14526297
v 0.07 0.00797353 0.14488691
v 0.07 0.00860174 0.14441663
v 0.07 0.00915662 0.14386174
v 0.07 0.0096269 0.14323352
v 0.07 0.01000298 0.14254479
v 0.07 0.01027721 0.14180952
v 0.07 0.01044402 0.14104272
v 0.065 -0.005 0.14576
v 0.065 -0.00578273 0.14570403
v 0.065 -0.00654953 0.14553721
v 0.065 -0.00728478 0.14526297
v 0.065 -0.00797352 0.14488691
v 0.065 -0.00860173 0.14441663
v 0.065 -0.00915662 0.14386174
v 0.065 -0.00962689 0.14323352
v 0.065 -0.01000297 0.14254479
v 0.065 -0.01027721 0.14180952
v 0.065 -0.01044402 0.14104272
v 0.065 0.005 0.14576
v 0.065 0.01044402 0.14104272
v 0.065 0.01027721 0.14180952
v 0.065 0.01000298 0.14254479
v 0.065 0.0096269 0.14323352
v 0.065 0.00915662 0.14386174
v 0.065 0.00860174 0.14441663
v 0.065 0.00797353 0.14488691
v 0.065 0.00728478 0.14526297
v 0.065 0.00654953 0.14553721
v 0.065 0.00578273 0.14570403
v 0.0635 -0.00993844 0.14104217
v 0.065 -0.00993844 0.14104217
v 0.065 -0.00975528 0.14180508
v 0.0635 -0.00975528 0.14180508
v 0.065 -0.00945503 0.14252995
v 0.0635 -0.00945503 0.14252995
v 0.065 -0.00904508 0.14319894
v 0.0635 -0.00904508 0.14319894
v 0.065 -0.00853553 0.14379553
v 0.0635 -0.00853553 0.14379553
v 0.065 -0.00793892 0.14430508
v 0.0635 -0.00793892 0.14430508
v 0.065 -0.00726995 0.14471503
v 0.0635 -0.00726995 0.14471503
v 0.065 -0.00654508 0.14501528
v 0.0635 -0.00654508 0.14501528
v 0.065 -0.00578217 0.14519845
v 0.0635 -0.00578217 0.14519845
v 0.065 -0.005 0.14525999
v 0.0635 -0.005 0.14525999
v 0.065 0.005 0.14525999
v 0.0635 0.005 0.14525999
v 0.065 0.00993844 0.14104217
v 0.065 0.00975529 0.14180508
v 0.065 0.00945504 0.14252995
v 0.065 0.00904509 0.14319894
v 0.065 0.00853554 0.14379553
v 0.065 0.00793893 0.14430508
v 0.065 0.00726995 0.14471503
v 0.065 0.00654509 0.14501528
v 0.065 0.00578217 0.14519845
v 0.0635 0.00993844 0.14104217
v 0.0635 0.00578217 0.14519845
v 0.0635 0.00654509 0.14501528
v 0.0635 0.00726995 0.14471503
v 0.0635 0.00793893 0.14430508
v 0.0635 0.00853554 0.14379553
v 0.0635 0.00904509 0.14319894
v 0.0635 0.00945504 0.14252995
v 0.0635 0.00975529 0.14180508
v 0.0705 -0.01 0.14026
v 0.0705 0.01 0.14026
v 0.0705 0.00915601 0.12900001
v 0.0705 0.00875 0.12900001
v 0.07020108 -0.01029893 0.12900001
v 0.07 -0.0105 0.14026
v 0.07 -0.0105 0.12900001
v 0.07 0.0105 0.14026
v 0.07 0.0105 0.12900001
v 0.07020108 0.01029893 0.12900001
v 0.06802456 -0.0105 0.12900001
v 0.065 -0.0105 0.14026
v 0.065 0.0105 0.14026
v 0.06802456 0.0105 0.12900001
v 0.0635 0.01 0.12900001
v 0.0635 0.01 0.14026
v 0.06409263 0.01 0.12900001
v 0.06409263 -0.01 0.12900001
v 0.0635 -0.01 0.14026
v 0.0635 -0.01 0.12900001
v 0.065 -0.01 0.14026
v 0.065 0.01030246 0.12900001
v 0.065 0.0105 0.12900001
v 0.065 0.01 0.14026
v 0.065 -0.01019754 0.12900001
v 0.065 -0.01 0.12900001
v 0.0635 -0.00209825 0.12900001
v 0.075 -0.00875 0.12900001
v 0.075 0.00875 0.12900001
v 0.0705 -0.01 0.12900001
v 0.0705 0.01 0.12900001
v 0.065 -0.0105 0.12900001
v 0.065 0.01 0.12900001
vn 1 0 -0
vn 0.54793 -0.7054 0.44966
vn 0.62511 -0.7054 0.33414
vn 0.62512 -0.70539 0.33413
vn 0.67829 -0.70539 0.20576
vn 0.67829 -0.7054 0.20575
vn 0 1 0
vn 0 -1 0
vn 0.5 0.70711 0.5
vn 0.5 0.70711 0.5
vn 0.62512 0.7054 0.33413
vn 0.62512 0.70539 0.33414
vn 0.6783 0.70539 0.20576
vn 0.67829 0.7054 0.20576
vn 0.5 -0.70711 0.5
vn 0.5 -0.70711 0.5
vn 0.77302 0 0.63438
vn 0.88192 0 0.4714
vn 0.95694 0 0.29028
vn 0.99518 -0 0.09802
vn 0.7054 0.7054 0.06948
vn 0.7054 0.70539 0.06947
vn 0.54792 0.7054 0.44966
vn 0.54792 0.7054 0.44965
vn 0.70711 0.7071 0
vn 0.70711 -0.7071 0
vn 0.7054 -0.7054 0.06947
vn 0.7054 -0.70539 0.06948
vn 0.54792 -0.7054 0.44966
vn 0.70711 0 0.70711
vn 0.70293 -0.69501 0.15119
vn 0.71307 -0.68172 0.16367
vn 0.70035 -0.6688 0.24945
vn 0.71538 -0.64555 0.26739
vn 0.69849 -0.62809 0.34296
vn 0.7169 -0.59444 0.36427
vn 0.69736 -0.57377 0.42951
vn 0.71767 -0.52954 0.45227
vn 0.69699 -0.50705 0.50705
vn 0.71766 -0.45227 0.52954
vn 0.69737 -0.42951 0.57376
vn 0.71691 -0.36427 0.59443
vn 0.69849 -0.34295 0.62809
vn 0.71538 -0.26741 0.64555
vn 0.70034 -0.24946 0.6688
vn 0.71307 -0.16366 0.68172
vn 0.70293 -0.15119 0.695
vn 0.70997 -0.05525 0.70206
vn 0.7062 -0.0505 0.7062
vn 0.70711 0 0.70711
vn 0.7062 0.0505 0.7062
vn 0.70997 0.05525 0.70206
vn 0.70293 0.15119 0.695
vn 0.71307 0.16366 0.68172
vn 0.70034 0.24946 0.6688
vn 0.71538 0.26741 0.64555
vn 0.69849 0.34295 0.62809
vn 0.71691 0.36426 0.59443
vn 0.69737 0.42951 0.57376
vn 0.71767 0.45227 0.52954
vn 0.69699 0.50705 0.50705
vn 0.71767 0.52954 0.45227
vn 0.69736 0.57377 0.42951
vn 0.7169 0.59444 0.36427
vn 0.69849 0.62809 0.34296
vn 0.71538 0.64555 0.26739
vn 0.70035 0.6688 0.24945
vn 0.71307 0.68172 0.16367
vn 0.70293 0.69501 0.15119
vn 0 -0.07132 0.99745
vn 0 -0.21257 0.97715
vn 0 -0.34948 0.93695
vn 0 -0.47924 0.87769
vn 0 -0.59928 0.80054
vn 0 -0.7071 0.70711
vn 0 -0.80055 0.59927
vn 0 -0.87768 0.47925
vn 0 -0.93695 0.34946
vn 0 -0.97715 0.21256
vn 0 -0 1
vn 0 0.97715 0.21256
vn 0 0.93695 0.34946
vn 0 0.87768 0.47925
vn 0 0.80055 0.59927
vn 0 0.7071 0.70711
vn 0 0.59928 0.80054
vn 0 0.47924 0.87769
vn 0 0.34948 0.93695
vn 0 0.21257 0.97715
vn 0 0.07132 0.99745
vn 0 -0.97237 0.23345
vn 0 -0.92388 0.38268
vn 0 -0.85264 0.5225
vn 0 -0.7604 0.64945
vn 0 -0.64945 0.76041
vn 0 -0.52249 0.85264
vn 0 -0.3827 0.92387
vn 0 -0.23344 0.97237
vn 0 -0.07845 0.99692
vn -1 -0 0
vn -0 0.07845 0.99692
vn -0 0.23344 0.97237
vn -0 0.3827 0.92387
vn -0 0.52249 0.85264
vn -0 0.64945 0.76041
vn -0 0.7604 0.64945
vn -0 0.85264 0.5225
vn -0 0.92388 0.38268
vn -0 0.97237 0.23345
vn 0.70711 -0.70711 0
vn 0.7062 -0.7062 0.05051
vn 0.70996 -0.70207 0.05525
vn 0.70996 0.70207 0.05525
vn 0.7062 0.7062 0.05051
vn 0.70711 0.70711 -0
vn 0 -0.99745 0.07134
vn 0 0.99745 0.07134
vn 0 -0.99692 0.07846
vn -0 0.99692 0.07846
vn 0.70711 -0.70711 0
vn 0.70711 -0.70711 0
vn 0.70711 0.70711 0
vn 0.70711 0.70711 0
vn 0.70711 -0.70711 0
vn 0.70711 -0.70711 0
vn 0.70711 0.70711 0
vn 0.70711 0.70711 0
vn 0 0 -1
usemtl mat1
f 1//1 2//1 3//1
f 4//2 5//2 6//2
f 6//3 5//3 7//3
f 6//4 7//4 8//4
f 8//5 7//5 9//5
f 9//6 7//6 10//6
f 11//7 12//7 13//7
f 14//7 12//7 11//7
f 15//7 16//7 17//7
f 14//7 11//7 16//7
f 18//8 5//8 19//8
f 18//8 7//8 5//8
f 10//8 7//8 18//8
f 20//8 19//8 21//8
f 22//9 23//9 24//9
f 16//10 23//10 22//10
f 14//11 25//11 26//11
f 14//12 26//12 12//12
f 12//13 26//13 13//13
f 13//14 26//14 27//14
f 4//15 2//15 19//15
f 28//16 2//16 4//16
f 25//17 22//17 29//17
f 29//17 22//17 4//17
f 29//17 4//17 6//17
f 29//18 6//18 30//18
f 30//18 6//18 8//18
f 30//19 8//19 31//19
f 31//19 8//19 9//19
f 31//20 32//20 27//20
f 33//20 32//20 31//20
f 31//20 9//20 33//20
f 31//19 27//19 30//19
f 30//19 27//19 26//19
f 30//18 26//18 29//18
f 29//18 26//18 25//18
f 11//21 27//21 32//21
f 13//22 27//22 11//22
f 16//23 25//23 14//23
f 22//24 25//24 16//24
f 34//25 32//25 35//25
f 36//1 33//1 37//1
f 37//26 33//26 38//26
f 33//27 10//27 18//27
f 9//28 10//28 33//28
f 19//29 5//29 4//29
f 24//30 28//30 22//30
f 22//30 28//30 4//30
f 39//1 28//1 40//1
f 40//1 28//1 41//1
f 41//1 28//1 42//1
f 42//1 28//1 43//1
f 43//1 28//1 44//1
f 44//1 28//1 45//1
f 45//1 28//1 46//1
f 46//1 28//1 47//1
f 47//1 28//1 48//1
f 48//1 28//1 24//1
f 48//1 24//1 49//1
f 49//1 24//1 50//1
f 50//1 24//1 51//1
f 51//1 24//1 52//1
f 52//1 24//1 53//1
f 53//1 24//1 54//1
f 54//1 24//1 55//1
f 55//1 24//1 56//1
f 56//1 24//1 57//1
f 57//1 24//1 58//1
f 59//31 39//31 60//31
f 60//32 39//32 40//32
f 60//33 40//33 61//33
f 61//34 40//34 41//34
f 61//35 41//35 62//35
f 62//36 41//36 42//36
f 62//37 42//37 63//37
f 63//38 42//38 43//38
f 63//39 43//39 64//39
f 64//40 43//40 44//40
f 64//41 44//41 65//41
f 65//42 44//42 45//42
f 65//43 45//43 66//43
f 66//44 45//44 46//44
f 66//45 46//45 67//45
f 67//46 46//46 47//46
f 67//47 47//47 68//47
f 68//48 47//48 48//48
f 68//49 48//49 69//49
f 70//50 69//50 49//50
f 49//50 69//50 48//50
f 70//51 49//51 71//51
f 71//52 49//52 50//52
f 71//53 50//53 72//53
f 72//54 50//54 51//54
f 72//55 51//55 73//55
f 73//56 51//56 52//56
f 73//57 52//57 74//57
f 74//58 52//58 53//58
f 74//59 53//59 75//59
f 75//60 53//60 54//60
f 75//61 54//61 76//61
f 76//62 54//62 55//62
f 76//63 55//63 77//63
f 77//64 55//64 56//64
f 77//65 56//65 78//65
f 78//66 56//66 57//66
f 78//67 57//67 79//67
f 79//68 57//68 58//68
f 79//69 58//69 80//69
f 69//70 81//70 68//70
f 68//70 81//70 82//70
f 68//71 82//71 67//71
f 67//71 82//71 83//71
f 67//72 83//72 66//72
f 66//72 83//72 84//72
f 66//73 84//73 65//73
f 65//73 84//73 85//73
f 65//74 85//74 64//74
f 64//74 85//74 86//74
f 64//75 86//75 63//75
f 63//75 86//75 87//75
f 63//76 87//76 62//76
f 62//76 87//76 88//76
f 62//77 88//77 61//77
f 61//77 88//77 89//77
f 61//78 89//78 60//78
f 60//78 89//78 90//78
f 60//79 90//79 59//79
f 59//79 90//79 91//79
f 69//80 70//80 81//80
f 81//80 70//80 92//80
f 80//81 93//81 79//81
f 79//81 93//81 94//81
f 79//82 94//82 78//82
f 78//82 94//82 95//82
f 78//83 95//83 77//83
f 77//83 95//83 96//83
f 77//84 96//84 76//84
f 76//84 96//84 97//84
f 76//85 97//85 75//85
f 75//85 97//85 98//85
f 75//86 98//86 74//86
f 74//86 98//86 99//86
f 74//87 99//87 73//87
f 73//87 99//87 100//87
f 73//88 100//88 72//88
f 72//88 100//88 101//88
f 72//89 101//89 71//89
f 71//89 101//89 102//89
f 71//90 102//90 70//90
f 70//90 102//90 92//90
f 103//91 104//91 105//91
f 103//91 105//91 106//91
f 106//92 105//92 107//92
f 106//92 107//92 108//92
f 108//93 107//93 109//93
f 108//93 109//93 110//93
f 110//94 109//94 111//94
f 110//94 111//94 112//94
f 112//95 111//95 113//95
f 112//95 113//95 114//95
f 114//96 113//96 115//96
f 114//96 115//96 116//96
f 116//97 115//97 117//97
f 116//97 117//97 118//97
f 118//98 117//98 119//98
f 118//98 119//98 120//98
f 120//99 119//99 121//99
f 120//99 121//99 122//99
f 121//80 123//80 122//80
f 122//80 123//80 124//80
f 93//100 125//100 94//100
f 94//100 125//100 126//100
f 94//100 126//100 95//100
f 95//100 126//100 127//100
f 95//100 127//100 96//100
f 96//100 127//100 128//100
f 96//100 128//100 97//100
f 97//100 128//100 129//100
f 97//100 129//100 98//100
f 98//100 129//100 130//100
f 98//100 130//100 99//100
f 99//100 130//100 131//100
f 99//100 131//100 100//100
f 100//100 131//100 132//100
f 100//100 132//100 101//100
f 101//100 132//100 133//100
f 101//100 133//100 102//100
f 102//100 133//100 123//100
f 102//100 123//100 92//100
f 92//100 123//100 121//100
f 92//100 121//100 81//100
f 81//100 121//100 82//100
f 82//100 121//100 119//100
f 82//100 119//100 83//100
f 83//100 119//100 117//100
f 83//100 117//100 84//100
f 84//100 117//100 115//100
f 84//100 115//100 85//100
f 85//100 115//100 113//100
f 85//100 113//100 86//100
f 86//100 113//100 111//100
f 86//100 111//100 87//100
f 87//100 111//100 109//100
f 87//100 109//100 88//100
f 88//100 109//100 107//100
f 88//100 107//100 89//100
f 89//100 107//100 105//100
f 89//100 105//100 90//100
f 90//100 105//100 104//100
f 90//100 104//100 91//100
f 106//100 108//100 103//100
f 103//100 108//100 110//100
f 103//100 110//100 112//100
f 112//100 114//100 103//100
f 103//100 114//100 116//100
f 103//100 116//100 118//100
f 118//100 120//100 103//100
f 103//100 120//100 122//100
f 103//100 122//100 134//100
f 134//100 122//100 124//100
f 134//100 124//100 135//100
f 135//100 136//100 134//100
f 134//100 136//100 137//100
f 134//100 137//100 138//100
f 138//100 139//100 134//100
f 134//100 139//100 140//100
f 134//100 140//100 141//100
f 141//100 142//100 134//100
f 124//101 123//101 135//101
f 135//101 123//101 133//101
f 135//102 133//102 136//102
f 136//102 133//102 132//102
f 136//103 132//103 137//103
f 137//103 132//103 131//103
f 137//104 131//104 138//104
f 138//104 131//104 130//104
f 138//105 130//105 139//105
f 139//105 130//105 129//105
f 139//106 129//106 140//106
f 140//106 129//106 128//106
f 140//107 128//107 141//107
f 141//107 128//107 127//107
f 141//108 127//108 142//108
f 142//108 127//108 126//108
f 142//109 126//109 134//109
f 134//109 126//109 125//109
f 143//1 2//1 28//1
f 143//1 28//1 39//1
f 58//1 24//1 144//1
f 144//1 24//1 23//1
f 145//1 23//1 146//1
f 147//110 148//110 149//110
f 148//111 143//111 59//111
f 59//112 143//112 39//112
f 80//113 58//113 144//113
f 80//114 144//114 150//114
f 151//115 150//115 152//115
f 149//8 148//8 153//8
f 59//116 91//116 148//116
f 148//116 91//116 154//116
f 150//117 155//117 80//117
f 80//117 155//117 93//117
f 156//7 150//7 151//7
f 157//7 158//7 159//7
f 160//8 161//8 162//8
f 163//118 104//118 161//118
f 161//118 104//118 103//118
f 164//100 155//100 165//100
f 155//100 166//100 93//100
f 93//100 166//100 125//100
f 91//100 104//100 163//100
f 91//100 163//100 154//100
f 167//100 163//100 168//100
f 103//100 134//100 161//100
f 161//100 134//100 158//100
f 162//100 161//100 169//100
f 134//119 125//119 158//119
f 158//119 125//119 166//119
f 18//120 170//120 38//120
f 18//121 38//121 33//121
f 32//1 33//1 36//1
f 32//1 36//1 35//1
f 11//122 32//122 34//122
f 11//123 34//123 171//123
f 19//8 2//8 1//8
f 19//8 1//8 21//8
f 18//8 19//8 20//8
f 18//8 20//8 170//8
f 11//7 171//7 17//7
f 11//7 17//7 16//7
f 16//7 15//7 146//7
f 16//7 146//7 23//7
f 2//1 143//1 172//1
f 2//1 172//1 3//1
f 23//1 145//1 173//1
f 23//1 173//1 144//1
f 143//124 148//124 147//124
f 143//125 147//125 172//125
f 144//126 173//126 152//126
f 144//127 152//127 150//127
f 154//8 174//8 153//8
f 154//8 153//8 148//8
f 155//7 150//7 156//7
f 155//7 156//7 165//7
f 166//7 175//7 159//7
f 166//7 159//7 158//7
f 163//8 161//8 160//8
f 163//8 160//8 168//8
f 166//100 155//100 164//100
f 166//100 164//100 175//100
f 154//100 163//100 167//100
f 154//100 167//100 174//100
f 158//100 157//100 169//100
f 158//100 169//100 161//100
f 169//128 160//128 162//128
f 159//128 169//128 157//128
f 175//128 169//128 159//128
f 156//128 175//128 164//128
f 156//128 164//128 165//128
f 145//128 156//128 151//128
f 145//128 151//128 152//128
f 145//128 152//128 173//128
f 146//128 169//128 175//128
f 146//128 175//128 156//128
f 146//128 156//128 145//128
f 34//128 17//128 171//128
f 35//128 15//128 17//128
f 35//128 17//128 34//128
f 36//128 169//128 146//128
f 36//128 146//128 15//128
f 36//128 15//128 35//128
f 20//128 36//128 37//128
f 20//128 37//128 38//128
f 20//128 38//128 170//128
f 21//128 36//128 20//128
f 1//128 169//128 36//128
f 1//128 36//128 21//128
f 147//128 3//128 172//128
f 149//128 3//128 147//128
f 153//128 1//128 3//128
f 153//128 3//128 149//128
f 167//128 153//128 174//128
f 168//128 160//128 169//128
f 168//128 169//128 1//128
f 168//128 1//128 153//128
f 168//128 153//128 167//128
# Vertices: 175, normals: 128, texture coordinates: 0, faces: 346

