# File generated by ImageToStl.com - Free Image and 3D model conversion tools

mtllib finger_pad_0.mtl

o obj1
v 0.0635 -0.01 0.11176001
v 0.0635 -0.00209825 0.12900001
v 0.0635 0.01 0.11176001
v 0.0635 -0.01 0.12900001
v 0.065 -0.01 0.11176001
v 0.065 -0.01019754 0.12900001
v 0.065 -0.01 0.12900001
v 0.065 -0.0105 0.11176001
v 0.065 0.0105 0.11176001
v 0.065 0.01030246 0.12900001
v 0.065 0.0105 0.12900001
v 0.065 0.01 0.11176001
v 0.06409263 -0.01 0.12900001
v 0.06409263 0.01 0.12900001
v 0.0635 0.01 0.12900001
v 0.07 0.0105 0.11176001
v 0.06802456 0.0105 0.12900001
v 0.07 0.0105 0.12900001
v 0.07 -0.0105 0.11176001
v 0.06802456 -0.0105 0.12900001
v 0.07 -0.0105 0.12900001
v 0.0705 0.01 0.11226001
v 0.07020108 0.01029893 0.12900001
v 0.0705 -0.01 0.11226001
v 0.07020108 -0.01029893 0.12900001
v 0.0705 0.00875 0.12076
v 0.0705 0.00915601 0.12900001
v 0.0705 0.00875 0.12900001
v 0.0705 -0.00875 0.12076
v 0.0705 -0.00915601 0.12900001
v 0.0705 -0.00875 0.12900001
v 0.075 0.00875 0.12076
v 0.07297873 0.00875 0.12900001
v 0.07451828 0.00875 0.12900001
v 0.075 -0.00875 0.12076
v 0.07297873 -0.00875 0.12900001
v 0.07451828 -0.00875 0.12900001
v 0.0755 0.00825 0.12076
v 0.075383 0.00836701 0.12900001
v 0.0755 0.00825 0.12900001
v 0.0755 -0.00825 0.12076
v 0.0755 -0.00438878 0.12900001
v 0.0755 -0.00825 0.12900001
v 0.075383 -0.008367 0.12900001
v 0.065 -0.0105 0.12900001
v 0.065 0.01 0.12900001
v 0.0705 0.01 0.12900001
v 0.0705 -0.01 0.12900001
v 0.075 0.00875 0.12900001
v 0.075 -0.00875 0.12900001
vn -1 0 0
vn 0 -1 0
vn 0 1 0
vn 0.70711 0.70711 -0
vn 0.70711 0.70711 0
vn 0.70711 -0.70711 0
vn 0.70711 -0.70711 -0
vn 1 0 0
vn 0.70711 0.7071 -0
vn 0.70711 0.70711 -0
vn 0.70711 -0.70711 -0
vn 0.70711 -0.7071 0
vn 0 0 -1
vn 0.70711 0 -0.70711
vn 0.70711 0.70711 0
vn 0.70711 -0.70711 0
vn 0.70711 0.70711 0
vn 0.70711 -0.70711 0
vn 0 0 1
usemtl mat1
f 1//1 2//1 3//1
f 1//1 4//1 2//1
f 5//1 6//1 7//1
f 5//1 8//1 6//1
f 9//1 10//1 11//1
f 9//1 12//1 10//1
f 1//2 13//2 4//2
f 1//2 5//2 13//2
f 3//3 14//3 12//3
f 3//3 15//3 14//3
f 16//3 17//3 18//3
f 16//3 9//3 17//3
f 19//2 20//2 8//2
f 19//2 21//2 20//2
f 22//4 18//4 23//4
f 22//5 16//5 18//5
f 24//6 21//6 19//6
f 24//7 25//7 21//7
f 26//8 27//8 28//8
f 26//8 22//8 27//8
f 29//8 30//8 24//8
f 29//8 31//8 30//8
f 32//3 33//3 34//3
f 32//3 26//3 33//3
f 35//2 36//2 29//2
f 35//2 37//2 36//2
f 38//9 39//9 40//9
f 38//10 32//10 39//10
f 41//8 42//8 43//8
f 41//8 38//8 42//8
f 41//11 44//11 35//11
f 41//12 43//12 44//12
f 15//1 3//1 2//1
f 6//1 8//1 45//1
f 10//1 12//1 46//1
f 13//2 5//2 7//2
f 19//13 8//13 5//13
f 16//13 12//13 9//13
f 19//13 12//13 16//13
f 5//13 12//13 19//13
f 5//13 3//13 12//13
f 1//13 3//13 5//13
f 46//3 12//3 14//3
f 17//3 9//3 11//3
f 45//2 8//2 20//2
f 24//14 16//14 22//14
f 19//14 16//14 24//14
f 47//15 22//15 23//15
f 25//16 24//16 48//16
f 22//8 26//8 29//8
f 27//8 22//8 47//8
f 48//8 24//8 30//8
f 22//8 29//8 24//8
f 33//3 26//3 28//3
f 49//3 32//3 34//3
f 26//13 35//13 29//13
f 32//13 35//13 26//13
f 38//13 35//13 32//13
f 41//13 35//13 38//13
f 37//2 35//2 50//2
f 31//2 29//2 36//2
f 39//17 32//17 49//17
f 42//8 38//8 40//8
f 50//18 35//18 44//18
f 2//19 4//19 13//19
f 14//19 15//19 2//19
f 46//19 14//19 2//19
f 17//19 10//19 46//19
f 17//19 11//19 10//19
f 27//19 18//19 17//19
f 27//19 23//19 18//19
f 27//19 47//19 23//19
f 28//19 46//19 2//19
f 28//19 17//19 46//19
f 28//19 27//19 17//19
f 39//19 49//19 34//19
f 40//19 34//19 33//19
f 40//19 39//19 34//19
f 42//19 28//19 2//19
f 42//19 33//19 28//19
f 42//19 40//19 33//19
f 37//19 43//19 42//19
f 37//19 44//19 43//19
f 37//19 50//19 44//19
f 36//19 37//19 42//19
f 31//19 42//19 2//19
f 31//19 36//19 42//19
f 25//19 48//19 30//19
f 21//19 25//19 30//19
f 20//19 30//19 31//19
f 20//19 21//19 30//19
f 6//19 45//19 20//19
f 7//19 2//19 13//19
f 7//19 31//19 2//19
f 7//19 20//19 31//19
f 7//19 6//19 20//19
# Vertices: 50, normals: 19, texture coordinates: 0, faces: 96

