mtllib material.mtl
usemtl mat1
v -0.05599994 0.06200006 0.00000000
v -0.05514894 0.06200006 -0.00972400
v -0.05599993 0.06900006 0.00000000
v -0.05514893 0.06900006 -0.00972400
v -0.05262294 0.06200005 -0.01915300
v -0.05262293 0.06900005 -0.01915300
v -0.04849694 0.06200005 -0.02800000
v -0.04849693 0.06900005 -0.02800000
v -0.04289794 0.06200004 -0.03599600
v -0.04289793 0.06900004 -0.03599600
v -0.03599594 0.06200004 -0.04289800
v -0.03599593 0.06900004 -0.04289800
v -0.02799994 0.06200003 -0.04849700
v -0.02799993 0.06900003 -0.04849700
v -0.01915294 0.06200002 -0.05262300
v -0.01915293 0.06900002 -0.05262300
v -0.00972394 0.06200001 -0.05514900
v -0.00972393 0.06900001 -0.05514900
v 0.00000006 0.06200000 -0.05600000
v 0.00000007 0.06900000 -0.05600000
v 0.00972406 0.06199999 -0.05514900
v 0.00972407 0.06899999 -0.05514900
v 0.01915306 0.06199998 -0.05262300
v 0.01915307 0.06899998 -0.05262300
v 0.02800006 0.06199997 -0.04849700
v 0.02800007 0.06899997 -0.04849700
v 0.03599606 0.06199996 -0.04289800
v 0.03599607 0.06899996 -0.04289800
v 0.04289806 0.06199996 -0.03599600
v 0.04289807 0.06899996 -0.03599600
v 0.04849706 0.06199995 -0.02800000
v 0.04849707 0.06899995 -0.02800000
v 0.05262306 0.06199995 -0.01915300
v 0.05262307 0.06899995 -0.01915300
v 0.05514906 0.06199994 -0.00972400
v 0.05514907 0.06899994 -0.00972400
v 0.05600007 0.06899994 0.00000000
v 0.05600006 0.06199994 0.00000000
v 0.05900000 -0.00000006 0.00000000
v 0.05900007 0.06899994 0.00000000
v 0.05871601 0.00578294 0.00578300
v 0.05810407 0.06899994 0.01024500
v 0.05786601 0.01150994 0.01151000
v 0.05645902 0.01712694 0.01712700
v 0.05544207 0.06899994 0.02017900
v 0.05450902 0.02257795 0.02257800
v 0.05109607 0.06899995 0.02950000
v 0.05203303 0.02781195 0.02781200
v 0.04905703 0.03277895 0.03277900
v 0.04519707 0.06899995 0.03792400
v 0.04560804 0.03742895 0.03742900
v 0.04171904 0.04171896 0.04171900
v 0.03792407 0.06899996 0.04519700
v 0.03742905 0.04560796 0.04560800
v 0.03277905 0.04905697 0.04905700
v 0.02950007 0.06899997 0.05109600
v 0.02781205 0.05203297 0.05203300
v 0.02257805 0.05450898 0.05450900
v 0.02017907 0.06899998 0.05544200
v 0.01712706 0.05645898 0.05645900
v 0.01024507 0.06899999 0.05810400
v 0.01151006 0.05786599 0.05786600
v 0.00578306 0.05871599 0.05871600
v 0.00000007 0.06900000 0.05900000
v 0.00000006 0.05900000 0.05900000
v -0.00578294 0.05871601 0.05871600
v -0.01024493 0.06900001 0.05810400
v -0.01150994 0.05786601 0.05786600
v -0.01712694 0.05645902 0.05645900
v -0.02017893 0.06900002 0.05544200
v -0.02257795 0.05450902 0.05450900
v -0.02949993 0.06900003 0.05109600
v -0.02781195 0.05203303 0.05203300
v -0.03277895 0.04905703 0.04905700
v -0.03792393 0.06900004 0.04519700
v -0.03742895 0.04560804 0.04560800
v -0.04171896 0.04171904 0.04171900
v -0.04519693 0.06900005 0.03792400
v -0.04560796 0.03742905 0.03742900
v -0.04905697 0.03277905 0.03277900
v -0.05109593 0.06900005 0.02950000
v -0.05203297 0.02781205 0.02781200
v -0.05450898 0.02257805 0.02257800
v -0.05544193 0.06900006 0.02017900
v -0.05645898 0.01712706 0.01712700
v -0.05810393 0.06900006 0.01024500
v -0.05786599 0.01151006 0.01151000
v -0.05871599 0.00578306 0.00578300
v -0.05899993 0.06900006 0.00000000
v -0.05900000 0.00000006 0.00000000
v -0.00000006 -0.05900000 -0.06330000
v -0.00000006 -0.05900000 0.04010900
v -0.01024506 -0.05810399 -0.06330000
v -0.01024506 -0.05810399 0.04034900
v -0.02017906 -0.05544198 -0.06330000
v -0.02017906 -0.05544198 0.04106200
v -0.02950005 -0.05109597 -0.06330000
v -0.02950005 -0.05109597 0.04222700
v -0.03792405 -0.04519696 -0.06330000
v -0.03792405 -0.04519696 0.04380800
v -0.04519704 -0.03792395 -0.06330000
v -0.04519704 -0.03792395 0.04575600
v -0.05109603 -0.02949995 -0.06330000
v -0.05109603 -0.02949995 0.04801400
v -0.05544202 -0.02017894 -0.06330000
v -0.05544202 -0.02017894 0.05051100
v -0.05810401 -0.01024494 -0.06330000
v -0.05810401 -0.01024494 0.05317300
v -0.05900000 0.00000006 0.00000000
v -0.05900000 0.00000006 0.05591800
v -0.05871599 0.00578306 0.00578300
v -0.05810399 0.01024506 0.05866300
v -0.05786599 0.01151006 0.01151000
v -0.05645898 0.01712706 0.01712700
v -0.05544198 0.02017906 0.06132500
v -0.05450898 0.02257805 0.02257800
v -0.05203297 0.02781205 0.02781200
v -0.05109597 0.02950005 0.06382300
v -0.04905697 0.03277905 0.03277900
v -0.04519696 0.03792405 0.06608000
v -0.04560796 0.03742905 0.03742900
v -0.04171896 0.04171904 0.04171900
v -0.03792395 0.04519704 0.06802800
v -0.03742895 0.04560804 0.04560800
v -0.03277895 0.04905703 0.04905700
v -0.02949995 0.05109603 0.06960900
v -0.02781195 0.05203303 0.05203300
v -0.02257795 0.05450902 0.05450900
v -0.02017894 0.05544202 0.07077400
v -0.01712694 0.05645902 0.05645900
v -0.01024494 0.05810401 0.07148700
v -0.01150994 0.05786601 0.05786600
v -0.00578294 0.05871601 0.05871600
v 0.00000006 0.05900000 0.07172700
v 0.00000006 0.05900000 0.05900000
v -0.05900000 0.00000006 -0.06330000
v -0.05871599 0.00578306 -0.00578300
v -0.05810399 0.01024506 -0.06330000
v -0.05786599 0.01151006 -0.01151000
v -0.05645898 0.01712706 -0.01712700
v -0.05544198 0.02017906 -0.06330000
v -0.05450898 0.02257805 -0.02257800
v -0.05203297 0.02781205 -0.02781200
v -0.05109597 0.02950005 -0.06330000
v -0.04905697 0.03277905 -0.03277900
v -0.04519696 0.03792405 -0.06330000
v -0.04560796 0.03742905 -0.03742900
v -0.04171896 0.04171904 -0.04171900
v -0.03792395 0.04519704 -0.06330000
v -0.03742895 0.04560804 -0.04560800
v -0.03277895 0.04905703 -0.04905700
v -0.02949995 0.05109603 -0.06330000
v -0.02781195 0.05203303 -0.05203300
v -0.02257795 0.05450902 -0.05450900
v -0.02017894 0.05544202 -0.06330000
v -0.01712694 0.05645902 -0.05645900
v -0.01024494 0.05810401 -0.06330000
v -0.01150994 0.05786601 -0.05786600
v -0.00578294 0.05871601 -0.05871600
v 0.00000006 0.05900000 -0.05900000
v 0.00000006 0.05900000 -0.06330000
v 0.00000006 0.05900000 0.05900000
v 0.00000006 0.05900000 0.07172700
v 0.00578306 0.05871599 0.05871600
v 0.01024506 0.05810399 0.07148700
v 0.01151006 0.05786599 0.05786600
v 0.01712706 0.05645898 0.05645900
v 0.02017906 0.05544198 0.07077400
v 0.02257805 0.05450898 0.05450900
v 0.02950005 0.05109597 0.06960900
v 0.02781205 0.05203297 0.05203300
v 0.03277905 0.04905697 0.04905700
v 0.03792405 0.04519696 0.06802800
v 0.03742905 0.04560796 0.04560800
v 0.04171904 0.04171896 0.04171900
v 0.04519704 0.03792395 0.06608000
v 0.04560804 0.03742895 0.03742900
v 0.04905703 0.03277895 0.03277900
v 0.05109603 0.02949995 0.06382300
v 0.05203303 0.02781195 0.02781200
v 0.05544202 0.02017894 0.06132500
v 0.05450902 0.02257795 0.02257800
v 0.05645902 0.01712694 0.01712700
v 0.05810401 0.01024494 0.05866300
v 0.05786601 0.01150994 0.01151000
v 0.05871601 0.00578294 0.00578300
v 0.05900000 -0.00000006 0.05591800
v 0.05900000 -0.00000006 0.00000000
v 0.05810399 -0.01024506 0.05317300
v 0.05810399 -0.01024506 -0.06330000
v 0.05544198 -0.02017906 0.05051100
v 0.05544198 -0.02017906 -0.06330000
v 0.05109597 -0.02950005 0.04801400
v 0.05109597 -0.02950005 -0.06330000
v 0.04519696 -0.03792405 0.04575600
v 0.04519696 -0.03792405 -0.06330000
v 0.03792395 -0.04519704 0.04380800
v 0.03792395 -0.04519704 -0.06330000
v 0.02949995 -0.05109603 0.04222700
v 0.02949995 -0.05109603 -0.06330000
v 0.02017894 -0.05544202 0.04106200
v 0.02017894 -0.05544202 -0.06330000
v 0.01024494 -0.05810401 0.04034900
v 0.01024494 -0.05810401 -0.06330000
v 0.05900000 -0.00000006 -0.06330000
v 0.05871601 0.00578294 -0.00578300
v 0.05810401 0.01024494 -0.06330000
v 0.05786601 0.01150994 -0.01151000
v 0.05645902 0.01712694 -0.01712700
v 0.05544202 0.02017894 -0.06330000
v 0.05450902 0.02257795 -0.02257800
v 0.05109603 0.02949995 -0.06330000
v 0.05203303 0.02781195 -0.02781200
v 0.04905703 0.03277895 -0.03277900
v 0.04519704 0.03792395 -0.06330000
v 0.04560804 0.03742895 -0.03742900
v 0.04171904 0.04171896 -0.04171900
v 0.03792405 0.04519696 -0.06330000
v 0.03742905 0.04560796 -0.04560800
v 0.03277905 0.04905697 -0.04905700
v 0.02950005 0.05109597 -0.06330000
v 0.02781205 0.05203297 -0.05203300
v 0.02257805 0.05450898 -0.05450900
v 0.02017906 0.05544198 -0.06330000
v 0.01712706 0.05645898 -0.05645900
v 0.01024506 0.05810399 -0.06330000
v 0.01151006 0.05786599 -0.05786600
v 0.00578306 0.05871599 -0.05871600
v 0.00000006 0.05900000 -0.06330000
v 0.00000006 0.05900000 -0.05900000
v -0.05900000 0.00000006 0.00000000
v -0.05899993 0.06900006 0.00000000
v -0.05871599 0.00578306 -0.00578300
v -0.05810393 0.06900006 -0.01024500
v -0.05786599 0.01151006 -0.01151000
v -0.05645898 0.01712706 -0.01712700
v -0.05544193 0.06900006 -0.02017900
v -0.05450898 0.02257805 -0.02257800
v -0.05109593 0.06900005 -0.02950000
v -0.05203297 0.02781205 -0.02781200
v -0.04905697 0.03277905 -0.03277900
v -0.04519693 0.06900005 -0.03792400
v -0.04560796 0.03742905 -0.03742900
v -0.04171896 0.04171904 -0.04171900
v -0.03792393 0.06900004 -0.04519700
v -0.03742895 0.04560804 -0.04560800
v -0.03277895 0.04905703 -0.04905700
v -0.02949993 0.06900003 -0.05109500
v -0.02781195 0.05203303 -0.05203300
v -0.02257795 0.05450902 -0.05450900
v -0.02017893 0.06900002 -0.05544200
v -0.01712694 0.05645902 -0.05645900
v -0.01024493 0.06900001 -0.05810400
v -0.01150994 0.05786601 -0.05786600
v -0.00578294 0.05871601 -0.05871600
v 0.00000007 0.06900000 -0.05900000
v 0.00000006 0.05900000 -0.05900000
v 0.00578306 0.05871599 -0.05871600
v 0.01024507 0.06899999 -0.05810400
v 0.01151006 0.05786599 -0.05786600
v 0.01712706 0.05645898 -0.05645900
v 0.02017907 0.06899998 -0.05544200
v 0.02257805 0.05450898 -0.05450900
v 0.02950007 0.06899997 -0.05109500
v 0.02781205 0.05203297 -0.05203300
v 0.03277905 0.04905697 -0.04905700
v 0.03792407 0.06899996 -0.04519700
v 0.03742905 0.04560796 -0.04560800
v 0.04171904 0.04171896 -0.04171900
v 0.04519707 0.06899995 -0.03792400
v 0.04560804 0.03742895 -0.03742900
v 0.04905703 0.03277895 -0.03277900
v 0.05109607 0.06899995 -0.02950000
v 0.05203303 0.02781195 -0.02781200
v 0.05544207 0.06899994 -0.02017900
v 0.05450902 0.02257795 -0.02257800
v 0.05645902 0.01712694 -0.01712700
v 0.05810407 0.06899994 -0.01024500
v 0.05786601 0.01150994 -0.01151000
v 0.05871601 0.00578294 -0.00578300
v 0.05810407 0.06899994 -0.01024500
v 0.05514907 0.06899994 -0.00972400
v 0.05900007 0.06899994 0.00000000
v 0.05600007 0.06899994 0.00000000
v 0.05514907 0.06899994 0.00972400
v 0.05262307 0.06899995 -0.01915300
v 0.05544207 0.06899994 -0.02017900
v 0.04849707 0.06899995 -0.02800000
v 0.05109607 0.06899995 -0.02950000
v 0.04289807 0.06899996 -0.03599600
v 0.04519707 0.06899995 -0.03792400
v 0.03599607 0.06899996 -0.04289800
v 0.03792407 0.06899996 -0.04519700
v 0.02800007 0.06899997 -0.04849700
v 0.02950007 0.06899997 -0.05109500
v 0.01915307 0.06899998 -0.05262300
v 0.02017907 0.06899998 -0.05544200
v 0.00972407 0.06899999 -0.05514900
v 0.01024507 0.06899999 -0.05810400
v 0.00000007 0.06900000 -0.05600000
v 0.00000007 0.06900000 -0.05900000
v -0.01024493 0.06900001 -0.05810400
v -0.00972393 0.06900001 -0.05514900
v -0.02017893 0.06900002 -0.05544200
v -0.01915293 0.06900002 -0.05262300
v -0.02949993 0.06900003 -0.05109500
v -0.02799993 0.06900003 -0.04849700
v -0.03792393 0.06900004 -0.04519700
v -0.03599593 0.06900004 -0.04289800
v -0.04519693 0.06900005 -0.03792400
v -0.04289793 0.06900004 -0.03599600
v -0.05109593 0.06900005 -0.02950000
v -0.04849693 0.06900005 -0.02800000
v -0.05544193 0.06900006 -0.02017900
v -0.05262293 0.06900005 -0.01915300
v -0.05810393 0.06900006 -0.01024500
v -0.05514893 0.06900006 -0.00972400
v -0.05599993 0.06900006 0.00000000
v -0.05899993 0.06900006 0.00000000
v -0.05514893 0.06900006 0.00972400
v -0.05810393 0.06900006 0.01024500
v -0.05262293 0.06900005 0.01915300
v -0.05544193 0.06900006 0.02017900
v -0.04849693 0.06900005 0.02800000
v -0.05109593 0.06900005 0.02950000
v -0.04289793 0.06900004 0.03599600
v -0.04519693 0.06900005 0.03792400
v -0.03599593 0.06900004 0.04289800
v -0.03792393 0.06900004 0.04519700
v -0.02799993 0.06900003 0.04849700
v -0.02949993 0.06900003 0.05109600
v -0.01915293 0.06900002 0.05262300
v -0.02017893 0.06900002 0.05544200
v -0.00972393 0.06900001 0.05514900
v -0.01024493 0.06900001 0.05810400
v 0.00000007 0.06900000 0.05600000
v 0.00000007 0.06900000 0.05900000
v 0.01024507 0.06899999 0.05810400
v 0.00972407 0.06899999 0.05514900
v 0.02017907 0.06899998 0.05544200
v 0.01915307 0.06899998 0.05262300
v 0.02950007 0.06899997 0.05109600
v 0.02800007 0.06899997 0.04849700
v 0.03792407 0.06899996 0.04519700
v 0.03599607 0.06899996 0.04289800
v 0.04519707 0.06899995 0.03792400
v 0.04289807 0.06899996 0.03599600
v 0.05109607 0.06899995 0.02950000
v 0.04849707 0.06899995 0.02800000
v 0.05544207 0.06899994 0.02017900
v 0.05262307 0.06899995 0.01915300
v 0.05810407 0.06899994 0.01024500
v 0.05600007 0.06899994 0.00000000
v 0.05600006 0.06199994 0.00000000
v 0.05514907 0.06899994 0.00972400
v 0.05514906 0.06199994 0.00972400
v 0.05262306 0.06199995 0.01915300
v 0.05262307 0.06899995 0.01915300
v 0.04849706 0.06199995 0.02800000
v 0.04849707 0.06899995 0.02800000
v 0.04289806 0.06199996 0.03599600
v 0.04289807 0.06899996 0.03599600
v 0.03599606 0.06199996 0.04289800
v 0.03599607 0.06899996 0.04289800
v 0.02800006 0.06199997 0.04849700
v 0.02800007 0.06899997 0.04849700
v 0.01915306 0.06199998 0.05262300
v 0.01915307 0.06899998 0.05262300
v 0.00972406 0.06199999 0.05514900
v 0.00972407 0.06899999 0.05514900
v 0.00000006 0.06200000 0.05600000
v 0.00000007 0.06900000 0.05600000
v -0.00972394 0.06200001 0.05514900
v -0.00972393 0.06900001 0.05514900
v -0.01915294 0.06200002 0.05262300
v -0.01915293 0.06900002 0.05262300
v -0.02799994 0.06200003 0.04849700
v -0.02799993 0.06900003 0.04849700
v -0.03599594 0.06200004 0.04289800
v -0.03599593 0.06900004 0.04289800
v -0.04289794 0.06200004 0.03599600
v -0.04289793 0.06900004 0.03599600
v -0.04849694 0.06200005 0.02800000
v -0.04849693 0.06900005 0.02800000
v -0.05262294 0.06200005 0.01915300
v -0.05262293 0.06900005 0.01915300
v -0.05514894 0.06200006 0.00972400
v -0.05514893 0.06900006 0.00972400
v 0.05514906 0.06199994 0.00972400
v 0.05600006 0.06199994 0.00000000
v -0.04289794 0.06200004 -0.03599600
v 0.05514906 0.06199994 -0.00972400
v 0.05262306 0.06199995 -0.01915300
v 0.04849706 0.06199995 -0.02800000
v 0.04289806 0.06199996 -0.03599600
v -0.03599594 0.06200004 -0.04289800
v 0.03599606 0.06199996 -0.04289800
v -0.02799994 0.06200003 -0.04849700
v 0.02800006 0.06199997 -0.04849700
v -0.01915294 0.06200002 -0.05262300
v 0.01915306 0.06199998 -0.05262300
v -0.00972394 0.06200001 -0.05514900
v 0.00972406 0.06199999 -0.05514900
v 0.00000006 0.06200000 -0.05600000
v -0.04849694 0.06200005 -0.02800000
v -0.04289794 0.06200004 0.03599600
v -0.03599594 0.06200004 0.04289800
v -0.02799994 0.06200003 0.04849700
v -0.04849694 0.06200005 0.02800000
v -0.05262294 0.06200005 -0.01915300
v -0.05262294 0.06200005 0.01915300
v -0.05514894 0.06200006 -0.00972400
v -0.05514894 0.06200006 0.00972400
v -0.05599994 0.06200006 0.00000000
v -0.01915294 0.06200002 0.05262300
v -0.00972394 0.06200001 0.05514900
v 0.00000006 0.06200000 0.05600000
v 0.00972406 0.06199999 0.05514900
v 0.01915306 0.06199998 0.05262300
v 0.02800006 0.06199997 0.04849700
v 0.03599606 0.06199996 0.04289800
v 0.04289806 0.06199996 0.03599600
v 0.04849706 0.06199995 0.02800000
v 0.05262306 0.06199995 0.01915300
v -0.01024506 -0.05810399 0.04034900
v -0.00000006 -0.05900000 0.04010900
v -0.00000006 -0.05880000 0.04016300
v 0.01024494 -0.05810401 0.04034900
v 0.01021094 -0.05790701 0.04040200
v 0.02017894 -0.05544202 0.04106200
v 0.02011094 -0.05525402 0.04111300
v 0.02949995 -0.05109603 0.04222700
v 0.02939995 -0.05092203 0.04227400
v 0.03792395 -0.04519704 0.04380800
v 0.03779595 -0.04504304 0.04384900
v 0.04519696 -0.03792405 0.04575600
v 0.04504296 -0.03779605 0.04579100
v 0.05109597 -0.02950005 0.04801400
v 0.05092197 -0.02940005 0.04804000
v 0.05544198 -0.02017906 0.05051100
v 0.05525398 -0.02011106 0.05052900
v 0.05810399 -0.01024506 0.05317300
v 0.05790699 -0.01021106 0.05318200
v 0.05880000 -0.00000006 0.05591800
v 0.05900000 -0.00000006 0.05591800
v 0.05790701 0.01021094 0.05865400
v 0.05810401 0.01024494 0.05866300
v 0.05525402 0.02011094 0.06130700
v 0.05544202 0.02017894 0.06132500
v 0.05092203 0.02939995 0.06379600
v 0.05109603 0.02949995 0.06382300
v 0.04504304 0.03779595 0.06604500
v 0.04519704 0.03792395 0.06608000
v 0.03779605 0.04504296 0.06798700
v 0.03792405 0.04519696 0.06802800
v 0.02940005 0.05092197 0.06956300
v 0.02950005 0.05109597 0.06960900
v 0.02011106 0.05525398 0.07072300
v 0.02017906 0.05544198 0.07077400
v 0.01021106 0.05790699 0.07143400
v 0.01024506 0.05810399 0.07148700
v 0.00000006 0.05880000 0.07167400
v 0.00000006 0.05900000 0.07172700
v -0.01024494 0.05810401 0.07148700
v -0.01021094 0.05790701 0.07143400
v -0.02017894 0.05544202 0.07077400
v -0.02011094 0.05525402 0.07072300
v -0.02949995 0.05109603 0.06960900
v -0.02939995 0.05092203 0.06956300
v -0.03792395 0.04519704 0.06802800
v -0.03779595 0.04504304 0.06798700
v -0.04519696 0.03792405 0.06608000
v -0.04504296 0.03779605 0.06604500
v -0.05109597 0.02950005 0.06382300
v -0.05092197 0.02940005 0.06379600
v -0.05544198 0.02017906 0.06132500
v -0.05525398 0.02011106 0.06130700
v -0.05810399 0.01024506 0.05866300
v -0.05790699 0.01021106 0.05865400
v -0.05900000 0.00000006 0.05591800
v -0.05880000 0.00000006 0.05591800
v -0.05790701 -0.01021094 0.05318200
v -0.05810401 -0.01024494 0.05317300
v -0.05525402 -0.02011094 0.05052900
v -0.05544202 -0.02017894 0.05051100
v -0.05092203 -0.02939995 0.04804000
v -0.05109603 -0.02949995 0.04801400
v -0.04504304 -0.03779595 0.04579100
v -0.04519704 -0.03792395 0.04575600
v -0.03779605 -0.04504296 0.04384900
v -0.03792405 -0.04519696 0.04380800
v -0.02940005 -0.05092197 0.04227400
v -0.02950005 -0.05109597 0.04222700
v -0.02011106 -0.05525398 0.04111300
v -0.02017906 -0.05544198 0.04106200
v -0.01021106 -0.05790699 0.04040200
v -0.01024506 -0.05810399 -0.06330000
v -0.01021106 -0.05790699 -0.06330000
v -0.00000006 -0.05900000 -0.06330000
v -0.00000006 -0.05880000 -0.06330000
v 0.01024494 -0.05810401 -0.06330000
v 0.01021094 -0.05790701 -0.06330000
v 0.02011094 -0.05525402 -0.06330000
v -0.02011106 -0.05525398 -0.06330000
v -0.02017906 -0.05544198 -0.06330000
v -0.02940005 -0.05092197 -0.06330000
v -0.02950005 -0.05109597 -0.06330000
v -0.03779605 -0.04504296 -0.06330000
v -0.03792405 -0.04519696 -0.06330000
v -0.04504304 -0.03779595 -0.06330000
v -0.04519704 -0.03792395 -0.06330000
v -0.05092203 -0.02939995 -0.06330000
v -0.05109603 -0.02949995 -0.06330000
v -0.05525402 -0.02011094 -0.06330000
v -0.05544202 -0.02017894 -0.06330000
v -0.05790701 -0.01021094 -0.06330000
v -0.05810401 -0.01024494 -0.06330000
v -0.05880000 0.00000006 -0.06330000
v -0.05900000 0.00000006 -0.06330000
v -0.05810399 0.01024506 -0.06330000
v -0.05790699 0.01021106 -0.06330000
v -0.05544198 0.02017906 -0.06330000
v -0.05525398 0.02011106 -0.06330000
v -0.05109597 0.02950005 -0.06330000
v -0.05092197 0.02940005 -0.06330000
v -0.04519696 0.03792405 -0.06330000
v -0.04504296 0.03779605 -0.06330000
v -0.03792395 0.04519704 -0.06330000
v -0.03779595 0.04504304 -0.06330000
v -0.02949995 0.05109603 -0.06330000
v -0.02939995 0.05092203 -0.06330000
v -0.02017894 0.05544202 -0.06330000
v -0.02011094 0.05525402 -0.06330000
v -0.01024494 0.05810401 -0.06330000
v -0.01021094 0.05790701 -0.06330000
v 0.00000006 0.05900000 -0.06330000
v 0.00000006 0.05880000 -0.06330000
v 0.01021106 0.05790699 -0.06330000
v 0.01024506 0.05810399 -0.06330000
v 0.02011106 0.05525398 -0.06330000
v 0.02017906 0.05544198 -0.06330000
v 0.02940005 0.05092197 -0.06330000
v 0.02950005 0.05109597 -0.06330000
v 0.03779605 0.04504296 -0.06330000
v 0.03792405 0.04519696 -0.06330000
v 0.04504304 0.03779595 -0.06330000
v 0.04519704 0.03792395 -0.06330000
v 0.05092203 0.02939995 -0.06330000
v 0.05109603 0.02949995 -0.06330000
v 0.05525402 0.02011094 -0.06330000
v 0.05544202 0.02017894 -0.06330000
v 0.05790701 0.01021094 -0.06330000
v 0.05810401 0.01024494 -0.06330000
v 0.05880000 -0.00000006 -0.06330000
v 0.05900000 -0.00000006 -0.06330000
v 0.05810399 -0.01024506 -0.06330000
v 0.05790699 -0.01021106 -0.06330000
v 0.05544198 -0.02017906 -0.06330000
v 0.05525398 -0.02011106 -0.06330000
v 0.05109597 -0.02950005 -0.06330000
v 0.05092197 -0.02940005 -0.06330000
v 0.04519696 -0.03792405 -0.06330000
v 0.04504296 -0.03779605 -0.06330000
v 0.03792395 -0.04519704 -0.06330000
v 0.03779595 -0.04504304 -0.06330000
v 0.02949995 -0.05109603 -0.06330000
v 0.02939995 -0.05092203 -0.06330000
v 0.02017894 -0.05544202 -0.06330000
vn -100.00000000 0.00000000 -0.00000000
vn -98.48077000 17.36482000 0.00000000
vn -100.00000000 0.00000000 -0.00000000
vn -98.48077000 17.36482000 0.00000000
vn -93.96926000 34.20202000 0.00000000
vn -93.96926000 34.20202000 0.00000000
vn -86.60254000 50.00000000 0.00000000
vn -86.60254000 50.00000000 0.00000000
vn -76.60445000 64.27876000 0.00000000
vn -76.60445000 64.27876000 0.00000000
vn -64.27876000 76.60445000 0.00000000
vn -64.27876000 76.60445000 0.00000000
vn -50.00000000 86.60254000 0.00000000
vn -50.00000000 86.60254000 0.00000000
vn -34.20202000 93.96926000 0.00000000
vn -34.20202000 93.96926000 0.00000000
vn -17.36482000 98.48077000 0.00000000
vn -17.36482000 98.48077000 0.00000000
vn 0.00000000 100.00000000 0.00000000
vn 0.00000000 100.00000000 0.00000000
vn 17.36482000 98.48077000 0.00000000
vn 17.36482000 98.48077000 0.00000000
vn 34.20202000 93.96926000 0.00000000
vn 34.20202000 93.96926000 0.00000000
vn 50.00000000 86.60254000 0.00000000
vn 50.00000000 86.60254000 0.00000000
vn 64.27876000 76.60445000 0.00000000
vn 64.27876000 76.60445000 0.00000000
vn 76.60445000 64.27876000 0.00000000
vn 76.60445000 64.27876000 0.00000000
vn 86.60254000 50.00000000 0.00000000
vn 86.60254000 50.00000000 0.00000000
vn 93.96926000 34.20202000 0.00000000
vn 93.96926000 34.20202000 0.00000000
vn 98.48077000 17.36482000 0.00000000
vn 98.48077000 17.36482000 0.00000000
vn 100.00000000 0.00000000 0.00000000
vn 100.00000000 0.00000000 0.00000000
vn -100.00000000 0.00000000 -0.00000000
vn -100.00000000 0.00000000 -0.00000000
vn -99.51847000 9.80171000 0.00000000
vn -98.48077000 17.36482000 0.00000000
vn -98.07853000 19.50903000 0.00000000
vn -95.69403000 29.02847000 0.00000000
vn -93.96926000 34.20202000 0.00000000
vn -92.38796000 38.26834000 0.00000000
vn -86.60254000 50.00000000 0.00000000
vn -88.19212000 47.13968000 0.00000000
vn -83.14696000 55.55702000 0.00000000
vn -76.60445000 64.27876000 0.00000000
vn -77.30105000 63.43933000 0.00000000
vn -70.71068000 70.71068000 0.00000000
vn -64.27876000 76.60445000 0.00000000
vn -63.43933000 77.30105000 0.00000000
vn -55.55702000 83.14696000 0.00000000
vn -50.00000000 86.60254000 0.00000000
vn -47.13968000 88.19212000 0.00000000
vn -38.26834000 92.38796000 0.00000000
vn -34.20202000 93.96926000 0.00000000
vn -29.02847000 95.69403000 0.00000000
vn -17.36482000 98.48077000 0.00000000
vn -19.50903000 98.07853000 0.00000000
vn -9.80171000 99.51847000 0.00000000
vn 0.00000000 100.00000000 0.00000000
vn 0.00000000 100.00000000 0.00000000
vn 9.80171000 99.51847000 0.00000000
vn 17.36482000 98.48077000 0.00000000
vn 19.50903000 98.07853000 0.00000000
vn 29.02847000 95.69403000 0.00000000
vn 34.20202000 93.96926000 0.00000000
vn 38.26834000 92.38796000 0.00000000
vn 50.00000000 86.60254000 0.00000000
vn 47.13968000 88.19212000 0.00000000
vn 55.55702000 83.14696000 0.00000000
vn 64.27876000 76.60445000 0.00000000
vn 63.43933000 77.30105000 0.00000000
vn 70.71068000 70.71068000 0.00000000
vn 76.60445000 64.27876000 0.00000000
vn 77.30105000 63.43933000 0.00000000
vn 83.14696000 55.55702000 0.00000000
vn 86.60254000 50.00000000 0.00000000
vn 88.19212000 47.13968000 0.00000000
vn 92.38796000 38.26834000 0.00000000
vn 93.96926000 34.20202000 0.00000000
vn 95.69403000 29.02847000 0.00000000
vn 98.48077000 17.36482000 0.00000000
vn 98.07853000 19.50903000 0.00000000
vn 99.51847000 9.80171000 0.00000000
vn 100.00000000 0.00000000 0.00000000
vn 100.00000000 0.00000000 0.00000000
vn 0.00000000 0.00000000 -100.00000000
vn 0.00000000 0.00000000 -100.00000000
vn 17.36482000 0.00000000 -98.48077000
vn 17.36482000 0.00000000 -98.48077000
vn 34.20202000 0.00000000 -93.96926000
vn 34.20202000 0.00000000 -93.96926000
vn 50.00000000 0.00000000 -86.60254000
vn 50.00000000 0.00000000 -86.60254000
vn 64.27876000 0.00000000 -76.60445000
vn 64.27876000 0.00000000 -76.60445000
vn 76.60445000 0.00000000 -64.27876000
vn 76.60445000 0.00000000 -64.27876000
vn 86.60254000 0.00000000 -50.00000000
vn 86.60254000 0.00000000 -50.00000000
vn 93.96926000 0.00000000 -34.20202000
vn 93.96926000 0.00000000 -34.20202000
vn 98.48077000 0.00000000 -17.36482000
vn 98.48077000 0.00000000 -17.36482000
vn 100.00000000 0.00000000 0.00000000
vn 100.00000000 0.00000000 0.00000000
vn 99.51847000 0.00000000 9.80171000
vn 98.48077000 0.00000000 17.36482000
vn 98.07853000 0.00000000 19.50903000
vn 95.69403000 0.00000000 29.02847000
vn 93.96926000 0.00000000 34.20202000
vn 92.38796000 0.00000000 38.26834000
vn 88.19212000 0.00000000 47.13968000
vn 86.60254000 0.00000000 50.00000000
vn 83.14696000 0.00000000 55.55702000
vn 76.60445000 0.00000000 64.27876000
vn 77.30105000 0.00000000 63.43933000
vn 70.71068000 0.00000000 70.71068000
vn 64.27876000 0.00000000 76.60445000
vn 63.43933000 0.00000000 77.30105000
vn 55.55702000 0.00000000 83.14696000
vn 50.00000000 0.00000000 86.60254000
vn 47.13968000 0.00000000 88.19212000
vn 38.26834000 0.00000000 92.38796000
vn 34.20202000 0.00000000 93.96926000
vn 29.02847000 0.00000000 95.69403000
vn 17.36482000 0.00000000 98.48077000
vn 19.50903000 0.00000000 98.07853000
vn 9.80171000 0.00000000 99.51847000
vn 0.00000000 0.00000000 100.00000000
vn 0.00000000 0.00000000 100.00000000
vn 100.00000000 0.00000000 0.00000000
vn 99.51847000 0.00000000 9.80171000
vn 98.48077000 0.00000000 17.36482000
vn 98.07853000 0.00000000 19.50903000
vn 95.69403000 0.00000000 29.02847000
vn 93.96926000 0.00000000 34.20202000
vn 92.38796000 0.00000000 38.26834000
vn 88.19212000 0.00000000 47.13968000
vn 86.60254000 0.00000000 50.00000000
vn 83.14696000 0.00000000 55.55702000
vn 76.60445000 0.00000000 64.27876000
vn 77.30105000 0.00000000 63.43933000
vn 70.71068000 0.00000000 70.71068000
vn 64.27876000 0.00000000 76.60445000
vn 63.43933000 0.00000000 77.30105000
vn 55.55702000 0.00000000 83.14696000
vn 50.00000000 0.00000000 86.60254000
vn 47.13968000 0.00000000 88.19212000
vn 38.26834000 0.00000000 92.38796000
vn 34.20202000 0.00000000 93.96926000
vn 29.02847000 0.00000000 95.69403000
vn 17.36482000 0.00000000 98.48077000
vn 19.50903000 0.00000000 98.07853000
vn 9.80171000 0.00000000 99.51847000
vn 0.00000000 0.00000000 100.00000000
vn 0.00000000 0.00000000 100.00000000
vn 0.00000000 0.00000000 100.00000000
vn 0.00000000 0.00000000 100.00000000
vn -9.80171000 0.00000000 99.51847000
vn -17.36482000 0.00000000 98.48077000
vn -19.50903000 0.00000000 98.07853000
vn -29.02847000 0.00000000 95.69403000
vn -34.20202000 0.00000000 93.96926000
vn -38.26834000 0.00000000 92.38796000
vn -50.00000000 0.00000000 86.60254000
vn -47.13968000 0.00000000 88.19212000
vn -55.55702000 0.00000000 83.14696000
vn -64.27876000 0.00000000 76.60445000
vn -63.43933000 0.00000000 77.30105000
vn -70.71068000 0.00000000 70.71068000
vn -76.60445000 0.00000000 64.27876000
vn -77.30105000 0.00000000 63.43933000
vn -83.14696000 0.00000000 55.55702000
vn -86.60254000 0.00000000 50.00000000
vn -88.19212000 0.00000000 47.13968000
vn -93.96926000 0.00000000 34.20202000
vn -92.38796000 0.00000000 38.26834000
vn -95.69403000 0.00000000 29.02847000
vn -98.48077000 0.00000000 17.36482000
vn -98.07853000 0.00000000 19.50903000
vn -99.51847000 0.00000000 9.80171000
vn -100.00000000 0.00000000 -0.00000000
vn -100.00000000 0.00000000 -0.00000000
vn -98.48077000 0.00000000 -17.36482000
vn -98.48077000 0.00000000 -17.36482000
vn -93.96926000 0.00000000 -34.20202000
vn -93.96926000 0.00000000 -34.20202000
vn -86.60254000 0.00000000 -50.00000000
vn -86.60254000 0.00000000 -50.00000000
vn -76.60445000 0.00000000 -64.27876000
vn -76.60445000 0.00000000 -64.27876000
vn -64.27876000 0.00000000 -76.60445000
vn -64.27876000 0.00000000 -76.60445000
vn -50.00000000 0.00000000 -86.60254000
vn -50.00000000 0.00000000 -86.60254000
vn -34.20202000 0.00000000 -93.96926000
vn -34.20202000 0.00000000 -93.96926000
vn -17.36482000 0.00000000 -98.48077000
vn -17.36482000 0.00000000 -98.48077000
vn -100.00000000 0.00000000 -0.00000000
vn -99.51847000 0.00000000 9.80171000
vn -98.48077000 0.00000000 17.36482000
vn -98.07853000 0.00000000 19.50903000
vn -95.69403000 0.00000000 29.02847000
vn -93.96926000 0.00000000 34.20202000
vn -92.38796000 0.00000000 38.26834000
vn -86.60254000 0.00000000 50.00000000
vn -88.19212000 0.00000000 47.13968000
vn -83.14696000 0.00000000 55.55702000
vn -76.60445000 0.00000000 64.27876000
vn -77.30105000 0.00000000 63.43933000
vn -70.71068000 0.00000000 70.71068000
vn -64.27876000 0.00000000 76.60445000
vn -63.43933000 0.00000000 77.30105000
vn -55.55702000 0.00000000 83.14696000
vn -50.00000000 0.00000000 86.60254000
vn -47.13968000 0.00000000 88.19212000
vn -38.26834000 0.00000000 92.38796000
vn -34.20202000 0.00000000 93.96926000
vn -29.02847000 0.00000000 95.69403000
vn -17.36482000 0.00000000 98.48077000
vn -19.50903000 0.00000000 98.07853000
vn -9.80171000 0.00000000 99.51847000
vn 0.00000000 0.00000000 100.00000000
vn 0.00000000 0.00000000 100.00000000
vn 100.00000000 0.00000000 0.00000000
vn 100.00000000 0.00000000 0.00000000
vn 99.51847000 -9.80171000 0.00000000
vn 98.48077000 -17.36482000 0.00000000
vn 98.07853000 -19.50903000 0.00000000
vn 95.69403000 -29.02847000 0.00000000
vn 93.96926000 -34.20202000 0.00000000
vn 92.38796000 -38.26834000 0.00000000
vn 86.60254000 -50.00000000 0.00000000
vn 88.19212000 -47.13968000 0.00000000
vn 83.14696000 -55.55702000 0.00000000
vn 76.60445000 -64.27876000 0.00000000
vn 77.30105000 -63.43933000 0.00000000
vn 70.71068000 -70.71068000 0.00000000
vn 64.27876000 -76.60445000 0.00000000
vn 63.43933000 -77.30105000 0.00000000
vn 55.55702000 -83.14696000 0.00000000
vn 50.00000000 -86.60254000 0.00000000
vn 47.13968000 -88.19212000 0.00000000
vn 38.26834000 -92.38796000 0.00000000
vn 34.20202000 -93.96926000 0.00000000
vn 29.02847000 -95.69403000 0.00000000
vn 17.36482000 -98.48077000 0.00000000
vn 19.50903000 -98.07853000 0.00000000
vn 9.80171000 -99.51847000 0.00000000
vn 0.00000000 -100.00000000 0.00000000
vn 0.00000000 -100.00000000 0.00000000
vn -9.80171000 -99.51847000 0.00000000
vn -17.36482000 -98.48077000 0.00000000
vn -19.50903000 -98.07853000 0.00000000
vn -29.02847000 -95.69403000 0.00000000
vn -34.20202000 -93.96926000 0.00000000
vn -38.26834000 -92.38796000 0.00000000
vn -50.00000000 -86.60254000 0.00000000
vn -47.13968000 -88.19212000 0.00000000
vn -55.55702000 -83.14696000 0.00000000
vn -64.27876000 -76.60445000 0.00000000
vn -63.43933000 -77.30105000 0.00000000
vn -70.71068000 -70.71068000 0.00000000
vn -76.60445000 -64.27876000 0.00000000
vn -77.30105000 -63.43933000 0.00000000
vn -83.14696000 -55.55702000 0.00000000
vn -86.60254000 -50.00000000 0.00000000
vn -88.19212000 -47.13968000 0.00000000
vn -93.96926000 -34.20202000 0.00000000
vn -92.38796000 -38.26834000 0.00000000
vn -95.69403000 -29.02847000 0.00000000
vn -98.48077000 -17.36482000 0.00000000
vn -98.07853000 -19.50903000 0.00000000
vn -99.51847000 -9.80171000 0.00000000
vn 0.00000000 0.00000000 100.00000000
vn 0.00000000 0.00000000 100.00000000
vn 0.00000000 0.00000000 100.00000000
vn 0.00000000 0.00000000 100.00000000
vn 0.00000000 0.00000000 100.00000000
vn 0.00000000 0.00000000 100.00000000
vn 0.00000000 0.00000000 100.00000000
vn 0.00000000 0.00000000 100.00000000
vn 0.00000000 0.00000000 100.00000000
vn 0.00000000 0.00000000 100.00000000
vn 0.00000000 0.00000000 100.00000000
vn 0.00000000 0.00000000 100.00000000
vn 0.00000000 0.00000000 100.00000000
vn 0.00000000 0.00000000 100.00000000
vn 0.00000000 0.00000000 100.00000000
vn 0.00000000 0.00000000 100.00000000
vn 0.00000000 0.00000000 100.00000000
vn 0.00000000 0.00000000 100.00000000
vn 0.00000000 0.00000000 100.00000000
vn 0.00000000 0.00000000 100.00000000
vn 0.00000000 0.00000000 100.00000000
vn 0.00000000 0.00000000 100.00000000
vn 0.00000000 0.00000000 100.00000000
vn 0.00000000 0.00000000 100.00000000
vn 0.00000000 0.00000000 100.00000000
vn 0.00000000 0.00000000 100.00000000
vn 0.00000000 0.00000000 100.00000000
vn 0.00000000 0.00000000 100.00000000
vn 0.00000000 0.00000000 100.00000000
vn 0.00000000 0.00000000 100.00000000
vn 0.00000000 0.00000000 100.00000000
vn 0.00000000 0.00000000 100.00000000
vn 0.00000000 0.00000000 100.00000000
vn 0.00000000 0.00000000 100.00000000
vn 0.00000000 0.00000000 100.00000000
vn 0.00000000 0.00000000 100.00000000
vn 0.00000000 0.00000000 100.00000000
vn 0.00000000 0.00000000 100.00000000
vn 0.00000000 0.00000000 100.00000000
vn 0.00000000 0.00000000 100.00000000
vn 0.00000000 0.00000000 100.00000000
vn 0.00000000 0.00000000 100.00000000
vn 0.00000000 0.00000000 100.00000000
vn 0.00000000 0.00000000 100.00000000
vn 0.00000000 0.00000000 100.00000000
vn 0.00000000 0.00000000 100.00000000
vn 0.00000000 0.00000000 100.00000000
vn 0.00000000 0.00000000 100.00000000
vn 0.00000000 0.00000000 100.00000000
vn 0.00000000 0.00000000 100.00000000
vn 0.00000000 0.00000000 100.00000000
vn 0.00000000 0.00000000 100.00000000
vn 0.00000000 0.00000000 100.00000000
vn 0.00000000 0.00000000 100.00000000
vn 0.00000000 0.00000000 100.00000000
vn 0.00000000 0.00000000 100.00000000
vn 0.00000000 0.00000000 100.00000000
vn 0.00000000 0.00000000 100.00000000
vn 0.00000000 0.00000000 100.00000000
vn 0.00000000 0.00000000 100.00000000
vn 0.00000000 0.00000000 100.00000000
vn 0.00000000 0.00000000 100.00000000
vn 0.00000000 0.00000000 100.00000000
vn 0.00000000 0.00000000 100.00000000
vn 0.00000000 0.00000000 100.00000000
vn 0.00000000 0.00000000 100.00000000
vn 0.00000000 0.00000000 100.00000000
vn 0.00000000 0.00000000 100.00000000
vn 0.00000000 0.00000000 100.00000000
vn 0.00000000 0.00000000 100.00000000
vn 0.00000000 0.00000000 100.00000000
vn 0.00000000 0.00000000 100.00000000
vn 100.00000000 0.00000000 0.00000000
vn 100.00000000 0.00000000 0.00000000
vn 98.48077000 -17.36482000 0.00000000
vn 98.48077000 -17.36482000 0.00000000
vn 93.96926000 -34.20202000 0.00000000
vn 93.96926000 -34.20202000 0.00000000
vn 86.60254000 -50.00000000 0.00000000
vn 86.60254000 -50.00000000 0.00000000
vn 76.60445000 -64.27876000 0.00000000
vn 76.60445000 -64.27876000 0.00000000
vn 64.27876000 -76.60445000 0.00000000
vn 64.27876000 -76.60445000 0.00000000
vn 50.00000000 -86.60254000 0.00000000
vn 50.00000000 -86.60254000 0.00000000
vn 34.20202000 -93.96926000 0.00000000
vn 34.20202000 -93.96926000 0.00000000
vn 17.36482000 -98.48077000 0.00000000
vn 17.36482000 -98.48077000 0.00000000
vn 0.00000000 -100.00000000 0.00000000
vn 0.00000000 -100.00000000 0.00000000
vn -17.36482000 -98.48077000 0.00000000
vn -17.36482000 -98.48077000 0.00000000
vn -34.20202000 -93.96926000 0.00000000
vn -34.20202000 -93.96926000 0.00000000
vn -50.00000000 -86.60254000 0.00000000
vn -50.00000000 -86.60254000 0.00000000
vn -64.27876000 -76.60445000 0.00000000
vn -64.27876000 -76.60445000 0.00000000
vn -76.60445000 -64.27876000 0.00000000
vn -76.60445000 -64.27876000 0.00000000
vn -86.60254000 -50.00000000 0.00000000
vn -86.60254000 -50.00000000 0.00000000
vn -93.96926000 -34.20202000 0.00000000
vn -93.96926000 -34.20202000 0.00000000
vn -98.48077000 -17.36482000 0.00000000
vn -98.48077000 -17.36482000 0.00000000
vn 0.00000000 0.00000000 100.00000000
vn 0.00000000 0.00000000 100.00000000
vn 0.00000000 0.00000000 100.00000000
vn 0.00000000 0.00000000 100.00000000
vn 0.00000000 0.00000000 100.00000000
vn 0.00000000 0.00000000 100.00000000
vn 0.00000000 0.00000000 100.00000000
vn 0.00000000 0.00000000 100.00000000
vn 0.00000000 0.00000000 100.00000000
vn 0.00000000 0.00000000 100.00000000
vn 0.00000000 0.00000000 100.00000000
vn 0.00000000 0.00000000 100.00000000
vn 0.00000000 0.00000000 100.00000000
vn 0.00000000 0.00000000 100.00000000
vn 0.00000000 0.00000000 100.00000000
vn 0.00000000 0.00000000 100.00000000
vn 0.00000000 0.00000000 100.00000000
vn 0.00000000 0.00000000 100.00000000
vn 0.00000000 0.00000000 100.00000000
vn 0.00000000 0.00000000 100.00000000
vn 0.00000000 0.00000000 100.00000000
vn 0.00000000 0.00000000 100.00000000
vn 0.00000000 0.00000000 100.00000000
vn 0.00000000 0.00000000 100.00000000
vn 0.00000000 0.00000000 100.00000000
vn 0.00000000 0.00000000 100.00000000
vn 0.00000000 0.00000000 100.00000000
vn 0.00000000 0.00000000 100.00000000
vn 0.00000000 0.00000000 100.00000000
vn 0.00000000 0.00000000 100.00000000
vn 0.00000000 0.00000000 100.00000000
vn 0.00000000 0.00000000 100.00000000
vn 0.00000000 0.00000000 100.00000000
vn 0.00000000 0.00000000 100.00000000
vn 0.00000000 0.00000000 100.00000000
vn 0.00000000 0.00000000 100.00000000
vn 0.00000000 96.59258000 -25.88190000
vn 0.00000000 96.59258000 -25.88190000
vn 0.00000000 96.59258000 -25.88190000
vn 0.00000000 96.59258000 -25.88190000
vn 0.00000000 96.59258000 -25.88190000
vn 0.00000000 96.59258000 -25.88190000
vn 0.00000000 96.59258000 -25.88190000
vn 0.00000000 96.59258000 -25.88190000
vn 0.00000000 96.59258000 -25.88190000
vn 0.00000000 96.59258000 -25.88190000
vn 0.00000000 96.59258000 -25.88190000
vn 0.00000000 96.59258000 -25.88190000
vn 0.00000000 96.59258000 -25.88190000
vn 0.00000000 96.59258000 -25.88190000
vn 0.00000000 96.59258000 -25.88190000
vn 0.00000000 96.59258000 -25.88190000
vn 0.00000000 96.59258000 -25.88190000
vn 0.00000000 96.59258000 -25.88190000
vn 0.00000000 96.59258000 -25.88190000
vn 0.00000000 96.59258000 -25.88190000
vn 0.00000000 96.59258000 -25.88190000
vn 0.00000000 96.59258000 -25.88190000
vn 0.00000000 96.59258000 -25.88190000
vn 0.00000000 96.59258000 -25.88190000
vn 0.00000000 96.59258000 -25.88190000
vn 0.00000000 96.59258000 -25.88190000
vn 0.00000000 96.59258000 -25.88190000
vn 0.00000000 96.59258000 -25.88190000
vn 0.00000000 96.59258000 -25.88190000
vn 0.00000000 96.59258000 -25.88190000
vn 0.00000000 96.59258000 -25.88190000
vn 0.00000000 96.59258000 -25.88190000
vn 0.00000000 96.59258000 -25.88190000
vn 0.00000000 96.59258000 -25.88190000
vn 0.00000000 96.59258000 -25.88190000
vn 0.00000000 96.59258000 -25.88190000
vn 0.00000000 96.59258000 -25.88190000
vn 0.00000000 96.59258000 -25.88190000
vn 0.00000000 96.59258000 -25.88190000
vn 0.00000000 96.59258000 -25.88190000
vn 0.00000000 96.59258000 -25.88190000
vn 0.00000000 96.59258000 -25.88190000
vn 0.00000000 96.59258000 -25.88190000
vn 0.00000000 96.59258000 -25.88190000
vn 0.00000000 96.59258000 -25.88190000
vn 0.00000000 96.59258000 -25.88190000
vn 0.00000000 96.59258000 -25.88190000
vn 0.00000000 96.59258000 -25.88190000
vn 0.00000000 96.59258000 -25.88190000
vn 0.00000000 96.59258000 -25.88190000
vn 0.00000000 96.59258000 -25.88190000
vn 0.00000000 96.59258000 -25.88190000
vn 0.00000000 96.59258000 -25.88190000
vn 0.00000000 96.59258000 -25.88190000
vn 0.00000000 96.59258000 -25.88190000
vn 0.00000000 96.59258000 -25.88190000
vn 0.00000000 96.59258000 -25.88190000
vn 0.00000000 96.59258000 -25.88190000
vn 0.00000000 96.59258000 -25.88190000
vn 0.00000000 96.59258000 -25.88190000
vn 0.00000000 96.59258000 -25.88190000
vn 0.00000000 96.59258000 -25.88190000
vn 0.00000000 96.59258000 -25.88190000
vn 0.00000000 96.59258000 -25.88190000
vn 0.00000000 96.59258000 -25.88190000
vn 0.00000000 96.59258000 -25.88190000
vn 0.00000000 96.59258000 -25.88190000
vn 0.00000000 96.59258000 -25.88190000
vn 0.00000000 96.59258000 -25.88190000
vn 0.00000000 96.59258000 -25.88190000
vn 0.00000000 96.59258000 -25.88190000
vn 0.00000000 96.59258000 -25.88190000
vn 0.00000000 -100.00000000 0.00000000
vn 0.00000000 -100.00000000 0.00000000
vn 0.00000000 -100.00000000 0.00000000
vn 0.00000000 -100.00000000 0.00000000
vn 0.00000000 -100.00000000 0.00000000
vn 0.00000000 -100.00000000 0.00000000
vn 0.00000000 -100.00000000 0.00000000
vn 0.00000000 -100.00000000 0.00000000
vn 0.00000000 -100.00000000 0.00000000
vn 0.00000000 -100.00000000 0.00000000
vn 0.00000000 -100.00000000 0.00000000
vn 0.00000000 -100.00000000 0.00000000
vn 0.00000000 -100.00000000 0.00000000
vn 0.00000000 -100.00000000 0.00000000
vn 0.00000000 -100.00000000 0.00000000
vn 0.00000000 -100.00000000 0.00000000
vn 0.00000000 -100.00000000 0.00000000
vn 0.00000000 -100.00000000 0.00000000
vn 0.00000000 -100.00000000 0.00000000
vn 0.00000000 -100.00000000 0.00000000
vn 0.00000000 -100.00000000 0.00000000
vn 0.00000000 -100.00000000 0.00000000
vn 0.00000000 -100.00000000 0.00000000
vn 0.00000000 -100.00000000 0.00000000
vn 0.00000000 -100.00000000 0.00000000
vn 0.00000000 -100.00000000 0.00000000
vn 0.00000000 -100.00000000 0.00000000
vn 0.00000000 -100.00000000 0.00000000
vn 0.00000000 -100.00000000 0.00000000
vn 0.00000000 -100.00000000 0.00000000
vn 0.00000000 -100.00000000 0.00000000
vn 0.00000000 -100.00000000 0.00000000
vn 0.00000000 -100.00000000 0.00000000
vn 0.00000000 -100.00000000 0.00000000
vn 0.00000000 -100.00000000 0.00000000
vn 0.00000000 -100.00000000 0.00000000
vn 0.00000000 -100.00000000 0.00000000
vn 0.00000000 -100.00000000 0.00000000
vn 0.00000000 -100.00000000 0.00000000
vn 0.00000000 -100.00000000 0.00000000
vn 0.00000000 -100.00000000 0.00000000
vn 0.00000000 -100.00000000 0.00000000
vn 0.00000000 -100.00000000 0.00000000
vn 0.00000000 -100.00000000 0.00000000
vn 0.00000000 -100.00000000 0.00000000
vn 0.00000000 -100.00000000 0.00000000
vn 0.00000000 -100.00000000 0.00000000
vn 0.00000000 -100.00000000 0.00000000
vn 0.00000000 -100.00000000 0.00000000
vn 0.00000000 -100.00000000 0.00000000
vn 0.00000000 -100.00000000 0.00000000
vn 0.00000000 -100.00000000 0.00000000
vn 0.00000000 -100.00000000 0.00000000
vn 0.00000000 -100.00000000 0.00000000
vn 0.00000000 -100.00000000 0.00000000
vn 0.00000000 -100.00000000 0.00000000
vn 0.00000000 -100.00000000 0.00000000
vn 0.00000000 -100.00000000 0.00000000
vn 0.00000000 -100.00000000 0.00000000
vn 0.00000000 -100.00000000 0.00000000
vn 0.00000000 -100.00000000 0.00000000
vn 0.00000000 -100.00000000 0.00000000
vn 0.00000000 -100.00000000 0.00000000
vn 0.00000000 -100.00000000 0.00000000
vn 0.00000000 -100.00000000 0.00000000
vn 0.00000000 -100.00000000 0.00000000
vn 0.00000000 -100.00000000 0.00000000
vn 0.00000000 -100.00000000 0.00000000
vn 0.00000000 -100.00000000 0.00000000
vn 0.00000000 -100.00000000 0.00000000
vn 0.00000000 -100.00000000 0.00000000
vn 0.00000000 -100.00000000 0.00000000
vt 22.03919000 0.00000000
vt 22.03919000 -0.97738000
vt 22.73919000 0.00000000
vt 22.73919000 -0.97738000
vt 22.03919000 -1.95477000
vt 22.73919000 -1.95477000
vt 22.03919000 -2.93215000
vt 22.73919000 -2.93215000
vt 22.03919000 -3.90954000
vt 22.73919000 -3.90954000
vt 22.03919000 -4.88692000
vt 22.73919000 -4.88692000
vt 22.03919000 -5.86431000
vt 22.73919000 -5.86431000
vt 22.03919000 -6.84169000
vt 22.73919000 -6.84169000
vt 22.03919000 -7.81908000
vt 22.73919000 -7.81908000
vt 22.03919000 -8.79646000
vt 22.73919000 -8.79646000
vt 22.03919000 -9.77384000
vt 22.73919000 -9.77384000
vt 22.03919000 -10.75123000
vt 22.73919000 -10.75123000
vt 22.03919000 -11.72861000
vt 22.73919000 -11.72861000
vt 22.03919000 -12.70600000
vt 22.73919000 -12.70600000
vt 22.03919000 -13.68338000
vt 22.73919000 -13.68338000
vt 22.03919000 -14.66077000
vt 22.73919000 -14.66077000
vt 22.03919000 -15.63815000
vt 22.73919000 -15.63815000
vt 22.03919000 -16.61553000
vt 22.73919000 -16.61553000
vt 22.73919000 -17.59292000
vt 22.03919000 -17.59292000
vt -6.90000000 0.00000000
vt -0.00000000 0.00000000
vt -6.32170000 0.57923000
vt -0.00000000 1.02974000
vt -5.74897000 1.15846000
vt -5.18732000 1.73769000
vt -0.00000000 2.05949000
vt -4.64217000 2.31692000
vt -0.00000000 3.08923000
vt -4.11876000 2.89616000
vt -3.62214000 3.47539000
vt -0.00000000 4.11898000
vt -3.15708000 4.05462000
vt -2.72807000 4.63385000
vt -0.00000000 5.14872000
vt -2.33924000 5.21308000
vt -1.99433000 5.79231000
vt -0.00000000 6.17846000
vt -1.69666000 6.37154000
vt -1.44911000 6.95077000
vt -0.00000000 7.20821000
vt -1.25405000 7.53000000
vt -0.00000000 8.23795000
vt -1.11337000 8.10924000
vt -1.02841000 8.68847000
vt -0.00000000 9.26770000
vt -1.00000000 9.26770000
vt -1.02841000 9.84693000
vt -0.00000000 10.29744000
vt -1.11337000 10.42616000
vt -1.25405000 11.00539000
vt -0.00000000 11.32719000
vt -1.44911000 11.58462000
vt -0.00000000 12.35693000
vt -1.69666000 12.16385000
vt -1.99433000 12.74308000
vt -0.00000000 13.38668000
vt -2.33924000 13.32232000
vt -2.72807000 13.90155000
vt -0.00000000 14.41642000
vt -3.15708000 14.48078000
vt -3.62214000 15.06001000
vt -0.00000000 15.44616000
vt -4.11876000 15.63924000
vt -4.64217000 16.21847000
vt -0.00000000 16.47591000
vt -5.18732000 16.79770000
vt -0.00000000 17.50565000
vt -5.74897000 17.37693000
vt -6.32170000 17.95616000
vt -0.00000000 18.53540000
vt -6.90000000 18.53540000
vt -14.51000000 0.00000000
vt -4.16909000 0.00000000
vt -14.51000000 1.02974000
vt -4.14507000 1.02974000
vt -14.51000000 2.05949000
vt -4.07375000 2.05949000
vt -14.51000000 3.08923000
vt -3.95729000 3.08923000
vt -14.51000000 4.11898000
vt -3.79923000 4.11898000
vt -14.51000000 5.14872000
vt -3.60437000 5.14872000
vt -14.51000000 6.17846000
vt -3.37864000 6.17846000
vt -14.51000000 7.20821000
vt -3.12889000 7.20821000
vt -14.51000000 8.23795000
vt -2.86271000 8.23795000
vt -8.18000000 9.26770000
vt -2.58819000 9.26770000
vt -7.60170000 9.84693000
vt -2.31367000 10.29744000
vt -7.02897000 10.42616000
vt -6.46732000 11.00539000
vt -2.04749000 11.32719000
vt -5.92217000 11.58462000
vt -5.39876000 12.16385000
vt -1.79774000 12.35693000
vt -4.90214000 12.74308000
vt -1.57201000 13.38668000
vt -4.43708000 13.32232000
vt -4.00807000 13.90155000
vt -1.37715000 14.41642000
vt -3.61924000 14.48078000
vt -3.27433000 15.06001000
vt -1.21909000 15.44616000
vt -2.97666000 15.63924000
vt -2.72911000 16.21847000
vt -1.10263000 16.47591000
vt -2.53405000 16.79770000
vt -1.03131000 17.50565000
vt -2.39337000 17.37693000
vt -2.30841000 17.95616000
vt -1.00729000 18.53540000
vt -2.28000000 18.53540000
vt -14.51000000 9.26770000
vt -8.75830000 9.84693000
vt -14.51000000 10.29744000
vt -9.33103000 10.42616000
vt -9.89268000 11.00539000
vt -14.51000000 11.32719000
vt -10.43783000 11.58462000
vt -10.96124000 12.16385000
vt -14.51000000 12.35693000
vt -11.45786000 12.74308000
vt -14.51000000 13.38668000
vt -11.92292000 13.32232000
vt -12.35193000 13.90155000
vt -14.51000000 14.41642000
vt -12.74076000 14.48078000
vt -13.08567000 15.06001000
vt -14.51000000 15.44616000
vt -13.38334000 15.63924000
vt -13.63089000 16.21847000
vt -14.51000000 16.47591000
vt -13.82595000 16.79770000
vt -14.51000000 17.50565000
vt -13.96663000 17.37693000
vt -14.05159000 17.95616000
vt -14.08000000 18.53540000
vt -14.51000000 18.53540000
vt -2.28000000 -18.53540000
vt -1.00729000 -18.53540000
vt -2.30841000 -17.95616000
vt -1.03131000 -17.50565000
vt -2.39337000 -17.37693000
vt -2.53405000 -16.79770000
vt -1.10263000 -16.47591000
vt -2.72911000 -16.21847000
vt -1.21909000 -15.44616000
vt -2.97666000 -15.63924000
vt -3.27433000 -15.06001000
vt -1.37715000 -14.41642000
vt -3.61924000 -14.48078000
vt -4.00807000 -13.90155000
vt -1.57201000 -13.38668000
vt -4.43708000 -13.32232000
vt -4.90214000 -12.74308000
vt -1.79774000 -12.35693000
vt -5.39876000 -12.16385000
vt -2.04749000 -11.32719000
vt -5.92217000 -11.58462000
vt -6.46732000 -11.00539000
vt -2.31367000 -10.29744000
vt -7.02897000 -10.42616000
vt -7.60170000 -9.84693000
vt -2.58819000 -9.26770000
vt -8.18000000 -9.26770000
vt -2.86271000 -8.23795000
vt -14.51000000 -8.23795000
vt -3.12889000 -7.20821000
vt -14.51000000 -7.20821000
vt -3.37864000 -6.17846000
vt -14.51000000 -6.17846000
vt -3.60437000 -5.14872000
vt -14.51000000 -5.14872000
vt -3.79923000 -4.11898000
vt -14.51000000 -4.11898000
vt -3.95729000 -3.08923000
vt -14.51000000 -3.08923000
vt -4.07375000 -2.05949000
vt -14.51000000 -2.05949000
vt -4.14507000 -1.02974000
vt -14.51000000 -1.02974000
vt -14.51000000 -9.26770000
vt -8.75830000 -9.84693000
vt -14.51000000 -10.29744000
vt -9.33103000 -10.42616000
vt -9.89268000 -11.00539000
vt -14.51000000 -11.32719000
vt -10.43783000 -11.58462000
vt -14.51000000 -12.35693000
vt -10.96124000 -12.16385000
vt -11.45786000 -12.74308000
vt -14.51000000 -13.38668000
vt -11.92292000 -13.32232000
vt -12.35193000 -13.90155000
vt -14.51000000 -14.41642000
vt -12.74076000 -14.48078000
vt -13.08567000 -15.06001000
vt -14.51000000 -15.44616000
vt -13.38334000 -15.63924000
vt -13.63089000 -16.21847000
vt -14.51000000 -16.47591000
vt -13.82595000 -16.79770000
vt -14.51000000 -17.50565000
vt -13.96663000 -17.37693000
vt -14.05159000 -17.95616000
vt -14.51000000 -18.53540000
vt -14.08000000 -18.53540000
vt -6.90000000 -18.53540000
vt -0.00000000 -18.53540000
vt -6.32170000 -17.95616000
vt -0.00000000 -17.50565000
vt -5.74897000 -17.37693000
vt -5.18732000 -16.79770000
vt -0.00000000 -16.47591000
vt -4.64217000 -16.21847000
vt -0.00000000 -15.44616000
vt -4.11876000 -15.63924000
vt -3.62214000 -15.06001000
vt -0.00000000 -14.41642000
vt -3.15708000 -14.48078000
vt -2.72807000 -13.90155000
vt -0.00000000 -13.38668000
vt -2.33924000 -13.32232000
vt -1.99433000 -12.74308000
vt -0.00000000 -12.35693000
vt -1.69666000 -12.16385000
vt -1.44911000 -11.58462000
vt -0.00000000 -11.32719000
vt -1.25405000 -11.00539000
vt -0.00000000 -10.29744000
vt -1.11337000 -10.42616000
vt -1.02841000 -9.84693000
vt -0.00000000 -9.26770000
vt -1.00000000 -9.26770000
vt -1.02841000 -8.68847000
vt 0.00000000 -8.23795000
vt -1.11337000 -8.10924000
vt -1.25405000 -7.53000000
vt 0.00000000 -7.20821000
vt -1.44911000 -6.95077000
vt 0.00000000 -6.17846000
vt -1.69666000 -6.37154000
vt -1.99433000 -5.79231000
vt 0.00000000 -5.14872000
vt -2.33924000 -5.21308000
vt -2.72807000 -4.63385000
vt 0.00000000 -4.11898000
vt -3.15708000 -4.05462000
vt -3.62214000 -3.47539000
vt 0.00000000 -3.08923000
vt -4.11876000 -2.89616000
vt 0.00000000 -2.05949000
vt -4.64217000 -2.31692000
vt -5.18732000 -1.73769000
vt 0.00000000 -1.02974000
vt -5.74897000 -1.15846000
vt -6.32170000 -0.57923000
vt -5.81037000 -1.02452000
vt -5.51492000 -0.97243000
vt -5.90000000 0.00000000
vt -5.60000000 0.00000000
vt -5.51492000 0.97243000
vt -5.26228000 -1.91531000
vt -5.54419000 -2.01792000
vt -4.84974000 -2.80000000
vt -5.10955000 -2.95000000
vt -4.28985000 -3.59961000
vt -4.51966000 -3.79245000
vt -3.59961000 -4.28985000
vt -3.79245000 -4.51966000
vt -2.80000000 -4.84974000
vt -2.95000000 -5.10955000
vt -1.91531000 -5.26228000
vt -2.01792000 -5.54419000
vt -0.97243000 -5.51492000
vt -1.02452000 -5.81037000
vt -0.00000000 -5.60000000
vt 0.00000000 -5.90000000
vt 1.02452000 -5.81037000
vt 0.97243000 -5.51492000
vt 2.01792000 -5.54419000
vt 1.91531000 -5.26228000
vt 2.95000000 -5.10955000
vt 2.80000000 -4.84974000
vt 3.79245000 -4.51966000
vt 3.59961000 -4.28985000
vt 4.51966000 -3.79245000
vt 4.28985000 -3.59961000
vt 5.10955000 -2.95000000
vt 4.84974000 -2.80000000
vt 5.54419000 -2.01792000
vt 5.26228000 -1.91531000
vt 5.81037000 -1.02452000
vt 5.51492000 -0.97243000
vt 5.60000000 0.00000000
vt 5.90000000 0.00000000
vt 5.51492000 0.97243000
vt 5.81037000 1.02452000
vt 5.26228000 1.91531000
vt 5.54419000 2.01792000
vt 4.84974000 2.80000000
vt 5.10955000 2.95000000
vt 4.28985000 3.59961000
vt 4.51966000 3.79245000
vt 3.59961000 4.28985000
vt 3.79245000 4.51966000
vt 2.80000000 4.84974000
vt 2.95000000 5.10955000
vt 1.91531000 5.26228000
vt 2.01792000 5.54419000
vt 0.97243000 5.51492000
vt 1.02452000 5.81037000
vt -0.00000000 5.60000000
vt 0.00000000 5.90000000
vt -1.02452000 5.81037000
vt -0.97243000 5.51492000
vt -2.01792000 5.54419000
vt -1.91531000 5.26228000
vt -2.95000000 5.10955000
vt -2.80000000 4.84974000
vt -3.79245000 4.51966000
vt -3.59961000 4.28985000
vt -4.51966000 3.79245000
vt -4.28985000 3.59961000
vt -5.10955000 2.95000000
vt -4.84974000 2.80000000
vt -5.54419000 2.01792000
vt -5.26228000 1.91531000
vt -5.81037000 1.02452000
vt 22.73919000 17.59292000
vt 22.03919000 17.59292000
vt 22.73919000 16.61553000
vt 22.03919000 16.61553000
vt 22.03919000 15.63815000
vt 22.73919000 15.63815000
vt 22.03919000 14.66077000
vt 22.73919000 14.66077000
vt 22.03919000 13.68338000
vt 22.73919000 13.68338000
vt 22.03919000 12.70600000
vt 22.73919000 12.70600000
vt 22.03919000 11.72861000
vt 22.73919000 11.72861000
vt 22.03919000 10.75123000
vt 22.73919000 10.75123000
vt 22.03919000 9.77384000
vt 22.73919000 9.77384000
vt 22.03919000 8.79646000
vt 22.73919000 8.79646000
vt 22.03919000 7.81908000
vt 22.73919000 7.81908000
vt 22.03919000 6.84169000
vt 22.73919000 6.84169000
vt 22.03919000 5.86431000
vt 22.73919000 5.86431000
vt 22.03919000 4.88692000
vt 22.73919000 4.88692000
vt 22.03919000 3.90954000
vt 22.73919000 3.90954000
vt 22.03919000 2.93215000
vt 22.73919000 2.93215000
vt 22.03919000 1.95477000
vt 22.73919000 1.95477000
vt 22.03919000 0.97738000
vt 22.73919000 0.97738000
vt -5.51492000 8.82243000
vt -5.60000000 7.85000000
vt 4.28985000 4.25039000
vt -5.51492000 6.87757000
vt -5.26228000 5.93469000
vt -4.84974000 5.05000000
vt -4.28985000 4.25039000
vt 3.59961000 3.56015000
vt -3.59961000 3.56015000
vt 2.80000000 3.00026000
vt -2.80000000 3.00026000
vt 1.91531000 2.58772000
vt -1.91531000 2.58772000
vt 0.97243000 2.33508000
vt -0.97243000 2.33508000
vt 0.00000000 2.25000000
vt 4.84974000 5.05000000
vt 4.28985000 11.44961000
vt 3.59961000 12.13985000
vt 2.80000000 12.69974000
vt 4.84974000 10.65000000
vt 5.26228000 5.93469000
vt 5.26228000 9.76531000
vt 5.51492000 6.87757000
vt 5.51492000 8.82243000
vt 5.60000000 7.85000000
vt 1.91531000 13.11228000
vt 0.97243000 13.36492000
vt 0.00000000 13.45000000
vt -0.97243000 13.36492000
vt -1.91531000 13.11228000
vt -2.80000000 12.69974000
vt -3.59961000 12.13985000
vt -4.28985000 11.44961000
vt -4.84974000 10.65000000
vt -5.26228000 9.76531000
vt -1.02452000 -2.53634000
vt -0.00000000 -2.62913000
vt -0.00000000 -2.60843000
vt 1.02452000 -2.53634000
vt 1.02105000 -2.51595000
vt 2.01792000 -2.26077000
vt 2.01108000 -2.24131000
vt 2.95000000 -1.81080000
vt 2.94000000 -1.79287000
vt 3.79245000 -1.20010000
vt 3.77959000 -1.18424000
vt 4.51966000 -0.44723000
vt 4.50434000 -0.43392000
vt 5.10955000 0.42493000
vt 5.09223000 0.43528000
vt 5.54419000 1.38989000
vt 5.52539000 1.39698000
vt 5.81037000 2.41833000
vt 5.79067000 2.42193000
vt 5.88000000 3.47900000
vt 5.90000000 3.47900000
vt 5.79067000 4.53607000
vt 5.81037000 4.53966000
vt 5.52539000 5.56102000
vt 5.54419000 5.56810000
vt 5.09223000 6.52271000
vt 5.10955000 6.53306000
vt 4.50434000 7.39192000
vt 4.51966000 7.40523000
vt 3.77959000 8.14223000
vt 3.79245000 8.15810000
vt 2.94000000 8.75086000
vt 2.95000000 8.76879000
vt 2.01108000 9.19930000
vt 2.01792000 9.21876000
vt 1.02105000 9.47394000
vt 1.02452000 9.49433000
vt 0.00000000 9.56642000
vt -0.00000000 9.58713000
vt -1.02452000 9.49433000
vt -1.02105000 9.47394000
vt -2.01792000 9.21876000
vt -2.01108000 9.19930000
vt -2.95000000 8.76879000
vt -2.94000000 8.75086000
vt -3.79245000 8.15810000
vt -3.77959000 8.14223000
vt -4.51966000 7.40523000
vt -4.50434000 7.39192000
vt -5.10955000 6.53306000
vt -5.09223000 6.52271000
vt -5.54419000 5.56810000
vt -5.52539000 5.56102000
vt -5.81037000 4.53966000
vt -5.79067000 4.53607000
vt -5.90000000 3.47900000
vt -5.88000000 3.47900000
vt -5.79067000 2.42193000
vt -5.81037000 2.41833000
vt -5.52539000 1.39698000
vt -5.54419000 1.38989000
vt -5.09223000 0.43528000
vt -5.10955000 0.42493000
vt -4.50434000 -0.43392000
vt -4.51966000 -0.44723000
vt -3.77959000 -1.18424000
vt -3.79245000 -1.20010000
vt -2.94000000 -1.79287000
vt -2.95000000 -1.81080000
vt -2.01108000 -2.24131000
vt -2.01792000 -2.26077000
vt -1.02105000 -2.51595000
vt 6.31037000 1.02452000
vt 6.29067000 1.02105000
vt 6.40000000 0.00000000
vt 6.38000000 0.00000000
vt 6.31037000 -1.02452000
vt 6.29067000 -1.02105000
vt 6.02539000 -2.01108000
vt 6.02539000 2.01108000
vt 6.04419000 2.01792000
vt 5.59223000 2.94000000
vt 5.60955000 2.95000000
vt 5.00434000 3.77959000
vt 5.01966000 3.79245000
vt 4.27959000 4.50434000
vt 4.29245000 4.51966000
vt 3.44000000 5.09223000
vt 3.45000000 5.10955000
vt 2.51108000 5.52539000
vt 2.51792000 5.54419000
vt 1.52105000 5.79067000
vt 1.52452000 5.81037000
vt 0.50000000 5.88000000
vt 0.50000000 5.90000000
vt -0.52452000 5.81037000
vt -0.52105000 5.79067000
vt -1.51792000 5.54419000
vt -1.51108000 5.52539000
vt -2.45000000 5.10955000
vt -2.44000000 5.09223000
vt -3.29245000 4.51966000
vt -3.27959000 4.50434000
vt -4.01966000 3.79245000
vt -4.00434000 3.77959000
vt -4.60955000 2.95000000
vt -4.59223000 2.94000000
vt -5.04419000 2.01792000
vt -5.02539000 2.01108000
vt -5.31037000 1.02452000
vt -5.29067000 1.02105000
vt -5.40000000 0.00000000
vt -5.38000000 0.00000000
vt -5.29067000 -1.02105000
vt -5.31037000 -1.02452000
vt -5.02539000 -2.01108000
vt -5.04419000 -2.01792000
vt -4.59223000 -2.94000000
vt -4.60955000 -2.95000000
vt -4.00434000 -3.77959000
vt -4.01966000 -3.79245000
vt -3.27959000 -4.50434000
vt -3.29245000 -4.51966000
vt -2.44000000 -5.09223000
vt -2.45000000 -5.10955000
vt -1.51108000 -5.52539000
vt -1.51792000 -5.54419000
vt -0.52105000 -5.79067000
vt -0.52452000 -5.81037000
vt 0.50000000 -5.88000000
vt 0.50000000 -5.90000000
vt 1.52452000 -5.81037000
vt 1.52105000 -5.79067000
vt 2.51792000 -5.54419000
vt 2.51108000 -5.52539000
vt 3.45000000 -5.10955000
vt 3.44000000 -5.09223000
vt 4.29245000 -4.51966000
vt 4.27959000 -4.50434000
vt 5.01966000 -3.79245000
vt 5.00434000 -3.77959000
vt 5.60955000 -2.95000000
vt 5.59223000 -2.94000000
vt 6.04419000 -2.01792000
f 1/1/1 2/2/2 3/3/3
f 3/3/3 2/2/2 4/4/4
f 4/4/4 2/2/2 5/5/5
f 4/4/4 5/5/5 6/6/6
f 6/6/6 5/5/5 7/7/7
f 6/6/6 7/7/7 8/8/8
f 8/8/8 7/7/7 9/9/9
f 8/8/8 9/9/9 10/10/10
f 10/10/10 9/9/9 11/11/11
f 10/10/10 11/11/11 12/12/12
f 12/12/12 11/11/11 13/13/13
f 12/12/12 13/13/13 14/14/14
f 14/14/14 13/13/13 15/15/15
f 14/14/14 15/15/15 16/16/16
f 16/16/16 15/15/15 17/17/17
f 16/16/16 17/17/17 18/18/18
f 18/18/18 17/17/17 19/19/19
f 18/18/18 19/19/19 20/20/20
f 20/20/20 19/19/19 21/21/21
f 20/20/20 21/21/21 22/22/22
f 22/22/22 21/21/21 23/23/23
f 22/22/22 23/23/23 24/24/24
f 24/24/24 23/23/23 25/25/25
f 24/24/24 25/25/25 26/26/26
f 26/26/26 25/25/25 27/27/27
f 26/26/26 27/27/27 28/28/28
f 28/28/28 27/27/27 29/29/29
f 28/28/28 29/29/29 30/30/30
f 30/30/30 29/29/29 31/31/31
f 30/30/30 31/31/31 32/32/32
f 32/32/32 31/31/31 33/33/33
f 32/32/32 33/33/33 34/34/34
f 34/34/34 33/33/33 35/35/35
f 34/34/34 35/35/35 36/36/36
f 36/36/36 35/35/35 37/37/37
f 37/37/37 35/35/35 38/38/38
f 39/39/39 40/40/40 41/41/41
f 41/41/41 40/40/40 42/42/42
f 41/41/41 42/42/42 43/43/43
f 43/43/43 42/42/42 44/44/44
f 44/44/44 42/42/42 45/45/45
f 44/44/44 45/45/45 46/46/46
f 46/46/46 45/45/45 47/47/47
f 46/46/46 47/47/47 48/48/48
f 48/48/48 47/47/47 49/49/49
f 49/49/49 47/47/47 50/50/50
f 49/49/49 50/50/50 51/51/51
f 51/51/51 50/50/50 52/52/52
f 52/52/52 50/50/50 53/53/53
f 52/52/52 53/53/53 54/54/54
f 54/54/54 53/53/53 55/55/55
f 55/55/55 53/53/53 56/56/56
f 55/55/55 56/56/56 57/57/57
f 57/57/57 56/56/56 58/58/58
f 58/58/58 56/56/56 59/59/59
f 58/58/58 59/59/59 60/60/60
f 60/60/60 59/59/59 61/61/61
f 60/60/60 61/61/61 62/62/62
f 62/62/62 61/61/61 63/63/63
f 63/63/63 61/61/61 64/64/64
f 63/63/63 64/64/64 65/65/65
f 65/65/65 64/64/64 66/66/66
f 66/66/66 64/64/64 67/67/67
f 66/66/66 67/67/67 68/68/68
f 68/68/68 67/67/67 69/69/69
f 69/69/69 67/67/67 70/70/70
f 69/69/69 70/70/70 71/71/71
f 71/71/71 70/70/70 72/72/72
f 71/71/71 72/72/72 73/73/73
f 73/73/73 72/72/72 74/74/74
f 74/74/74 72/72/72 75/75/75
f 74/74/74 75/75/75 76/76/76
f 76/76/76 75/75/75 77/77/77
f 77/77/77 75/75/75 78/78/78
f 77/77/77 78/78/78 79/79/79
f 79/79/79 78/78/78 80/80/80
f 80/80/80 78/78/78 81/81/81
f 80/80/80 81/81/81 82/82/82
f 82/82/82 81/81/81 83/83/83
f 83/83/83 81/81/81 84/84/84
f 83/83/83 84/84/84 85/85/85
f 85/85/85 84/84/84 86/86/86
f 85/85/85 86/86/86 87/87/87
f 87/87/87 86/86/86 88/88/88
f 88/88/88 86/86/86 89/89/89
f 88/88/88 89/89/89 90/90/90
f 91/91/91 92/92/92 93/93/93
f 93/93/93 92/92/92 94/94/94
f 93/93/93 94/94/94 95/95/95
f 95/95/95 94/94/94 96/96/96
f 95/95/95 96/96/96 97/97/97
f 97/97/97 96/96/96 98/98/98
f 97/97/97 98/98/98 99/99/99
f 99/99/99 98/98/98 100/100/100
f 99/99/99 100/100/100 101/101/101
f 101/101/101 100/100/100 102/102/102
f 101/101/101 102/102/102 103/103/103
f 103/103/103 102/102/102 104/104/104
f 103/103/103 104/104/104 105/105/105
f 105/105/105 104/104/104 106/106/106
f 105/105/105 106/106/106 107/107/107
f 107/107/107 106/106/106 108/108/108
f 107/107/107 108/108/108 109/109/109
f 109/109/109 108/108/108 110/110/110
f 109/109/109 110/110/110 111/111/111
f 111/111/111 110/110/110 112/112/112
f 111/111/111 112/112/112 113/113/113
f 113/113/113 112/112/112 114/114/114
f 114/114/114 112/112/112 115/115/115
f 114/114/114 115/115/115 116/116/116
f 116/116/116 115/115/115 117/117/117
f 117/117/117 115/115/115 118/118/118
f 117/117/117 118/118/118 119/119/119
f 119/119/119 118/118/118 120/120/120
f 119/119/119 120/120/120 121/121/121
f 121/121/121 120/120/120 122/122/122
f 122/122/122 120/120/120 123/123/123
f 122/122/122 123/123/123 124/124/124
f 124/124/124 123/123/123 125/125/125
f 125/125/125 123/123/123 126/126/126
f 125/125/125 126/126/126 127/127/127
f 127/127/127 126/126/126 128/128/128
f 128/128/128 126/126/126 129/129/129
f 128/128/128 129/129/129 130/130/130
f 130/130/130 129/129/129 131/131/131
f 130/130/130 131/131/131 132/132/132
f 132/132/132 131/131/131 133/133/133
f 133/133/133 131/131/131 134/134/134
f 133/133/133 134/134/134 135/135/135
f 107/107/107 109/109/109 136/136/136
f 136/136/136 109/109/109 137/137/137
f 136/136/136 137/137/137 138/138/138
f 138/138/138 137/137/137 139/139/139
f 138/138/138 139/139/139 140/140/140
f 138/138/138 140/140/140 141/141/141
f 141/141/141 140/140/140 142/142/142
f 141/141/141 142/142/142 143/143/143
f 141/141/141 143/143/143 144/144/144
f 144/144/144 143/143/143 145/145/145
f 144/144/144 145/145/145 146/146/146
f 146/146/146 145/145/145 147/147/147
f 146/146/146 147/147/147 148/148/148
f 146/146/146 148/148/148 149/149/149
f 149/149/149 148/148/148 150/150/150
f 149/149/149 150/150/150 151/151/151
f 149/149/149 151/151/151 152/152/152
f 152/152/152 151/151/151 153/153/153
f 152/152/152 153/153/153 154/154/154
f 152/152/152 154/154/154 155/155/155
f 155/155/155 154/154/154 156/156/156
f 155/155/155 156/156/156 157/157/157
f 157/157/157 156/156/156 158/158/158
f 157/157/157 158/158/158 159/159/159
f 160/160/160 161/161/161 159/159/159
f 159/159/159 161/161/161 157/157/157
f 162/162/162 163/163/163 164/164/164
f 164/164/164 163/163/163 165/165/165
f 164/164/164 165/165/165 166/166/166
f 166/166/166 165/165/165 167/167/167
f 167/167/167 165/165/165 168/168/168
f 167/167/167 168/168/168 169/169/169
f 169/169/169 168/168/168 170/170/170
f 169/169/169 170/170/170 171/171/171
f 171/171/171 170/170/170 172/172/172
f 172/172/172 170/170/170 173/173/173
f 172/172/172 173/173/173 174/174/174
f 174/174/174 173/173/173 175/175/175
f 175/175/175 173/173/173 176/176/176
f 175/175/175 176/176/176 177/177/177
f 177/177/177 176/176/176 178/178/178
f 178/178/178 176/176/176 179/179/179
f 178/178/178 179/179/179 180/180/180
f 180/180/180 179/179/179 181/181/181
f 180/180/180 181/181/181 182/182/182
f 182/182/182 181/181/181 183/183/183
f 183/183/183 181/181/181 184/184/184
f 183/183/183 184/184/184 185/185/185
f 185/185/185 184/184/184 186/186/186
f 186/186/186 184/184/184 187/187/187
f 186/186/186 187/187/187 188/188/188
f 188/188/188 187/187/187 189/189/189
f 188/188/188 189/189/189 190/190/190
f 190/190/190 189/189/189 191/191/191
f 190/190/190 191/191/191 192/192/192
f 192/192/192 191/191/191 193/193/193
f 192/192/192 193/193/193 194/194/194
f 194/194/194 193/193/193 195/195/195
f 194/194/194 195/195/195 196/196/196
f 196/196/196 195/195/195 197/197/197
f 196/196/196 197/197/197 198/198/198
f 198/198/198 197/197/197 199/199/199
f 198/198/198 199/199/199 200/200/200
f 200/200/200 199/199/199 201/201/201
f 200/200/200 201/201/201 202/202/202
f 202/202/202 201/201/201 203/203/203
f 202/202/202 203/203/203 204/204/204
f 204/204/204 203/203/203 92/92/92
f 204/204/204 92/92/92 91/91/91
f 190/190/190 205/205/205 188/188/188
f 188/188/188 205/205/205 206/206/206
f 206/206/206 205/205/205 207/207/207
f 206/206/206 207/207/207 208/208/208
f 208/208/208 207/207/207 209/209/209
f 209/209/209 207/207/207 210/210/210
f 209/209/209 210/210/210 211/211/211
f 211/211/211 210/210/210 212/212/212
f 211/211/211 212/212/212 213/213/213
f 213/213/213 212/212/212 214/214/214
f 214/214/214 212/212/212 215/215/215
f 214/214/214 215/215/215 216/216/216
f 216/216/216 215/215/215 217/217/217
f 217/217/217 215/215/215 218/218/218
f 217/217/217 218/218/218 219/219/219
f 219/219/219 218/218/218 220/220/220
f 220/220/220 218/218/218 221/221/221
f 220/220/220 221/221/221 222/222/222
f 222/222/222 221/221/221 223/223/223
f 223/223/223 221/221/221 224/224/224
f 223/223/223 224/224/224 225/225/225
f 225/225/225 224/224/224 226/226/226
f 225/225/225 226/226/226 227/227/227
f 227/227/227 226/226/226 228/228/228
f 228/228/228 226/226/226 229/229/229
f 228/228/228 229/229/229 230/230/230
f 231/231/231 232/232/232 233/233/233
f 233/233/233 232/232/232 234/234/234
f 233/233/233 234/234/234 235/235/235
f 235/235/235 234/234/234 236/236/236
f 236/236/236 234/234/234 237/237/237
f 236/236/236 237/237/237 238/238/238
f 238/238/238 237/237/237 239/239/239
f 238/238/238 239/239/239 240/240/240
f 240/240/240 239/239/239 241/241/241
f 241/241/241 239/239/239 242/242/242
f 241/241/241 242/242/242 243/243/243
f 243/243/243 242/242/242 244/244/244
f 244/244/244 242/242/242 245/245/245
f 244/244/244 245/245/245 246/246/246
f 246/246/246 245/245/245 247/247/247
f 247/247/247 245/245/245 248/248/248
f 247/247/247 248/248/248 249/249/249
f 249/249/249 248/248/248 250/250/250
f 250/250/250 248/248/248 251/251/251
f 250/250/250 251/251/251 252/252/252
f 252/252/252 251/251/251 253/253/253
f 252/252/252 253/253/253 254/254/254
f 254/254/254 253/253/253 255/255/255
f 255/255/255 253/253/253 256/256/256
f 255/255/255 256/256/256 257/257/257
f 257/257/257 256/256/256 258/258/258
f 258/258/258 256/256/256 259/259/259
f 258/258/258 259/259/259 260/260/260
f 260/260/260 259/259/259 261/261/261
f 261/261/261 259/259/259 262/262/262
f 261/261/261 262/262/262 263/263/263
f 263/263/263 262/262/262 264/264/264
f 263/263/263 264/264/264 265/265/265
f 265/265/265 264/264/264 266/266/266
f 266/266/266 264/264/264 267/267/267
f 266/266/266 267/267/267 268/268/268
f 268/268/268 267/267/267 269/269/269
f 269/269/269 267/267/267 270/270/270
f 269/269/269 270/270/270 271/271/271
f 271/271/271 270/270/270 272/272/272
f 272/272/272 270/270/270 273/273/273
f 272/272/272 273/273/273 274/274/274
f 274/274/274 273/273/273 275/275/275
f 274/274/274 275/275/275 276/276/276
f 276/276/276 275/275/275 277/277/277
f 277/277/277 275/275/275 278/278/278
f 277/277/277 278/278/278 279/279/279
f 279/279/279 278/278/278 280/280/280
f 280/280/280 278/278/278 40/40/40
f 280/280/280 40/40/40 39/39/39
f 281/281/281 282/282/282 283/283/283
f 283/283/283 282/282/282 284/284/284
f 283/283/283 284/284/284 285/285/285
f 282/282/282 281/281/281 286/286/286
f 286/286/286 281/281/281 287/287/287
f 286/286/286 287/287/287 288/288/288
f 288/288/288 287/287/287 289/289/289
f 288/288/288 289/289/289 290/290/290
f 290/290/290 289/289/289 291/291/291
f 290/290/290 291/291/291 292/292/292
f 292/292/292 291/291/291 293/293/293
f 292/292/292 293/293/293 294/294/294
f 294/294/294 293/293/293 295/295/295
f 294/294/294 295/295/295 296/296/296
f 296/296/296 295/295/295 297/297/297
f 296/296/296 297/297/297 298/298/298
f 298/298/298 297/297/297 299/299/299
f 298/298/298 299/299/299 300/300/300
f 300/300/300 299/299/299 301/301/301
f 300/300/300 301/301/301 302/302/302
f 300/300/300 302/302/302 303/303/303
f 303/303/303 302/302/302 304/304/304
f 303/303/303 304/304/304 305/305/305
f 305/305/305 304/304/304 306/306/306
f 305/305/305 306/306/306 307/307/307
f 307/307/307 306/306/306 308/308/308
f 307/307/307 308/308/308 309/309/309
f 309/309/309 308/308/308 310/310/310
f 309/309/309 310/310/310 311/311/311
f 311/311/311 310/310/310 312/312/312
f 311/311/311 312/312/312 313/313/313
f 313/313/313 312/312/312 314/314/314
f 313/313/313 314/314/314 315/315/315
f 315/315/315 314/314/314 316/316/316
f 315/315/315 316/316/316 317/317/317
f 317/317/317 316/316/316 318/318/318
f 318/318/318 316/316/316 319/319/319
f 318/318/318 319/319/319 320/320/320
f 320/320/320 319/319/319 321/321/321
f 320/320/320 321/321/321 322/322/322
f 322/322/322 321/321/321 323/323/323
f 322/322/322 323/323/323 324/324/324
f 324/324/324 323/323/323 325/325/325
f 324/324/324 325/325/325 326/326/326
f 326/326/326 325/325/325 327/327/327
f 326/326/326 327/327/327 328/328/328
f 328/328/328 327/327/327 329/329/329
f 328/328/328 329/329/329 330/330/330
f 330/330/330 329/329/329 331/331/331
f 330/330/330 331/331/331 332/332/332
f 332/332/332 331/331/331 333/333/333
f 332/332/332 333/333/333 334/334/334
f 334/334/334 333/333/333 335/335/335
f 334/334/334 335/335/335 336/336/336
f 336/336/336 335/335/335 337/337/337
f 336/336/336 337/337/337 338/338/338
f 336/336/336 338/338/338 339/339/339
f 339/339/339 338/338/338 340/340/340
f 339/339/339 340/340/340 341/341/341
f 341/341/341 340/340/340 342/342/342
f 341/341/341 342/342/342 343/343/343
f 343/343/343 342/342/342 344/344/344
f 343/343/343 344/344/344 345/345/345
f 345/345/345 344/344/344 346/346/346
f 345/345/345 346/346/346 347/347/347
f 347/347/347 346/346/346 348/348/348
f 347/347/347 348/348/348 349/349/349
f 349/349/349 348/348/348 350/350/350
f 349/349/349 350/350/350 351/351/351
f 351/351/351 350/350/350 352/352/352
f 351/351/351 352/352/352 285/285/285
f 285/285/285 352/352/352 283/283/283
f 353/353/353 354/354/354 355/355/355
f 355/355/355 354/354/354 356/356/356
f 355/355/355 356/356/356 357/357/357
f 355/355/355 357/357/357 358/358/358
f 358/358/358 357/357/357 359/359/359
f 358/358/358 359/359/359 360/360/360
f 360/360/360 359/359/359 361/361/361
f 360/360/360 361/361/361 362/362/362
f 362/362/362 361/361/361 363/363/363
f 362/362/362 363/363/363 364/364/364
f 364/364/364 363/363/363 365/365/365
f 364/364/364 365/365/365 366/366/366
f 366/366/366 365/365/365 367/367/367
f 366/366/366 367/367/367 368/368/368
f 368/368/368 367/367/367 369/369/369
f 368/368/368 369/369/369 370/370/370
f 370/370/370 369/369/369 371/371/371
f 370/370/370 371/371/371 372/372/372
f 372/372/372 371/371/371 373/373/373
f 372/372/372 373/373/373 374/374/374
f 374/374/374 373/373/373 375/375/375
f 374/374/374 375/375/375 376/376/376
f 376/376/376 375/375/375 377/377/377
f 376/376/376 377/377/377 378/378/378
f 378/378/378 377/377/377 379/379/379
f 378/378/378 379/379/379 380/380/380
f 380/380/380 379/379/379 381/381/381
f 380/380/380 381/381/381 382/382/382
f 382/382/382 381/381/381 383/383/383
f 382/382/382 383/383/383 384/384/384
f 384/384/384 383/383/383 385/385/385
f 384/384/384 385/385/385 386/386/386
f 386/386/386 385/385/385 387/387/387
f 386/386/386 387/387/387 388/388/388
f 388/388/388 387/387/387 1/1/1
f 388/388/388 1/1/1 3/3/3
f 389/389/389 390/390/390 391/391/391
f 391/391/391 390/390/390 392/392/392
f 391/391/391 392/392/392 393/393/393
f 393/393/393 394/394/394 391/391/391
f 391/391/391 394/394/394 395/395/395
f 391/391/391 395/395/395 396/396/396
f 396/396/396 395/395/395 397/397/397
f 396/396/396 397/397/397 398/398/398
f 398/398/398 397/397/397 399/399/399
f 398/398/398 399/399/399 400/400/400
f 400/400/400 399/399/399 401/401/401
f 400/400/400 401/401/401 402/402/402
f 402/402/402 401/401/401 403/403/403
f 402/402/402 403/403/403 404/404/404
f 405/405/405 406/406/406 391/391/391
f 391/391/391 406/406/406 407/407/407
f 391/391/391 407/407/407 408/408/408
f 406/406/406 405/405/405 409/409/409
f 409/409/409 405/405/405 410/410/410
f 409/409/409 410/410/410 411/411/411
f 411/411/411 410/410/410 412/412/412
f 411/411/411 412/412/412 413/413/413
f 413/413/413 412/412/412 414/414/414
f 408/408/408 415/415/415 391/391/391
f 391/391/391 415/415/415 416/416/416
f 391/391/391 416/416/416 417/417/417
f 417/417/417 418/418/418 391/391/391
f 391/391/391 418/418/418 419/419/419
f 391/391/391 419/419/419 420/420/420
f 420/420/420 421/421/421 391/391/391
f 391/391/391 421/421/421 422/422/422
f 391/391/391 422/422/422 423/423/423
f 423/423/423 424/424/424 391/391/391
f 391/391/391 424/424/424 389/389/389
f 425/425/425 426/426/426 427/427/427
f 427/427/427 426/426/426 428/428/428
f 427/427/427 428/428/428 429/429/429
f 429/429/429 428/428/428 430/430/430
f 429/429/429 430/430/430 431/431/431
f 431/431/431 430/430/430 432/432/432
f 431/431/431 432/432/432 433/433/433
f 433/433/433 432/432/432 434/434/434
f 433/433/433 434/434/434 435/435/435
f 435/435/435 434/434/434 436/436/436
f 435/435/435 436/436/436 437/437/437
f 437/437/437 436/436/436 438/438/438
f 437/437/437 438/438/438 439/439/439
f 439/439/439 438/438/438 440/440/440
f 439/439/439 440/440/440 441/441/441
f 441/441/441 440/440/440 442/442/442
f 441/441/441 442/442/442 443/443/443
f 443/443/443 442/442/442 444/444/444
f 444/444/444 442/442/442 445/445/445
f 444/444/444 445/445/445 446/446/446
f 446/446/446 445/445/445 447/447/447
f 446/446/446 447/447/447 448/448/448
f 448/448/448 447/447/447 449/449/449
f 448/448/448 449/449/449 450/450/450
f 450/450/450 449/449/449 451/451/451
f 450/450/450 451/451/451 452/452/452
f 452/452/452 451/451/451 453/453/453
f 452/452/452 453/453/453 454/454/454
f 454/454/454 453/453/453 455/455/455
f 454/454/454 455/455/455 456/456/456
f 456/456/456 455/455/455 457/457/457
f 456/456/456 457/457/457 458/458/458
f 458/458/458 457/457/457 459/459/459
f 458/458/458 459/459/459 460/460/460
f 460/460/460 459/459/459 461/461/461
f 460/460/460 461/461/461 462/462/462
f 462/462/462 461/461/461 463/463/463
f 462/462/462 463/463/463 464/464/464
f 462/462/462 464/464/464 465/465/465
f 465/465/465 464/464/464 466/466/466
f 465/465/465 466/466/466 467/467/467
f 467/467/467 466/466/466 468/468/468
f 467/467/467 468/468/468 469/469/469
f 469/469/469 468/468/468 470/470/470
f 469/469/469 470/470/470 471/471/471
f 471/471/471 470/470/470 472/472/472
f 471/471/471 472/472/472 473/473/473
f 473/473/473 472/472/472 474/474/474
f 473/473/473 474/474/474 475/475/475
f 475/475/475 474/474/474 476/476/476
f 475/475/475 476/476/476 477/477/477
f 477/477/477 476/476/476 478/478/478
f 477/477/477 478/478/478 479/479/479
f 479/479/479 478/478/478 480/480/480
f 479/479/479 480/480/480 481/481/481
f 481/481/481 480/480/480 482/482/482
f 482/482/482 480/480/480 483/483/483
f 482/482/482 483/483/483 484/484/484
f 484/484/484 483/483/483 485/485/485
f 484/484/484 485/485/485 486/486/486
f 486/486/486 485/485/485 487/487/487
f 486/486/486 487/487/487 488/488/488
f 488/488/488 487/487/487 489/489/489
f 488/488/488 489/489/489 490/490/490
f 490/490/490 489/489/489 491/491/491
f 490/490/490 491/491/491 492/492/492
f 492/492/492 491/491/491 493/493/493
f 492/492/492 493/493/493 494/494/494
f 494/494/494 493/493/493 495/495/495
f 494/494/494 495/495/495 496/496/496
f 496/496/496 495/495/495 425/425/425
f 496/496/496 425/425/425 427/427/427
f 497/497/497 498/498/498 499/499/499
f 499/499/499 498/498/498 500/500/500
f 499/499/499 500/500/500 501/501/501
f 501/501/501 500/500/500 502/502/502
f 501/501/501 502/502/502 503/503/503
f 498/498/498 497/497/497 504/504/504
f 504/504/504 497/497/497 505/505/505
f 504/504/504 505/505/505 506/506/506
f 506/506/506 505/505/505 507/507/507
f 506/506/506 507/507/507 508/508/508
f 508/508/508 507/507/507 509/509/509
f 508/508/508 509/509/509 510/510/510
f 510/510/510 509/509/509 511/511/511
f 510/510/510 511/511/511 512/512/512
f 512/512/512 511/511/511 513/513/513
f 512/512/512 513/513/513 514/514/514
f 514/514/514 513/513/513 515/515/515
f 514/514/514 515/515/515 516/516/516
f 516/516/516 515/515/515 517/517/517
f 516/516/516 517/517/517 518/518/518
f 518/518/518 517/517/517 519/519/519
f 518/518/518 519/519/519 520/520/520
f 518/518/518 520/520/520 521/521/521
f 521/521/521 520/520/520 522/522/522
f 521/521/521 522/522/522 523/523/523
f 523/523/523 522/522/522 524/524/524
f 523/523/523 524/524/524 525/525/525
f 525/525/525 524/524/524 526/526/526
f 525/525/525 526/526/526 527/527/527
f 527/527/527 526/526/526 528/528/528
f 527/527/527 528/528/528 529/529/529
f 529/529/529 528/528/528 530/530/530
f 529/529/529 530/530/530 531/531/531
f 531/531/531 530/530/530 532/532/532
f 531/531/531 532/532/532 533/533/533
f 533/533/533 532/532/532 534/534/534
f 533/533/533 534/534/534 535/535/535
f 535/535/535 534/534/534 536/536/536
f 535/535/535 536/536/536 537/537/537
f 537/537/537 536/536/536 538/538/538
f 538/538/538 536/536/536 539/539/539
f 538/538/538 539/539/539 540/540/540
f 540/540/540 539/539/539 541/541/541
f 540/540/540 541/541/541 542/542/542
f 542/542/542 541/541/541 543/543/543
f 542/542/542 543/543/543 544/544/544
f 544/544/544 543/543/543 545/545/545
f 544/544/544 545/545/545 546/546/546
f 546/546/546 545/545/545 547/547/547
f 546/546/546 547/547/547 548/548/548
f 548/548/548 547/547/547 549/549/549
f 548/548/548 549/549/549 550/550/550
f 550/550/550 549/549/549 551/551/551
f 550/550/550 551/551/551 552/552/552
f 552/552/552 551/551/551 553/553/553
f 552/552/552 553/553/553 554/554/554
f 554/554/554 553/553/553 555/555/555
f 554/554/554 555/555/555 556/556/556
f 554/554/554 556/556/556 557/557/557
f 557/557/557 556/556/556 558/558/558
f 557/557/557 558/558/558 559/559/559
f 559/559/559 558/558/558 560/560/560
f 559/559/559 560/560/560 561/561/561
f 561/561/561 560/560/560 562/562/562
f 561/561/561 562/562/562 563/563/563
f 563/563/563 562/562/562 564/564/564
f 563/563/563 564/564/564 565/565/565
f 565/565/565 564/564/564 566/566/566
f 565/565/565 566/566/566 567/567/567
f 567/567/567 566/566/566 568/568/568
f 567/567/567 568/568/568 503/503/503
f 503/503/503 568/568/568 501/501/501

