mtllib material.mtl
usemtl mat0
v 0.00000004 0.03550000 -0.04200000
v -0.00652296 0.03489600 -0.04200001
v 0.00000005 0.03550000 -0.04800000
v -0.00652295 0.03489600 -0.04800001
v -0.01282396 0.03310300 -0.04200001
v -0.01282395 0.03310300 -0.04800001
v -0.01868796 0.03018300 -0.04200002
v -0.01868795 0.03018300 -0.04800002
v -0.02391596 0.02623500 -0.04200002
v -0.02391595 0.02623500 -0.04800002
v -0.02832996 0.02139400 -0.04200003
v -0.02832995 0.02139400 -0.04800003
v -0.03177796 0.01582400 -0.04200003
v -0.03177795 0.01582400 -0.04800003
v -0.03414496 0.00971500 -0.04200003
v -0.03414495 0.00971500 -0.04800003
v -0.03534896 0.00327600 -0.04200004
v -0.03534895 0.00327600 -0.04800004
v -0.03534896 -0.00327600 -0.04200004
v -0.03534895 -0.00327600 -0.04800004
v -0.03414496 -0.00971500 -0.04200003
v -0.03414495 -0.00971500 -0.04800003
v -0.03177796 -0.01582400 -0.04200003
v -0.03177795 -0.01582400 -0.04800003
v -0.02832996 -0.02139400 -0.04200003
v -0.02832995 -0.02139400 -0.04800003
v -0.02391596 -0.02623500 -0.04200002
v -0.02391595 -0.02623500 -0.04800002
v -0.01868796 -0.03018300 -0.04200002
v -0.01868795 -0.03018300 -0.04800002
v -0.01282396 -0.03310300 -0.04200001
v -0.01282395 -0.03310300 -0.04800001
v -0.00652296 -0.03489600 -0.04200001
v -0.00652295 -0.03489600 -0.04800001
v 0.00000005 -0.03550000 -0.04800000
v 0.00000004 -0.03550000 -0.04200000
v 0.00000004 -0.03750000 -0.03850000
v 0.00000005 -0.03750000 -0.04800000
v 0.00423404 -0.03725900 -0.03826600
v 0.00689105 -0.03686100 -0.04799999
v 0.00841704 -0.03654300 -0.03756899
v 0.01354705 -0.03496800 -0.04799999
v 0.01245504 -0.03537100 -0.03642899
v 0.01626603 -0.03378800 -0.03489498
v 0.01974105 -0.03188300 -0.04799998
v 0.01978703 -0.03185400 -0.03302598
v 0.02296703 -0.02964400 -0.03089898
v 0.02526405 -0.02771300 -0.04799997
v 0.02576603 -0.02724600 -0.02860597
v 0.02820203 -0.02471500 -0.02620797
v 0.02992605 -0.02259900 -0.04799997
v 0.03224302 -0.01914800 -0.02103797
v 0.03356905 -0.01671500 -0.04799997
v 0.03511002 -0.01317300 -0.01579596
v 0.03606805 -0.01026200 -0.04799996
v 0.03610501 -0.01013200 -0.01336596
v 0.03683401 -0.00703500 -0.01120196
v 0.03734005 -0.00346000 -0.04799996
v 0.03731001 -0.00377200 -0.00949896
v 0.03744701 -0.00198500 -0.00894096
v 0.03750001 0.00000000 -0.00871796
v 0.03734005 0.00346000 -0.04799996
v 0.03744701 0.00198500 -0.00894096
v 0.03731001 0.00377200 -0.00949896
v 0.03683401 0.00703500 -0.01120196
v 0.03606805 0.01026200 -0.04799996
v 0.03610501 0.01013200 -0.01336596
v 0.03511002 0.01317300 -0.01579596
v 0.03356905 0.01671500 -0.04799997
v 0.03224302 0.01914800 -0.02103797
v 0.02992605 0.02259900 -0.04799997
v 0.02820203 0.02471500 -0.02620797
v 0.02526405 0.02771300 -0.04799997
v 0.02576603 0.02724600 -0.02860597
v 0.02296703 0.02964400 -0.03089898
v 0.01974105 0.03188300 -0.04799998
v 0.01978703 0.03185400 -0.03302598
v 0.01626603 0.03378800 -0.03489498
v 0.01354705 0.03496800 -0.04799999
v 0.01245504 0.03537100 -0.03642899
v 0.00841704 0.03654300 -0.03756899
v 0.00689105 0.03686100 -0.04799999
v 0.00423404 0.03725900 -0.03826600
v 0.00000005 0.03750000 -0.04800000
v 0.00000004 0.03750000 -0.03850000
v -0.00000004 -0.02360200 0.03850000
v 0.00668496 -0.02375900 0.03791501
v -0.00000004 0.04930000 0.03850000
v 0.00707396 0.04930000 0.03784401
v 0.01316796 -0.02422400 0.03617801
v 0.01390796 0.04930000 0.03590001
v 0.01924997 -0.02498400 0.03334202
v 0.02026797 0.04930000 0.03273302
v 0.02474697 -0.02601600 0.02949302
v 0.02593697 0.04930000 0.02845203
v 0.02949298 -0.02728700 0.02474703
v 0.03072398 0.04930000 0.02320103
v 0.03334198 -0.02876000 0.01925003
v 0.03446398 0.04930000 0.01716103
v 0.03617799 -0.03039000 0.01316804
v 0.03702999 0.04930000 0.01053604
v 0.03791499 -0.03212700 0.00668504
v 0.03833600 0.04930000 0.00355204
v 0.03850000 -0.03391800 0.00000004
v 0.03833600 0.04930000 -0.00355196
v 0.03791501 -0.03570900 -0.00668496
v 0.03750001 0.00000000 -0.00871796
v 0.03744701 -0.00198500 -0.00894096
v 0.03731001 -0.00377200 -0.00949896
v 0.03617801 -0.03744600 -0.01316796
v 0.03683401 -0.00703500 -0.01120196
v 0.03610501 -0.01013200 -0.01336596
v 0.03511002 -0.01317300 -0.01579596
v 0.03334202 -0.03907600 -0.01924997
v 0.03224302 -0.01914800 -0.02103797
v 0.02949302 -0.04054900 -0.02474697
v 0.02820203 -0.02471500 -0.02620797
v 0.02474703 -0.04182100 -0.02949298
v 0.02576603 -0.02724600 -0.02860597
v 0.02296703 -0.02964400 -0.03089898
v 0.01925003 -0.04285200 -0.03334198
v 0.01978703 -0.03185400 -0.03302598
v 0.01626603 -0.03378800 -0.03489498
v 0.01316804 -0.04361200 -0.03617799
v 0.01245504 -0.03537100 -0.03642899
v 0.00841704 -0.03654300 -0.03756899
v 0.00668504 -0.04407700 -0.03791499
v 0.00423404 -0.03725900 -0.03826600
v 0.00000004 -0.04423400 -0.03850000
v 0.00000004 -0.03750000 -0.03850000
v 0.03703001 0.04930000 -0.01053596
v 0.03744701 0.00198500 -0.00894096
v 0.03731001 0.00377200 -0.00949896
v 0.03683401 0.00703500 -0.01120196
v 0.03610501 0.01013200 -0.01336596
v 0.03446402 0.04930000 -0.01716097
v 0.03511002 0.01317300 -0.01579596
v 0.03224302 0.01914800 -0.02103797
v 0.03072402 0.04930000 -0.02320097
v 0.02820203 0.02471500 -0.02620797
v 0.02593703 0.04930000 -0.02845197
v 0.02576603 0.02724600 -0.02860597
v 0.02296703 0.02964400 -0.03089898
v 0.02026803 0.04930000 -0.03273298
v 0.01978703 0.03185400 -0.03302598
v 0.01626603 0.03378800 -0.03489498
v 0.01390804 0.04930000 -0.03589999
v 0.01245504 0.03537100 -0.03642899
v 0.00841704 0.03654300 -0.03756899
v 0.00707404 0.04930000 -0.03784399
v 0.00423404 0.03725900 -0.03826600
v 0.00000004 0.04930000 -0.03850000
v 0.00000004 0.03750000 -0.03850000
v 0.00000004 -0.03750000 -0.03850000
v 0.00000004 -0.04423400 -0.03850000
v -0.00423396 -0.03725900 -0.03826600
v -0.00668496 -0.04407700 -0.03791501
v -0.00841696 -0.03654300 -0.03756901
v -0.01316796 -0.04361200 -0.03617801
v -0.01245496 -0.03537100 -0.03642901
v -0.01626597 -0.03378800 -0.03489502
v -0.01924997 -0.04285200 -0.03334202
v -0.01978697 -0.03185400 -0.03302602
v -0.02296697 -0.02964400 -0.03089902
v -0.02474697 -0.04182100 -0.02949302
v -0.02576597 -0.02724600 -0.02860603
v -0.02949298 -0.04054900 -0.02474703
v -0.02820197 -0.02471500 -0.02620803
v -0.03224298 -0.01914800 -0.02103803
v -0.03334198 -0.03907600 -0.01925003
v -0.03510998 -0.01317300 -0.01579604
v -0.03617799 -0.03744600 -0.01316804
v -0.03610499 -0.01013200 -0.01336604
v -0.03683399 -0.00703500 -0.01120204
v -0.03791499 -0.03570900 -0.00668504
v -0.03730999 -0.00377200 -0.00949904
v -0.03744699 -0.00198500 -0.00894104
v -0.03749999 0.00000000 -0.00871804
v -0.03702999 0.04930000 -0.01053604
v -0.03744699 0.00198500 -0.00894104
v -0.03730999 0.00377200 -0.00949904
v -0.03683399 0.00703500 -0.01120204
v -0.03610499 0.01013200 -0.01336604
v -0.03446398 0.04930000 -0.01716103
v -0.03510998 0.01317300 -0.01579604
v -0.03224298 0.01914800 -0.02103803
v -0.03072398 0.04930000 -0.02320103
v -0.02820197 0.02471500 -0.02620803
v -0.02593697 0.04930000 -0.02845203
v -0.02576597 0.02724600 -0.02860603
v -0.02296697 0.02964400 -0.03089902
v -0.02026797 0.04930000 -0.03273302
v -0.01978697 0.03185400 -0.03302602
v -0.01626597 0.03378800 -0.03489502
v -0.01390796 0.04930000 -0.03590001
v -0.01245496 0.03537100 -0.03642901
v -0.00707396 0.04930000 -0.03784401
v -0.00841696 0.03654300 -0.03756901
v -0.00423396 0.03725900 -0.03826600
v 0.00000004 0.04930000 -0.03850000
v 0.00000004 0.03750000 -0.03850000
v -0.03833600 0.04930000 -0.00355204
v -0.03850000 -0.03391800 -0.00000004
v -0.03833600 0.04930000 0.00355196
v -0.03791501 -0.03212700 0.00668496
v -0.03703001 0.04930000 0.01053596
v -0.03617801 -0.03039000 0.01316796
v -0.03446402 0.04930000 0.01716097
v -0.03334202 -0.02876000 0.01924997
v -0.03072402 0.04930000 0.02320097
v -0.02949302 -0.02728700 0.02474697
v -0.02593703 0.04930000 0.02845197
v -0.02474703 -0.02601600 0.02949298
v -0.02026803 0.04930000 0.03273298
v -0.01925003 -0.02498400 0.03334198
v -0.01390804 0.04930000 0.03589999
v -0.01316804 -0.02422400 0.03617799
v -0.00707404 0.04930000 0.03784399
v -0.00668504 -0.02375900 0.03791499
v 0.00000004 0.03750000 -0.03850000
v 0.00000005 0.03750000 -0.04800000
v -0.00423396 0.03725900 -0.03826600
v -0.00689095 0.03686100 -0.04800001
v -0.00841696 0.03654300 -0.03756901
v -0.01354695 0.03496800 -0.04800001
v -0.01245496 0.03537100 -0.03642901
v -0.01626597 0.03378800 -0.03489502
v -0.01974095 0.03188300 -0.04800002
v -0.01978697 0.03185400 -0.03302602
v -0.02296697 0.02964400 -0.03089902
v -0.02526395 0.02771300 -0.04800003
v -0.02576597 0.02724600 -0.02860603
v -0.02820197 0.02471500 -0.02620803
v -0.02992595 0.02259900 -0.04800003
v -0.03224298 0.01914800 -0.02103803
v -0.03356895 0.01671500 -0.04800003
v -0.03510998 0.01317300 -0.01579604
v -0.03606795 0.01026200 -0.04800004
v -0.03610499 0.01013200 -0.01336604
v -0.03683399 0.00703500 -0.01120204
v -0.03733995 0.00346000 -0.04800004
v -0.03730999 0.00377200 -0.00949904
v -0.03744699 0.00198500 -0.00894104
v -0.03749999 0.00000000 -0.00871804
v -0.03733995 -0.00346000 -0.04800004
v -0.03744699 -0.00198500 -0.00894104
v -0.03730999 -0.00377200 -0.00949904
v -0.03683399 -0.00703500 -0.01120204
v -0.03606795 -0.01026200 -0.04800004
v -0.03610499 -0.01013200 -0.01336604
v -0.03510998 -0.01317300 -0.01579604
v -0.03356895 -0.01671500 -0.04800003
v -0.03224298 -0.01914800 -0.02103803
v -0.02992595 -0.02259900 -0.04800003
v -0.02820197 -0.02471500 -0.02620803
v -0.02526395 -0.02771300 -0.04800003
v -0.02576597 -0.02724600 -0.02860603
v -0.02296697 -0.02964400 -0.03089902
v -0.01974095 -0.03188300 -0.04800002
v -0.01978697 -0.03185400 -0.03302602
v -0.01626597 -0.03378800 -0.03489502
v -0.01354695 -0.03496800 -0.04800001
v -0.01245496 -0.03537100 -0.03642901
v -0.00841696 -0.03654300 -0.03756901
v -0.00689095 -0.03686100 -0.04800001
v -0.00423396 -0.03725900 -0.03826600
v -0.00689095 -0.03686100 -0.04800001
v -0.00652295 -0.03489600 -0.04800001
v 0.00000005 -0.03750000 -0.04800000
v 0.00000005 -0.03550000 -0.04800000
v 0.00652305 -0.03489600 -0.04799999
v -0.01282395 -0.03310300 -0.04800001
v -0.01354695 -0.03496800 -0.04800001
v -0.01868795 -0.03018300 -0.04800002
v -0.01974095 -0.03188300 -0.04800002
v -0.02391595 -0.02623500 -0.04800002
v -0.02526395 -0.02771300 -0.04800003
v -0.02832995 -0.02139400 -0.04800003
v -0.02992595 -0.02259900 -0.04800003
v -0.03177795 -0.01582400 -0.04800003
v -0.03356895 -0.01671500 -0.04800003
v -0.03414495 -0.00971500 -0.04800003
v -0.03606795 -0.01026200 -0.04800004
v -0.03534895 -0.00327600 -0.04800004
v -0.03733995 -0.00346000 -0.04800004
v -0.03733995 0.00346000 -0.04800004
v -0.03534895 0.00327600 -0.04800004
v -0.03606795 0.01026200 -0.04800004
v -0.03414495 0.00971500 -0.04800003
v -0.03356895 0.01671500 -0.04800003
v -0.03177795 0.01582400 -0.04800003
v -0.02992595 0.02259900 -0.04800003
v -0.02832995 0.02139400 -0.04800003
v -0.02526395 0.02771300 -0.04800003
v -0.02391595 0.02623500 -0.04800002
v -0.01974095 0.03188300 -0.04800002
v -0.01868795 0.03018300 -0.04800002
v -0.01354695 0.03496800 -0.04800001
v -0.01282395 0.03310300 -0.04800001
v -0.00689095 0.03686100 -0.04800001
v -0.00652295 0.03489600 -0.04800001
v 0.00000005 0.03750000 -0.04800000
v 0.00000005 0.03550000 -0.04800000
v 0.00652305 0.03489600 -0.04799999
v 0.00689105 0.03686100 -0.04799999
v 0.01282405 0.03310300 -0.04799999
v 0.01354705 0.03496800 -0.04799999
v 0.01868805 0.03018300 -0.04799998
v 0.01974105 0.03188300 -0.04799998
v 0.02391605 0.02623500 -0.04799998
v 0.02526405 0.02771300 -0.04799997
v 0.02833005 0.02139400 -0.04799997
v 0.02992605 0.02259900 -0.04799997
v 0.03177805 0.01582400 -0.04799997
v 0.03356905 0.01671500 -0.04799997
v 0.03414505 0.00971500 -0.04799997
v 0.03606805 0.01026200 -0.04799996
v 0.03534905 0.00327600 -0.04799996
v 0.03734005 0.00346000 -0.04799996
v 0.03734005 -0.00346000 -0.04799996
v 0.03534905 -0.00327600 -0.04799996
v 0.03606805 -0.01026200 -0.04799996
v 0.03414505 -0.00971500 -0.04799997
v 0.03356905 -0.01671500 -0.04799997
v 0.03177805 -0.01582400 -0.04799997
v 0.02992605 -0.02259900 -0.04799997
v 0.02833005 -0.02139400 -0.04799997
v 0.02526405 -0.02771300 -0.04799997
v 0.02391605 -0.02623500 -0.04799998
v 0.01974105 -0.03188300 -0.04799998
v 0.01868805 -0.03018300 -0.04799998
v 0.01354705 -0.03496800 -0.04799999
v 0.01282405 -0.03310300 -0.04799999
v 0.00689105 -0.03686100 -0.04799999
v 0.00000005 -0.03550000 -0.04800000
v 0.00000004 -0.03550000 -0.04200000
v 0.00652305 -0.03489600 -0.04799999
v 0.00652304 -0.03489600 -0.04199999
v 0.01282404 -0.03310300 -0.04199999
v 0.01282405 -0.03310300 -0.04799999
v 0.01868804 -0.03018300 -0.04199998
v 0.01868805 -0.03018300 -0.04799998
v 0.02391604 -0.02623500 -0.04199998
v 0.02391605 -0.02623500 -0.04799998
v 0.02833004 -0.02139400 -0.04199997
v 0.02833005 -0.02139400 -0.04799997
v 0.03177804 -0.01582400 -0.04199997
v 0.03177805 -0.01582400 -0.04799997
v 0.03414504 -0.00971500 -0.04199997
v 0.03414505 -0.00971500 -0.04799997
v 0.03534904 -0.00327600 -0.04199996
v 0.03534905 -0.00327600 -0.04799996
v 0.03534904 0.00327600 -0.04199996
v 0.03534905 0.00327600 -0.04799996
v 0.03414504 0.00971500 -0.04199997
v 0.03414505 0.00971500 -0.04799997
v 0.03177804 0.01582400 -0.04199997
v 0.03177805 0.01582400 -0.04799997
v 0.02833004 0.02139400 -0.04199997
v 0.02833005 0.02139400 -0.04799997
v 0.02391604 0.02623500 -0.04199998
v 0.02391605 0.02623500 -0.04799998
v 0.01868804 0.03018300 -0.04199998
v 0.01868805 0.03018300 -0.04799998
v 0.01282404 0.03310300 -0.04199999
v 0.01282405 0.03310300 -0.04799999
v 0.00652304 0.03489600 -0.04199999
v 0.00652305 0.03489600 -0.04799999
v 0.00652304 0.03489600 -0.04199999
v 0.00652304 -0.03489600 -0.04199999
v 0.00000004 0.03550000 -0.04200000
v 0.00000004 -0.03550000 -0.04200000
v -0.00652296 0.03489600 -0.04200001
v -0.00652296 -0.03489600 -0.04200001
v -0.01282396 0.03310300 -0.04200001
v -0.01282396 -0.03310300 -0.04200001
v -0.01868796 0.03018300 -0.04200002
v -0.01868796 -0.03018300 -0.04200002
v -0.02391596 0.02623500 -0.04200002
v -0.02391596 -0.02623500 -0.04200002
v -0.02832996 0.02139400 -0.04200003
v -0.02832996 -0.02139400 -0.04200003
v -0.03177796 0.01582400 -0.04200003
v -0.03177796 -0.01582400 -0.04200003
v -0.03414496 0.00971500 -0.04200003
v -0.03414496 -0.00971500 -0.04200003
v -0.03534896 0.00327600 -0.04200004
v -0.03534896 -0.00327600 -0.04200004
v 0.01282404 -0.03310300 -0.04199999
v 0.01282404 0.03310300 -0.04199999
v 0.01868804 -0.03018300 -0.04199998
v 0.01868804 0.03018300 -0.04199998
v 0.02391604 -0.02623500 -0.04199998
v 0.02391604 0.02623500 -0.04199998
v 0.02833004 -0.02139400 -0.04199997
v 0.02833004 0.02139400 -0.04199997
v 0.03177804 -0.01582400 -0.04199997
v 0.03177804 0.01582400 -0.04199997
v 0.03414504 -0.00971500 -0.04199997
v 0.03414504 0.00971500 -0.04199997
v 0.03534904 -0.00327600 -0.04199996
v 0.03534904 0.00327600 -0.04199996
v -0.00707396 0.04930000 -0.03784401
v -0.00703796 0.04930000 -0.03764801
v 0.00000004 0.04930000 -0.03850000
v 0.00000004 0.04930000 -0.03830000
v 0.00703804 0.04930000 -0.03764799
v -0.01383596 0.04930000 -0.03571401
v -0.01390796 0.04930000 -0.03590001
v -0.02016197 0.04930000 -0.03256302
v -0.02026797 0.04930000 -0.03273302
v -0.02580297 0.04930000 -0.02830403
v -0.02593697 0.04930000 -0.02845203
v -0.03056398 0.04930000 -0.02308103
v -0.03072398 0.04930000 -0.02320103
v -0.03428498 0.04930000 -0.01707203
v -0.03446398 0.04930000 -0.01716103
v -0.03683799 0.04930000 -0.01048104
v -0.03702999 0.04930000 -0.01053604
v -0.03813700 0.04930000 -0.00353404
v -0.03833600 0.04930000 -0.00355204
v -0.03833600 0.04930000 0.00355196
v -0.03813700 0.04930000 0.00353396
v -0.03703001 0.04930000 0.01053596
v -0.03683801 0.04930000 0.01048096
v -0.03446402 0.04930000 0.01716097
v -0.03428502 0.04930000 0.01707197
v -0.03072402 0.04930000 0.02320097
v -0.03056402 0.04930000 0.02308097
v -0.02593703 0.04930000 0.02845197
v -0.02580303 0.04930000 0.02830397
v -0.02026803 0.04930000 0.03273298
v -0.02016203 0.04930000 0.03256298
v -0.01390804 0.04930000 0.03589999
v -0.01383604 0.04930000 0.03571399
v -0.00707404 0.04930000 0.03784399
v -0.00703804 0.04930000 0.03764799
v -0.00000004 0.04930000 0.03850000
v -0.00000004 0.04930000 0.03830000
v 0.00703796 0.04930000 0.03764801
v 0.00707396 0.04930000 0.03784401
v 0.01383596 0.04930000 0.03571401
v 0.01390796 0.04930000 0.03590001
v 0.02016197 0.04930000 0.03256302
v 0.02026797 0.04930000 0.03273302
v 0.02580297 0.04930000 0.02830403
v 0.02593697 0.04930000 0.02845203
v 0.03056398 0.04930000 0.02308103
v 0.03072398 0.04930000 0.02320103
v 0.03428498 0.04930000 0.01707203
v 0.03446398 0.04930000 0.01716103
v 0.03683799 0.04930000 0.01048104
v 0.03702999 0.04930000 0.01053604
v 0.03813700 0.04930000 0.00353404
v 0.03833600 0.04930000 0.00355204
v 0.03813700 0.04930000 -0.00353396
v 0.03833600 0.04930000 -0.00355196
v 0.03703001 0.04930000 -0.01053596
v 0.03683801 0.04930000 -0.01048096
v 0.03446402 0.04930000 -0.01716097
v 0.03428502 0.04930000 -0.01707197
v 0.03072402 0.04930000 -0.02320097
v 0.03056402 0.04930000 -0.02308097
v 0.02593703 0.04930000 -0.02845197
v 0.02580303 0.04930000 -0.02830397
v 0.02026803 0.04930000 -0.03273298
v 0.02016203 0.04930000 -0.03256298
v 0.01390804 0.04930000 -0.03589999
v 0.01383604 0.04930000 -0.03571399
v 0.00707404 0.04930000 -0.03784399
v 0.00668504 -0.04407700 -0.03791499
v 0.00665104 -0.04402500 -0.03771799
v 0.00000004 -0.04423400 -0.03850000
v 0.00000004 -0.04418100 -0.03830000
v -0.00668496 -0.04407700 -0.03791501
v -0.00665096 -0.04402500 -0.03771801
v -0.01309896 -0.04356200 -0.03599001
v 0.01309904 -0.04356200 -0.03598999
v 0.01316804 -0.04361200 -0.03617799
v 0.01915003 -0.04280600 -0.03316898
v 0.01925003 -0.04285200 -0.03334198
v 0.02461903 -0.04178000 -0.02933998
v 0.02474703 -0.04182100 -0.02949298
v 0.02934002 -0.04051500 -0.02461897
v 0.02949302 -0.04054900 -0.02474697
v 0.03316902 -0.03904900 -0.01914997
v 0.03334202 -0.03907600 -0.01924997
v 0.03599001 -0.03742800 -0.01309896
v 0.03617801 -0.03744600 -0.01316796
v 0.03771801 -0.03570000 -0.00665096
v 0.03791501 -0.03570900 -0.00668496
v 0.03830000 -0.03391800 0.00000004
v 0.03850000 -0.03391800 0.00000004
v 0.03791499 -0.03212700 0.00668504
v 0.03771799 -0.03213600 0.00665104
v 0.03617799 -0.03039000 0.01316804
v 0.03598999 -0.03040800 0.01309904
v 0.03334198 -0.02876000 0.01925003
v 0.03316898 -0.02878700 0.01915003
v 0.02949298 -0.02728700 0.02474703
v 0.02933998 -0.02732200 0.02461903
v 0.02474697 -0.02601600 0.02949302
v 0.02461897 -0.02605700 0.02934002
v 0.01924997 -0.02498400 0.03334202
v 0.01914997 -0.02503100 0.03316902
v 0.01316796 -0.02422400 0.03617801
v 0.01309896 -0.02427500 0.03599001
v 0.00668496 -0.02375900 0.03791501
v 0.00665096 -0.02381200 0.03771801
v -0.00000004 -0.02360200 0.03850000
v -0.00000004 -0.02365600 0.03830000
v -0.00665104 -0.02381200 0.03771799
v -0.00668504 -0.02375900 0.03791499
v -0.01309904 -0.02427500 0.03598999
v -0.01316804 -0.02422400 0.03617799
v -0.01915003 -0.02503100 0.03316898
v -0.01925003 -0.02498400 0.03334198
v -0.02461903 -0.02605700 0.02933998
v -0.02474703 -0.02601600 0.02949298
v -0.02934002 -0.02732200 0.02461897
v -0.02949302 -0.02728700 0.02474697
v -0.03316902 -0.02878700 0.01914997
v -0.03334202 -0.02876000 0.01924997
v -0.03599001 -0.03040800 0.01309896
v -0.03617801 -0.03039000 0.01316796
v -0.03771801 -0.03213600 0.00665096
v -0.03791501 -0.03212700 0.00668496
v -0.03830000 -0.03391800 -0.00000004
v -0.03850000 -0.03391800 -0.00000004
v -0.03791499 -0.03570900 -0.00668504
v -0.03771799 -0.03570000 -0.00665104
v -0.03617799 -0.03744600 -0.01316804
v -0.03598999 -0.03742800 -0.01309904
v -0.03334198 -0.03907600 -0.01925003
v -0.03316898 -0.03904900 -0.01915003
v -0.02949298 -0.04054900 -0.02474703
v -0.02933998 -0.04051500 -0.02461903
v -0.02474697 -0.04182100 -0.02949302
v -0.02461897 -0.04178000 -0.02934002
v -0.01924997 -0.04285200 -0.03334202
v -0.01914997 -0.04280600 -0.03316902
v -0.01316796 -0.04361200 -0.03617801
vn -100.00000000 0.00000000 0.00000000
vn -98.29731000 18.37495000 0.00000000
vn -100.00000000 0.00000000 0.00000000
vn -98.29731000 18.37495000 0.00000000
vn -93.24722000 36.12417000 0.00000000
vn -93.24722000 36.12417000 0.00000000
vn -85.02171000 52.64322000 0.00000000
vn -85.02171000 52.64322000 0.00000000
vn -73.90089000 67.36957000 0.00000000
vn -73.90089000 67.36957000 0.00000000
vn -60.26346000 79.80172000 0.00000000
vn -60.26346000 79.80172000 0.00000000
vn -44.57384000 89.51633000 0.00000000
vn -44.57384000 89.51633000 0.00000000
vn -27.36630000 96.18256000 0.00000000
vn -27.36630000 96.18256000 0.00000000
vn -9.22684000 99.57342000 0.00000000
vn -9.22684000 99.57342000 0.00000000
vn 9.22684000 99.57342000 0.00000000
vn 9.22684000 99.57342000 0.00000000
vn 27.36630000 96.18256000 0.00000000
vn 27.36630000 96.18256000 0.00000000
vn 44.57384000 89.51633000 0.00000000
vn 44.57384000 89.51633000 0.00000000
vn 60.26346000 79.80172000 0.00000000
vn 60.26346000 79.80172000 0.00000000
vn 73.90089000 67.36957000 0.00000000
vn 73.90089000 67.36957000 0.00000000
vn 85.02171000 52.64322000 0.00000000
vn 85.02171000 52.64322000 0.00000000
vn 93.24722000 36.12417000 0.00000000
vn 93.24722000 36.12417000 0.00000000
vn 98.29731000 18.37495000 0.00000000
vn 98.29731000 18.37495000 0.00000000
vn 100.00000000 0.00000000 0.00000000
vn 100.00000000 0.00000000 0.00000000
vn -100.00000000 0.00000000 0.00000000
vn -100.00000000 0.00000000 0.00000000
vn -99.36041000 11.29194000 0.00000000
vn -98.29731000 18.37495000 0.00000000
vn -97.44836000 22.44586000 0.00000000
vn -93.24722000 36.12417000 0.00000000
vn -94.32323000 33.21339000 0.00000000
vn -90.10313000 43.37542000 0.00000000
vn -85.02171000 52.64322000 0.00000000
vn -84.94569000 52.76579000 0.00000000
vn -79.05106000 61.24483000 0.00000000
vn -73.90089000 67.36957000 0.00000000
vn -72.65540000 68.71094000 0.00000000
vn -65.90860000 75.20676000 0.00000000
vn -60.26346000 79.80172000 0.00000000
vn -51.06084000 85.98134000 0.00000000
vn -44.57384000 89.51633000 0.00000000
vn -35.12700000 93.62743000 0.00000000
vn -27.36630000 96.18256000 0.00000000
vn -27.01829000 96.28090000 0.00000000
vn -18.75966000 98.22462000 0.00000000
vn -9.22684000 99.57342000 0.00000000
vn -10.05899000 99.49280000 0.00000000
vn -5.29224000 99.85986000 0.00000000
vn -0.00000000 100.00000000 0.00000000
vn 9.22684000 99.57342000 0.00000000
vn 5.29224000 99.85986000 0.00000000
vn 10.05899000 99.49280000 0.00000000
vn 18.75966000 98.22462000 0.00000000
vn 27.36630000 96.18256000 0.00000000
vn 27.01829000 96.28090000 0.00000000
vn 35.12700000 93.62743000 0.00000000
vn 44.57384000 89.51633000 0.00000000
vn 51.06084000 85.98134000 0.00000000
vn 60.26346000 79.80172000 0.00000000
vn 65.90860000 75.20676000 0.00000000
vn 73.90089000 67.36957000 0.00000000
vn 72.65540000 68.71094000 0.00000000
vn 79.05106000 61.24483000 0.00000000
vn 85.02171000 52.64322000 0.00000000
vn 84.94569000 52.76579000 0.00000000
vn 90.10313000 43.37542000 0.00000000
vn 93.24722000 36.12417000 0.00000000
vn 94.32323000 33.21339000 0.00000000
vn 97.44836000 22.44586000 0.00000000
vn 98.29731000 18.37495000 0.00000000
vn 99.36041000 11.29194000 0.00000000
vn 100.00000000 0.00000000 0.00000000
vn 100.00000000 0.00000000 0.00000000
vn 0.00000000 0.00000000 -100.00000000
vn 0.00000000 17.36482000 -98.48077000
vn 0.00000000 0.00000000 -100.00000000
vn 0.00000000 18.37495000 -98.29731000
vn 0.00000000 34.20202000 -93.96926000
vn 0.00000000 36.12417000 -93.24722000
vn 0.00000000 50.00000000 -86.60254000
vn 0.00000000 52.64322000 -85.02171000
vn 0.00000000 64.27876000 -76.60445000
vn 0.00000000 67.36957000 -73.90089000
vn 0.00000000 76.60445000 -64.27876000
vn 0.00000000 79.80172000 -60.26346000
vn 0.00000000 86.60254000 -50.00000000
vn 0.00000000 89.51633000 -44.57384000
vn 0.00000000 93.96926000 -34.20202000
vn 0.00000000 96.18256000 -27.36630000
vn 0.00000000 98.48077000 -17.36482000
vn 0.00000000 99.57342000 -9.22684000
vn -0.00000000 100.00000000 0.00000000
vn 0.00000000 99.57342000 9.22684000
vn 0.00000000 98.48077000 17.36482000
vn 0.00000000 97.40260000 22.64363000
vn 0.00000000 97.26611000 23.22290000
vn 0.00000000 96.90862000 24.67225000
vn 0.00000000 93.96926000 34.20202000
vn 0.00000000 95.67374000 29.09526000
vn 0.00000000 93.78038000 34.71656000
vn 0.00000000 91.19572000 41.02853000
vn 0.00000000 86.60254000 50.00000000
vn 0.00000000 83.74876000 54.64563000
vn 0.00000000 76.60445000 64.27876000
vn 0.00000000 73.25365000 68.07278000
vn 0.00000000 64.27876000 76.60445000
vn 0.00000000 66.92622000 74.30263000
vn 0.00000000 59.65403000 80.25832000
vn 0.00000000 50.00000000 86.60254000
vn 0.00000000 51.39524000 85.78187000
vn 0.00000000 42.24878000 90.63686000
vn 0.00000000 34.20202000 93.96926000
vn 0.00000000 32.35069000 94.62258000
vn 0.00000000 21.86285000 97.58082000
vn 0.00000000 17.36482000 98.48077000
vn 0.00000000 10.99864000 99.39331000
vn 0.00000000 0.00000000 100.00000000
vn 0.00000000 0.00000000 100.00000000
vn 0.00000000 96.18256000 27.36630000
vn 0.00000000 97.26611000 23.22290000
vn 0.00000000 96.90862000 24.67225000
vn 0.00000000 95.67374000 29.09526000
vn 0.00000000 93.78038000 34.71656000
vn 0.00000000 89.51633000 44.57384000
vn 0.00000000 91.19572000 41.02853000
vn 0.00000000 83.74876000 54.64563000
vn 0.00000000 79.80172000 60.26346000
vn 0.00000000 73.25365000 68.07278000
vn 0.00000000 67.36957000 73.90089000
vn 0.00000000 66.92622000 74.30263000
vn 0.00000000 59.65403000 80.25832000
vn 0.00000000 52.64322000 85.02171000
vn 0.00000000 51.39524000 85.78187000
vn 0.00000000 42.24878000 90.63686000
vn 0.00000000 36.12417000 93.24722000
vn 0.00000000 32.35069000 94.62258000
vn 0.00000000 21.86285000 97.58082000
vn 0.00000000 18.37495000 98.29731000
vn 0.00000000 10.99864000 99.39331000
vn 0.00000000 0.00000000 100.00000000
vn 0.00000000 0.00000000 100.00000000
vn 0.00000000 0.00000000 100.00000000
vn 0.00000000 0.00000000 100.00000000
vn 0.00000000 -10.99864000 99.39331000
vn 0.00000000 -17.36482000 98.48077000
vn 0.00000000 -21.86285000 97.58082000
vn 0.00000000 -34.20202000 93.96926000
vn 0.00000000 -32.35069000 94.62258000
vn 0.00000000 -42.24878000 90.63686000
vn 0.00000000 -50.00000000 86.60254000
vn 0.00000000 -51.39524000 85.78187000
vn 0.00000000 -59.65403000 80.25832000
vn 0.00000000 -64.27876000 76.60445000
vn 0.00000000 -66.92622000 74.30263000
vn 0.00000000 -76.60445000 64.27876000
vn 0.00000000 -73.25365000 68.07278000
vn 0.00000000 -83.74876000 54.64563000
vn 0.00000000 -86.60254000 50.00000000
vn 0.00000000 -91.19572000 41.02853000
vn 0.00000000 -93.96926000 34.20202000
vn 0.00000000 -93.78038000 34.71656000
vn 0.00000000 -95.67374000 29.09526000
vn 0.00000000 -98.48077000 17.36482000
vn 0.00000000 -96.90862000 24.67225000
vn 0.00000000 -97.26611000 23.22290000
vn 0.00000000 -97.40260000 22.64363000
vn 0.00000000 -96.18256000 27.36630000
vn 0.00000000 -97.26611000 23.22290000
vn 0.00000000 -96.90862000 24.67225000
vn 0.00000000 -95.67374000 29.09526000
vn 0.00000000 -93.78038000 34.71656000
vn 0.00000000 -89.51633000 44.57384000
vn 0.00000000 -91.19572000 41.02853000
vn 0.00000000 -83.74876000 54.64563000
vn 0.00000000 -79.80172000 60.26346000
vn 0.00000000 -73.25365000 68.07278000
vn 0.00000000 -67.36957000 73.90089000
vn 0.00000000 -66.92622000 74.30263000
vn 0.00000000 -59.65403000 80.25832000
vn 0.00000000 -52.64322000 85.02171000
vn 0.00000000 -51.39524000 85.78187000
vn 0.00000000 -42.24878000 90.63686000
vn 0.00000000 -36.12417000 93.24722000
vn 0.00000000 -32.35069000 94.62258000
vn 0.00000000 -18.37495000 98.29731000
vn 0.00000000 -21.86285000 97.58082000
vn 0.00000000 -10.99864000 99.39331000
vn 0.00000000 0.00000000 100.00000000
vn 0.00000000 0.00000000 100.00000000
vn 0.00000000 -99.57342000 9.22684000
vn 0.00000000 -100.00000000 0.00000000
vn 0.00000000 -99.57342000 -9.22684000
vn 0.00000000 -98.48077000 -17.36482000
vn 0.00000000 -96.18256000 -27.36630000
vn 0.00000000 -93.96926000 -34.20202000
vn 0.00000000 -89.51633000 -44.57384000
vn 0.00000000 -86.60254000 -50.00000000
vn 0.00000000 -79.80172000 -60.26346000
vn 0.00000000 -76.60445000 -64.27876000
vn 0.00000000 -67.36957000 -73.90089000
vn 0.00000000 -64.27876000 -76.60445000
vn 0.00000000 -52.64322000 -85.02171000
vn 0.00000000 -50.00000000 -86.60254000
vn 0.00000000 -36.12417000 -93.24722000
vn 0.00000000 -34.20202000 -93.96926000
vn 0.00000000 -18.37495000 -98.29731000
vn 0.00000000 -17.36482000 -98.48077000
vn 100.00000000 0.00000000 0.00000000
vn 100.00000000 0.00000000 0.00000000
vn 99.36041000 -11.29194000 0.00000000
vn 98.29731000 -18.37495000 0.00000000
vn 97.44836000 -22.44586000 0.00000000
vn 93.24722000 -36.12417000 0.00000000
vn 94.32323000 -33.21339000 0.00000000
vn 90.10313000 -43.37542000 0.00000000
vn 85.02171000 -52.64322000 0.00000000
vn 84.94569000 -52.76579000 0.00000000
vn 79.05106000 -61.24483000 0.00000000
vn 73.90089000 -67.36957000 0.00000000
vn 72.65540000 -68.71094000 0.00000000
vn 65.90860000 -75.20676000 0.00000000
vn 60.26346000 -79.80172000 0.00000000
vn 51.06084000 -85.98134000 0.00000000
vn 44.57384000 -89.51633000 0.00000000
vn 35.12700000 -93.62743000 0.00000000
vn 27.36630000 -96.18256000 0.00000000
vn 27.01829000 -96.28090000 0.00000000
vn 18.75966000 -98.22462000 0.00000000
vn 9.22684000 -99.57342000 0.00000000
vn 10.05899000 -99.49280000 0.00000000
vn 5.29224000 -99.85986000 0.00000000
vn 0.00000000 -100.00000000 0.00000000
vn -9.22684000 -99.57342000 0.00000000
vn -5.29224000 -99.85986000 0.00000000
vn -10.05899000 -99.49280000 0.00000000
vn -18.75966000 -98.22462000 0.00000000
vn -27.36630000 -96.18256000 0.00000000
vn -27.01829000 -96.28090000 0.00000000
vn -35.12700000 -93.62743000 0.00000000
vn -44.57384000 -89.51633000 0.00000000
vn -51.06084000 -85.98134000 0.00000000
vn -60.26346000 -79.80172000 0.00000000
vn -65.90860000 -75.20676000 0.00000000
vn -73.90089000 -67.36957000 0.00000000
vn -72.65540000 -68.71094000 0.00000000
vn -79.05106000 -61.24483000 0.00000000
vn -85.02171000 -52.64322000 0.00000000
vn -84.94569000 -52.76579000 0.00000000
vn -90.10313000 -43.37542000 0.00000000
vn -93.24722000 -36.12417000 0.00000000
vn -94.32323000 -33.21339000 0.00000000
vn -97.44836000 -22.44586000 0.00000000
vn -98.29731000 -18.37495000 0.00000000
vn -99.36041000 -11.29194000 0.00000000
vn 0.00000000 0.00000000 100.00000000
vn 0.00000000 0.00000000 100.00000000
vn 0.00000000 0.00000000 100.00000000
vn 0.00000000 0.00000000 100.00000000
vn 0.00000000 0.00000000 100.00000000
vn 0.00000000 0.00000000 100.00000000
vn 0.00000000 0.00000000 100.00000000
vn 0.00000000 0.00000000 100.00000000
vn 0.00000000 0.00000000 100.00000000
vn 0.00000000 0.00000000 100.00000000
vn 0.00000000 0.00000000 100.00000000
vn 0.00000000 0.00000000 100.00000000
vn 0.00000000 0.00000000 100.00000000
vn 0.00000000 0.00000000 100.00000000
vn 0.00000000 0.00000000 100.00000000
vn 0.00000000 0.00000000 100.00000000
vn 0.00000000 0.00000000 100.00000000
vn 0.00000000 0.00000000 100.00000000
vn 0.00000000 0.00000000 100.00000000
vn 0.00000000 0.00000000 100.00000000
vn 0.00000000 0.00000000 100.00000000
vn 0.00000000 0.00000000 100.00000000
vn 0.00000000 0.00000000 100.00000000
vn 0.00000000 0.00000000 100.00000000
vn 0.00000000 0.00000000 100.00000000
vn 0.00000000 0.00000000 100.00000000
vn 0.00000000 0.00000000 100.00000000
vn 0.00000000 0.00000000 100.00000000
vn 0.00000000 0.00000000 100.00000000
vn 0.00000000 0.00000000 100.00000000
vn 0.00000000 0.00000000 100.00000000
vn 0.00000000 0.00000000 100.00000000
vn 0.00000000 0.00000000 100.00000000
vn 0.00000000 0.00000000 100.00000000
vn 0.00000000 0.00000000 100.00000000
vn 0.00000000 0.00000000 100.00000000
vn 0.00000000 0.00000000 100.00000000
vn 0.00000000 0.00000000 100.00000000
vn 0.00000000 0.00000000 100.00000000
vn 0.00000000 0.00000000 100.00000000
vn 0.00000000 0.00000000 100.00000000
vn 0.00000000 0.00000000 100.00000000
vn 0.00000000 0.00000000 100.00000000
vn 0.00000000 0.00000000 100.00000000
vn 0.00000000 0.00000000 100.00000000
vn 0.00000000 0.00000000 100.00000000
vn 0.00000000 0.00000000 100.00000000
vn 0.00000000 0.00000000 100.00000000
vn 0.00000000 0.00000000 100.00000000
vn 0.00000000 0.00000000 100.00000000
vn 0.00000000 0.00000000 100.00000000
vn 0.00000000 0.00000000 100.00000000
vn 0.00000000 0.00000000 100.00000000
vn 0.00000000 0.00000000 100.00000000
vn 0.00000000 0.00000000 100.00000000
vn 0.00000000 0.00000000 100.00000000
vn 0.00000000 0.00000000 100.00000000
vn 0.00000000 0.00000000 100.00000000
vn 0.00000000 0.00000000 100.00000000
vn 0.00000000 0.00000000 100.00000000
vn 0.00000000 0.00000000 100.00000000
vn 0.00000000 0.00000000 100.00000000
vn 0.00000000 0.00000000 100.00000000
vn 0.00000000 0.00000000 100.00000000
vn 0.00000000 0.00000000 100.00000000
vn 0.00000000 0.00000000 100.00000000
vn 0.00000000 0.00000000 100.00000000
vn 0.00000000 0.00000000 100.00000000
vn 100.00000000 0.00000000 0.00000000
vn 100.00000000 0.00000000 0.00000000
vn 98.29731000 -18.37495000 0.00000000
vn 98.29731000 -18.37495000 0.00000000
vn 93.24722000 -36.12417000 0.00000000
vn 93.24722000 -36.12417000 0.00000000
vn 85.02171000 -52.64322000 0.00000000
vn 85.02171000 -52.64322000 0.00000000
vn 73.90089000 -67.36957000 0.00000000
vn 73.90089000 -67.36957000 0.00000000
vn 60.26346000 -79.80172000 0.00000000
vn 60.26346000 -79.80172000 0.00000000
vn 44.57384000 -89.51633000 0.00000000
vn 44.57384000 -89.51633000 0.00000000
vn 27.36630000 -96.18256000 0.00000000
vn 27.36630000 -96.18256000 0.00000000
vn 9.22684000 -99.57342000 0.00000000
vn 9.22684000 -99.57342000 0.00000000
vn -9.22684000 -99.57342000 0.00000000
vn -9.22684000 -99.57342000 0.00000000
vn -27.36630000 -96.18256000 0.00000000
vn -27.36630000 -96.18256000 0.00000000
vn -44.57384000 -89.51633000 0.00000000
vn -44.57384000 -89.51633000 0.00000000
vn -60.26346000 -79.80172000 0.00000000
vn -60.26346000 -79.80172000 0.00000000
vn -73.90089000 -67.36957000 0.00000000
vn -73.90089000 -67.36957000 0.00000000
vn -85.02171000 -52.64322000 0.00000000
vn -85.02171000 -52.64322000 0.00000000
vn -93.24722000 -36.12417000 0.00000000
vn -93.24722000 -36.12417000 0.00000000
vn -98.29731000 -18.37495000 0.00000000
vn -98.29731000 -18.37495000 0.00000000
vn 0.00000000 0.00000000 100.00000000
vn 0.00000000 0.00000000 100.00000000
vn 0.00000000 0.00000000 100.00000000
vn 0.00000000 0.00000000 100.00000000
vn 0.00000000 0.00000000 100.00000000
vn 0.00000000 0.00000000 100.00000000
vn 0.00000000 0.00000000 100.00000000
vn 0.00000000 0.00000000 100.00000000
vn 0.00000000 0.00000000 100.00000000
vn 0.00000000 0.00000000 100.00000000
vn 0.00000000 0.00000000 100.00000000
vn 0.00000000 0.00000000 100.00000000
vn 0.00000000 0.00000000 100.00000000
vn 0.00000000 0.00000000 100.00000000
vn 0.00000000 0.00000000 100.00000000
vn 0.00000000 0.00000000 100.00000000
vn 0.00000000 0.00000000 100.00000000
vn 0.00000000 0.00000000 100.00000000
vn 0.00000000 0.00000000 100.00000000
vn 0.00000000 0.00000000 100.00000000
vn 0.00000000 0.00000000 100.00000000
vn 0.00000000 0.00000000 100.00000000
vn 0.00000000 0.00000000 100.00000000
vn 0.00000000 0.00000000 100.00000000
vn 0.00000000 0.00000000 100.00000000
vn 0.00000000 0.00000000 100.00000000
vn 0.00000000 0.00000000 100.00000000
vn 0.00000000 0.00000000 100.00000000
vn 0.00000000 0.00000000 100.00000000
vn 0.00000000 0.00000000 100.00000000
vn 0.00000000 0.00000000 100.00000000
vn 0.00000000 0.00000000 100.00000000
vn 0.00000000 0.00000000 100.00000000
vn 0.00000000 0.00000000 100.00000000
vn 100.00000000 0.00000000 0.00000000
vn 100.00000000 0.00000000 0.00000000
vn 100.00000000 0.00000000 0.00000000
vn 100.00000000 0.00000000 0.00000000
vn 100.00000000 0.00000000 0.00000000
vn 100.00000000 0.00000000 0.00000000
vn 100.00000000 0.00000000 0.00000000
vn 100.00000000 0.00000000 0.00000000
vn 100.00000000 0.00000000 0.00000000
vn 100.00000000 0.00000000 0.00000000
vn 100.00000000 0.00000000 0.00000000
vn 100.00000000 0.00000000 0.00000000
vn 100.00000000 0.00000000 0.00000000
vn 100.00000000 0.00000000 0.00000000
vn 100.00000000 0.00000000 0.00000000
vn 100.00000000 0.00000000 0.00000000
vn 100.00000000 0.00000000 0.00000000
vn 100.00000000 0.00000000 0.00000000
vn 100.00000000 0.00000000 0.00000000
vn 100.00000000 0.00000000 0.00000000
vn 100.00000000 0.00000000 0.00000000
vn 100.00000000 0.00000000 0.00000000
vn 100.00000000 0.00000000 0.00000000
vn 100.00000000 0.00000000 0.00000000
vn 100.00000000 0.00000000 0.00000000
vn 100.00000000 0.00000000 0.00000000
vn 100.00000000 0.00000000 0.00000000
vn 100.00000000 0.00000000 0.00000000
vn 100.00000000 0.00000000 0.00000000
vn 100.00000000 0.00000000 0.00000000
vn 100.00000000 0.00000000 0.00000000
vn 100.00000000 0.00000000 0.00000000
vn 100.00000000 0.00000000 0.00000000
vn 100.00000000 0.00000000 0.00000000
vn 100.00000000 0.00000000 0.00000000
vn 100.00000000 0.00000000 0.00000000
vn 100.00000000 0.00000000 0.00000000
vn 100.00000000 0.00000000 0.00000000
vn 100.00000000 0.00000000 0.00000000
vn 100.00000000 0.00000000 0.00000000
vn 100.00000000 0.00000000 0.00000000
vn 100.00000000 0.00000000 0.00000000
vn 100.00000000 0.00000000 0.00000000
vn 100.00000000 0.00000000 0.00000000
vn 100.00000000 0.00000000 0.00000000
vn 100.00000000 0.00000000 0.00000000
vn 100.00000000 0.00000000 0.00000000
vn 100.00000000 0.00000000 0.00000000
vn 100.00000000 0.00000000 0.00000000
vn 100.00000000 0.00000000 0.00000000
vn 100.00000000 0.00000000 0.00000000
vn 100.00000000 0.00000000 0.00000000
vn 100.00000000 0.00000000 0.00000000
vn 100.00000000 0.00000000 0.00000000
vn 100.00000000 0.00000000 0.00000000
vn 100.00000000 0.00000000 0.00000000
vn 100.00000000 0.00000000 0.00000000
vn 100.00000000 0.00000000 0.00000000
vn 100.00000000 0.00000000 0.00000000
vn 100.00000000 0.00000000 0.00000000
vn 100.00000000 0.00000000 0.00000000
vn 100.00000000 0.00000000 0.00000000
vn 100.00000000 0.00000000 0.00000000
vn 100.00000000 0.00000000 0.00000000
vn 100.00000000 0.00000000 0.00000000
vn 100.00000000 0.00000000 0.00000000
vn 100.00000000 0.00000000 0.00000000
vn 100.00000000 0.00000000 0.00000000
vn -96.59258000 0.00000000 -25.88190000
vn -96.59258000 0.00000000 -25.88190000
vn -96.59258000 0.00000000 -25.88190000
vn -96.59258000 0.00000000 -25.88190000
vn -96.59258000 0.00000000 -25.88190000
vn -96.59258000 0.00000000 -25.88190000
vn -96.59258000 0.00000000 -25.88190000
vn -96.59258000 0.00000000 -25.88190000
vn -96.59258000 0.00000000 -25.88190000
vn -96.59258000 0.00000000 -25.88190000
vn -96.59258000 0.00000000 -25.88190000
vn -96.59258000 0.00000000 -25.88190000
vn -96.59258000 0.00000000 -25.88190000
vn -96.59258000 0.00000000 -25.88190000
vn -96.59258000 0.00000000 -25.88190000
vn -96.59258000 0.00000000 -25.88190000
vn -96.59258000 0.00000000 -25.88190000
vn -96.59258000 0.00000000 -25.88190000
vn -96.59258000 0.00000000 -25.88190000
vn -96.59258000 0.00000000 -25.88190000
vn -96.59258000 0.00000000 -25.88190000
vn -96.59258000 0.00000000 -25.88190000
vn -96.59258000 0.00000000 -25.88190000
vn -96.59258000 0.00000000 -25.88190000
vn -96.59258000 0.00000000 -25.88190000
vn -96.59258000 0.00000000 -25.88190000
vn -96.59258000 0.00000000 -25.88190000
vn -96.59258000 0.00000000 -25.88190000
vn -96.59258000 0.00000000 -25.88190000
vn -96.59258000 0.00000000 -25.88190000
vn -96.59258000 0.00000000 -25.88190000
vn -96.59258000 0.00000000 -25.88190000
vn -96.59258000 0.00000000 -25.88190000
vn -96.59258000 0.00000000 -25.88190000
vn -96.59258000 0.00000000 -25.88190000
vn -96.59258000 0.00000000 -25.88190000
vn -96.59258000 0.00000000 -25.88190000
vn -96.59258000 0.00000000 -25.88190000
vn -96.59258000 0.00000000 -25.88190000
vn -96.59258000 0.00000000 -25.88190000
vn -96.59258000 0.00000000 -25.88190000
vn -96.59258000 0.00000000 -25.88190000
vn -96.59258000 0.00000000 -25.88190000
vn -96.59258000 0.00000000 -25.88190000
vn -96.59258000 0.00000000 -25.88190000
vn -96.59258000 0.00000000 -25.88190000
vn -96.59258000 0.00000000 -25.88190000
vn -96.59258000 0.00000000 -25.88190000
vn -96.59258000 0.00000000 -25.88190000
vn -96.59258000 0.00000000 -25.88190000
vn -96.59258000 0.00000000 -25.88190000
vn -96.59258000 0.00000000 -25.88190000
vn -96.59258000 0.00000000 -25.88190000
vn -96.59258000 0.00000000 -25.88190000
vn -96.59258000 0.00000000 -25.88190000
vn -96.59258000 0.00000000 -25.88190000
vn -96.59258000 0.00000000 -25.88190000
vn -96.59258000 0.00000000 -25.88190000
vn -96.59258000 0.00000000 -25.88190000
vn -96.59258000 0.00000000 -25.88190000
vn -96.59258000 0.00000000 -25.88190000
vn -96.59258000 0.00000000 -25.88190000
vn -96.59258000 0.00000000 -25.88190000
vn -96.59258000 0.00000000 -25.88190000
vn -96.59258000 0.00000000 -25.88190000
vn -96.59258000 0.00000000 -25.88190000
vn -96.59258000 0.00000000 -25.88190000
vn -96.59258000 0.00000000 -25.88190000
vn -96.59258000 0.00000000 -25.88190000
vn -96.59258000 0.00000000 -25.88190000
vn -96.59258000 0.00000000 -25.88190000
vn -96.59258000 0.00000000 -25.88190000
vt 0.00000000 0.00000000
vt 0.00000000 -0.65604000
vt 0.60000000 0.00000000
vt 0.60000000 -0.65604000
vt 0.00000000 -1.31208000
vt 0.60000000 -1.31208000
vt 0.00000000 -1.96812000
vt 0.60000000 -1.96812000
vt 0.00000000 -2.62415000
vt 0.60000000 -2.62415000
vt 0.00000000 -3.28019000
vt 0.60000000 -3.28019000
vt 0.00000000 -3.93623000
vt 0.60000000 -3.93623000
vt 0.00000000 -4.59227000
vt 0.60000000 -4.59227000
vt 0.00000000 -5.24831000
vt 0.60000000 -5.24831000
vt 0.00000000 -5.90435000
vt 0.60000000 -5.90435000
vt 0.00000000 -6.56038000
vt 0.60000000 -6.56038000
vt 0.00000000 -7.21642000
vt 0.60000000 -7.21642000
vt 0.00000000 -7.87246000
vt 0.60000000 -7.87246000
vt 0.00000000 -8.52850000
vt 0.60000000 -8.52850000
vt 0.00000000 -9.18454000
vt 0.60000000 -9.18454000
vt 0.00000000 -9.84058000
vt 0.60000000 -9.84058000
vt 0.00000000 -10.49662000
vt 0.60000000 -10.49662000
vt 0.60000000 -11.15265000
vt 0.00000000 -11.15265000
vt -0.95000000 0.00000000
vt 0.00000000 0.00000000
vt -0.97343000 0.42435000
vt -0.00000000 0.69300000
vt -1.04315000 0.84895000
vt -0.00000000 1.38600000
vt -1.15708000 1.26962000
vt -1.31050000 1.68246000
vt -0.00000000 2.07900000
vt -1.49743000 2.08440000
vt -1.71008000 2.47183000
vt -0.00000000 2.77199000
vt -1.93936000 2.84064000
vt -2.17924000 3.19198000
vt -0.00000000 3.46499000
vt -2.69617000 3.88089000
vt -0.00000000 4.15799000
vt -3.22040000 4.54451000
vt -0.00000000 4.85099000
vt -3.46341000 4.86455000
vt -3.67983000 5.18281000
vt -0.00000000 5.54399000
vt -3.85012000 5.51264000
vt -3.90592000 5.69193000
vt -3.92822000 5.89049000
vt -0.00000000 6.23698000
vt -3.90592000 6.08904000
vt -3.85012000 6.26834000
vt -3.67983000 6.59817000
vt -0.00000000 6.92998000
vt -3.46341000 6.91642000
vt -3.22040000 7.23646000
vt -0.00000000 7.62298000
vt -2.69617000 7.90008000
vt -0.00000000 8.31598000
vt -2.17924000 8.58900000
vt -0.00000000 9.00898000
vt -1.93936000 8.94034000
vt -1.71008000 9.30914000
vt -0.00000000 9.70198000
vt -1.49743000 9.69657000
vt -1.31050000 10.09852000
vt -0.00000000 10.39498000
vt -1.15708000 10.51135000
vt -1.04315000 10.93202000
vt -0.00000000 11.08797000
vt -0.97343000 11.35662000
vt -0.00000000 11.78097000
vt -0.95000000 11.78097000
vt -3.61980000 0.00000000
vt -3.60412000 0.67195000
vt -10.91000000 0.00000000
vt -10.91000000 0.71148000
vt -3.55758000 1.34390000
vt -10.91000000 1.42296000
vt -3.48159000 2.01586000
vt -10.91000000 2.13444000
vt -3.37844000 2.68781000
vt -10.91000000 2.84591000
vt -3.25129000 3.35976000
vt -10.91000000 3.55739000
vt -3.10399000 4.03171000
vt -10.91000000 4.26887000
vt -2.94102000 4.70366000
vt -10.91000000 4.98035000
vt -2.76733000 5.37561000
vt -10.91000000 5.69183000
vt -2.58819000 6.04757000
vt -10.91000000 6.40330000
vt -2.40905000 6.71952000
vt -5.98000000 6.92697000
vt -5.78154000 6.94988000
vt -5.60279000 7.00736000
vt -2.23536000 7.39147000
vt -5.27651000 7.18417000
vt -4.96681000 7.41257000
vt -4.66274000 7.67522000
vt -2.07239000 8.06342000
vt -4.06523000 8.27336000
vt -1.92509000 8.73537000
vt -3.50846000 8.93028000
vt -1.79794000 9.40732000
vt -3.25543000 9.27225000
vt -3.01561000 9.63428000
vt -1.69480000 10.07928000
vt -2.79457000 10.01695000
vt -2.60115000 10.41581000
vt -1.61880000 10.75123000
vt -2.44293000 10.82681000
vt -2.32569000 11.24656000
vt -1.57226000 11.42318000
vt -2.25406000 11.67083000
vt -1.55659000 12.09513000
vt -2.23000000 12.09513000
vt -10.91000000 7.11478000
vt -6.17846000 6.94988000
vt -6.35721000 7.00736000
vt -6.68349000 7.18417000
vt -6.99319000 7.41257000
vt -10.91000000 7.82626000
vt -7.29726000 7.67522000
vt -7.89477000 8.27336000
vt -10.91000000 8.53774000
vt -8.45155000 8.93028000
vt -10.91000000 9.24922000
vt -8.70457000 9.27225000
vt -8.94439000 9.63428000
vt -10.91000000 9.96070000
vt -9.16543000 10.01695000
vt -9.35885000 10.41581000
vt -10.91000000 10.67218000
vt -9.51707000 10.82681000
vt -9.63431000 11.24656000
vt -10.91000000 11.38365000
vt -9.70594000 11.67083000
vt -10.91000000 12.09513000
vt -9.73000000 12.09513000
vt -2.23000000 -12.09513000
vt -1.55659000 -12.09513000
vt -2.25406000 -11.67083000
vt -1.57226000 -11.42318000
vt -2.32569000 -11.24656000
vt -1.61880000 -10.75123000
vt -2.44293000 -10.82681000
vt -2.60115000 -10.41581000
vt -1.69480000 -10.07928000
vt -2.79457000 -10.01695000
vt -3.01561000 -9.63428000
vt -1.79794000 -9.40732000
vt -3.25543000 -9.27225000
vt -1.92509000 -8.73537000
vt -3.50846000 -8.93028000
vt -4.06523000 -8.27336000
vt -2.07239000 -8.06342000
vt -4.66274000 -7.67522000
vt -2.23536000 -7.39147000
vt -4.96681000 -7.41257000
vt -5.27651000 -7.18417000
vt -2.40905000 -6.71952000
vt -5.60279000 -7.00736000
vt -5.78154000 -6.94988000
vt -5.98000000 -6.92697000
vt -10.91000000 -7.11478000
vt -6.17846000 -6.94988000
vt -6.35721000 -7.00736000
vt -6.68349000 -7.18417000
vt -6.99319000 -7.41257000
vt -10.91000000 -7.82626000
vt -7.29726000 -7.67522000
vt -7.89477000 -8.27336000
vt -10.91000000 -8.53774000
vt -8.45155000 -8.93028000
vt -10.91000000 -9.24922000
vt -8.70457000 -9.27225000
vt -8.94439000 -9.63428000
vt -10.91000000 -9.96070000
vt -9.16543000 -10.01695000
vt -9.35885000 -10.41581000
vt -10.91000000 -10.67218000
vt -9.51707000 -10.82681000
vt -10.91000000 -11.38365000
vt -9.63431000 -11.24656000
vt -9.70594000 -11.67083000
vt -10.91000000 -12.09513000
vt -9.73000000 -12.09513000
vt -10.91000000 -6.40330000
vt -2.58819000 -6.04757000
vt -10.91000000 -5.69183000
vt -2.76733000 -5.37561000
vt -10.91000000 -4.98035000
vt -2.94102000 -4.70366000
vt -10.91000000 -4.26887000
vt -3.10399000 -4.03171000
vt -10.91000000 -3.55739000
vt -3.25129000 -3.35976000
vt -10.91000000 -2.84591000
vt -3.37844000 -2.68781000
vt -10.91000000 -2.13444000
vt -3.48159000 -2.01586000
vt -10.91000000 -1.42296000
vt -3.55758000 -1.34390000
vt -10.91000000 -0.71148000
vt -3.60412000 -0.67195000
vt -0.95000000 -11.78097000
vt -0.00000000 -11.78097000
vt -0.97343000 -11.35662000
vt -0.00000000 -11.08797000
vt -1.04315000 -10.93202000
vt -0.00000000 -10.39498000
vt -1.15708000 -10.51135000
vt -1.31050000 -10.09852000
vt -0.00000000 -9.70198000
vt -1.49743000 -9.69657000
vt -1.71008000 -9.30914000
vt -0.00000000 -9.00898000
vt -1.93936000 -8.94034000
vt -2.17924000 -8.58900000
vt -0.00000000 -8.31598000
vt -2.69617000 -7.90008000
vt -0.00000000 -7.62298000
vt -3.22040000 -7.23646000
vt -0.00000000 -6.92998000
vt -3.46341000 -6.91642000
vt -3.67983000 -6.59817000
vt -0.00000000 -6.23698000
vt -3.85012000 -6.26834000
vt -3.90592000 -6.08904000
vt -3.92822000 -5.89049000
vt -0.00000000 -5.54399000
vt -3.90592000 -5.69193000
vt -3.85012000 -5.51264000
vt -3.67983000 -5.18281000
vt 0.00000000 -4.85099000
vt -3.46341000 -4.86455000
vt -3.22040000 -4.54451000
vt 0.00000000 -4.15799000
vt -2.69617000 -3.88089000
vt 0.00000000 -3.46499000
vt -2.17924000 -3.19198000
vt 0.00000000 -2.77199000
vt -1.93936000 -2.84064000
vt -1.71008000 -2.47183000
vt 0.00000000 -2.07900000
vt -1.49743000 -2.08440000
vt -1.31050000 -1.68246000
vt 0.00000000 -1.38600000
vt -1.15708000 -1.26962000
vt -1.04315000 -0.84895000
vt -0.00000000 -0.69300000
vt -0.97343000 -0.42435000
vt -3.68615000 -0.68906000
vt -3.48955000 -0.65231000
vt -3.75000000 0.00000000
vt -3.55000000 0.00000000
vt -3.48955000 0.65231000
vt -3.31028000 -1.28241000
vt -3.49677000 -1.35466000
vt -3.01827000 -1.86883000
vt -3.18831000 -1.97412000
vt -2.62348000 -2.39162000
vt -2.77128000 -2.52636000
vt -2.13935000 -2.83296000
vt -2.25988000 -2.99256000
vt -1.58237000 -3.17783000
vt -1.67152000 -3.35686000
vt -0.97150000 -3.41448000
vt -1.02624000 -3.60685000
vt -0.32755000 -3.53486000
vt -0.34601000 -3.73400000
vt 0.34601000 -3.73400000
vt 0.32755000 -3.53486000
vt 1.02624000 -3.60685000
vt 0.97150000 -3.41448000
vt 1.67152000 -3.35686000
vt 1.58237000 -3.17783000
vt 2.25988000 -2.99256000
vt 2.13935000 -2.83296000
vt 2.77128000 -2.52636000
vt 2.62348000 -2.39162000
vt 3.18831000 -1.97412000
vt 3.01827000 -1.86883000
vt 3.49677000 -1.35466000
vt 3.31028000 -1.28241000
vt 3.68615000 -0.68906000
vt 3.48955000 -0.65231000
vt 3.75000000 0.00000000
vt 3.55000000 0.00000000
vt 3.48955000 0.65231000
vt 3.68615000 0.68906000
vt 3.31028000 1.28241000
vt 3.49677000 1.35466000
vt 3.01827000 1.86883000
vt 3.18831000 1.97412000
vt 2.62348000 2.39162000
vt 2.77128000 2.52636000
vt 2.13935000 2.83296000
vt 2.25988000 2.99256000
vt 1.58237000 3.17783000
vt 1.67152000 3.35686000
vt 0.97150000 3.41448000
vt 1.02624000 3.60685000
vt 0.32755000 3.53486000
vt 0.34601000 3.73400000
vt -0.34601000 3.73400000
vt -0.32755000 3.53486000
vt -1.02624000 3.60685000
vt -0.97150000 3.41448000
vt -1.67152000 3.35686000
vt -1.58237000 3.17783000
vt -2.25988000 2.99256000
vt -2.13935000 2.83296000
vt -2.77128000 2.52636000
vt -2.62348000 2.39162000
vt -3.18831000 1.97412000
vt -3.01827000 1.86883000
vt -3.49677000 1.35466000
vt -3.31028000 1.28241000
vt -3.68615000 0.68906000
vt 0.60000000 11.15265000
vt 0.00000000 11.15265000
vt 0.60000000 10.49662000
vt 0.00000000 10.49662000
vt 0.00000000 9.84058000
vt 0.60000000 9.84058000
vt 0.00000000 9.18454000
vt 0.60000000 9.18454000
vt 0.00000000 8.52850000
vt 0.60000000 8.52850000
vt 0.00000000 7.87246000
vt 0.60000000 7.87246000
vt 0.00000000 7.21642000
vt 0.60000000 7.21642000
vt 0.00000000 6.56038000
vt 0.60000000 6.56038000
vt 0.00000000 5.90435000
vt 0.60000000 5.90435000
vt 0.00000000 5.24831000
vt 0.60000000 5.24831000
vt 0.00000000 4.59227000
vt 0.60000000 4.59227000
vt 0.00000000 3.93623000
vt 0.60000000 3.93623000
vt 0.00000000 3.28019000
vt 0.60000000 3.28019000
vt 0.00000000 2.62415000
vt 0.60000000 2.62415000
vt 0.00000000 1.96812000
vt 0.60000000 1.96812000
vt 0.00000000 1.31208000
vt 0.60000000 1.31208000
vt 0.00000000 0.65604000
vt 0.60000000 0.65604000
vt 3.48955000 0.65231000
vt -3.48955000 0.65231000
vt 3.55000000 0.00000000
vt -3.55000000 0.00000000
vt 3.48955000 -0.65231000
vt -3.48955000 -0.65231000
vt 3.31028000 -1.28241000
vt -3.31028000 -1.28241000
vt 3.01827000 -1.86883000
vt -3.01827000 -1.86883000
vt 2.62348000 -2.39162000
vt -2.62348000 -2.39162000
vt 2.13935000 -2.83296000
vt -2.13935000 -2.83296000
vt 1.58237000 -3.17783000
vt -1.58237000 -3.17783000
vt 0.97150000 -3.41448000
vt -0.97150000 -3.41448000
vt 0.32755000 -3.53486000
vt -0.32755000 -3.53486000
vt -3.31028000 1.28241000
vt 3.31028000 1.28241000
vt -3.01827000 1.86883000
vt 3.01827000 1.86883000
vt -2.62348000 2.39162000
vt 2.62348000 2.39162000
vt -2.13935000 2.83296000
vt 2.13935000 2.83296000
vt -1.58237000 3.17783000
vt 1.58237000 3.17783000
vt -0.97150000 3.41448000
vt 0.97150000 3.41448000
vt -0.32755000 3.53486000
vt 0.32755000 3.53486000
vt -0.70744000 3.30945000
vt -0.70376000 3.28979000
vt 0.00000000 3.37500000
vt 0.00000000 3.35500000
vt 0.70376000 3.28979000
vt -1.38356000 3.09637000
vt -1.39078000 3.11502000
vt -2.01624000 2.78133000
vt -2.02676000 2.79834000
vt -2.58025000 2.35540000
vt -2.59373000 2.37018000
vt -3.05641000 1.83309000
vt -3.07237000 1.84514000
vt -3.42848000 1.23218000
vt -3.44638000 1.24109000
vt -3.68379000 0.57313000
vt -3.70303000 0.57860000
vt -3.81366000 -0.12161000
vt -3.83358000 -0.11977000
vt -3.83358000 -0.83023000
vt -3.81366000 -0.82839000
vt -3.70303000 -1.52860000
vt -3.68379000 -1.52313000
vt -3.44638000 -2.19109000
vt -3.42848000 -2.18218000
vt -3.07237000 -2.79514000
vt -3.05641000 -2.78309000
vt -2.59373000 -3.32018000
vt -2.58025000 -3.30540000
vt -2.02676000 -3.74834000
vt -2.01624000 -3.73133000
vt -1.39078000 -4.06502000
vt -1.38356000 -4.04637000
vt -0.70744000 -4.25945000
vt -0.70376000 -4.23979000
vt 0.00000000 -4.32500000
vt 0.00000000 -4.30500000
vt 0.70376000 -4.23979000
vt 0.70744000 -4.25945000
vt 1.38356000 -4.04637000
vt 1.39078000 -4.06502000
vt 2.01624000 -3.73133000
vt 2.02676000 -3.74834000
vt 2.58025000 -3.30540000
vt 2.59373000 -3.32018000
vt 3.05641000 -2.78309000
vt 3.07237000 -2.79514000
vt 3.42848000 -2.18218000
vt 3.44638000 -2.19109000
vt 3.68379000 -1.52313000
vt 3.70303000 -1.52860000
vt 3.81366000 -0.82839000
vt 3.83358000 -0.83023000
vt 3.81366000 -0.12161000
vt 3.83358000 -0.11977000
vt 3.70303000 0.57860000
vt 3.68379000 0.57313000
vt 3.44638000 1.24109000
vt 3.42848000 1.23218000
vt 3.07237000 1.84514000
vt 3.05641000 1.83309000
vt 2.59373000 2.37018000
vt 2.58025000 2.35540000
vt 2.02676000 2.79834000
vt 2.01624000 2.78133000
vt 1.39078000 3.11502000
vt 1.38356000 3.09637000
vt 0.70744000 3.30945000
vt 4.80312000 0.66854000
vt 4.78273000 0.66507000
vt 4.86368000 0.00000000
vt 4.84297000 0.00000000
vt 4.80312000 -0.66854000
vt 4.78273000 -0.66507000
vt 4.60385000 -1.30994000
vt 4.60385000 1.30994000
vt 4.62330000 1.31678000
vt 4.31175000 1.91500000
vt 4.32968000 1.92500000
vt 3.91531000 2.46188000
vt 3.93118000 2.47473000
vt 3.42659000 2.93395000
vt 3.43990000 2.94927000
vt 2.86042000 3.31688000
vt 2.87077000 3.33420000
vt 2.23401000 3.59902000
vt 2.24109000 3.61782000
vt 1.56640000 3.77181000
vt 1.56999000 3.79151000
vt 0.87786000 3.83000000
vt 0.87786000 3.85000000
vt 0.18574000 3.79151000
vt 0.18933000 3.77181000
vt -0.48536000 3.61782000
vt -0.47828000 3.59902000
vt -1.11504000 3.33420000
vt -1.10469000 3.31688000
vt -1.68417000 2.94927000
vt -1.67086000 2.93395000
vt -2.17544000 2.47473000
vt -2.15958000 2.46188000
vt -2.57395000 1.92500000
vt -2.55602000 1.91500000
vt -2.86757000 1.31678000
vt -2.84812000 1.30994000
vt -3.04740000 0.66854000
vt -3.02700000 0.66507000
vt -3.10795000 0.00000000
vt -3.08724000 0.00000000
vt -3.02700000 -0.66507000
vt -3.04740000 -0.66854000
vt -2.84812000 -1.30994000
vt -2.86757000 -1.31678000
vt -2.55602000 -1.91500000
vt -2.57395000 -1.92500000
vt -2.15958000 -2.46188000
vt -2.17544000 -2.47473000
vt -1.67086000 -2.93395000
vt -1.68417000 -2.94927000
vt -1.10469000 -3.31688000
vt -1.11504000 -3.33420000
vt -0.47828000 -3.59902000
vt -0.48536000 -3.61782000
vt 0.18933000 -3.77181000
vt 0.18574000 -3.79151000
vt 0.87786000 -3.83000000
vt 0.87786000 -3.85000000
vt 1.56999000 -3.79151000
vt 1.56640000 -3.77181000
vt 2.24109000 -3.61782000
vt 2.23401000 -3.59902000
vt 2.87077000 -3.33420000
vt 2.86042000 -3.31688000
vt 3.43990000 -2.94927000
vt 3.42659000 -2.93395000
vt 3.93118000 -2.47473000
vt 3.91531000 -2.46188000
vt 4.32968000 -1.92500000
vt 4.31175000 -1.91500000
vt 4.62330000 -1.31678000
f 1/1/1 2/2/2 3/3/3
f 3/3/3 2/2/2 4/4/4
f 4/4/4 2/2/2 5/5/5
f 4/4/4 5/5/5 6/6/6
f 6/6/6 5/5/5 7/7/7
f 6/6/6 7/7/7 8/8/8
f 8/8/8 7/7/7 9/9/9
f 8/8/8 9/9/9 10/10/10
f 10/10/10 9/9/9 11/11/11
f 10/10/10 11/11/11 12/12/12
f 12/12/12 11/11/11 13/13/13
f 12/12/12 13/13/13 14/14/14
f 14/14/14 13/13/13 15/15/15
f 14/14/14 15/15/15 16/16/16
f 16/16/16 15/15/15 17/17/17
f 16/16/16 17/17/17 18/18/18
f 18/18/18 17/17/17 19/19/19
f 18/18/18 19/19/19 20/20/20
f 20/20/20 19/19/19 21/21/21
f 20/20/20 21/21/21 22/22/22
f 22/22/22 21/21/21 23/23/23
f 22/22/22 23/23/23 24/24/24
f 24/24/24 23/23/23 25/25/25
f 24/24/24 25/25/25 26/26/26
f 26/26/26 25/25/25 27/27/27
f 26/26/26 27/27/27 28/28/28
f 28/28/28 27/27/27 29/29/29
f 28/28/28 29/29/29 30/30/30
f 30/30/30 29/29/29 31/31/31
f 30/30/30 31/31/31 32/32/32
f 32/32/32 31/31/31 33/33/33
f 32/32/32 33/33/33 34/34/34
f 34/34/34 33/33/33 35/35/35
f 35/35/35 33/33/33 36/36/36
f 37/37/37 38/38/38 39/39/39
f 39/39/39 38/38/38 40/40/40
f 39/39/39 40/40/40 41/41/41
f 41/41/41 40/40/40 42/42/42
f 41/41/41 42/42/42 43/43/43
f 43/43/43 42/42/42 44/44/44
f 44/44/44 42/42/42 45/45/45
f 44/44/44 45/45/45 46/46/46
f 46/46/46 45/45/45 47/47/47
f 47/47/47 45/45/45 48/48/48
f 47/47/47 48/48/48 49/49/49
f 49/49/49 48/48/48 50/50/50
f 50/50/50 48/48/48 51/51/51
f 50/50/50 51/51/51 52/52/52
f 52/52/52 51/51/51 53/53/53
f 52/52/52 53/53/53 54/54/54
f 54/54/54 53/53/53 55/55/55
f 54/54/54 55/55/55 56/56/56
f 56/56/56 55/55/55 57/57/57
f 57/57/57 55/55/55 58/58/58
f 57/57/57 58/58/58 59/59/59
f 59/59/59 58/58/58 60/60/60
f 60/60/60 58/58/58 61/61/61
f 61/61/61 58/58/58 62/62/62
f 61/61/61 62/62/62 63/63/63
f 63/63/63 62/62/62 64/64/64
f 64/64/64 62/62/62 65/65/65
f 65/65/65 62/62/62 66/66/66
f 65/65/65 66/66/66 67/67/67
f 67/67/67 66/66/66 68/68/68
f 68/68/68 66/66/66 69/69/69
f 68/68/68 69/69/69 70/70/70
f 70/70/70 69/69/69 71/71/71
f 70/70/70 71/71/71 72/72/72
f 72/72/72 71/71/71 73/73/73
f 72/72/72 73/73/73 74/74/74
f 74/74/74 73/73/73 75/75/75
f 75/75/75 73/73/73 76/76/76
f 75/75/75 76/76/76 77/77/77
f 77/77/77 76/76/76 78/78/78
f 78/78/78 76/76/76 79/79/79
f 78/78/78 79/79/79 80/80/80
f 80/80/80 79/79/79 81/81/81
f 81/81/81 79/79/79 82/82/82
f 81/81/81 82/82/82 83/83/83
f 83/83/83 82/82/82 84/84/84
f 83/83/83 84/84/84 85/85/85
f 86/86/86 87/87/87 88/88/88
f 88/88/88 87/87/87 89/89/89
f 89/89/89 87/87/87 90/90/90
f 89/89/89 90/90/90 91/91/91
f 91/91/91 90/90/90 92/92/92
f 91/91/91 92/92/92 93/93/93
f 93/93/93 92/92/92 94/94/94
f 93/93/93 94/94/94 95/95/95
f 95/95/95 94/94/94 96/96/96
f 95/95/95 96/96/96 97/97/97
f 97/97/97 96/96/96 98/98/98
f 97/97/97 98/98/98 99/99/99
f 99/99/99 98/98/98 100/100/100
f 99/99/99 100/100/100 101/101/101
f 101/101/101 100/100/100 102/102/102
f 101/101/101 102/102/102 103/103/103
f 103/103/103 102/102/102 104/104/104
f 103/103/103 104/104/104 105/105/105
f 105/105/105 104/104/104 106/106/106
f 105/105/105 106/106/106 107/107/107
f 107/107/107 106/106/106 108/108/108
f 108/108/108 106/106/106 109/109/109
f 109/109/109 106/106/106 110/110/110
f 109/109/109 110/110/110 111/111/111
f 111/111/111 110/110/110 112/112/112
f 112/112/112 110/110/110 113/113/113
f 113/113/113 110/110/110 114/114/114
f 113/113/113 114/114/114 115/115/115
f 115/115/115 114/114/114 116/116/116
f 115/115/115 116/116/116 117/117/117
f 117/117/117 116/116/116 118/118/118
f 117/117/117 118/118/118 119/119/119
f 119/119/119 118/118/118 120/120/120
f 120/120/120 118/118/118 121/121/121
f 120/120/120 121/121/121 122/122/122
f 122/122/122 121/121/121 123/123/123
f 123/123/123 121/121/121 124/124/124
f 123/123/123 124/124/124 125/125/125
f 125/125/125 124/124/124 126/126/126
f 126/126/126 124/124/124 127/127/127
f 126/126/126 127/127/127 128/128/128
f 128/128/128 127/127/127 129/129/129
f 128/128/128 129/129/129 130/130/130
f 105/105/105 107/107/107 131/131/131
f 131/131/131 107/107/107 132/132/132
f 131/131/131 132/132/132 133/133/133
f 133/133/133 134/134/134 131/131/131
f 131/131/131 134/134/134 135/135/135
f 131/131/131 135/135/135 136/136/136
f 136/136/136 135/135/135 137/137/137
f 136/136/136 137/137/137 138/138/138
f 136/136/136 138/138/138 139/139/139
f 139/139/139 138/138/138 140/140/140
f 139/139/139 140/140/140 141/141/141
f 141/141/141 140/140/140 142/142/142
f 141/141/141 142/142/142 143/143/143
f 141/141/141 143/143/143 144/144/144
f 144/144/144 143/143/143 145/145/145
f 144/144/144 145/145/145 146/146/146
f 144/144/144 146/146/146 147/147/147
f 147/147/147 146/146/146 148/148/148
f 147/147/147 148/148/148 149/149/149
f 147/147/147 149/149/149 150/150/150
f 150/150/150 149/149/149 151/151/151
f 150/150/150 151/151/151 152/152/152
f 152/152/152 151/151/151 153/153/153
f 154/154/154 155/155/155 156/156/156
f 156/156/156 155/155/155 157/157/157
f 156/156/156 157/157/157 158/158/158
f 158/158/158 157/157/157 159/159/159
f 158/158/158 159/159/159 160/160/160
f 160/160/160 159/159/159 161/161/161
f 161/161/161 159/159/159 162/162/162
f 161/161/161 162/162/162 163/163/163
f 163/163/163 162/162/162 164/164/164
f 164/164/164 162/162/162 165/165/165
f 164/164/164 165/165/165 166/166/166
f 166/166/166 165/165/165 167/167/167
f 166/166/166 167/167/167 168/168/168
f 168/168/168 167/167/167 169/169/169
f 169/169/169 167/167/167 170/170/170
f 169/169/169 170/170/170 171/171/171
f 171/171/171 170/170/170 172/172/172
f 171/171/171 172/172/172 173/173/173
f 173/173/173 172/172/172 174/174/174
f 174/174/174 172/172/172 175/175/175
f 174/174/174 175/175/175 176/176/176
f 176/176/176 175/175/175 177/177/177
f 177/177/177 175/175/175 178/178/178
f 178/178/178 175/175/175 179/179/179
f 178/178/178 179/179/179 180/180/180
f 180/180/180 179/179/179 181/181/181
f 181/181/181 179/179/179 182/182/182
f 182/182/182 179/179/179 183/183/183
f 183/183/183 179/179/179 184/184/184
f 183/183/183 184/184/184 185/185/185
f 185/185/185 184/184/184 186/186/186
f 186/186/186 184/184/184 187/187/187
f 186/186/186 187/187/187 188/188/188
f 188/188/188 187/187/187 189/189/189
f 188/188/188 189/189/189 190/190/190
f 190/190/190 189/189/189 191/191/191
f 191/191/191 189/189/189 192/192/192
f 191/191/191 192/192/192 193/193/193
f 193/193/193 192/192/192 194/194/194
f 194/194/194 192/192/192 195/195/195
f 194/194/194 195/195/195 196/196/196
f 196/196/196 195/195/195 197/197/197
f 196/196/196 197/197/197 198/198/198
f 198/198/198 197/197/197 199/199/199
f 199/199/199 197/197/197 200/200/200
f 199/199/199 200/200/200 201/201/201
f 179/179/179 175/175/175 202/202/202
f 202/202/202 175/175/175 203/203/203
f 202/202/202 203/203/203 204/204/204
f 204/204/204 203/203/203 205/205/205
f 204/204/204 205/205/205 206/206/206
f 206/206/206 205/205/205 207/207/207
f 206/206/206 207/207/207 208/208/208
f 208/208/208 207/207/207 209/209/209
f 208/208/208 209/209/209 210/210/210
f 210/210/210 209/209/209 211/211/211
f 210/210/210 211/211/211 212/212/212
f 212/212/212 211/211/211 213/213/213
f 212/212/212 213/213/213 214/214/214
f 214/214/214 213/213/213 215/215/215
f 214/214/214 215/215/215 216/216/216
f 216/216/216 215/215/215 217/217/217
f 216/216/216 217/217/217 218/218/218
f 218/218/218 217/217/217 219/219/219
f 218/218/218 219/219/219 88/88/88
f 88/88/88 219/219/219 86/86/86
f 220/220/220 221/221/221 222/222/222
f 222/222/222 221/221/221 223/223/223
f 222/222/222 223/223/223 224/224/224
f 224/224/224 223/223/223 225/225/225
f 224/224/224 225/225/225 226/226/226
f 226/226/226 225/225/225 227/227/227
f 227/227/227 225/225/225 228/228/228
f 227/227/227 228/228/228 229/229/229
f 229/229/229 228/228/228 230/230/230
f 230/230/230 228/228/228 231/231/231
f 230/230/230 231/231/231 232/232/232
f 232/232/232 231/231/231 233/233/233
f 233/233/233 231/231/231 234/234/234
f 233/233/233 234/234/234 235/235/235
f 235/235/235 234/234/234 236/236/236
f 235/235/235 236/236/236 237/237/237
f 237/237/237 236/236/236 238/238/238
f 237/237/237 238/238/238 239/239/239
f 239/239/239 238/238/238 240/240/240
f 240/240/240 238/238/238 241/241/241
f 240/240/240 241/241/241 242/242/242
f 242/242/242 241/241/241 243/243/243
f 243/243/243 241/241/241 244/244/244
f 244/244/244 241/241/241 245/245/245
f 244/244/244 245/245/245 246/246/246
f 246/246/246 245/245/245 247/247/247
f 247/247/247 245/245/245 248/248/248
f 248/248/248 245/245/245 249/249/249
f 248/248/248 249/249/249 250/250/250
f 250/250/250 249/249/249 251/251/251
f 251/251/251 249/249/249 252/252/252
f 251/251/251 252/252/252 253/253/253
f 253/253/253 252/252/252 254/254/254
f 253/253/253 254/254/254 255/255/255
f 255/255/255 254/254/254 256/256/256
f 255/255/255 256/256/256 257/257/257
f 257/257/257 256/256/256 258/258/258
f 258/258/258 256/256/256 259/259/259
f 258/258/258 259/259/259 260/260/260
f 260/260/260 259/259/259 261/261/261
f 261/261/261 259/259/259 262/262/262
f 261/261/261 262/262/262 263/263/263
f 263/263/263 262/262/262 264/264/264
f 264/264/264 262/262/262 265/265/265
f 264/264/264 265/265/265 266/266/266
f 266/266/266 265/265/265 38/38/38
f 266/266/266 38/38/38 37/37/37
f 267/267/267 268/268/268 269/269/269
f 269/269/269 268/268/268 270/270/270
f 269/269/269 270/270/270 271/271/271
f 268/268/268 267/267/267 272/272/272
f 272/272/272 267/267/267 273/273/273
f 272/272/272 273/273/273 274/274/274
f 274/274/274 273/273/273 275/275/275
f 274/274/274 275/275/275 276/276/276
f 276/276/276 275/275/275 277/277/277
f 276/276/276 277/277/277 278/278/278
f 278/278/278 277/277/277 279/279/279
f 278/278/278 279/279/279 280/280/280
f 280/280/280 279/279/279 281/281/281
f 280/280/280 281/281/281 282/282/282
f 282/282/282 281/281/281 283/283/283
f 282/282/282 283/283/283 284/284/284
f 284/284/284 283/283/283 285/285/285
f 284/284/284 285/285/285 286/286/286
f 284/284/284 286/286/286 287/287/287
f 287/287/287 286/286/286 288/288/288
f 287/287/287 288/288/288 289/289/289
f 289/289/289 288/288/288 290/290/290
f 289/289/289 290/290/290 291/291/291
f 291/291/291 290/290/290 292/292/292
f 291/291/291 292/292/292 293/293/293
f 293/293/293 292/292/292 294/294/294
f 293/293/293 294/294/294 295/295/295
f 295/295/295 294/294/294 296/296/296
f 295/295/295 296/296/296 297/297/297
f 297/297/297 296/296/296 298/298/298
f 297/297/297 298/298/298 299/299/299
f 299/299/299 298/298/298 300/300/300
f 299/299/299 300/300/300 301/301/301
f 301/301/301 300/300/300 302/302/302
f 301/301/301 302/302/302 303/303/303
f 303/303/303 302/302/302 304/304/304
f 304/304/304 302/302/302 305/305/305
f 304/304/304 305/305/305 306/306/306
f 306/306/306 305/305/305 307/307/307
f 306/306/306 307/307/307 308/308/308
f 308/308/308 307/307/307 309/309/309
f 308/308/308 309/309/309 310/310/310
f 310/310/310 309/309/309 311/311/311
f 310/310/310 311/311/311 312/312/312
f 312/312/312 311/311/311 313/313/313
f 312/312/312 313/313/313 314/314/314
f 314/314/314 313/313/313 315/315/315
f 314/314/314 315/315/315 316/316/316
f 316/316/316 315/315/315 317/317/317
f 316/316/316 317/317/317 318/318/318
f 318/318/318 317/317/317 319/319/319
f 318/318/318 319/319/319 320/320/320
f 318/318/318 320/320/320 321/321/321
f 321/321/321 320/320/320 322/322/322
f 321/321/321 322/322/322 323/323/323
f 323/323/323 322/322/322 324/324/324
f 323/323/323 324/324/324 325/325/325
f 325/325/325 324/324/324 326/326/326
f 325/325/325 326/326/326 327/327/327
f 327/327/327 326/326/326 328/328/328
f 327/327/327 328/328/328 329/329/329
f 329/329/329 328/328/328 330/330/330
f 329/329/329 330/330/330 331/331/331
f 331/331/331 330/330/330 332/332/332
f 331/331/331 332/332/332 333/333/333
f 333/333/333 332/332/332 334/334/334
f 333/333/333 334/334/334 271/271/271
f 271/271/271 334/334/334 269/269/269
f 335/335/335 336/336/336 337/337/337
f 337/337/337 336/336/336 338/338/338
f 337/337/337 338/338/338 339/339/339
f 337/337/337 339/339/339 340/340/340
f 340/340/340 339/339/339 341/341/341
f 340/340/340 341/341/341 342/342/342
f 342/342/342 341/341/341 343/343/343
f 342/342/342 343/343/343 344/344/344
f 344/344/344 343/343/343 345/345/345
f 344/344/344 345/345/345 346/346/346
f 346/346/346 345/345/345 347/347/347
f 346/346/346 347/347/347 348/348/348
f 348/348/348 347/347/347 349/349/349
f 348/348/348 349/349/349 350/350/350
f 350/350/350 349/349/349 351/351/351
f 350/350/350 351/351/351 352/352/352
f 352/352/352 351/351/351 353/353/353
f 352/352/352 353/353/353 354/354/354
f 354/354/354 353/353/353 355/355/355
f 354/354/354 355/355/355 356/356/356
f 356/356/356 355/355/355 357/357/357
f 356/356/356 357/357/357 358/358/358
f 358/358/358 357/357/357 359/359/359
f 358/358/358 359/359/359 360/360/360
f 360/360/360 359/359/359 361/361/361
f 360/360/360 361/361/361 362/362/362
f 362/362/362 361/361/361 363/363/363
f 362/362/362 363/363/363 364/364/364
f 364/364/364 363/363/363 365/365/365
f 364/364/364 365/365/365 366/366/366
f 366/366/366 365/365/365 367/367/367
f 366/366/366 367/367/367 368/368/368
f 368/368/368 367/367/367 1/1/1
f 368/368/368 1/1/1 3/3/3
f 369/369/369 370/370/370 371/371/371
f 371/371/371 370/370/370 372/372/372
f 371/371/371 372/372/372 373/373/373
f 373/373/373 372/372/372 374/374/374
f 373/373/373 374/374/374 375/375/375
f 375/375/375 374/374/374 376/376/376
f 375/375/375 376/376/376 377/377/377
f 377/377/377 376/376/376 378/378/378
f 377/377/377 378/378/378 379/379/379
f 379/379/379 378/378/378 380/380/380
f 379/379/379 380/380/380 381/381/381
f 381/381/381 380/380/380 382/382/382
f 381/381/381 382/382/382 383/383/383
f 383/383/383 382/382/382 384/384/384
f 383/383/383 384/384/384 385/385/385
f 385/385/385 384/384/384 386/386/386
f 385/385/385 386/386/386 387/387/387
f 387/387/387 386/386/386 388/388/388
f 370/370/370 369/369/369 389/389/389
f 389/389/389 369/369/369 390/390/390
f 389/389/389 390/390/390 391/391/391
f 391/391/391 390/390/390 392/392/392
f 391/391/391 392/392/392 393/393/393
f 393/393/393 392/392/392 394/394/394
f 393/393/393 394/394/394 395/395/395
f 395/395/395 394/394/394 396/396/396
f 395/395/395 396/396/396 397/397/397
f 397/397/397 396/396/396 398/398/398
f 397/397/397 398/398/398 399/399/399
f 399/399/399 398/398/398 400/400/400
f 399/399/399 400/400/400 401/401/401
f 401/401/401 400/400/400 402/402/402
f 403/403/403 404/404/404 405/405/405
f 405/405/405 404/404/404 406/406/406
f 405/405/405 406/406/406 407/407/407
f 404/404/404 403/403/403 408/408/408
f 408/408/408 403/403/403 409/409/409
f 408/408/408 409/409/409 410/410/410
f 410/410/410 409/409/409 411/411/411
f 410/410/410 411/411/411 412/412/412
f 412/412/412 411/411/411 413/413/413
f 412/412/412 413/413/413 414/414/414
f 414/414/414 413/413/413 415/415/415
f 414/414/414 415/415/415 416/416/416
f 416/416/416 415/415/415 417/417/417
f 416/416/416 417/417/417 418/418/418
f 418/418/418 417/417/417 419/419/419
f 418/418/418 419/419/419 420/420/420
f 420/420/420 419/419/419 421/421/421
f 420/420/420 421/421/421 422/422/422
f 420/420/420 422/422/422 423/423/423
f 423/423/423 422/422/422 424/424/424
f 423/423/423 424/424/424 425/425/425
f 425/425/425 424/424/424 426/426/426
f 425/425/425 426/426/426 427/427/427
f 427/427/427 426/426/426 428/428/428
f 427/427/427 428/428/428 429/429/429
f 429/429/429 428/428/428 430/430/430
f 429/429/429 430/430/430 431/431/431
f 431/431/431 430/430/430 432/432/432
f 431/431/431 432/432/432 433/433/433
f 433/433/433 432/432/432 434/434/434
f 433/433/433 434/434/434 435/435/435
f 435/435/435 434/434/434 436/436/436
f 435/435/435 436/436/436 437/437/437
f 437/437/437 436/436/436 438/438/438
f 437/437/437 438/438/438 439/439/439
f 439/439/439 438/438/438 440/440/440
f 440/440/440 438/438/438 441/441/441
f 440/440/440 441/441/441 442/442/442
f 442/442/442 441/441/441 443/443/443
f 442/442/442 443/443/443 444/444/444
f 444/444/444 443/443/443 445/445/445
f 444/444/444 445/445/445 446/446/446
f 446/446/446 445/445/445 447/447/447
f 446/446/446 447/447/447 448/448/448
f 448/448/448 447/447/447 449/449/449
f 448/448/448 449/449/449 450/450/450
f 450/450/450 449/449/449 451/451/451
f 450/450/450 451/451/451 452/452/452
f 452/452/452 451/451/451 453/453/453
f 452/452/452 453/453/453 454/454/454
f 454/454/454 453/453/453 455/455/455
f 454/454/454 455/455/455 456/456/456
f 456/456/456 455/455/455 457/457/457
f 456/456/456 457/457/457 458/458/458
f 456/456/456 458/458/458 459/459/459
f 459/459/459 458/458/458 460/460/460
f 459/459/459 460/460/460 461/461/461
f 461/461/461 460/460/460 462/462/462
f 461/461/461 462/462/462 463/463/463
f 463/463/463 462/462/462 464/464/464
f 463/463/463 464/464/464 465/465/465
f 465/465/465 464/464/464 466/466/466
f 465/465/465 466/466/466 467/467/467
f 467/467/467 466/466/466 468/468/468
f 467/467/467 468/468/468 469/469/469
f 469/469/469 468/468/468 470/470/470
f 469/469/469 470/470/470 407/407/407
f 407/407/407 470/470/470 405/405/405
f 471/471/471 472/472/472 473/473/473
f 473/473/473 472/472/472 474/474/474
f 473/473/473 474/474/474 475/475/475
f 475/475/475 474/474/474 476/476/476
f 475/475/475 476/476/476 477/477/477
f 472/472/472 471/471/471 478/478/478
f 478/478/478 471/471/471 479/479/479
f 478/478/478 479/479/479 480/480/480
f 480/480/480 479/479/479 481/481/481
f 480/480/480 481/481/481 482/482/482
f 482/482/482 481/481/481 483/483/483
f 482/482/482 483/483/483 484/484/484
f 484/484/484 483/483/483 485/485/485
f 484/484/484 485/485/485 486/486/486
f 486/486/486 485/485/485 487/487/487
f 486/486/486 487/487/487 488/488/488
f 488/488/488 487/487/487 489/489/489
f 488/488/488 489/489/489 490/490/490
f 490/490/490 489/489/489 491/491/491
f 490/490/490 491/491/491 492/492/492
f 492/492/492 491/491/491 493/493/493
f 492/492/492 493/493/493 494/494/494
f 492/492/492 494/494/494 495/495/495
f 495/495/495 494/494/494 496/496/496
f 495/495/495 496/496/496 497/497/497
f 497/497/497 496/496/496 498/498/498
f 497/497/497 498/498/498 499/499/499
f 499/499/499 498/498/498 500/500/500
f 499/499/499 500/500/500 501/501/501
f 501/501/501 500/500/500 502/502/502
f 501/501/501 502/502/502 503/503/503
f 503/503/503 502/502/502 504/504/504
f 503/503/503 504/504/504 505/505/505
f 505/505/505 504/504/504 506/506/506
f 505/505/505 506/506/506 507/507/507
f 507/507/507 506/506/506 508/508/508
f 507/507/507 508/508/508 509/509/509
f 509/509/509 508/508/508 510/510/510
f 509/509/509 510/510/510 511/511/511
f 511/511/511 510/510/510 512/512/512
f 512/512/512 510/510/510 513/513/513
f 512/512/512 513/513/513 514/514/514
f 514/514/514 513/513/513 515/515/515
f 514/514/514 515/515/515 516/516/516
f 516/516/516 515/515/515 517/517/517
f 516/516/516 517/517/517 518/518/518
f 518/518/518 517/517/517 519/519/519
f 518/518/518 519/519/519 520/520/520
f 520/520/520 519/519/519 521/521/521
f 520/520/520 521/521/521 522/522/522
f 522/522/522 521/521/521 523/523/523
f 522/522/522 523/523/523 524/524/524
f 524/524/524 523/523/523 525/525/525
f 524/524/524 525/525/525 526/526/526
f 526/526/526 525/525/525 527/527/527
f 526/526/526 527/527/527 528/528/528
f 528/528/528 527/527/527 529/529/529
f 528/528/528 529/529/529 530/530/530
f 528/528/528 530/530/530 531/531/531
f 531/531/531 530/530/530 532/532/532
f 531/531/531 532/532/532 533/533/533
f 533/533/533 532/532/532 534/534/534
f 533/533/533 534/534/534 535/535/535
f 535/535/535 534/534/534 536/536/536
f 535/535/535 536/536/536 537/537/537
f 537/537/537 536/536/536 538/538/538
f 537/537/537 538/538/538 539/539/539
f 539/539/539 538/538/538 540/540/540
f 539/539/539 540/540/540 541/541/541
f 541/541/541 540/540/540 542/542/542
f 541/541/541 542/542/542 477/477/477
f 477/477/477 542/542/542 475/475/475

