mtllib material.mtl
usemtl mat1
v 0.31600000 0.03830000 0.05320000
v 0.32679000 0.03674900 0.05320000
v 0.31600000 0.03830000 0.04820000
v 0.32679000 0.03674900 0.04820000
v 0.33670600 0.03222000 0.05320000
v 0.33670600 0.03222000 0.04820000
v 0.34494500 0.02508100 0.05320000
v 0.34494500 0.02508100 0.04820000
v 0.35083900 0.01591000 0.05320000
v 0.35083900 0.01591000 0.04820000
v 0.35391000 0.00545100 0.05320000
v 0.35391000 0.00545100 0.04820000
v 0.35391000 -0.00545100 0.05320000
v 0.35391000 -0.00545100 0.04820000
v 0.35083900 -0.01591000 0.05320000
v 0.35083900 -0.01591000 0.04820000
v 0.34494500 -0.02508100 0.05320000
v 0.34494500 -0.02508100 0.04820000
v 0.33670600 -0.03222000 0.05320000
v 0.33670600 -0.03222000 0.04820000
v 0.32679000 -0.03674900 0.05320000
v 0.32679000 -0.03674900 0.04820000
v 0.31600000 -0.03830000 0.04820000
v 0.31600000 -0.03830000 0.05320000
v 0.31600000 -0.03830000 0.15730000
v 0.31600000 -0.03830000 0.13641800
v 0.32679000 -0.03674900 0.15730000
v 0.32679000 -0.03674900 0.13352700
v 0.33670600 -0.03222000 0.15730000
v 0.33670600 -0.03222000 0.13087000
v 0.34494500 -0.02508100 0.15730000
v 0.34494500 -0.02508100 0.12866200
v 0.35083900 -0.01591000 0.15730000
v 0.35083900 -0.01591000 0.12708300
v 0.35391000 -0.00545100 0.15730000
v 0.35391000 -0.00545100 0.12626000
v 0.35391000 0.00545100 0.12626000
v 0.35391000 0.00545100 0.15730000
v 0.35083900 0.01591000 0.12708300
v 0.35083900 0.01591000 0.15730000
v 0.34494500 0.02508100 0.12866200
v 0.34494500 0.02508100 0.15730000
v 0.33670600 0.03222000 0.13087000
v 0.33670600 0.03222000 0.15730000
v 0.32679000 0.03674900 0.13352700
v 0.32679000 0.03674900 0.15730000
v 0.31600000 0.03830000 0.13641800
v 0.31600000 0.03830000 0.15730000
v 0.31600000 0.03484500 0.16205500
v 0.31600000 0.03330000 0.16230000
v 0.32109200 0.03378700 0.16222400
v 0.32629000 0.03167000 0.16230000
v 0.33082500 0.03078500 0.16222400
v 0.33557300 0.02694000 0.16230000
v 0.33924000 0.02504700 0.16222400
v 0.34294000 0.01957300 0.16230000
v 0.34559000 0.01708400 0.16222400
v 0.34767000 0.01029000 0.16230000
v 0.34931100 0.00760300 0.16222400
v 0.34930000 0.00000000 0.16230000
v 0.35007300 -0.00255300 0.16222400
v 0.34767000 -0.01029000 0.16230000
v 0.34780600 -0.01248300 0.16222400
v 0.34294000 -0.01957300 0.16230000
v 0.34271400 -0.02130400 0.16222400
v 0.33557300 -0.02694000 0.16230000
v 0.33524800 -0.02823100 0.16222400
v 0.32629000 -0.03167000 0.16230000
v 0.32607100 -0.03265000 0.16222400
v 0.31600000 -0.03330000 0.16230000
v 0.31600000 -0.03484500 0.16205500
v 0.32655200 -0.03420900 0.16163000
v 0.31600000 -0.03623900 0.16134500
v 0.32694400 -0.03548100 0.16051400
v 0.31600000 -0.03734500 0.16023900
v 0.32720000 -0.03631000 0.15901000
v 0.31600000 -0.03805500 0.15884500
v 0.32679000 -0.03674900 0.15730000
v 0.31600000 -0.03830000 0.15730000
v 0.33670600 -0.03222000 0.15730000
v 0.33740500 -0.03139600 0.15901000
v 0.33691600 -0.03067800 0.16051400
v 0.34503000 -0.02315000 0.16051400
v 0.34399000 -0.02232100 0.16163000
v 0.34932500 -0.01307900 0.16163000
v 0.34494500 -0.02508100 0.15730000
v 0.34570800 -0.02369200 0.15901000
v 0.35056300 -0.01356500 0.16051400
v 0.35170000 -0.00267500 0.16163000
v 0.35083900 -0.01591000 0.15730000
v 0.35137200 -0.01388200 0.15901000
v 0.35302600 -0.00277500 0.16051400
v 0.35090200 0.00796600 0.16163000
v 0.35391000 -0.00545100 0.15730000
v 0.35389200 -0.00284000 0.15901000
v 0.35219900 0.00826200 0.16051400
v 0.34700400 0.01790000 0.16163000
v 0.35391000 0.00545100 0.15730000
v 0.35304600 0.00845500 0.15901000
v 0.34815600 0.01856500 0.16051400
v 0.34035000 0.02624300 0.16163000
v 0.35083900 0.01591000 0.15730000
v 0.34890800 0.01899900 0.15901000
v 0.34125500 0.02721800 0.16051400
v 0.33153300 0.03225500 0.16163000
v 0.34494500 0.02508100 0.15730000
v 0.34184500 0.02785500 0.15901000
v 0.33211000 0.03345300 0.16051400
v 0.32133600 0.03540000 0.16163000
v 0.33670600 0.03222000 0.15730000
v 0.33248700 0.03423500 0.15901000
v 0.32153400 0.03671600 0.16051400
v 0.31600000 0.03623900 0.16134500
v 0.32679000 0.03674900 0.15730000
v 0.32166300 0.03757400 0.15901000
v 0.31600000 0.03734500 0.16023900
v 0.31600000 0.03830000 0.15730000
v 0.31600000 0.03805500 0.15884500
v 0.33616700 -0.02957900 0.16163000
v 0.31600000 -0.03550000 0.04820000
v 0.31600000 -0.03550000 0.04200000
v 0.32697000 -0.03376300 0.04820000
v 0.32697000 -0.03376300 0.04200000
v 0.33686600 -0.02872000 0.04820000
v 0.33686600 -0.02872000 0.04200000
v 0.34472000 -0.02086600 0.04820000
v 0.34472000 -0.02086600 0.04200000
v 0.34976200 -0.01097000 0.04820000
v 0.34976200 -0.01097000 0.04200000
v 0.35150000 0.00000000 0.04820000
v 0.35150000 0.00000000 0.04200000
v 0.34976200 0.01097000 0.04820000
v 0.34976200 0.01097000 0.04200000
v 0.34472000 0.02086600 0.04820000
v 0.34472000 0.02086600 0.04200000
v 0.33686600 0.02872000 0.04820000
v 0.33686600 0.02872000 0.04200000
v 0.32697000 0.03376300 0.04820000
v 0.32697000 0.03376300 0.04200000
v 0.31600000 0.03550000 0.04820000
v 0.31600000 0.03550000 0.04200000
v 0.27100000 0.03740000 0.10250000
v 0.27100000 0.03588500 0.09196300
v 0.26600000 0.03740000 0.10250000
v 0.26600000 0.03588500 0.09196300
v 0.27100000 0.03146300 0.08228000
v 0.26600000 0.03146300 0.08228000
v 0.27100000 0.02449200 0.07423500
v 0.26600000 0.02449200 0.07423500
v 0.27100000 0.01553700 0.06848000
v 0.26600000 0.01553700 0.06848000
v 0.27100000 0.00532300 0.06548100
v 0.26600000 0.00532300 0.06548100
v 0.27100000 -0.00532300 0.06548100
v 0.26600000 -0.00532300 0.06548100
v 0.27100000 -0.01553700 0.06848000
v 0.26600000 -0.01553700 0.06848000
v 0.27100000 -0.02449200 0.07423500
v 0.26600000 -0.02449200 0.07423500
v 0.27100000 -0.03146300 0.08228000
v 0.26600000 -0.03146300 0.08228000
v 0.27100000 -0.03588500 0.09196300
v 0.26600000 -0.03588500 0.09196300
v 0.26600000 -0.03740000 0.10250000
v 0.27100000 -0.03740000 0.10250000
v 0.06600000 0.03740000 0.10250000
v 0.07100000 0.03740000 0.10250000
v 0.06600000 0.03668100 0.09520400
v 0.07100000 0.03588500 0.09196300
v 0.06600000 0.03455300 0.08818800
v 0.07100000 0.03146300 0.08228000
v 0.06600000 0.03109700 0.08172200
v 0.06600000 0.02644600 0.07605400
v 0.07100000 0.02449200 0.07423500
v 0.06600000 0.02077800 0.07140300
v 0.07100000 0.01553700 0.06848000
v 0.06600000 0.01431200 0.06794700
v 0.06600000 0.00729600 0.06581900
v 0.07100000 0.00532300 0.06548100
v 0.06600000 0.00000000 0.06510000
v 0.07100000 -0.00532300 0.06548100
v 0.06600000 -0.00729600 0.06581900
v 0.07100000 -0.01553700 0.06848000
v 0.06600000 -0.01431200 0.06794700
v 0.06600000 -0.02077800 0.07140300
v 0.07100000 -0.02449200 0.07423500
v 0.06600000 -0.02644600 0.07605400
v 0.07100000 -0.03146300 0.08228000
v 0.06600000 -0.03109700 0.08172200
v 0.06600000 -0.03455300 0.08818800
v 0.07100000 -0.03588500 0.09196300
v 0.06600000 -0.03668100 0.09520400
v 0.07100000 -0.03740000 0.10250000
v 0.06600000 -0.03740000 0.10250000
v 0.06600000 -0.03740000 0.10250000
v 0.07100000 -0.03740000 0.10250000
v 0.06600000 -0.03668100 0.10979600
v 0.07100000 -0.03588500 0.11303700
v 0.06600000 -0.03455300 0.11681200
v 0.07100000 -0.03146300 0.12272000
v 0.06600000 -0.03109700 0.12327800
v 0.06600000 -0.02644600 0.12894600
v 0.07100000 -0.02449200 0.13076500
v 0.06600000 -0.02077800 0.13359700
v 0.07100000 -0.01553700 0.13652000
v 0.06600000 -0.01431200 0.13705300
v 0.06600000 -0.00729600 0.13918100
v 0.07100000 -0.00532300 0.13951900
v 0.06600000 0.00000000 0.13990000
v 0.07100000 0.00532300 0.13951900
v 0.06600000 0.00729600 0.13918100
v 0.07100000 0.01553700 0.13652000
v 0.06600000 0.01431200 0.13705300
v 0.06600000 0.02077800 0.13359700
v 0.07100000 0.02449200 0.13076500
v 0.06600000 0.02644600 0.12894600
v 0.07100000 0.03146300 0.12272000
v 0.06600000 0.03109700 0.12327800
v 0.06600000 0.03455300 0.11681200
v 0.07100000 0.03588500 0.11303700
v 0.06600000 0.03668100 0.10979600
v 0.26600000 -0.03740000 0.10250000
v 0.27100000 -0.03740000 0.10250000
v 0.26600000 -0.03588500 0.11303700
v 0.27100000 -0.03588500 0.11303700
v 0.27100000 -0.03146300 0.12272000
v 0.26600000 -0.03146300 0.12272000
v 0.27100000 -0.02449200 0.13076500
v 0.26600000 -0.02449200 0.13076500
v 0.27100000 -0.01553700 0.13652000
v 0.26600000 -0.01553700 0.13652000
v 0.27100000 -0.00532300 0.13951900
v 0.26600000 -0.00532300 0.13951900
v 0.27100000 0.00532300 0.13951900
v 0.26600000 0.00532300 0.13951900
v 0.27100000 0.01553700 0.13652000
v 0.26600000 0.01553700 0.13652000
v 0.27100000 0.02449200 0.13076500
v 0.26600000 0.02449200 0.13076500
v 0.27100000 0.03146300 0.12272000
v 0.26600000 0.03146300 0.12272000
v 0.27100000 0.03588500 0.11303700
v 0.26600000 0.03588500 0.11303700
v 0.30503000 -0.03376300 0.04200000
v 0.30503000 0.03376300 0.04200000
v 0.31600000 -0.03550000 0.04200000
v 0.31600000 0.03550000 0.04200000
v 0.32697000 -0.03376300 0.04200000
v 0.32697000 0.03376300 0.04200000
v 0.33686600 -0.02872000 0.04200000
v 0.33686600 0.02872000 0.04200000
v 0.34472000 -0.02086600 0.04200000
v 0.34472000 0.02086600 0.04200000
v 0.34976200 -0.01097000 0.04200000
v 0.34976200 0.01097000 0.04200000
v 0.35150000 0.00000000 0.04200000
v 0.29513400 0.02872000 0.04200000
v 0.29513400 -0.02872000 0.04200000
v 0.28728000 0.02086600 0.04200000
v 0.28728000 -0.02086600 0.04200000
v 0.28223700 0.01097000 0.04200000
v 0.28223700 -0.01097000 0.04200000
v 0.28050000 0.00000000 0.04200000
v 0.30571000 0.03167000 0.16230000
v 0.30571000 -0.03167000 0.16230000
v 0.31600000 0.03330000 0.16230000
v 0.31600000 -0.03330000 0.16230000
v 0.32629000 0.03167000 0.16230000
v 0.32629000 -0.03167000 0.16230000
v 0.33557300 0.02694000 0.16230000
v 0.33557300 -0.02694000 0.16230000
v 0.34294000 0.01957300 0.16230000
v 0.34294000 -0.01957300 0.16230000
v 0.34767000 0.01029000 0.16230000
v 0.34767000 -0.01029000 0.16230000
v 0.34930000 0.00000000 0.16230000
v 0.29642700 -0.02694000 0.16230000
v 0.29642700 0.02694000 0.16230000
v 0.28906000 -0.01957300 0.16230000
v 0.28906000 0.01957300 0.16230000
v 0.28433000 -0.01029000 0.16230000
v 0.28433000 0.01029000 0.16230000
v 0.28270000 0.00000000 0.16230000
v 0.31600000 0.03550000 0.04820000
v 0.31600000 0.03550000 0.04200000
v 0.30503000 0.03376300 0.04820000
v 0.30503000 0.03376300 0.04200000
v 0.29513400 0.02872000 0.04820000
v 0.29513400 0.02872000 0.04200000
v 0.28728000 0.02086600 0.04820000
v 0.28728000 0.02086600 0.04200000
v 0.28223700 0.01097000 0.04820000
v 0.28223700 0.01097000 0.04200000
v 0.28050000 0.00000000 0.04820000
v 0.28050000 0.00000000 0.04200000
v 0.28223700 -0.01097000 0.04820000
v 0.28223700 -0.01097000 0.04200000
v 0.28728000 -0.02086600 0.04820000
v 0.28728000 -0.02086600 0.04200000
v 0.29513400 -0.02872000 0.04820000
v 0.29513400 -0.02872000 0.04200000
v 0.30503000 -0.03376300 0.04820000
v 0.30503000 -0.03376300 0.04200000
v 0.31600000 -0.03830000 0.15730000
v 0.31600000 -0.03805500 0.15884500
v 0.30521000 -0.03674900 0.15730000
v 0.30480000 -0.03631000 0.15901000
v 0.29529300 -0.03222000 0.15730000
v 0.29459500 -0.03139600 0.15901000
v 0.28705500 -0.02508100 0.15730000
v 0.28629200 -0.02369200 0.15901000
v 0.28116100 -0.01591000 0.15730000
v 0.28062800 -0.01388200 0.15901000
v 0.27809000 -0.00545100 0.15730000
v 0.27810800 -0.00284000 0.15901000
v 0.27809000 0.00545100 0.15730000
v 0.27895400 0.00845500 0.15901000
v 0.28116100 0.01591000 0.15730000
v 0.28309200 0.01899900 0.15901000
v 0.28705500 0.02508100 0.15730000
v 0.29015400 0.02785500 0.15901000
v 0.29529300 0.03222000 0.15730000
v 0.29951300 0.03423500 0.15901000
v 0.30521000 0.03674900 0.15730000
v 0.31033700 0.03757400 0.15901000
v 0.31046600 0.03671600 0.16051400
v 0.31066400 0.03540000 0.16163000
v 0.31090700 0.03378700 0.16222400
v 0.30571000 0.03167000 0.16230000
v 0.30117500 0.03078500 0.16222400
v 0.29642700 0.02694000 0.16230000
v 0.29276000 0.02504700 0.16222400
v 0.28906000 0.01957300 0.16230000
v 0.28640900 0.01708400 0.16222400
v 0.28433000 0.01029000 0.16230000
v 0.28268800 0.00760300 0.16222400
v 0.28270000 0.00000000 0.16230000
v 0.28192700 -0.00255300 0.16222400
v 0.28433000 -0.01029000 0.16230000
v 0.28419400 -0.01248300 0.16222400
v 0.28906000 -0.01957300 0.16230000
v 0.28928600 -0.02130400 0.16222400
v 0.29642700 -0.02694000 0.16230000
v 0.29675200 -0.02823100 0.16222400
v 0.30571000 -0.03167000 0.16230000
v 0.30592900 -0.03265000 0.16222400
v 0.31600000 -0.03330000 0.16230000
v 0.31600000 -0.03484500 0.16205500
v 0.30544800 -0.03420900 0.16163000
v 0.31600000 -0.03623900 0.16134500
v 0.30505600 -0.03548100 0.16051400
v 0.31600000 -0.03734500 0.16023900
v 0.29583300 -0.02957900 0.16163000
v 0.28801000 -0.02232100 0.16163000
v 0.28267500 -0.01307900 0.16163000
v 0.28030000 -0.00267500 0.16163000
v 0.28109800 0.00796600 0.16163000
v 0.28499600 0.01790000 0.16163000
v 0.29165000 0.02624300 0.16163000
v 0.30046700 0.03225500 0.16163000
v 0.29508400 -0.03067800 0.16051400
v 0.28697000 -0.02315000 0.16051400
v 0.28143600 -0.01356500 0.16051400
v 0.27897400 -0.00277500 0.16051400
v 0.27980100 0.00826200 0.16051400
v 0.28384400 0.01856500 0.16051400
v 0.29074500 0.02721800 0.16051400
v 0.29989000 0.03345300 0.16051400
v 0.30521000 0.03674900 0.04820000
v 0.31600000 0.03830000 0.04820000
v 0.31600000 0.03550000 0.04820000
v 0.32679000 0.03674900 0.04820000
v 0.32697000 0.03376300 0.04820000
v 0.33670600 0.03222000 0.04820000
v 0.33686600 0.02872000 0.04820000
v 0.34494500 0.02508100 0.04820000
v 0.34472000 0.02086600 0.04820000
v 0.35083900 0.01591000 0.04820000
v 0.34976200 0.01097000 0.04820000
v 0.35391000 0.00545100 0.04820000
v 0.35150000 0.00000000 0.04820000
v 0.35391000 -0.00545100 0.04820000
v 0.34976200 -0.01097000 0.04820000
v 0.35083900 -0.01591000 0.04820000
v 0.34472000 -0.02086600 0.04820000
v 0.34494500 -0.02508100 0.04820000
v 0.33686600 -0.02872000 0.04820000
v 0.33670600 -0.03222000 0.04820000
v 0.32697000 -0.03376300 0.04820000
v 0.32679000 -0.03674900 0.04820000
v 0.31600000 -0.03550000 0.04820000
v 0.31600000 -0.03830000 0.04820000
v 0.30521000 -0.03674900 0.04820000
v 0.30503000 -0.03376300 0.04820000
v 0.29529300 -0.03222000 0.04820000
v 0.29513400 -0.02872000 0.04820000
v 0.28705500 -0.02508100 0.04820000
v 0.28728000 -0.02086600 0.04820000
v 0.28116100 -0.01591000 0.04820000
v 0.28223700 -0.01097000 0.04820000
v 0.27809000 -0.00545100 0.04820000
v 0.28050000 0.00000000 0.04820000
v 0.27809000 0.00545100 0.04820000
v 0.28223700 0.01097000 0.04820000
v 0.28116100 0.01591000 0.04820000
v 0.28728000 0.02086600 0.04820000
v 0.28705500 0.02508100 0.04820000
v 0.29513400 0.02872000 0.04820000
v 0.29529300 0.03222000 0.04820000
v 0.30503000 0.03376300 0.04820000
v 0.31600000 0.03830000 0.13641800
v 0.30521000 0.03674900 0.13930900
v 0.31600000 0.03830000 0.15730000
v 0.30521000 0.03674900 0.15730000
v 0.29529300 0.03222000 0.14196600
v 0.29529300 0.03222000 0.15730000
v 0.28705500 0.02508100 0.14417400
v 0.28705500 0.02508100 0.15730000
v 0.28116100 0.01591000 0.14575300
v 0.28116100 0.01591000 0.15730000
v 0.27809000 0.00545100 0.14657600
v 0.27809000 0.00545100 0.15730000
v 0.27809000 -0.00545100 0.14657600
v 0.27809000 -0.00545100 0.15730000
v 0.28116100 -0.01591000 0.15730000
v 0.28116100 -0.01591000 0.14575300
v 0.28705500 -0.02508100 0.15730000
v 0.28705500 -0.02508100 0.14417400
v 0.29529300 -0.03222000 0.15730000
v 0.29529300 -0.03222000 0.14196600
v 0.30521000 -0.03674900 0.15730000
v 0.30521000 -0.03674900 0.13930900
v 0.31600000 -0.03830000 0.04820000
v 0.31600000 -0.03830000 0.05320000
v 0.30521000 -0.03674900 0.04820000
v 0.30521000 -0.03674900 0.05320000
v 0.29529300 -0.03222000 0.05320000
v 0.29529300 -0.03222000 0.04820000
v 0.28705500 -0.02508100 0.05320000
v 0.28705500 -0.02508100 0.04820000
v 0.28116100 -0.01591000 0.05320000
v 0.28116100 -0.01591000 0.04820000
v 0.27809000 -0.00545100 0.05320000
v 0.27809000 -0.00545100 0.04820000
v 0.27809000 0.00545100 0.05320000
v 0.27809000 0.00545100 0.04820000
v 0.28116100 0.01591000 0.05320000
v 0.28116100 0.01591000 0.04820000
v 0.28705500 0.02508100 0.05320000
v 0.28705500 0.02508100 0.04820000
v 0.29529300 0.03222000 0.05320000
v 0.29529300 0.03222000 0.04820000
v 0.30521000 0.03674900 0.05320000
v 0.30521000 0.03674900 0.04820000
vn 0.00000000 0.00000000 -100.00000000
vn 0.00000000 28.17326000 -95.94930000
vn 0.00000000 0.00000000 -100.00000000
vn 0.00000000 28.17326000 -95.94930000
vn 0.00000000 54.06408000 -84.12535000
vn 0.00000000 54.06408000 -84.12535000
vn 0.00000000 75.57496000 -65.48608000
vn 0.00000000 75.57496000 -65.48608000
vn 0.00000000 90.96320000 -41.54150000
vn 0.00000000 90.96320000 -41.54150000
vn 0.00000000 98.98215000 -14.23148000
vn 0.00000000 98.98215000 -14.23148000
vn 0.00000000 98.98215000 14.23148000
vn 0.00000000 98.98215000 14.23148000
vn 0.00000000 90.96320000 41.54150000
vn 0.00000000 90.96320000 41.54150000
vn 0.00000000 75.57496000 65.48608000
vn 0.00000000 75.57496000 65.48608000
vn 0.00000000 54.06408000 84.12535000
vn 0.00000000 54.06408000 84.12535000
vn 0.00000000 28.17326000 95.94930000
vn 0.00000000 28.17326000 95.94930000
vn 0.00000000 0.00000000 100.00000000
vn 0.00000000 0.00000000 100.00000000
vn 0.00000000 0.00000000 100.00000000
vn 0.00000000 0.00000000 100.00000000
vn 0.00000000 28.17326000 95.94930000
vn 0.00000000 28.17326000 95.94930000
vn 0.00000000 54.06408000 84.12535000
vn 0.00000000 54.06408000 84.12535000
vn 0.00000000 75.57496000 65.48608000
vn 0.00000000 75.57496000 65.48608000
vn 0.00000000 90.96320000 41.54150000
vn 0.00000000 90.96320000 41.54150000
vn 0.00000000 98.98215000 14.23148000
vn 0.00000000 98.98215000 14.23148000
vn 0.00000000 98.98215000 -14.23148000
vn 0.00000000 98.98215000 -14.23148000
vn 0.00000000 90.96320000 -41.54150000
vn 0.00000000 90.96320000 -41.54150000
vn 0.00000000 75.57496000 -65.48608000
vn 0.00000000 75.57496000 -65.48608000
vn 0.00000000 54.06408000 -84.12535000
vn 0.00000000 54.06408000 -84.12535000
vn 0.00000000 28.17326000 -95.94930000
vn 0.00000000 28.17326000 -95.94930000
vn 0.00000000 0.00000000 -100.00000000
vn 0.00000000 0.00000000 -100.00000000
vn -95.10565000 0.00000000 -30.90170000
vn -100.00000000 0.00000000 0.00000000
vn -98.48077000 2.58809000 -17.17087000
vn -100.00000000 0.00000000 0.00000000
vn -98.48077000 7.53431000 -15.64516000
vn -100.00000000 0.00000000 0.00000000
vn -98.48077000 11.81108000 -12.72931000
vn -100.00000000 0.00000000 0.00000000
vn -98.48077000 15.03837000 -8.68241000
vn -100.00000000 0.00000000 0.00000000
vn -98.48077000 16.92945000 -3.86404000
vn -100.00000000 0.00000000 0.00000000
vn -98.48077000 17.31626000 1.29767000
vn -100.00000000 0.00000000 0.00000000
vn -98.48077000 16.16445000 6.34408000
vn -100.00000000 0.00000000 0.00000000
vn -98.48077000 13.57636000 10.82679000
vn -100.00000000 0.00000000 0.00000000
vn -98.48077000 9.78195000 14.34749000
vn -100.00000000 0.00000000 0.00000000
vn -98.48077000 5.11837000 16.59335000
vn -100.00000000 0.00000000 0.00000000
vn -95.10565000 0.00000000 30.90170000
vn -86.60254000 14.73776000 47.77864000
vn -80.90170000 0.00000000 58.77853000
vn -64.27876000 22.57956000 73.20113000
vn -58.77853000 0.00000000 80.90170000
vn -34.20202000 27.69793000 89.79447000
vn -30.90170000 0.00000000 95.10565000
vn 0.00000000 28.17326000 95.94930000
vn 0.00000000 0.00000000 100.00000000
vn 0.00000000 54.06408000 84.12535000
vn -34.20202000 52.93477000 77.64105000
vn -64.27876000 43.15282000 63.29356000
vn -64.27876000 59.89177000 47.76209000
vn -86.60254000 39.09158000 31.17449000
vn -86.60254000 46.54369000 18.26705000
vn 0.00000000 75.57496000 65.48608000
vn -34.20202000 73.46812000 58.58888000
vn -64.27876000 71.30907000 27.98675000
vn -86.60254000 49.86019000 3.73650000
vn 0.00000000 90.96320000 41.54150000
vn -34.20202000 87.47352000 34.33083000
vn -64.27876000 76.39024000 5.72466000
vn -86.60254000 48.74640000 -11.12605000
vn 0.00000000 98.98215000 14.23148000
vn -34.20202000 93.70650000 7.02233000
vn -64.27876000 74.68381000 -17.04609000
vn -86.60254000 43.30127000 -25.00000000
vn 0.00000000 98.98215000 -14.23148000
vn -34.20202000 91.61326000 -20.91013000
vn -64.27876000 66.34139000 -38.30222000
vn -86.60254000 34.00864000 -36.65259000
vn 0.00000000 90.96320000 -41.54150000
vn -34.20202000 81.37977000 -46.98463000
vn -64.27876000 52.10426000 -56.15503000
vn -86.60254000 21.69419000 -45.04844000
vn 0.00000000 75.57496000 -65.48608000
vn -34.20202000 63.91533000 -68.88435000
vn -64.27876000 33.23742000 -69.01822000
vn -86.60254000 7.45211000 -49.44154000
vn 0.00000000 54.06408000 -84.12535000
vn -34.20202000 40.77174000 -84.66338000
vn -64.27876000 11.41730000 -75.74883000
vn -80.90170000 0.00000000 -58.77853000
vn 0.00000000 28.17326000 -95.94930000
vn -34.20202000 14.00539000 -92.91970000
vn -58.77853000 0.00000000 -80.90170000
vn 0.00000000 0.00000000 -100.00000000
vn -30.90170000 0.00000000 -95.10565000
vn -86.60254000 28.16600000 41.31194000
vn 0.00000000 0.00000000 100.00000000
vn 0.00000000 0.00000000 100.00000000
vn 0.00000000 30.90170000 95.10565000
vn 0.00000000 30.90170000 95.10565000
vn 0.00000000 58.77853000 80.90170000
vn 0.00000000 58.77853000 80.90170000
vn 0.00000000 80.90170000 58.77853000
vn 0.00000000 80.90170000 58.77853000
vn 0.00000000 95.10565000 30.90170000
vn 0.00000000 95.10565000 30.90170000
vn 0.00000000 100.00000000 0.00000000
vn 0.00000000 100.00000000 0.00000000
vn 0.00000000 95.10565000 -30.90170000
vn 0.00000000 95.10565000 -30.90170000
vn 0.00000000 80.90170000 -58.77853000
vn 0.00000000 80.90170000 -58.77853000
vn 0.00000000 58.77853000 -80.90170000
vn 0.00000000 58.77853000 -80.90170000
vn 0.00000000 30.90170000 -95.10565000
vn 0.00000000 30.90170000 -95.10565000
vn 0.00000000 0.00000000 -100.00000000
vn 0.00000000 0.00000000 -100.00000000
vn 0.00000000 0.00000000 -100.00000000
vn 28.17326000 0.00000000 -95.94930000
vn 0.00000000 0.00000000 -100.00000000
vn 28.17326000 0.00000000 -95.94930000
vn 54.06408000 0.00000000 -84.12535000
vn 54.06408000 0.00000000 -84.12535000
vn 75.57496000 0.00000000 -65.48608000
vn 75.57496000 0.00000000 -65.48608000
vn 90.96320000 0.00000000 -41.54150000
vn 90.96320000 0.00000000 -41.54150000
vn 98.98215000 0.00000000 -14.23148000
vn 98.98215000 0.00000000 -14.23148000
vn 98.98215000 0.00000000 14.23148000
vn 98.98215000 0.00000000 14.23148000
vn 90.96320000 0.00000000 41.54150000
vn 90.96320000 0.00000000 41.54150000
vn 75.57496000 0.00000000 65.48608000
vn 75.57496000 0.00000000 65.48608000
vn 54.06408000 0.00000000 84.12535000
vn 54.06408000 0.00000000 84.12535000
vn 28.17326000 0.00000000 95.94930000
vn 28.17326000 0.00000000 95.94930000
vn 0.00000000 0.00000000 100.00000000
vn 0.00000000 0.00000000 100.00000000
vn 0.00000000 0.00000000 -100.00000000
vn 0.00000000 0.00000000 -100.00000000
vn 19.50903000 0.00000000 -98.07853000
vn 28.17326000 0.00000000 -95.94930000
vn 38.26834000 0.00000000 -92.38796000
vn 54.06408000 0.00000000 -84.12535000
vn 55.55702000 0.00000000 -83.14696000
vn 70.71068000 0.00000000 -70.71068000
vn 75.57496000 0.00000000 -65.48608000
vn 83.14696000 0.00000000 -55.55702000
vn 90.96320000 0.00000000 -41.54150000
vn 92.38796000 0.00000000 -38.26834000
vn 98.07853000 0.00000000 -19.50903000
vn 98.98215000 0.00000000 -14.23148000
vn 100.00000000 0.00000000 -0.00000000
vn 98.98215000 0.00000000 14.23148000
vn 98.07853000 0.00000000 19.50903000
vn 90.96320000 0.00000000 41.54150000
vn 92.38796000 0.00000000 38.26834000
vn 83.14696000 0.00000000 55.55702000
vn 75.57496000 0.00000000 65.48608000
vn 70.71068000 0.00000000 70.71068000
vn 54.06408000 0.00000000 84.12535000
vn 55.55702000 0.00000000 83.14696000
vn 38.26834000 0.00000000 92.38796000
vn 28.17326000 0.00000000 95.94930000
vn 19.50903000 0.00000000 98.07853000
vn 0.00000000 0.00000000 100.00000000
vn 0.00000000 0.00000000 100.00000000
vn 0.00000000 0.00000000 100.00000000
vn 0.00000000 0.00000000 100.00000000
vn -19.50903000 0.00000000 98.07853000
vn -28.17326000 0.00000000 95.94930000
vn -38.26834000 0.00000000 92.38796000
vn -54.06408000 0.00000000 84.12535000
vn -55.55702000 0.00000000 83.14696000
vn -70.71068000 0.00000000 70.71068000
vn -75.57496000 0.00000000 65.48608000
vn -83.14696000 0.00000000 55.55702000
vn -90.96320000 0.00000000 41.54150000
vn -92.38796000 0.00000000 38.26834000
vn -98.07853000 0.00000000 19.50903000
vn -98.98215000 0.00000000 14.23148000
vn -100.00000000 0.00000000 0.00000000
vn -98.98215000 0.00000000 -14.23148000
vn -98.07853000 0.00000000 -19.50903000
vn -90.96320000 0.00000000 -41.54150000
vn -92.38796000 0.00000000 -38.26834000
vn -83.14696000 0.00000000 -55.55702000
vn -75.57496000 0.00000000 -65.48608000
vn -70.71068000 0.00000000 -70.71068000
vn -54.06408000 0.00000000 -84.12535000
vn -55.55702000 0.00000000 -83.14696000
vn -38.26834000 0.00000000 -92.38796000
vn -28.17326000 0.00000000 -95.94930000
vn -19.50903000 0.00000000 -98.07853000
vn 0.00000000 0.00000000 100.00000000
vn 0.00000000 0.00000000 100.00000000
vn -28.17326000 0.00000000 95.94930000
vn -28.17326000 0.00000000 95.94930000
vn -54.06408000 0.00000000 84.12535000
vn -54.06408000 0.00000000 84.12535000
vn -75.57496000 0.00000000 65.48608000
vn -75.57496000 0.00000000 65.48608000
vn -90.96320000 0.00000000 41.54150000
vn -90.96320000 0.00000000 41.54150000
vn -98.98215000 0.00000000 14.23148000
vn -98.98215000 0.00000000 14.23148000
vn -98.98215000 0.00000000 -14.23148000
vn -98.98215000 0.00000000 -14.23148000
vn -90.96320000 0.00000000 -41.54150000
vn -90.96320000 0.00000000 -41.54150000
vn -75.57496000 0.00000000 -65.48608000
vn -75.57496000 0.00000000 -65.48608000
vn -54.06408000 0.00000000 -84.12535000
vn -54.06408000 0.00000000 -84.12535000
vn -28.17326000 0.00000000 -95.94930000
vn -28.17326000 0.00000000 -95.94930000
vn 100.00000000 0.00000000 -0.00000000
vn 100.00000000 0.00000000 -0.00000000
vn 100.00000000 0.00000000 -0.00000000
vn 100.00000000 0.00000000 -0.00000000
vn 100.00000000 0.00000000 -0.00000000
vn 100.00000000 0.00000000 -0.00000000
vn 100.00000000 0.00000000 -0.00000000
vn 100.00000000 0.00000000 -0.00000000
vn 100.00000000 0.00000000 -0.00000000
vn 100.00000000 0.00000000 -0.00000000
vn 100.00000000 0.00000000 -0.00000000
vn 100.00000000 0.00000000 -0.00000000
vn 100.00000000 0.00000000 -0.00000000
vn 100.00000000 0.00000000 -0.00000000
vn 100.00000000 0.00000000 -0.00000000
vn 100.00000000 0.00000000 -0.00000000
vn 100.00000000 0.00000000 -0.00000000
vn 100.00000000 0.00000000 -0.00000000
vn 100.00000000 0.00000000 -0.00000000
vn 100.00000000 0.00000000 -0.00000000
vn -100.00000000 0.00000000 0.00000000
vn -100.00000000 0.00000000 0.00000000
vn -100.00000000 0.00000000 0.00000000
vn -100.00000000 0.00000000 0.00000000
vn -100.00000000 0.00000000 0.00000000
vn -100.00000000 0.00000000 0.00000000
vn -100.00000000 0.00000000 0.00000000
vn -100.00000000 0.00000000 0.00000000
vn -100.00000000 0.00000000 0.00000000
vn -100.00000000 0.00000000 0.00000000
vn -100.00000000 0.00000000 0.00000000
vn -100.00000000 0.00000000 0.00000000
vn -100.00000000 0.00000000 0.00000000
vn -100.00000000 0.00000000 0.00000000
vn -100.00000000 0.00000000 0.00000000
vn -100.00000000 0.00000000 0.00000000
vn -100.00000000 0.00000000 0.00000000
vn -100.00000000 0.00000000 0.00000000
vn -100.00000000 0.00000000 0.00000000
vn -100.00000000 0.00000000 0.00000000
vn 0.00000000 0.00000000 -100.00000000
vn 0.00000000 0.00000000 -100.00000000
vn 0.00000000 -30.90170000 -95.10565000
vn 0.00000000 -30.90170000 -95.10565000
vn 0.00000000 -58.77853000 -80.90170000
vn 0.00000000 -58.77853000 -80.90170000
vn 0.00000000 -80.90170000 -58.77853000
vn 0.00000000 -80.90170000 -58.77853000
vn 0.00000000 -95.10565000 -30.90170000
vn 0.00000000 -95.10565000 -30.90170000
vn 0.00000000 -100.00000000 0.00000000
vn 0.00000000 -100.00000000 0.00000000
vn 0.00000000 -95.10565000 30.90170000
vn 0.00000000 -95.10565000 30.90170000
vn 0.00000000 -80.90170000 58.77853000
vn 0.00000000 -80.90170000 58.77853000
vn 0.00000000 -58.77853000 80.90170000
vn 0.00000000 -58.77853000 80.90170000
vn 0.00000000 -30.90170000 95.10565000
vn 0.00000000 -30.90170000 95.10565000
vn 0.00000000 0.00000000 100.00000000
vn -30.90170000 0.00000000 95.10565000
vn 0.00000000 -28.17326000 95.94930000
vn -34.20202000 -27.69793000 89.79447000
vn 0.00000000 -54.06408000 84.12535000
vn -34.20202000 -52.93477000 77.64105000
vn 0.00000000 -75.57496000 65.48608000
vn -34.20202000 -73.46812000 58.58888000
vn 0.00000000 -90.96320000 41.54150000
vn -34.20202000 -87.47352000 34.33083000
vn 0.00000000 -98.98215000 14.23148000
vn -34.20202000 -93.70650000 7.02233000
vn 0.00000000 -98.98215000 -14.23148000
vn -34.20202000 -91.61326000 -20.91013000
vn 0.00000000 -90.96320000 -41.54150000
vn -34.20202000 -81.37977000 -46.98463000
vn 0.00000000 -75.57496000 -65.48608000
vn -34.20202000 -63.91533000 -68.88435000
vn 0.00000000 -54.06408000 -84.12535000
vn -34.20202000 -40.77174000 -84.66338000
vn 0.00000000 -28.17326000 -95.94930000
vn -34.20202000 -14.00539000 -92.91970000
vn -64.27876000 -11.41730000 -75.74883000
vn -86.60254000 -7.45211000 -49.44154000
vn -98.48077000 -2.58809000 -17.17087000
vn -100.00000000 0.00000000 0.00000000
vn -98.48077000 -7.53431000 -15.64516000
vn -100.00000000 0.00000000 0.00000000
vn -98.48077000 -11.81108000 -12.72931000
vn -100.00000000 0.00000000 0.00000000
vn -98.48077000 -15.03837000 -8.68241000
vn -100.00000000 0.00000000 0.00000000
vn -98.48077000 -16.92945000 -3.86404000
vn -100.00000000 0.00000000 0.00000000
vn -98.48077000 -17.31626000 1.29767000
vn -100.00000000 0.00000000 0.00000000
vn -98.48077000 -16.16445000 6.34408000
vn -100.00000000 0.00000000 0.00000000
vn -98.48077000 -13.57636000 10.82679000
vn -100.00000000 0.00000000 0.00000000
vn -98.48077000 -9.78195000 14.34749000
vn -100.00000000 0.00000000 0.00000000
vn -98.48077000 -5.11837000 16.59335000
vn -100.00000000 0.00000000 0.00000000
vn -95.10565000 0.00000000 30.90170000
vn -86.60254000 -14.73776000 47.77864000
vn -80.90170000 0.00000000 58.77853000
vn -64.27876000 -22.57956000 73.20113000
vn -58.77853000 0.00000000 80.90170000
vn -86.60254000 -28.16600000 41.31194000
vn -86.60254000 -39.09158000 31.17449000
vn -86.60254000 -46.54369000 18.26705000
vn -86.60254000 -49.86019000 3.73650000
vn -86.60254000 -48.74640000 -11.12605000
vn -86.60254000 -43.30127000 -25.00000000
vn -86.60254000 -34.00864000 -36.65259000
vn -86.60254000 -21.69419000 -45.04844000
vn -64.27876000 -43.15282000 63.29356000
vn -64.27876000 -59.89177000 47.76209000
vn -64.27876000 -71.30907000 27.98675000
vn -64.27876000 -76.39024000 5.72466000
vn -64.27876000 -74.68381000 -17.04609000
vn -64.27876000 -66.34139000 -38.30222000
vn -64.27876000 -52.10426000 -56.15503000
vn -64.27876000 -33.23742000 -69.01822000
vn 100.00000000 0.00000000 -0.00000000
vn 100.00000000 0.00000000 -0.00000000
vn 100.00000000 0.00000000 -0.00000000
vn 100.00000000 0.00000000 -0.00000000
vn 100.00000000 0.00000000 -0.00000000
vn 100.00000000 0.00000000 -0.00000000
vn 100.00000000 0.00000000 -0.00000000
vn 100.00000000 0.00000000 -0.00000000
vn 100.00000000 0.00000000 -0.00000000
vn 100.00000000 0.00000000 -0.00000000
vn 100.00000000 0.00000000 -0.00000000
vn 100.00000000 0.00000000 -0.00000000
vn 100.00000000 0.00000000 -0.00000000
vn 100.00000000 0.00000000 -0.00000000
vn 100.00000000 0.00000000 -0.00000000
vn 100.00000000 0.00000000 -0.00000000
vn 100.00000000 0.00000000 -0.00000000
vn 100.00000000 0.00000000 -0.00000000
vn 100.00000000 0.00000000 -0.00000000
vn 100.00000000 0.00000000 -0.00000000
vn 100.00000000 0.00000000 -0.00000000
vn 100.00000000 0.00000000 -0.00000000
vn 100.00000000 0.00000000 -0.00000000
vn 100.00000000 0.00000000 -0.00000000
vn 100.00000000 0.00000000 -0.00000000
vn 100.00000000 0.00000000 -0.00000000
vn 100.00000000 0.00000000 -0.00000000
vn 100.00000000 0.00000000 -0.00000000
vn 100.00000000 0.00000000 -0.00000000
vn 100.00000000 0.00000000 -0.00000000
vn 100.00000000 0.00000000 -0.00000000
vn 100.00000000 0.00000000 -0.00000000
vn 100.00000000 0.00000000 -0.00000000
vn 100.00000000 0.00000000 -0.00000000
vn 100.00000000 0.00000000 -0.00000000
vn 100.00000000 0.00000000 -0.00000000
vn 100.00000000 0.00000000 -0.00000000
vn 100.00000000 0.00000000 -0.00000000
vn 100.00000000 0.00000000 -0.00000000
vn 100.00000000 0.00000000 -0.00000000
vn 100.00000000 0.00000000 -0.00000000
vn 100.00000000 0.00000000 -0.00000000
vn 0.00000000 0.00000000 -100.00000000
vn 0.00000000 -28.17326000 -95.94930000
vn 0.00000000 0.00000000 -100.00000000
vn 0.00000000 -28.17326000 -95.94930000
vn 0.00000000 -54.06408000 -84.12535000
vn 0.00000000 -54.06408000 -84.12535000
vn 0.00000000 -75.57496000 -65.48608000
vn 0.00000000 -75.57496000 -65.48608000
vn 0.00000000 -90.96320000 -41.54150000
vn 0.00000000 -90.96320000 -41.54150000
vn 0.00000000 -98.98215000 -14.23148000
vn 0.00000000 -98.98215000 -14.23148000
vn 0.00000000 -98.98215000 14.23148000
vn 0.00000000 -98.98215000 14.23148000
vn 0.00000000 -90.96320000 41.54150000
vn 0.00000000 -90.96320000 41.54150000
vn 0.00000000 -75.57496000 65.48608000
vn 0.00000000 -75.57496000 65.48608000
vn 0.00000000 -54.06408000 84.12535000
vn 0.00000000 -54.06408000 84.12535000
vn 0.00000000 -28.17326000 95.94930000
vn 0.00000000 -28.17326000 95.94930000
vn 0.00000000 0.00000000 100.00000000
vn 0.00000000 0.00000000 100.00000000
vn 0.00000000 -28.17326000 95.94930000
vn 0.00000000 -28.17326000 95.94930000
vn 0.00000000 -54.06408000 84.12535000
vn 0.00000000 -54.06408000 84.12535000
vn 0.00000000 -75.57496000 65.48608000
vn 0.00000000 -75.57496000 65.48608000
vn 0.00000000 -90.96320000 41.54150000
vn 0.00000000 -90.96320000 41.54150000
vn 0.00000000 -98.98215000 14.23148000
vn 0.00000000 -98.98215000 14.23148000
vn 0.00000000 -98.98215000 -14.23148000
vn 0.00000000 -98.98215000 -14.23148000
vn 0.00000000 -90.96320000 -41.54150000
vn 0.00000000 -90.96320000 -41.54150000
vn 0.00000000 -75.57496000 -65.48608000
vn 0.00000000 -75.57496000 -65.48608000
vn 0.00000000 -54.06408000 -84.12535000
vn 0.00000000 -54.06408000 -84.12535000
vn 0.00000000 -28.17326000 -95.94930000
vn 0.00000000 -28.17326000 -95.94930000
vt 0.00000000 0.00000000
vt -0.00000000 1.09384000
vt -0.50000000 0.00000000
vt -0.50000000 1.09384000
vt -0.00000000 2.18769000
vt -0.50000000 2.18769000
vt -0.00000000 3.28154000
vt -0.50000000 3.28154000
vt -0.00000000 4.37538000
vt -0.50000000 4.37538000
vt -0.00000000 5.46923000
vt -0.50000000 5.46923000
vt -0.00000000 6.56307000
vt -0.50000000 6.56307000
vt -0.00000000 7.65692000
vt -0.50000000 7.65692000
vt -0.00000000 8.75076000
vt -0.50000000 8.75076000
vt -0.00000000 9.84461000
vt -0.50000000 9.84461000
vt -0.00000000 10.93846000
vt -0.50000000 10.93846000
vt -0.50000000 12.03230000
vt -0.00000000 12.03230000
vt -16.04802000 0.00000000
vt -13.95983000 0.00000000
vt -16.04802000 1.09384000
vt -13.67070000 1.09384000
vt -16.04802000 2.18769000
vt -13.40500000 2.18769000
vt -16.04802000 3.28154000
vt -13.18424000 3.28154000
vt -16.04802000 4.37538000
vt -13.02632000 4.37538000
vt -16.04802000 5.46923000
vt -12.94403000 5.46923000
vt -12.94403000 6.56307000
vt -16.04802000 6.56307000
vt -13.02632000 7.65692000
vt -16.04802000 7.65692000
vt -13.18424000 8.75076000
vt -16.04802000 8.75076000
vt -13.40500000 9.84461000
vt -16.04802000 9.84461000
vt -13.67070000 10.93846000
vt -16.04802000 10.93846000
vt -13.95983000 12.03230000
vt -16.04802000 12.03230000
vt 0.62832000 0.00000000
vt 0.78540000 0.00000000
vt 0.69813000 0.55106000
vt 0.78540000 1.15722000
vt 0.69813000 1.65318000
vt 0.78540000 2.31444000
vt 0.69813000 2.75529000
vt 0.78540000 3.47167000
vt 0.69813000 3.85741000
vt 0.78540000 4.62889000
vt 0.69813000 4.95952000
vt 0.78540000 5.78611000
vt 0.69813000 6.06164000
vt 0.78540000 6.94334000
vt 0.69813000 7.16376000
vt 0.78540000 8.10056000
vt 0.69813000 8.26587000
vt 0.78540000 9.25778000
vt 0.69813000 9.36799000
vt 0.78540000 10.41500000
vt 0.69813000 10.47011000
vt 0.78540000 11.57222000
vt 0.62832000 11.57222000
vt 0.52360000 10.47011000
vt 0.47124000 11.57222000
vt 0.34907000 10.47011000
vt 0.31416000 11.57222000
vt 0.17453000 10.47011000
vt 0.15708000 11.57222000
vt -0.00000000 10.52020000
vt -0.00000000 11.57222000
vt -0.00000000 9.46818000
vt 0.17453000 9.36799000
vt 0.34907000 9.36799000
vt 0.34907000 8.26587000
vt 0.52360000 8.26587000
vt 0.52360000 7.16376000
vt -0.00000000 8.41616000
vt 0.17453000 8.26587000
vt 0.34907000 7.16376000
vt 0.52360000 6.06164000
vt -0.00000000 7.36414000
vt 0.17453000 7.16376000
vt 0.34907000 6.06164000
vt 0.52360000 4.95952000
vt -0.00000000 6.31212000
vt 0.17453000 6.06164000
vt 0.34907000 4.95952000
vt 0.52360000 3.85741000
vt -0.00000000 5.26010000
vt 0.17453000 4.95952000
vt 0.34907000 3.85741000
vt 0.52360000 2.75529000
vt -0.00000000 4.20808000
vt 0.17453000 3.85741000
vt 0.34907000 2.75529000
vt 0.52360000 1.65318000
vt -0.00000000 3.15606000
vt 0.17453000 2.75529000
vt 0.34907000 1.65318000
vt 0.52360000 0.55106000
vt -0.00000000 2.10404000
vt 0.17453000 1.65318000
vt 0.34907000 0.55106000
vt 0.47124000 0.00000000
vt -0.00000000 1.05202000
vt 0.17453000 0.55106000
vt 0.31416000 0.00000000
vt 0.00000000 0.00000000
vt 0.15708000 0.00000000
vt 0.52360000 9.36799000
vt -0.62000000 0.00000000
vt 0.00000000 0.00000000
vt -0.62000000 1.11526000
vt 0.00000000 1.11526000
vt -0.62000000 2.23053000
vt -0.00000000 2.23053000
vt -0.62000000 3.34580000
vt -0.00000000 3.34580000
vt -0.62000000 4.46106000
vt -0.00000000 4.46106000
vt -0.62000000 5.57633000
vt -0.00000000 5.57633000
vt -0.62000000 6.69159000
vt -0.00000000 6.69159000
vt -0.62000000 7.80686000
vt -0.00000000 7.80686000
vt -0.62000000 8.92212000
vt -0.00000000 8.92212000
vt -0.62000000 10.03739000
vt -0.00000000 10.03739000
vt -0.62000000 11.15265000
vt -0.00000000 11.15265000
vt 0.00000000 0.00000000
vt -0.00000000 1.06814000
vt -0.50000000 0.00000000
vt -0.50000000 1.06814000
vt -0.00000000 2.13628000
vt -0.50000000 2.13628000
vt -0.00000000 3.20442000
vt -0.50000000 3.20442000
vt -0.00000000 4.27257000
vt -0.50000000 4.27257000
vt -0.00000000 5.34071000
vt -0.50000000 5.34071000
vt -0.00000000 6.40885000
vt -0.50000000 6.40885000
vt -0.00000000 7.47699000
vt -0.50000000 7.47699000
vt -0.00000000 8.54513000
vt -0.50000000 8.54513000
vt -0.00000000 9.61327000
vt -0.50000000 9.61327000
vt -0.00000000 10.68142000
vt -0.50000000 10.68142000
vt -0.50000000 11.74956000
vt -0.00000000 11.74956000
vt -0.50000000 0.00000000
vt 0.00000000 0.00000000
vt -0.50000000 0.73435000
vt -0.00000000 1.06814000
vt -0.50000000 1.46870000
vt -0.00000000 2.13628000
vt -0.50000000 2.20304000
vt -0.50000000 2.93739000
vt -0.00000000 3.20442000
vt -0.50000000 3.67174000
vt -0.00000000 4.27257000
vt -0.50000000 4.40608000
vt -0.50000000 5.14043000
vt -0.00000000 5.34071000
vt -0.50000000 5.87478000
vt -0.00000000 6.40885000
vt -0.50000000 6.60913000
vt -0.00000000 7.47699000
vt -0.50000000 7.34347000
vt -0.50000000 8.07782000
vt -0.00000000 8.54513000
vt -0.50000000 8.81217000
vt -0.00000000 9.61327000
vt -0.50000000 9.54652000
vt -0.50000000 10.28086000
vt -0.00000000 10.68142000
vt -0.50000000 11.01521000
vt -0.00000000 11.74956000
vt -0.50000000 11.74956000
vt -0.50000000 -11.74956000
vt -0.00000000 -11.74956000
vt -0.50000000 -11.01521000
vt -0.00000000 -10.68142000
vt -0.50000000 -10.28086000
vt -0.00000000 -9.61327000
vt -0.50000000 -9.54652000
vt -0.50000000 -8.81217000
vt -0.00000000 -8.54513000
vt -0.50000000 -8.07782000
vt -0.00000000 -7.47699000
vt -0.50000000 -7.34347000
vt -0.50000000 -6.60913000
vt -0.00000000 -6.40885000
vt -0.50000000 -5.87478000
vt 0.00000000 -5.34071000
vt -0.50000000 -5.14043000
vt 0.00000000 -4.27257000
vt -0.50000000 -4.40608000
vt -0.50000000 -3.67174000
vt 0.00000000 -3.20442000
vt -0.50000000 -2.93739000
vt 0.00000000 -2.13628000
vt -0.50000000 -2.20304000
vt -0.50000000 -1.46870000
vt 0.00000000 -1.06814000
vt -0.50000000 -0.73435000
vt -0.50000000 -11.74956000
vt -0.00000000 -11.74956000
vt -0.50000000 -10.68142000
vt -0.00000000 -10.68142000
vt -0.00000000 -9.61327000
vt -0.50000000 -9.61327000
vt -0.00000000 -8.54513000
vt -0.50000000 -8.54513000
vt -0.00000000 -7.47699000
vt -0.50000000 -7.47699000
vt -0.00000000 -6.40885000
vt -0.50000000 -6.40885000
vt 0.00000000 -5.34071000
vt -0.50000000 -5.34071000
vt 0.00000000 -4.27257000
vt -0.50000000 -4.27257000
vt 0.00000000 -3.20442000
vt -0.50000000 -3.20442000
vt 0.00000000 -2.13628000
vt -0.50000000 -2.13628000
vt 0.00000000 -1.06814000
vt -0.50000000 -1.06814000
vt -3.37625000 -1.09701000
vt 3.37625000 -1.09701000
vt -3.55000000 0.00000000
vt 3.55000000 0.00000000
vt -3.37625000 1.09701000
vt 3.37625000 1.09701000
vt -2.87201000 2.08664000
vt 2.87201000 2.08664000
vt -2.08664000 2.87201000
vt 2.08664000 2.87201000
vt -1.09701000 3.37625000
vt 1.09701000 3.37625000
vt 0.00000000 3.55000000
vt 2.87201000 -2.08664000
vt -2.87201000 -2.08664000
vt 2.08664000 -2.87201000
vt -2.08664000 -2.87201000
vt 1.09701000 -3.37625000
vt -1.09701000 -3.37625000
vt 0.00000000 -3.55000000
vt -3.16702000 -1.02903000
vt 3.16702000 -1.02903000
vt -3.33000000 0.00000000
vt 3.33000000 0.00000000
vt -3.16702000 1.02903000
vt 3.16702000 1.02903000
vt -2.69403000 1.95732000
vt 2.69403000 1.95732000
vt -1.95732000 2.69403000
vt 1.95732000 2.69403000
vt -1.02903000 3.16702000
vt 1.02903000 3.16702000
vt -0.00000000 3.33000000
vt 2.69403000 -1.95732000
vt -2.69403000 -1.95732000
vt 1.95732000 -2.69403000
vt -1.95732000 -2.69403000
vt 1.02903000 -3.16702000
vt -1.02903000 -3.16702000
vt -0.00000000 -3.33000000
vt -0.62000000 -11.15265000
vt -0.00000000 -11.15265000
vt -0.62000000 -10.03739000
vt -0.00000000 -10.03739000
vt -0.62000000 -8.92212000
vt -0.00000000 -8.92212000
vt -0.62000000 -7.80686000
vt -0.00000000 -7.80686000
vt -0.62000000 -6.69159000
vt -0.00000000 -6.69159000
vt -0.62000000 -5.57633000
vt -0.00000000 -5.57633000
vt -0.62000000 -4.46106000
vt -0.00000000 -4.46106000
vt -0.62000000 -3.34580000
vt -0.00000000 -3.34580000
vt -0.62000000 -2.23053000
vt -0.00000000 -2.23053000
vt -0.62000000 -1.11526000
vt -0.00000000 -1.11526000
vt -0.00000000 -11.57222000
vt 0.15708000 -11.57222000
vt -0.00000000 -10.52020000
vt 0.17453000 -10.47011000
vt -0.00000000 -9.46818000
vt 0.17453000 -9.36799000
vt -0.00000000 -8.41616000
vt 0.17453000 -8.26587000
vt -0.00000000 -7.36414000
vt 0.17453000 -7.16376000
vt -0.00000000 -6.31212000
vt 0.17453000 -6.06164000
vt -0.00000000 -5.26010000
vt 0.17453000 -4.95952000
vt -0.00000000 -4.20808000
vt 0.17453000 -3.85741000
vt -0.00000000 -3.15606000
vt 0.17453000 -2.75529000
vt -0.00000000 -2.10404000
vt 0.17453000 -1.65318000
vt -0.00000000 -1.05202000
vt 0.17453000 -0.55106000
vt 0.34907000 -0.55106000
vt 0.52360000 -0.55106000
vt 0.69813000 -0.55106000
vt 0.78540000 -1.15722000
vt 0.69813000 -1.65318000
vt 0.78540000 -2.31444000
vt 0.69813000 -2.75529000
vt 0.78540000 -3.47167000
vt 0.69813000 -3.85741000
vt 0.78540000 -4.62889000
vt 0.69813000 -4.95952000
vt 0.78540000 -5.78611000
vt 0.69813000 -6.06164000
vt 0.78540000 -6.94334000
vt 0.69813000 -7.16376000
vt 0.78540000 -8.10056000
vt 0.69813000 -8.26587000
vt 0.78540000 -9.25778000
vt 0.69813000 -9.36799000
vt 0.78540000 -10.41500000
vt 0.69813000 -10.47011000
vt 0.78540000 -11.57222000
vt 0.62832000 -11.57222000
vt 0.52360000 -10.47011000
vt 0.47124000 -11.57222000
vt 0.34907000 -10.47011000
vt 0.31416000 -11.57222000
vt 0.52360000 -9.36799000
vt 0.52360000 -8.26587000
vt 0.52360000 -7.16376000
vt 0.52360000 -6.06164000
vt 0.52360000 -4.95952000
vt 0.52360000 -3.85741000
vt 0.52360000 -2.75529000
vt 0.52360000 -1.65318000
vt 0.34907000 -9.36799000
vt 0.34907000 -8.26587000
vt 0.34907000 -7.16376000
vt 0.34907000 -6.06164000
vt 0.34907000 -4.95952000
vt 0.34907000 -3.85741000
vt 0.34907000 -2.75529000
vt 0.34907000 -1.65318000
vt 3.67486000 -1.07904000
vt 3.83000000 0.00000000
vt 3.55000000 0.00000000
vt 3.67486000 1.07904000
vt 3.37625000 1.09701000
vt 3.22200000 2.07065000
vt 2.87201000 2.08664000
vt 2.50812000 2.89452000
vt 2.08664000 2.87201000
vt 1.59104000 3.48389000
vt 1.09701000 3.37625000
vt 0.54507000 3.79102000
vt 0.00000000 3.55000000
vt -0.54507000 3.79102000
vt -1.09701000 3.37625000
vt -1.59104000 3.48389000
vt -2.08664000 2.87201000
vt -2.50812000 2.89452000
vt -2.87201000 2.08664000
vt -3.22200000 2.07065000
vt -3.37625000 1.09701000
vt -3.67486000 1.07904000
vt -3.55000000 0.00000000
vt -3.83000000 0.00000000
vt -3.67486000 -1.07904000
vt -3.37625000 -1.09701000
vt -3.22200000 -2.07065000
vt -2.87201000 -2.08664000
vt -2.50812000 -2.89452000
vt -2.08664000 -2.87201000
vt -1.59104000 -3.48389000
vt -1.09701000 -3.37625000
vt -0.54507000 -3.79102000
vt 0.00000000 -3.55000000
vt 0.54507000 -3.79102000
vt 1.09701000 -3.37625000
vt 1.59104000 -3.48389000
vt 2.08664000 -2.87201000
vt 2.50812000 -2.89452000
vt 2.87201000 -2.08664000
vt 3.22200000 -2.07065000
vt 3.37625000 -1.09701000
vt -13.95983000 -12.03230000
vt -14.24896000 -10.93846000
vt -16.04802000 -12.03230000
vt -16.04802000 -10.93846000
vt -14.51466000 -9.84461000
vt -16.04802000 -9.84461000
vt -14.73541000 -8.75076000
vt -16.04802000 -8.75076000
vt -14.89333000 -7.65692000
vt -16.04802000 -7.65692000
vt -14.97563000 -6.56307000
vt -16.04802000 -6.56307000
vt -14.97563000 -5.46923000
vt -16.04802000 -5.46923000
vt -16.04802000 -4.37538000
vt -14.89333000 -4.37538000
vt -16.04802000 -3.28154000
vt -14.73541000 -3.28154000
vt -16.04802000 -2.18769000
vt -14.51466000 -2.18769000
vt -16.04802000 -1.09384000
vt -14.24896000 -1.09384000
vt -0.50000000 -12.03230000
vt -0.00000000 -12.03230000
vt -0.50000000 -10.93846000
vt -0.00000000 -10.93846000
vt -0.00000000 -9.84461000
vt -0.50000000 -9.84461000
vt -0.00000000 -8.75076000
vt -0.50000000 -8.75076000
vt -0.00000000 -7.65692000
vt -0.50000000 -7.65692000
vt -0.00000000 -6.56307000
vt -0.50000000 -6.56307000
vt -0.00000000 -5.46923000
vt -0.50000000 -5.46923000
vt -0.00000000 -4.37538000
vt -0.50000000 -4.37538000
vt -0.00000000 -3.28154000
vt -0.50000000 -3.28154000
vt -0.00000000 -2.18769000
vt -0.50000000 -2.18769000
vt -0.00000000 -1.09384000
vt -0.50000000 -1.09384000
f 1/1/1 2/2/2 3/3/3
f 3/3/3 2/2/2 4/4/4
f 4/4/4 2/2/2 5/5/5
f 4/4/4 5/5/5 6/6/6
f 6/6/6 5/5/5 7/7/7
f 6/6/6 7/7/7 8/8/8
f 8/8/8 7/7/7 9/9/9
f 8/8/8 9/9/9 10/10/10
f 10/10/10 9/9/9 11/11/11
f 10/10/10 11/11/11 12/12/12
f 12/12/12 11/11/11 13/13/13
f 12/12/12 13/13/13 14/14/14
f 14/14/14 13/13/13 15/15/15
f 14/14/14 15/15/15 16/16/16
f 16/16/16 15/15/15 17/17/17
f 16/16/16 17/17/17 18/18/18
f 18/18/18 17/17/17 19/19/19
f 18/18/18 19/19/19 20/20/20
f 20/20/20 19/19/19 21/21/21
f 20/20/20 21/21/21 22/22/22
f 22/22/22 21/21/21 23/23/23
f 23/23/23 21/21/21 24/24/24
f 25/25/25 26/26/26 27/27/27
f 27/27/27 26/26/26 28/28/28
f 27/27/27 28/28/28 29/29/29
f 29/29/29 28/28/28 30/30/30
f 29/29/29 30/30/30 31/31/31
f 31/31/31 30/30/30 32/32/32
f 31/31/31 32/32/32 33/33/33
f 33/33/33 32/32/32 34/34/34
f 33/33/33 34/34/34 35/35/35
f 35/35/35 34/34/34 36/36/36
f 35/35/35 36/36/36 37/37/37
f 35/35/35 37/37/37 38/38/38
f 38/38/38 37/37/37 39/39/39
f 38/38/38 39/39/39 40/40/40
f 40/40/40 39/39/39 41/41/41
f 40/40/40 41/41/41 42/42/42
f 42/42/42 41/41/41 43/43/43
f 42/42/42 43/43/43 44/44/44
f 44/44/44 43/43/43 45/45/45
f 44/44/44 45/45/45 46/46/46
f 46/46/46 45/45/45 47/47/47
f 46/46/46 47/47/47 48/48/48
f 49/49/49 50/50/50 51/51/51
f 51/51/51 50/50/50 52/52/52
f 51/51/51 52/52/52 53/53/53
f 53/53/53 52/52/52 54/54/54
f 53/53/53 54/54/54 55/55/55
f 55/55/55 54/54/54 56/56/56
f 55/55/55 56/56/56 57/57/57
f 57/57/57 56/56/56 58/58/58
f 57/57/57 58/58/58 59/59/59
f 59/59/59 58/58/58 60/60/60
f 59/59/59 60/60/60 61/61/61
f 61/61/61 60/60/60 62/62/62
f 61/61/61 62/62/62 63/63/63
f 63/63/63 62/62/62 64/64/64
f 63/63/63 64/64/64 65/65/65
f 65/65/65 64/64/64 66/66/66
f 65/65/65 66/66/66 67/67/67
f 67/67/67 66/66/66 68/68/68
f 67/67/67 68/68/68 69/69/69
f 69/69/69 68/68/68 70/70/70
f 69/69/69 70/70/70 71/71/71
f 69/69/69 71/71/71 72/72/72
f 72/72/72 71/71/71 73/73/73
f 72/72/72 73/73/73 74/74/74
f 74/74/74 73/73/73 75/75/75
f 74/74/74 75/75/75 76/76/76
f 76/76/76 75/75/75 77/77/77
f 76/76/76 77/77/77 78/78/78
f 78/78/78 77/77/77 79/79/79
f 78/78/78 80/80/80 76/76/76
f 76/76/76 80/80/80 81/81/81
f 76/76/76 81/81/81 82/82/82
f 82/82/82 81/81/81 83/83/83
f 82/82/82 83/83/83 84/84/84
f 84/84/84 83/83/83 85/85/85
f 84/84/84 85/85/85 63/63/63
f 63/63/63 85/85/85 61/61/61
f 80/80/80 86/86/86 81/81/81
f 81/81/81 86/86/86 87/87/87
f 81/81/81 87/87/87 83/83/83
f 83/83/83 87/87/87 88/88/88
f 83/83/83 88/88/88 85/85/85
f 85/85/85 88/88/88 89/89/89
f 85/85/85 89/89/89 61/61/61
f 61/61/61 89/89/89 59/59/59
f 86/86/86 90/90/90 87/87/87
f 87/87/87 90/90/90 91/91/91
f 87/87/87 91/91/91 88/88/88
f 88/88/88 91/91/91 92/92/92
f 88/88/88 92/92/92 89/89/89
f 89/89/89 92/92/92 93/93/93
f 89/89/89 93/93/93 59/59/59
f 59/59/59 93/93/93 57/57/57
f 90/90/90 94/94/94 91/91/91
f 91/91/91 94/94/94 95/95/95
f 91/91/91 95/95/95 92/92/92
f 92/92/92 95/95/95 96/96/96
f 92/92/92 96/96/96 93/93/93
f 93/93/93 96/96/96 97/97/97
f 93/93/93 97/97/97 57/57/57
f 57/57/57 97/97/97 55/55/55
f 94/94/94 98/98/98 95/95/95
f 95/95/95 98/98/98 99/99/99
f 95/95/95 99/99/99 96/96/96
f 96/96/96 99/99/99 100/100/100
f 96/96/96 100/100/100 97/97/97
f 97/97/97 100/100/100 101/101/101
f 97/97/97 101/101/101 55/55/55
f 55/55/55 101/101/101 53/53/53
f 98/98/98 102/102/102 99/99/99
f 99/99/99 102/102/102 103/103/103
f 99/99/99 103/103/103 100/100/100
f 100/100/100 103/103/103 104/104/104
f 100/100/100 104/104/104 101/101/101
f 101/101/101 104/104/104 105/105/105
f 101/101/101 105/105/105 53/53/53
f 53/53/53 105/105/105 51/51/51
f 102/102/102 106/106/106 103/103/103
f 103/103/103 106/106/106 107/107/107
f 103/103/103 107/107/107 104/104/104
f 104/104/104 107/107/107 108/108/108
f 104/104/104 108/108/108 105/105/105
f 105/105/105 108/108/108 109/109/109
f 105/105/105 109/109/109 51/51/51
f 51/51/51 109/109/109 49/49/49
f 106/106/106 110/110/110 107/107/107
f 107/107/107 110/110/110 111/111/111
f 107/107/107 111/111/111 108/108/108
f 108/108/108 111/111/111 112/112/112
f 108/108/108 112/112/112 109/109/109
f 109/109/109 112/112/112 113/113/113
f 109/109/109 113/113/113 49/49/49
f 110/110/110 114/114/114 111/111/111
f 111/111/111 114/114/114 115/115/115
f 111/111/111 115/115/115 112/112/112
f 112/112/112 115/115/115 116/116/116
f 112/112/112 116/116/116 113/113/113
f 114/114/114 117/117/117 115/115/115
f 115/115/115 117/117/117 118/118/118
f 115/115/115 118/118/118 116/116/116
f 63/63/63 65/65/65 84/84/84
f 84/84/84 65/65/65 119/119/119
f 84/84/84 119/119/119 82/82/82
f 82/82/82 119/119/119 74/74/74
f 82/82/82 74/74/74 76/76/76
f 65/65/65 67/67/67 119/119/119
f 119/119/119 67/67/67 72/72/72
f 119/119/119 72/72/72 74/74/74
f 69/69/69 72/72/72 67/67/67
f 120/120/120 121/121/121 122/122/122
f 122/122/122 121/121/121 123/123/123
f 122/122/122 123/123/123 124/124/124
f 124/124/124 123/123/123 125/125/125
f 124/124/124 125/125/125 126/126/126
f 126/126/126 125/125/125 127/127/127
f 126/126/126 127/127/127 128/128/128
f 128/128/128 127/127/127 129/129/129
f 128/128/128 129/129/129 130/130/130
f 130/130/130 129/129/129 131/131/131
f 130/130/130 131/131/131 132/132/132
f 132/132/132 131/131/131 133/133/133
f 132/132/132 133/133/133 134/134/134
f 134/134/134 133/133/133 135/135/135
f 134/134/134 135/135/135 136/136/136
f 136/136/136 135/135/135 137/137/137
f 136/136/136 137/137/137 138/138/138
f 138/138/138 137/137/137 139/139/139
f 138/138/138 139/139/139 140/140/140
f 140/140/140 139/139/139 141/141/141
f 142/142/142 143/143/143 144/144/144
f 144/144/144 143/143/143 145/145/145
f 145/145/145 143/143/143 146/146/146
f 145/145/145 146/146/146 147/147/147
f 147/147/147 146/146/146 148/148/148
f 147/147/147 148/148/148 149/149/149
f 149/149/149 148/148/148 150/150/150
f 149/149/149 150/150/150 151/151/151
f 151/151/151 150/150/150 152/152/152
f 151/151/151 152/152/152 153/153/153
f 153/153/153 152/152/152 154/154/154
f 153/153/153 154/154/154 155/155/155
f 155/155/155 154/154/154 156/156/156
f 155/155/155 156/156/156 157/157/157
f 157/157/157 156/156/156 158/158/158
f 157/157/157 158/158/158 159/159/159
f 159/159/159 158/158/158 160/160/160
f 159/159/159 160/160/160 161/161/161
f 161/161/161 160/160/160 162/162/162
f 161/161/161 162/162/162 163/163/163
f 163/163/163 162/162/162 164/164/164
f 164/164/164 162/162/162 165/165/165
f 166/166/166 167/167/167 168/168/168
f 168/168/168 167/167/167 169/169/169
f 168/168/168 169/169/169 170/170/170
f 170/170/170 169/169/169 171/171/171
f 170/170/170 171/171/171 172/172/172
f 172/172/172 171/171/171 173/173/173
f 173/173/173 171/171/171 174/174/174
f 173/173/173 174/174/174 175/175/175
f 175/175/175 174/174/174 176/176/176
f 175/175/175 176/176/176 177/177/177
f 177/177/177 176/176/176 178/178/178
f 178/178/178 176/176/176 179/179/179
f 178/178/178 179/179/179 180/180/180
f 180/180/180 179/179/179 181/181/181
f 180/180/180 181/181/181 182/182/182
f 182/182/182 181/181/181 183/183/183
f 182/182/182 183/183/183 184/184/184
f 184/184/184 183/183/183 185/185/185
f 185/185/185 183/183/183 186/186/186
f 185/185/185 186/186/186 187/187/187
f 187/187/187 186/186/186 188/188/188
f 187/187/187 188/188/188 189/189/189
f 189/189/189 188/188/188 190/190/190
f 190/190/190 188/188/188 191/191/191
f 190/190/190 191/191/191 192/192/192
f 192/192/192 191/191/191 193/193/193
f 192/192/192 193/193/193 194/194/194
f 195/195/195 196/196/196 197/197/197
f 197/197/197 196/196/196 198/198/198
f 197/197/197 198/198/198 199/199/199
f 199/199/199 198/198/198 200/200/200
f 199/199/199 200/200/200 201/201/201
f 201/201/201 200/200/200 202/202/202
f 202/202/202 200/200/200 203/203/203
f 202/202/202 203/203/203 204/204/204
f 204/204/204 203/203/203 205/205/205
f 204/204/204 205/205/205 206/206/206
f 206/206/206 205/205/205 207/207/207
f 207/207/207 205/205/205 208/208/208
f 207/207/207 208/208/208 209/209/209
f 209/209/209 208/208/208 210/210/210
f 209/209/209 210/210/210 211/211/211
f 211/211/211 210/210/210 212/212/212
f 211/211/211 212/212/212 213/213/213
f 213/213/213 212/212/212 214/214/214
f 214/214/214 212/212/212 215/215/215
f 214/214/214 215/215/215 216/216/216
f 216/216/216 215/215/215 217/217/217
f 216/216/216 217/217/217 218/218/218
f 218/218/218 217/217/217 219/219/219
f 219/219/219 217/217/217 220/220/220
f 219/219/219 220/220/220 221/221/221
f 221/221/221 220/220/220 167/167/167
f 221/221/221 167/167/167 166/166/166
f 222/222/222 223/223/223 224/224/224
f 224/224/224 223/223/223 225/225/225
f 224/224/224 225/225/225 226/226/226
f 224/224/224 226/226/226 227/227/227
f 227/227/227 226/226/226 228/228/228
f 227/227/227 228/228/228 229/229/229
f 229/229/229 228/228/228 230/230/230
f 229/229/229 230/230/230 231/231/231
f 231/231/231 230/230/230 232/232/232
f 231/231/231 232/232/232 233/233/233
f 233/233/233 232/232/232 234/234/234
f 233/233/233 234/234/234 235/235/235
f 235/235/235 234/234/234 236/236/236
f 235/235/235 236/236/236 237/237/237
f 237/237/237 236/236/236 238/238/238
f 237/237/237 238/238/238 239/239/239
f 239/239/239 238/238/238 240/240/240
f 239/239/239 240/240/240 241/241/241
f 241/241/241 240/240/240 242/242/242
f 241/241/241 242/242/242 243/243/243
f 243/243/243 242/242/242 142/142/142
f 243/243/243 142/142/142 144/144/144
f 244/244/244 245/245/245 246/246/246
f 246/246/246 245/245/245 247/247/247
f 246/246/246 247/247/247 248/248/248
f 248/248/248 247/247/247 249/249/249
f 248/248/248 249/249/249 250/250/250
f 250/250/250 249/249/249 251/251/251
f 250/250/250 251/251/251 252/252/252
f 252/252/252 251/251/251 253/253/253
f 252/252/252 253/253/253 254/254/254
f 254/254/254 253/253/253 255/255/255
f 254/254/254 255/255/255 256/256/256
f 245/245/245 244/244/244 257/257/257
f 257/257/257 244/244/244 258/258/258
f 257/257/257 258/258/258 259/259/259
f 259/259/259 258/258/258 260/260/260
f 259/259/259 260/260/260 261/261/261
f 261/261/261 260/260/260 262/262/262
f 261/261/261 262/262/262 263/263/263
f 264/264/264 265/265/265 266/266/266
f 266/266/266 265/265/265 267/267/267
f 266/266/266 267/267/267 268/268/268
f 268/268/268 267/267/267 269/269/269
f 268/268/268 269/269/269 270/270/270
f 270/270/270 269/269/269 271/271/271
f 270/270/270 271/271/271 272/272/272
f 272/272/272 271/271/271 273/273/273
f 272/272/272 273/273/273 274/274/274
f 274/274/274 273/273/273 275/275/275
f 274/274/274 275/275/275 276/276/276
f 265/265/265 264/264/264 277/277/277
f 277/277/277 264/264/264 278/278/278
f 277/277/277 278/278/278 279/279/279
f 279/279/279 278/278/278 280/280/280
f 279/279/279 280/280/280 281/281/281
f 281/281/281 280/280/280 282/282/282
f 281/281/281 282/282/282 283/283/283
f 284/284/284 285/285/285 286/286/286
f 286/286/286 285/285/285 287/287/287
f 286/286/286 287/287/287 288/288/288
f 288/288/288 287/287/287 289/289/289
f 288/288/288 289/289/289 290/290/290
f 290/290/290 289/289/289 291/291/291
f 290/290/290 291/291/291 292/292/292
f 292/292/292 291/291/291 293/293/293
f 292/292/292 293/293/293 294/294/294
f 294/294/294 293/293/293 295/295/295
f 294/294/294 295/295/295 296/296/296
f 296/296/296 295/295/295 297/297/297
f 296/296/296 297/297/297 298/298/298
f 298/298/298 297/297/297 299/299/299
f 298/298/298 299/299/299 300/300/300
f 300/300/300 299/299/299 301/301/301
f 300/300/300 301/301/301 302/302/302
f 302/302/302 301/301/301 303/303/303
f 302/302/302 303/303/303 120/120/120
f 120/120/120 303/303/303 121/121/121
f 304/304/304 305/305/305 306/306/306
f 306/306/306 305/305/305 307/307/307
f 306/306/306 307/307/307 308/308/308
f 308/308/308 307/307/307 309/309/309
f 308/308/308 309/309/309 310/310/310
f 310/310/310 309/309/309 311/311/311
f 310/310/310 311/311/311 312/312/312
f 312/312/312 311/311/311 313/313/313
f 312/312/312 313/313/313 314/314/314
f 314/314/314 313/313/313 315/315/315
f 314/314/314 315/315/315 316/316/316
f 316/316/316 315/315/315 317/317/317
f 316/316/316 317/317/317 318/318/318
f 318/318/318 317/317/317 319/319/319
f 318/318/318 319/319/319 320/320/320
f 320/320/320 319/319/319 321/321/321
f 320/320/320 321/321/321 322/322/322
f 322/322/322 321/321/321 323/323/323
f 322/322/322 323/323/323 324/324/324
f 324/324/324 323/323/323 325/325/325
f 324/324/324 325/325/325 117/117/117
f 117/117/117 325/325/325 118/118/118
f 118/118/118 325/325/325 116/116/116
f 116/116/116 325/325/325 326/326/326
f 116/116/116 326/326/326 113/113/113
f 113/113/113 326/326/326 327/327/327
f 113/113/113 327/327/327 49/49/49
f 49/49/49 327/327/327 328/328/328
f 49/49/49 328/328/328 50/50/50
f 50/50/50 328/328/328 329/329/329
f 329/329/329 328/328/328 330/330/330
f 329/329/329 330/330/330 331/331/331
f 331/331/331 330/330/330 332/332/332
f 331/331/331 332/332/332 333/333/333
f 333/333/333 332/332/332 334/334/334
f 333/333/333 334/334/334 335/335/335
f 335/335/335 334/334/334 336/336/336
f 335/335/335 336/336/336 337/337/337
f 337/337/337 336/336/336 338/338/338
f 337/337/337 338/338/338 339/339/339
f 339/339/339 338/338/338 340/340/340
f 339/339/339 340/340/340 341/341/341
f 341/341/341 340/340/340 342/342/342
f 341/341/341 342/342/342 343/343/343
f 343/343/343 342/342/342 344/344/344
f 343/343/343 344/344/344 345/345/345
f 345/345/345 344/344/344 346/346/346
f 345/345/345 346/346/346 347/347/347
f 347/347/347 346/346/346 348/348/348
f 348/348/348 346/346/346 349/349/349
f 348/348/348 349/349/349 350/350/350
f 350/350/350 349/349/349 351/351/351
f 350/350/350 351/351/351 352/352/352
f 352/352/352 351/351/351 307/307/307
f 352/352/352 307/307/307 305/305/305
f 349/349/349 346/346/346 353/353/353
f 353/353/353 346/346/346 344/344/344
f 353/353/353 344/344/344 354/354/354
f 354/354/354 344/344/344 342/342/342
f 354/354/354 342/342/342 355/355/355
f 355/355/355 342/342/342 340/340/340
f 355/355/355 340/340/340 356/356/356
f 356/356/356 340/340/340 338/338/338
f 356/356/356 338/338/338 357/357/357
f 357/357/357 338/338/338 336/336/336
f 357/357/357 336/336/336 358/358/358
f 358/358/358 336/336/336 334/334/334
f 358/358/358 334/334/334 359/359/359
f 359/359/359 334/334/334 332/332/332
f 359/359/359 332/332/332 360/360/360
f 360/360/360 332/332/332 330/330/330
f 360/360/360 330/330/330 327/327/327
f 327/327/327 330/330/330 328/328/328
f 309/309/309 307/307/307 351/351/351
f 351/351/351 349/349/349 361/361/361
f 361/361/361 349/349/349 353/353/353
f 361/361/361 353/353/353 362/362/362
f 362/362/362 353/353/353 354/354/354
f 362/362/362 354/354/354 363/363/363
f 363/363/363 354/354/354 355/355/355
f 363/363/363 355/355/355 364/364/364
f 364/364/364 355/355/355 356/356/356
f 364/364/364 356/356/356 365/365/365
f 365/365/365 356/356/356 357/357/357
f 365/365/365 357/357/357 366/366/366
f 366/366/366 357/357/357 358/358/358
f 366/366/366 358/358/358 367/367/367
f 367/367/367 358/358/358 359/359/359
f 367/367/367 359/359/359 368/368/368
f 368/368/368 359/359/359 360/360/360
f 368/368/368 360/360/360 326/326/326
f 326/326/326 360/360/360 327/327/327
f 311/311/311 309/309/309 361/361/361
f 361/361/361 309/309/309 351/351/351
f 311/311/311 361/361/361 362/362/362
f 313/313/313 311/311/311 362/362/362
f 313/313/313 362/362/362 363/363/363
f 315/315/315 313/313/313 363/363/363
f 315/315/315 363/363/363 364/364/364
f 317/317/317 315/315/315 364/364/364
f 317/317/317 364/364/364 365/365/365
f 319/319/319 317/317/317 365/365/365
f 319/319/319 365/365/365 366/366/366
f 321/321/321 319/319/319 366/366/366
f 321/321/321 366/366/366 367/367/367
f 323/323/323 321/321/321 367/367/367
f 323/323/323 367/367/367 368/368/368
f 325/325/325 323/323/323 368/368/368
f 325/325/325 368/368/368 326/326/326
f 369/369/369 370/370/370 371/371/371
f 371/371/371 370/370/370 372/372/372
f 371/371/371 372/372/372 373/373/373
f 373/373/373 372/372/372 374/374/374
f 373/373/373 374/374/374 375/375/375
f 375/375/375 374/374/374 376/376/376
f 375/375/375 376/376/376 377/377/377
f 377/377/377 376/376/376 378/378/378
f 377/377/377 378/378/378 379/379/379
f 379/379/379 378/378/378 380/380/380
f 379/379/379 380/380/380 381/381/381
f 381/381/381 380/380/380 382/382/382
f 381/381/381 382/382/382 383/383/383
f 383/383/383 382/382/382 384/384/384
f 383/383/383 384/384/384 385/385/385
f 385/385/385 384/384/384 386/386/386
f 385/385/385 386/386/386 387/387/387
f 387/387/387 386/386/386 388/388/388
f 387/387/387 388/388/388 389/389/389
f 389/389/389 388/388/388 390/390/390
f 389/389/389 390/390/390 391/391/391
f 391/391/391 390/390/390 392/392/392
f 391/391/391 392/392/392 393/393/393
f 391/391/391 393/393/393 394/394/394
f 394/394/394 393/393/393 395/395/395
f 394/394/394 395/395/395 396/396/396
f 396/396/396 395/395/395 397/397/397
f 396/396/396 397/397/397 398/398/398
f 398/398/398 397/397/397 399/399/399
f 398/398/398 399/399/399 400/400/400
f 400/400/400 399/399/399 401/401/401
f 400/400/400 401/401/401 402/402/402
f 402/402/402 401/401/401 403/403/403
f 402/402/402 403/403/403 404/404/404
f 404/404/404 403/403/403 405/405/405
f 404/404/404 405/405/405 406/406/406
f 406/406/406 405/405/405 407/407/407
f 406/406/406 407/407/407 408/408/408
f 408/408/408 407/407/407 409/409/409
f 408/408/408 409/409/409 410/410/410
f 410/410/410 409/409/409 369/369/369
f 410/410/410 369/369/369 371/371/371
f 411/411/411 412/412/412 413/413/413
f 413/413/413 412/412/412 414/414/414
f 414/414/414 412/412/412 415/415/415
f 414/414/414 415/415/415 416/416/416
f 416/416/416 415/415/415 417/417/417
f 416/416/416 417/417/417 418/418/418
f 418/418/418 417/417/417 419/419/419
f 418/418/418 419/419/419 420/420/420
f 420/420/420 419/419/419 421/421/421
f 420/420/420 421/421/421 422/422/422
f 422/422/422 421/421/421 423/423/423
f 422/422/422 423/423/423 424/424/424
f 424/424/424 423/423/423 425/425/425
f 425/425/425 423/423/423 426/426/426
f 425/425/425 426/426/426 427/427/427
f 427/427/427 426/426/426 428/428/428
f 427/427/427 428/428/428 429/429/429
f 429/429/429 428/428/428 430/430/430
f 429/429/429 430/430/430 431/431/431
f 431/431/431 430/430/430 432/432/432
f 431/431/431 432/432/432 25/25/25
f 25/25/25 432/432/432 26/26/26
f 433/433/433 434/434/434 435/435/435
f 435/435/435 434/434/434 436/436/436
f 435/435/435 436/436/436 437/437/437
f 435/435/435 437/437/437 438/438/438
f 438/438/438 437/437/437 439/439/439
f 438/438/438 439/439/439 440/440/440
f 440/440/440 439/439/439 441/441/441
f 440/440/440 441/441/441 442/442/442
f 442/442/442 441/441/441 443/443/443
f 442/442/442 443/443/443 444/444/444
f 444/444/444 443/443/443 445/445/445
f 444/444/444 445/445/445 446/446/446
f 446/446/446 445/445/445 447/447/447
f 446/446/446 447/447/447 448/448/448
f 448/448/448 447/447/447 449/449/449
f 448/448/448 449/449/449 450/450/450
f 450/450/450 449/449/449 451/451/451
f 450/450/450 451/451/451 452/452/452
f 452/452/452 451/451/451 453/453/453
f 452/452/452 453/453/453 454/454/454
f 454/454/454 453/453/453 1/1/1
f 454/454/454 1/1/1 3/3/3

