mtllib material.mtl
usemtl mat1
v 0.01151001 0.05786600 0.00748983
v 0.00000000 0.05900000 0.01899982
v 0.07400000 0.05900000 0.01899989
v 0.01150999 0.05786600 0.03050983
v 0.07399998 0.05699000 0.03426989
v 0.02257798 0.05450900 0.04157784
v 0.07399997 0.05109600 0.04849989
v 0.03277897 0.04905700 0.05177885
v 0.07399996 0.04171900 0.06071889
v 0.04171896 0.04171900 0.06071886
v 0.04905695 0.03277900 0.06805687
v 0.07399995 0.02950000 0.07009589
v 0.05450895 0.02257800 0.07350887
v 0.07399994 0.01527000 0.07598989
v 0.05786594 0.01151000 0.07686587
v 0.07399994 0.00000000 0.07799989
v 0.05899994 0.00000000 0.07799988
v 0.07400002 0.05699000 0.00372989
v 0.02257802 0.05450900 -0.00357816
v 0.07400003 0.05109600 -0.01050011
v 0.03277903 0.04905700 -0.01377915
v 0.07400004 0.04171900 -0.02271911
v 0.04171904 0.04171900 -0.02271914
v 0.04905705 0.03277900 -0.03005713
v 0.07400005 0.02950000 -0.03209611
v 0.05450905 0.02257800 -0.03550913
v 0.07400006 0.01527000 -0.03799011
v 0.05786606 0.01151000 -0.03886613
v 0.07400006 0.00000000 -0.04000011
v 0.05900006 0.00000000 -0.04000012
v 0.35648999 0.05786600 0.03051017
v 0.36800000 0.05900000 0.01900018
v 0.29400000 0.05900000 0.01900011
v 0.35649001 0.05786600 0.00749017
v 0.29400002 0.05699000 0.00373011
v 0.34542202 0.05450900 -0.00357784
v 0.29400003 0.05109600 -0.01049989
v 0.33522103 0.04905700 -0.01377885
v 0.29400004 0.04171900 -0.02271889
v 0.32628104 0.04171900 -0.02271886
v 0.31894305 0.03277900 -0.03005687
v 0.29400005 0.02950000 -0.03209589
v 0.31349105 0.02257800 -0.03550887
v 0.29400006 0.01527000 -0.03798989
v 0.31013406 0.01151000 -0.03886587
v 0.29400006 0.00000000 -0.03999989
v 0.30900006 0.00000000 -0.03999988
v 0.29399998 0.05699000 0.03427011
v 0.34542198 0.05450900 0.04157816
v 0.29399997 0.05109600 0.04850011
v 0.33522097 0.04905700 0.05177915
v 0.29399996 0.04171900 0.06071911
v 0.32628096 0.04171900 0.06071914
v 0.31894295 0.03277900 0.06805713
v 0.29399995 0.02950000 0.07009611
v 0.31349095 0.02257800 0.07350913
v 0.29399994 0.01527000 0.07599011
v 0.31013394 0.01151000 0.07686613
v 0.29399994 0.00000000 0.07800011
v 0.30899994 0.00000000 0.07800012
v 0.27949996 0.00000000 0.06350010
v 0.27949996 0.01253700 0.06169710
v 0.08849996 0.00000000 0.06349990
v 0.08849996 0.01253700 0.06169690
v 0.27949996 0.02405900 0.05643610
v 0.08849996 0.02405900 0.05643590
v 0.27949997 0.03363100 0.04814110
v 0.08849997 0.03363100 0.04814090
v 0.27949998 0.04047900 0.03748610
v 0.08849998 0.04047900 0.03748590
v 0.27949999 0.04404700 0.02533310
v 0.08849999 0.04404700 0.02533290
v 0.27950001 0.04404700 0.01266710
v 0.08850001 0.04404700 0.01266690
v 0.27950002 0.04047900 0.00051410
v 0.08850002 0.04047900 0.00051390
v 0.27950003 0.03363100 -0.01014090
v 0.08850003 0.03363100 -0.01014110
v 0.27950004 0.02405900 -0.01843590
v 0.08850004 0.02405900 -0.01843610
v 0.27950004 0.01253700 -0.02369690
v 0.08850004 0.01253700 -0.02369710
v 0.08850004 0.00000000 -0.02550010
v 0.27950004 0.00000000 -0.02549990
v 0.00000000 0.05900000 0.01899982
v -0.00000006 0.05900000 0.07491782
v 0.01150999 0.05786600 0.03050983
v 0.01526994 0.05699000 0.07900983
v 0.02257798 0.05450900 0.04157784
v 0.02949994 0.05109600 0.08282285
v 0.03277897 0.04905700 0.05177885
v 0.04171893 0.04171900 0.08609686
v 0.04171896 0.04171900 0.06071886
v 0.04905695 0.03277900 0.06805687
v 0.05109593 0.02950000 0.08860887
v 0.05450895 0.02257800 0.07350887
v 0.05698993 0.01527000 0.09018787
v 0.05786594 0.01151000 0.07686587
v 0.05899993 0.00000000 0.09072688
v 0.05899994 0.00000000 0.07799988
v 0.05786594 -0.01151000 0.07686587
v 0.05698993 -0.01527000 0.09018787
v 0.05450895 -0.02257800 0.07350887
v 0.05109593 -0.02950000 0.08860887
v 0.04905695 -0.03277900 0.06805687
v 0.04171893 -0.04171900 0.08609686
v 0.04171896 -0.04171900 0.06071886
v 0.03277897 -0.04905700 0.05177885
v 0.02949994 -0.05109600 0.08282285
v 0.02257798 -0.05450900 0.04157784
v 0.01526994 -0.05699000 0.07900983
v 0.01150999 -0.05786600 0.03050983
v -0.00000006 -0.05900000 0.07491782
v 0.00000000 -0.05900000 0.01899982
v 0.01151001 0.05786600 0.00748983
v 0.00000006 0.05900000 -0.04430018
v 0.01527006 0.05699000 -0.04430017
v 0.02257802 0.05450900 -0.00357816
v 0.02950006 0.05109600 -0.04430015
v 0.03277903 0.04905700 -0.01377915
v 0.04171906 0.04171900 -0.04430014
v 0.04171904 0.04171900 -0.02271914
v 0.04905705 0.03277900 -0.03005713
v 0.05109606 0.02950000 -0.04430013
v 0.05450905 0.02257800 -0.03550913
v 0.05699006 0.01527000 -0.04430013
v 0.05786606 0.01151000 -0.03886613
v 0.05900006 0.00000000 -0.04430012
v 0.05900006 0.00000000 -0.04000012
v 0.05786606 -0.01151000 -0.03886613
v 0.05699006 -0.01527000 -0.04430013
v 0.05450905 -0.02257800 -0.03550913
v 0.05109606 -0.02950000 -0.04430013
v 0.04905705 -0.03277900 -0.03005713
v 0.04171906 -0.04171900 -0.04430014
v 0.04171904 -0.04171900 -0.02271914
v 0.03277903 -0.04905700 -0.01377915
v 0.02950006 -0.05109600 -0.04430015
v 0.02257802 -0.05450900 -0.00357816
v 0.01527006 -0.05699000 -0.04430017
v 0.01151001 -0.05786600 0.00748983
v 0.00000006 -0.05900000 -0.04430018
v 0.36799995 0.05900000 0.06456518
v 0.38326996 0.05699000 0.06047420
v 0.36800000 0.05900000 0.01900018
v 0.38327006 0.05699000 -0.04429980
v 0.36800006 0.05900000 -0.04429982
v 0.39749996 0.05109600 0.05666121
v 0.39750006 0.05109600 -0.04429979
v 0.40971897 0.04171900 0.05338723
v 0.40971906 0.04171900 -0.04429977
v 0.41909597 0.02950000 0.05087424
v 0.41909606 0.02950000 -0.04429976
v 0.42498997 0.01527000 0.04929524
v 0.42499006 0.01527000 -0.04429976
v 0.42699997 0.00000000 0.04875624
v 0.42700006 0.00000000 -0.04429976
v 0.42499006 -0.01527000 -0.04429976
v 0.42498997 -0.01527000 0.04929524
v 0.41909606 -0.02950000 -0.04429976
v 0.41909597 -0.02950000 0.05087424
v 0.40971906 -0.04171900 -0.04429977
v 0.40971897 -0.04171900 0.05338723
v 0.39750006 -0.05109600 -0.04429979
v 0.39749996 -0.05109600 0.05666121
v 0.38327006 -0.05699000 -0.04429980
v 0.38326996 -0.05699000 0.06047420
v 0.36800000 -0.05900000 0.01900018
v 0.36799995 -0.05900000 0.06456518
v 0.36800006 -0.05900000 -0.04429982
v 0.36800000 -0.05900000 0.01900018
v 0.36799995 -0.05900000 0.06456518
v 0.35648999 -0.05786600 0.03051017
v 0.35272995 -0.05699000 0.06865717
v 0.34542198 -0.05450900 0.04157816
v 0.33849995 -0.05109600 0.07247015
v 0.33522097 -0.04905700 0.05177915
v 0.32628094 -0.04171900 0.07574414
v 0.32628096 -0.04171900 0.06071914
v 0.31894295 -0.03277900 0.06805713
v 0.31690394 -0.02950000 0.07825613
v 0.31349095 -0.02257800 0.07350913
v 0.31100994 -0.01527000 0.07983613
v 0.31013394 -0.01151000 0.07686613
v 0.30899994 0.00000000 0.08037412
v 0.30899994 0.00000000 0.07800012
v 0.31013394 0.01151000 0.07686613
v 0.31100994 0.01527000 0.07983613
v 0.31349095 0.02257800 0.07350913
v 0.31690394 0.02950000 0.07825613
v 0.31894295 0.03277900 0.06805713
v 0.32628094 0.04171900 0.07574414
v 0.32628096 0.04171900 0.06071914
v 0.33522097 0.04905700 0.05177915
v 0.33849995 0.05109600 0.07247015
v 0.34542198 0.05450900 0.04157816
v 0.35272995 0.05699000 0.06865717
v 0.35648999 0.05786600 0.03051017
v 0.35649001 -0.05786600 0.00749017
v 0.36800006 -0.05900000 -0.04429982
v 0.35273006 -0.05699000 -0.04429983
v 0.34542202 -0.05450900 -0.00357784
v 0.33850006 -0.05109600 -0.04429985
v 0.33522103 -0.04905700 -0.01377885
v 0.32628106 -0.04171900 -0.04429986
v 0.32628104 -0.04171900 -0.02271886
v 0.31894305 -0.03277900 -0.03005687
v 0.31690406 -0.02950000 -0.04429987
v 0.31349105 -0.02257800 -0.03550887
v 0.31101006 -0.01527000 -0.04429987
v 0.31013406 -0.01151000 -0.03886587
v 0.30900006 0.00000000 -0.04429987
v 0.30900006 0.00000000 -0.03999988
v 0.31013406 0.01151000 -0.03886587
v 0.31101006 0.01527000 -0.04429987
v 0.31349105 0.02257800 -0.03550887
v 0.31690406 0.02950000 -0.04429987
v 0.31894305 0.03277900 -0.03005687
v 0.32628106 0.04171900 -0.04429986
v 0.32628104 0.04171900 -0.02271886
v 0.33522103 0.04905700 -0.01377885
v 0.33850006 0.05109600 -0.04429985
v 0.34542202 0.05450900 -0.00357784
v 0.35273006 0.05699000 -0.04429983
v 0.35649001 0.05786600 0.00749017
v -0.00000006 -0.05900000 0.07491782
v -0.01527005 -0.05699000 0.07082580
v 0.00000000 -0.05900000 0.01899982
v -0.01526994 -0.05699000 -0.04430020
v 0.00000006 -0.05900000 -0.04430018
v -0.02950005 -0.05109600 0.06701379
v -0.02949994 -0.05109600 -0.04430021
v -0.04171904 -0.04171900 0.06373877
v -0.04171894 -0.04171900 -0.04430023
v -0.05109604 -0.02950000 0.06122676
v -0.05109594 -0.02950000 -0.04430024
v -0.05699004 -0.01527000 0.05964776
v -0.05698994 -0.01527000 -0.04430024
v -0.05900004 0.00000000 0.05910876
v -0.05899994 0.00000000 -0.04430024
v -0.05698994 0.01527000 -0.04430024
v -0.05699004 0.01527000 0.05964776
v -0.05109594 0.02950000 -0.04430024
v -0.05109604 0.02950000 0.06122676
v -0.04171894 0.04171900 -0.04430023
v -0.04171904 0.04171900 0.06373877
v -0.02949994 0.05109600 -0.04430021
v -0.02950005 0.05109600 0.06701379
v -0.01526994 0.05699000 -0.04430020
v -0.01527005 0.05699000 0.07082580
v 0.08850004 0.00000000 -0.02550010
v 0.27950004 0.00000000 -0.02549990
v 0.08850004 -0.01253700 -0.02369710
v 0.27950004 -0.01253700 -0.02369690
v 0.27950004 -0.02405900 -0.01843590
v 0.08850004 -0.02405900 -0.01843610
v 0.27950003 -0.03363100 -0.01014090
v 0.08850003 -0.03363100 -0.01014110
v 0.27950002 -0.04047900 0.00051410
v 0.08850002 -0.04047900 0.00051390
v 0.27950001 -0.04404700 0.01266710
v 0.08850001 -0.04404700 0.01266690
v 0.27949999 -0.04404700 0.02533310
v 0.08849999 -0.04404700 0.02533290
v 0.27949998 -0.04047900 0.03748610
v 0.08849998 -0.04047900 0.03748590
v 0.27949997 -0.03363100 0.04814110
v 0.08849997 -0.03363100 0.04814090
v 0.27949996 -0.02405900 0.05643610
v 0.08849996 -0.02405900 0.05643590
v 0.27949996 -0.01253700 0.06169710
v 0.08849996 -0.01253700 0.06169690
v 0.30900006 0.00000000 -0.03999988
v 0.31013406 -0.01151000 -0.03886587
v 0.29400006 0.00000000 -0.03999989
v 0.29400006 -0.01527000 -0.03798989
v 0.31349105 -0.02257800 -0.03550887
v 0.29400005 -0.02950000 -0.03209589
v 0.31894305 -0.03277900 -0.03005687
v 0.29400004 -0.04171900 -0.02271889
v 0.32628104 -0.04171900 -0.02271886
v 0.33522103 -0.04905700 -0.01377885
v 0.29400003 -0.05109600 -0.01049989
v 0.34542202 -0.05450900 -0.00357784
v 0.29400002 -0.05699000 0.00373011
v 0.35649001 -0.05786600 0.00749017
v 0.29400000 -0.05900000 0.01900011
v 0.36800000 -0.05900000 0.01900018
v 0.35648999 -0.05786600 0.03051017
v 0.29399998 -0.05699000 0.03427011
v 0.34542198 -0.05450900 0.04157816
v 0.29399997 -0.05109600 0.04850011
v 0.33522097 -0.04905700 0.05177915
v 0.29399996 -0.04171900 0.06071911
v 0.32628096 -0.04171900 0.06071914
v 0.31894295 -0.03277900 0.06805713
v 0.29399995 -0.02950000 0.07009611
v 0.31349095 -0.02257800 0.07350913
v 0.29399994 -0.01527000 0.07599011
v 0.31013394 -0.01151000 0.07686613
v 0.05899994 0.00000000 0.07799988
v 0.05786594 -0.01151000 0.07686587
v 0.07399994 0.00000000 0.07799989
v 0.07399994 -0.01527000 0.07598989
v 0.05450895 -0.02257800 0.07350887
v 0.07399995 -0.02950000 0.07009589
v 0.04905695 -0.03277900 0.06805687
v 0.07399996 -0.04171900 0.06071889
v 0.04171896 -0.04171900 0.06071886
v 0.03277897 -0.04905700 0.05177885
v 0.07399997 -0.05109600 0.04849989
v 0.02257798 -0.05450900 0.04157784
v 0.07399998 -0.05699000 0.03426989
v 0.01150999 -0.05786600 0.03050983
v 0.07400000 -0.05900000 0.01899989
v 0.00000000 -0.05900000 0.01899982
v 0.01151001 -0.05786600 0.00748983
v 0.07400002 -0.05699000 0.00372989
v 0.02257802 -0.05450900 -0.00357816
v 0.07400003 -0.05109600 -0.01050011
v 0.03277903 -0.04905700 -0.01377915
v 0.07400004 -0.04171900 -0.02271911
v 0.04171904 -0.04171900 -0.02271914
v 0.04905705 -0.03277900 -0.03005713
v 0.07400005 -0.02950000 -0.03209611
v 0.05450905 -0.02257800 -0.03550913
v 0.07400006 -0.01527000 -0.03799011
v 0.05786606 -0.01151000 -0.03886613
v 0.38327006 -0.05699000 -0.04429980
v 0.36800006 -0.05900000 -0.04429982
v 0.36800006 -0.05880000 -0.04429982
v 0.35273006 -0.05699000 -0.04429983
v 0.35278106 -0.05679600 -0.04429983
v 0.33850006 -0.05109600 -0.04429985
v 0.33860006 -0.05092200 -0.04429985
v 0.32628106 -0.04171900 -0.04429986
v 0.32642206 -0.04157800 -0.04429986
v 0.31690406 -0.02950000 -0.04429987
v 0.31707806 -0.02940000 -0.04429987
v 0.31101006 -0.01527000 -0.04429987
v 0.31120406 -0.01521900 -0.04429987
v 0.30900006 0.00000000 -0.04429987
v 0.30920006 0.00000000 -0.04429987
v 0.31120406 0.01521900 -0.04429987
v 0.31101006 0.01527000 -0.04429987
v 0.31707806 0.02940000 -0.04429987
v 0.31690406 0.02950000 -0.04429987
v 0.32642206 0.04157800 -0.04429986
v 0.32628106 0.04171900 -0.04429986
v 0.33860006 0.05092200 -0.04429985
v 0.33850006 0.05109600 -0.04429985
v 0.35278106 0.05679600 -0.04429983
v 0.35273006 0.05699000 -0.04429983
v 0.36800006 0.05880000 -0.04429982
v 0.36800006 0.05900000 -0.04429982
v 0.38327006 0.05699000 -0.04429980
v 0.38321906 0.05679600 -0.04429980
v 0.39750006 0.05109600 -0.04429979
v 0.39740006 0.05092200 -0.04429979
v 0.40971906 0.04171900 -0.04429977
v 0.40957806 0.04157800 -0.04429977
v 0.41909606 0.02950000 -0.04429976
v 0.41892206 0.02940000 -0.04429977
v 0.42499006 0.01527000 -0.04429976
v 0.42479606 0.01521900 -0.04429976
v 0.42700006 0.00000000 -0.04429976
v 0.42680006 0.00000000 -0.04429976
v 0.42479606 -0.01521900 -0.04429976
v 0.42499006 -0.01527000 -0.04429976
v 0.41892206 -0.02940000 -0.04429977
v 0.41909606 -0.02950000 -0.04429976
v 0.40957806 -0.04157800 -0.04429977
v 0.40971906 -0.04171900 -0.04429977
v 0.39740006 -0.05092200 -0.04429979
v 0.39750006 -0.05109600 -0.04429979
v 0.38321906 -0.05679600 -0.04429980
v 0.01527006 -0.05699000 -0.04430017
v 0.00000006 -0.05900000 -0.04430018
v 0.00000006 -0.05880000 -0.04430018
v -0.01526994 -0.05699000 -0.04430020
v -0.01521894 -0.05679600 -0.04430020
v -0.02949994 -0.05109600 -0.04430021
v -0.02939994 -0.05092200 -0.04430021
v -0.04171894 -0.04171900 -0.04430023
v -0.04157794 -0.04157800 -0.04430023
v -0.05109594 -0.02950000 -0.04430024
v -0.05092194 -0.02940000 -0.04430023
v -0.05698994 -0.01527000 -0.04430024
v -0.05679594 -0.01521900 -0.04430024
v -0.05899994 0.00000000 -0.04430024
v -0.05879994 0.00000000 -0.04430024
v -0.05679594 0.01521900 -0.04430024
v -0.05698994 0.01527000 -0.04430024
v -0.05092194 0.02940000 -0.04430023
v -0.05109594 0.02950000 -0.04430024
v -0.04157794 0.04157800 -0.04430023
v -0.04171894 0.04171900 -0.04430023
v -0.02939994 0.05092200 -0.04430021
v -0.02949994 0.05109600 -0.04430021
v -0.01521894 0.05679600 -0.04430020
v -0.01526994 0.05699000 -0.04430020
v 0.00000006 0.05880000 -0.04430018
v 0.00000006 0.05900000 -0.04430018
v 0.01527006 0.05699000 -0.04430017
v 0.01521906 0.05679600 -0.04430017
v 0.02950006 0.05109600 -0.04430015
v 0.02940006 0.05092200 -0.04430015
v 0.04171906 0.04171900 -0.04430014
v 0.04157806 0.04157800 -0.04430014
v 0.05109606 0.02950000 -0.04430013
v 0.05092206 0.02940000 -0.04430013
v 0.05699006 0.01527000 -0.04430013
v 0.05679606 0.01521900 -0.04430013
v 0.05900006 0.00000000 -0.04430012
v 0.05880006 0.00000000 -0.04430013
v 0.05679606 -0.01521900 -0.04430013
v 0.05699006 -0.01527000 -0.04430013
v 0.05092206 -0.02940000 -0.04430013
v 0.05109606 -0.02950000 -0.04430013
v 0.04157806 -0.04157800 -0.04430014
v 0.04171906 -0.04171900 -0.04430014
v 0.02940006 -0.05092200 -0.04430015
v 0.02950006 -0.05109600 -0.04430015
v 0.01521906 -0.05679600 -0.04430017
v 0.35272995 -0.05699000 0.06865717
v 0.36799995 -0.05900000 0.06456518
v 0.36799995 -0.05880000 0.06456518
v 0.38326996 -0.05699000 0.06047420
v 0.38321896 -0.05679600 0.06048820
v 0.39749996 -0.05109600 0.05666121
v 0.39739996 -0.05092200 0.05668821
v 0.40971897 -0.04171900 0.05338723
v 0.40957797 -0.04157800 0.05342523
v 0.41909597 -0.02950000 0.05087424
v 0.41892197 -0.02940000 0.05092123
v 0.42498997 -0.01527000 0.04929524
v 0.42479597 -0.01521900 0.04934724
v 0.42699997 0.00000000 0.04875624
v 0.42679997 0.00000000 0.04881024
v 0.42479597 0.01521900 0.04934724
v 0.42498997 0.01527000 0.04929524
v 0.41892197 0.02940000 0.05092123
v 0.41909597 0.02950000 0.05087424
v 0.40957797 0.04157800 0.05342523
v 0.40971897 0.04171900 0.05338723
v 0.39739996 0.05092200 0.05668821
v 0.39749996 0.05109600 0.05666121
v 0.38321896 0.05679600 0.06048820
v 0.38326996 0.05699000 0.06047420
v 0.36799995 0.05880000 0.06456518
v 0.36799995 0.05900000 0.06456518
v 0.35272995 0.05699000 0.06865717
v 0.35278095 0.05679600 0.06864317
v 0.33849995 0.05109600 0.07247015
v 0.33859995 0.05092200 0.07244315
v 0.32628094 0.04171900 0.07574414
v 0.32642194 0.04157800 0.07570614
v 0.31690394 0.02950000 0.07825613
v 0.31707794 0.02940000 0.07821013
v 0.31100994 0.01527000 0.07983613
v 0.31120394 0.01521900 0.07978413
v 0.30899994 0.00000000 0.08037412
v 0.30919994 0.00000000 0.08032113
v 0.31120394 -0.01521900 0.07978413
v 0.31100994 -0.01527000 0.07983613
v 0.31707794 -0.02940000 0.07821013
v 0.31690394 -0.02950000 0.07825613
v 0.32642194 -0.04157800 0.07570614
v 0.32628094 -0.04171900 0.07574414
v 0.33859995 -0.05092200 0.07244315
v 0.33849995 -0.05109600 0.07247015
v 0.35278095 -0.05679600 0.06864317
vn 98.07853000 0.00000000 19.50903000
vn 100.00000000 0.00000000 0.00000000
vn 100.00000000 0.00000000 0.00000000
vn 98.07853000 0.00000000 -19.50903000
vn 96.59258000 0.00000000 -25.88190000
vn 92.38796000 0.00000000 -38.26834000
vn 86.60254000 0.00000000 -50.00000000
vn 83.14696000 0.00000000 -55.55702000
vn 70.71068000 0.00000000 -70.71068000
vn 70.71068000 0.00000000 -70.71068000
vn 55.55702000 0.00000000 -83.14696000
vn 50.00000000 0.00000000 -86.60254000
vn 38.26834000 0.00000000 -92.38796000
vn 25.88190000 0.00000000 -96.59258000
vn 19.50903000 0.00000000 -98.07853000
vn 0.00000000 0.00000000 -100.00000000
vn 0.00000000 0.00000000 -100.00000000
vn 96.59258000 0.00000000 25.88190000
vn 92.38796000 0.00000000 38.26834000
vn 86.60254000 0.00000000 50.00000000
vn 83.14696000 0.00000000 55.55702000
vn 70.71068000 0.00000000 70.71068000
vn 70.71068000 0.00000000 70.71068000
vn 55.55702000 0.00000000 83.14696000
vn 50.00000000 0.00000000 86.60254000
vn 38.26834000 0.00000000 92.38796000
vn 25.88190000 0.00000000 96.59258000
vn 19.50903000 0.00000000 98.07853000
vn 0.00000000 0.00000000 100.00000000
vn 0.00000000 0.00000000 100.00000000
vn 98.07853000 0.00000000 -19.50903000
vn 100.00000000 0.00000000 0.00000000
vn 100.00000000 0.00000000 0.00000000
vn 98.07853000 0.00000000 19.50903000
vn 96.59258000 0.00000000 25.88190000
vn 92.38796000 0.00000000 38.26834000
vn 86.60254000 0.00000000 50.00000000
vn 83.14696000 0.00000000 55.55702000
vn 70.71068000 0.00000000 70.71068000
vn 70.71068000 0.00000000 70.71068000
vn 55.55702000 0.00000000 83.14696000
vn 50.00000000 0.00000000 86.60254000
vn 38.26834000 0.00000000 92.38796000
vn 25.88190000 0.00000000 96.59258000
vn 19.50903000 0.00000000 98.07853000
vn 0.00000000 0.00000000 100.00000000
vn 0.00000000 0.00000000 100.00000000
vn 96.59258000 0.00000000 -25.88190000
vn 92.38796000 0.00000000 -38.26834000
vn 86.60254000 0.00000000 -50.00000000
vn 83.14696000 0.00000000 -55.55702000
vn 70.71068000 0.00000000 -70.71068000
vn 70.71068000 0.00000000 -70.71068000
vn 55.55702000 0.00000000 -83.14696000
vn 50.00000000 0.00000000 -86.60254000
vn 38.26834000 0.00000000 -92.38796000
vn 25.88190000 0.00000000 -96.59258000
vn 19.50903000 0.00000000 -98.07853000
vn 0.00000000 0.00000000 -100.00000000
vn 0.00000000 0.00000000 -100.00000000
vn 0.00000000 0.00000000 -100.00000000
vn 28.17326000 0.00000000 -95.94930000
vn 0.00000000 0.00000000 -100.00000000
vn 28.17326000 0.00000000 -95.94930000
vn 54.06408000 0.00000000 -84.12535000
vn 54.06408000 0.00000000 -84.12535000
vn 75.57496000 0.00000000 -65.48608000
vn 75.57496000 0.00000000 -65.48608000
vn 90.96320000 0.00000000 -41.54150000
vn 90.96320000 0.00000000 -41.54150000
vn 98.98215000 0.00000000 -14.23148000
vn 98.98215000 0.00000000 -14.23148000
vn 98.98215000 0.00000000 14.23148000
vn 98.98215000 0.00000000 14.23148000
vn 90.96320000 0.00000000 41.54150000
vn 90.96320000 0.00000000 41.54150000
vn 75.57496000 0.00000000 65.48608000
vn 75.57496000 0.00000000 65.48608000
vn 54.06408000 0.00000000 84.12535000
vn 54.06408000 0.00000000 84.12535000
vn 28.17326000 0.00000000 95.94930000
vn 28.17326000 0.00000000 95.94930000
vn 0.00000000 0.00000000 100.00000000
vn 0.00000000 0.00000000 100.00000000
vn 100.00000000 0.00000000 0.00000000
vn 100.00000000 0.00000000 0.00000000
vn 98.07853000 19.50903000 0.00000000
vn 96.59258000 25.88190000 0.00000000
vn 92.38796000 38.26834000 0.00000000
vn 86.60254000 50.00000000 0.00000000
vn 83.14696000 55.55702000 0.00000000
vn 70.71068000 70.71068000 0.00000000
vn 70.71068000 70.71068000 0.00000000
vn 55.55702000 83.14696000 0.00000000
vn 50.00000000 86.60254000 0.00000000
vn 38.26834000 92.38796000 0.00000000
vn 25.88190000 96.59258000 0.00000000
vn 19.50903000 98.07853000 0.00000000
vn 0.00000000 100.00000000 0.00000000
vn 0.00000000 100.00000000 0.00000000
vn -19.50903000 98.07853000 0.00000000
vn -25.88190000 96.59258000 0.00000000
vn -38.26834000 92.38796000 0.00000000
vn -50.00000000 86.60254000 0.00000000
vn -55.55702000 83.14696000 0.00000000
vn -70.71068000 70.71068000 0.00000000
vn -70.71068000 70.71068000 0.00000000
vn -83.14696000 55.55702000 0.00000000
vn -86.60254000 50.00000000 0.00000000
vn -92.38796000 38.26834000 0.00000000
vn -96.59258000 25.88190000 0.00000000
vn -98.07853000 19.50903000 0.00000000
vn -100.00000000 0.00000000 0.00000000
vn -100.00000000 0.00000000 0.00000000
vn 98.07853000 19.50903000 0.00000000
vn 100.00000000 0.00000000 0.00000000
vn 96.59258000 25.88190000 0.00000000
vn 92.38796000 38.26834000 0.00000000
vn 86.60254000 50.00000000 0.00000000
vn 83.14696000 55.55702000 0.00000000
vn 70.71068000 70.71068000 0.00000000
vn 70.71068000 70.71068000 0.00000000
vn 55.55702000 83.14696000 0.00000000
vn 50.00000000 86.60254000 0.00000000
vn 38.26834000 92.38796000 0.00000000
vn 25.88190000 96.59258000 0.00000000
vn 19.50903000 98.07853000 0.00000000
vn 0.00000000 100.00000000 0.00000000
vn 0.00000000 100.00000000 0.00000000
vn -19.50903000 98.07853000 0.00000000
vn -25.88190000 96.59258000 0.00000000
vn -38.26834000 92.38796000 0.00000000
vn -50.00000000 86.60254000 0.00000000
vn -55.55702000 83.14696000 0.00000000
vn -70.71068000 70.71068000 0.00000000
vn -70.71068000 70.71068000 0.00000000
vn -83.14696000 55.55702000 0.00000000
vn -86.60254000 50.00000000 0.00000000
vn -92.38796000 38.26834000 0.00000000
vn -96.59258000 25.88190000 0.00000000
vn -98.07853000 19.50903000 0.00000000
vn -100.00000000 0.00000000 0.00000000
vn 100.00000000 0.00000000 0.00000000
vn 96.59258000 25.88190000 0.00000000
vn 100.00000000 0.00000000 0.00000000
vn 96.59258000 25.88190000 0.00000000
vn 100.00000000 0.00000000 0.00000000
vn 86.60254000 50.00000000 0.00000000
vn 86.60254000 50.00000000 0.00000000
vn 70.71068000 70.71068000 0.00000000
vn 70.71068000 70.71068000 0.00000000
vn 50.00000000 86.60254000 0.00000000
vn 50.00000000 86.60254000 0.00000000
vn 25.88190000 96.59258000 0.00000000
vn 25.88190000 96.59258000 0.00000000
vn 0.00000000 100.00000000 0.00000000
vn 0.00000000 100.00000000 0.00000000
vn -25.88190000 96.59258000 0.00000000
vn -25.88190000 96.59258000 0.00000000
vn -50.00000000 86.60254000 0.00000000
vn -50.00000000 86.60254000 0.00000000
vn -70.71068000 70.71068000 0.00000000
vn -70.71068000 70.71068000 0.00000000
vn -86.60254000 50.00000000 0.00000000
vn -86.60254000 50.00000000 0.00000000
vn -96.59258000 25.88190000 0.00000000
vn -96.59258000 25.88190000 0.00000000
vn -100.00000000 0.00000000 0.00000000
vn -100.00000000 0.00000000 0.00000000
vn -100.00000000 0.00000000 0.00000000
vn -100.00000000 0.00000000 0.00000000
vn -100.00000000 0.00000000 0.00000000
vn -98.07853000 -19.50903000 0.00000000
vn -96.59258000 -25.88190000 0.00000000
vn -92.38796000 -38.26834000 0.00000000
vn -86.60254000 -50.00000000 0.00000000
vn -83.14696000 -55.55702000 0.00000000
vn -70.71068000 -70.71068000 0.00000000
vn -70.71068000 -70.71068000 0.00000000
vn -55.55702000 -83.14696000 0.00000000
vn -50.00000000 -86.60254000 0.00000000
vn -38.26834000 -92.38796000 0.00000000
vn -25.88190000 -96.59258000 0.00000000
vn -19.50903000 -98.07853000 0.00000000
vn 0.00000000 -100.00000000 0.00000000
vn 0.00000000 -100.00000000 0.00000000
vn 19.50903000 -98.07853000 0.00000000
vn 25.88190000 -96.59258000 0.00000000
vn 38.26834000 -92.38796000 0.00000000
vn 50.00000000 -86.60254000 0.00000000
vn 55.55702000 -83.14696000 0.00000000
vn 70.71068000 -70.71068000 -0.00000000
vn 70.71068000 -70.71068000 -0.00000000
vn 83.14696000 -55.55702000 0.00000000
vn 86.60254000 -50.00000000 0.00000000
vn 92.38796000 -38.26834000 0.00000000
vn 96.59258000 -25.88190000 0.00000000
vn 98.07853000 -19.50903000 0.00000000
vn -98.07853000 -19.50903000 0.00000000
vn -100.00000000 0.00000000 0.00000000
vn -96.59258000 -25.88190000 0.00000000
vn -92.38796000 -38.26834000 0.00000000
vn -86.60254000 -50.00000000 0.00000000
vn -83.14696000 -55.55702000 0.00000000
vn -70.71068000 -70.71068000 0.00000000
vn -70.71068000 -70.71068000 0.00000000
vn -55.55702000 -83.14696000 0.00000000
vn -50.00000000 -86.60254000 0.00000000
vn -38.26834000 -92.38796000 0.00000000
vn -25.88190000 -96.59258000 0.00000000
vn -19.50903000 -98.07853000 0.00000000
vn 0.00000000 -100.00000000 0.00000000
vn 0.00000000 -100.00000000 0.00000000
vn 19.50903000 -98.07853000 0.00000000
vn 25.88190000 -96.59258000 0.00000000
vn 38.26834000 -92.38796000 0.00000000
vn 50.00000000 -86.60254000 0.00000000
vn 55.55702000 -83.14696000 0.00000000
vn 70.71068000 -70.71068000 -0.00000000
vn 70.71068000 -70.71068000 -0.00000000
vn 83.14696000 -55.55702000 0.00000000
vn 86.60254000 -50.00000000 0.00000000
vn 92.38796000 -38.26834000 0.00000000
vn 96.59258000 -25.88190000 0.00000000
vn 98.07853000 -19.50903000 0.00000000
vn -100.00000000 0.00000000 0.00000000
vn -96.59258000 -25.88190000 0.00000000
vn -100.00000000 0.00000000 0.00000000
vn -96.59258000 -25.88190000 0.00000000
vn -100.00000000 0.00000000 0.00000000
vn -86.60254000 -50.00000000 0.00000000
vn -86.60254000 -50.00000000 0.00000000
vn -70.71068000 -70.71068000 0.00000000
vn -70.71068000 -70.71068000 0.00000000
vn -50.00000000 -86.60254000 0.00000000
vn -50.00000000 -86.60254000 0.00000000
vn -25.88190000 -96.59258000 0.00000000
vn -25.88190000 -96.59258000 0.00000000
vn 0.00000000 -100.00000000 0.00000000
vn 0.00000000 -100.00000000 0.00000000
vn 25.88190000 -96.59258000 0.00000000
vn 25.88190000 -96.59258000 0.00000000
vn 50.00000000 -86.60254000 0.00000000
vn 50.00000000 -86.60254000 0.00000000
vn 70.71068000 -70.71068000 -0.00000000
vn 70.71068000 -70.71068000 -0.00000000
vn 86.60254000 -50.00000000 0.00000000
vn 86.60254000 -50.00000000 0.00000000
vn 96.59258000 -25.88190000 0.00000000
vn 96.59258000 -25.88190000 0.00000000
vn 0.00000000 0.00000000 100.00000000
vn 0.00000000 0.00000000 100.00000000
vn -28.17326000 0.00000000 95.94930000
vn -28.17326000 0.00000000 95.94930000
vn -54.06408000 0.00000000 84.12535000
vn -54.06408000 0.00000000 84.12535000
vn -75.57496000 0.00000000 65.48608000
vn -75.57496000 0.00000000 65.48608000
vn -90.96320000 0.00000000 41.54150000
vn -90.96320000 0.00000000 41.54150000
vn -98.98215000 0.00000000 14.23148000
vn -98.98215000 0.00000000 14.23148000
vn -98.98215000 0.00000000 -14.23148000
vn -98.98215000 0.00000000 -14.23148000
vn -90.96320000 0.00000000 -41.54150000
vn -90.96320000 0.00000000 -41.54150000
vn -75.57496000 0.00000000 -65.48608000
vn -75.57496000 0.00000000 -65.48608000
vn -54.06408000 0.00000000 -84.12535000
vn -54.06408000 0.00000000 -84.12535000
vn -28.17326000 0.00000000 -95.94930000
vn -28.17326000 0.00000000 -95.94930000
vn 0.00000000 0.00000000 100.00000000
vn -19.50903000 0.00000000 98.07853000
vn 0.00000000 0.00000000 100.00000000
vn -25.88190000 0.00000000 96.59258000
vn -38.26834000 0.00000000 92.38796000
vn -50.00000000 0.00000000 86.60254000
vn -55.55702000 0.00000000 83.14696000
vn -70.71068000 0.00000000 70.71068000
vn -70.71068000 0.00000000 70.71068000
vn -83.14696000 0.00000000 55.55702000
vn -86.60254000 0.00000000 50.00000000
vn -92.38796000 0.00000000 38.26834000
vn -96.59258000 0.00000000 25.88190000
vn -98.07853000 0.00000000 19.50903000
vn -100.00000000 0.00000000 0.00000000
vn -100.00000000 0.00000000 0.00000000
vn -98.07853000 0.00000000 -19.50903000
vn -96.59258000 0.00000000 -25.88190000
vn -92.38796000 0.00000000 -38.26834000
vn -86.60254000 0.00000000 -50.00000000
vn -83.14696000 0.00000000 -55.55702000
vn -70.71068000 0.00000000 -70.71068000
vn -70.71068000 0.00000000 -70.71068000
vn -55.55702000 0.00000000 -83.14696000
vn -50.00000000 0.00000000 -86.60254000
vn -38.26834000 0.00000000 -92.38796000
vn -25.88190000 0.00000000 -96.59258000
vn -19.50903000 0.00000000 -98.07853000
vn 0.00000000 0.00000000 -100.00000000
vn -19.50903000 0.00000000 -98.07853000
vn 0.00000000 0.00000000 -100.00000000
vn -25.88190000 0.00000000 -96.59258000
vn -38.26834000 0.00000000 -92.38796000
vn -50.00000000 0.00000000 -86.60254000
vn -55.55702000 0.00000000 -83.14696000
vn -70.71068000 0.00000000 -70.71068000
vn -70.71068000 0.00000000 -70.71068000
vn -83.14696000 0.00000000 -55.55702000
vn -86.60254000 0.00000000 -50.00000000
vn -92.38796000 0.00000000 -38.26834000
vn -96.59258000 0.00000000 -25.88190000
vn -98.07853000 0.00000000 -19.50903000
vn -100.00000000 0.00000000 0.00000000
vn -100.00000000 0.00000000 0.00000000
vn -98.07853000 0.00000000 19.50903000
vn -96.59258000 0.00000000 25.88190000
vn -92.38796000 0.00000000 38.26834000
vn -86.60254000 0.00000000 50.00000000
vn -83.14696000 0.00000000 55.55702000
vn -70.71068000 0.00000000 70.71068000
vn -70.71068000 0.00000000 70.71068000
vn -55.55702000 0.00000000 83.14696000
vn -50.00000000 0.00000000 86.60254000
vn -38.26834000 0.00000000 92.38796000
vn -25.88190000 0.00000000 96.59258000
vn -19.50903000 0.00000000 98.07853000
vn 0.00000000 0.00000000 100.00000000
vn 0.00000000 0.00000000 100.00000000
vn 0.00000000 0.00000000 100.00000000
vn 0.00000000 0.00000000 100.00000000
vn 0.00000000 0.00000000 100.00000000
vn 0.00000000 0.00000000 100.00000000
vn 0.00000000 0.00000000 100.00000000
vn 0.00000000 0.00000000 100.00000000
vn 0.00000000 0.00000000 100.00000000
vn 0.00000000 0.00000000 100.00000000
vn 0.00000000 0.00000000 100.00000000
vn 0.00000000 0.00000000 100.00000000
vn 0.00000000 0.00000000 100.00000000
vn 0.00000000 0.00000000 100.00000000
vn 0.00000000 0.00000000 100.00000000
vn 0.00000000 0.00000000 100.00000000
vn 0.00000000 0.00000000 100.00000000
vn 0.00000000 0.00000000 100.00000000
vn 0.00000000 0.00000000 100.00000000
vn 0.00000000 0.00000000 100.00000000
vn 0.00000000 0.00000000 100.00000000
vn 0.00000000 0.00000000 100.00000000
vn 0.00000000 0.00000000 100.00000000
vn 0.00000000 0.00000000 100.00000000
vn 0.00000000 0.00000000 100.00000000
vn 0.00000000 0.00000000 100.00000000
vn 0.00000000 0.00000000 100.00000000
vn 0.00000000 0.00000000 100.00000000
vn 0.00000000 0.00000000 100.00000000
vn 0.00000000 0.00000000 100.00000000
vn 0.00000000 0.00000000 100.00000000
vn 0.00000000 0.00000000 100.00000000
vn 0.00000000 0.00000000 100.00000000
vn 0.00000000 0.00000000 100.00000000
vn 0.00000000 0.00000000 100.00000000
vn 0.00000000 0.00000000 100.00000000
vn 0.00000000 0.00000000 100.00000000
vn 0.00000000 0.00000000 100.00000000
vn 0.00000000 0.00000000 100.00000000
vn 0.00000000 0.00000000 100.00000000
vn 0.00000000 0.00000000 100.00000000
vn 0.00000000 0.00000000 100.00000000
vn 0.00000000 0.00000000 100.00000000
vn 0.00000000 0.00000000 100.00000000
vn 0.00000000 0.00000000 100.00000000
vn 0.00000000 0.00000000 100.00000000
vn 0.00000000 0.00000000 100.00000000
vn 0.00000000 0.00000000 100.00000000
vn 0.00000000 0.00000000 100.00000000
vn 0.00000000 0.00000000 100.00000000
vn 0.00000000 0.00000000 100.00000000
vn 0.00000000 0.00000000 100.00000000
vn 0.00000000 0.00000000 100.00000000
vn 0.00000000 0.00000000 100.00000000
vn 0.00000000 0.00000000 100.00000000
vn 0.00000000 0.00000000 100.00000000
vn 0.00000000 0.00000000 100.00000000
vn 0.00000000 0.00000000 100.00000000
vn 0.00000000 0.00000000 100.00000000
vn 0.00000000 0.00000000 100.00000000
vn 0.00000000 0.00000000 100.00000000
vn 0.00000000 0.00000000 100.00000000
vn 0.00000000 0.00000000 100.00000000
vn 0.00000000 0.00000000 100.00000000
vn 0.00000000 0.00000000 100.00000000
vn 0.00000000 0.00000000 100.00000000
vn 0.00000000 0.00000000 100.00000000
vn 0.00000000 0.00000000 100.00000000
vn 0.00000000 0.00000000 100.00000000
vn 0.00000000 0.00000000 100.00000000
vn 0.00000000 0.00000000 100.00000000
vn 0.00000000 0.00000000 100.00000000
vn 0.00000000 0.00000000 100.00000000
vn 0.00000000 0.00000000 100.00000000
vn 0.00000000 0.00000000 100.00000000
vn 0.00000000 0.00000000 100.00000000
vn 0.00000000 0.00000000 100.00000000
vn 0.00000000 0.00000000 100.00000000
vn 0.00000000 0.00000000 100.00000000
vn 0.00000000 0.00000000 100.00000000
vn 0.00000000 0.00000000 100.00000000
vn 0.00000000 0.00000000 100.00000000
vn 0.00000000 0.00000000 100.00000000
vn 0.00000000 0.00000000 100.00000000
vn 0.00000000 0.00000000 100.00000000
vn 0.00000000 0.00000000 100.00000000
vn 0.00000000 0.00000000 100.00000000
vn 0.00000000 0.00000000 100.00000000
vn 0.00000000 0.00000000 100.00000000
vn 0.00000000 0.00000000 100.00000000
vn 0.00000000 0.00000000 100.00000000
vn 0.00000000 0.00000000 100.00000000
vn 0.00000000 0.00000000 100.00000000
vn 0.00000000 0.00000000 100.00000000
vn 0.00000000 0.00000000 100.00000000
vn 0.00000000 0.00000000 100.00000000
vn 0.00000000 25.88190000 -96.59258000
vn 0.00000000 25.88190000 -96.59258000
vn 0.00000000 25.88190000 -96.59258000
vn 0.00000000 25.88190000 -96.59258000
vn 0.00000000 25.88190000 -96.59258000
vn 0.00000000 25.88190000 -96.59258000
vn 0.00000000 25.88190000 -96.59258000
vn 0.00000000 25.88190000 -96.59258000
vn 0.00000000 25.88190000 -96.59258000
vn 0.00000000 25.88190000 -96.59258000
vn 0.00000000 25.88190000 -96.59258000
vn 0.00000000 25.88190000 -96.59258000
vn 0.00000000 25.88190000 -96.59258000
vn 0.00000000 25.88190000 -96.59258000
vn 0.00000000 25.88190000 -96.59258000
vn 0.00000000 25.88190000 -96.59258000
vn 0.00000000 25.88190000 -96.59258000
vn 0.00000000 25.88190000 -96.59258000
vn 0.00000000 25.88190000 -96.59258000
vn 0.00000000 25.88190000 -96.59258000
vn 0.00000000 25.88190000 -96.59258000
vn 0.00000000 25.88190000 -96.59258000
vn 0.00000000 25.88190000 -96.59258000
vn 0.00000000 25.88190000 -96.59258000
vn 0.00000000 25.88190000 -96.59258000
vn 0.00000000 25.88190000 -96.59258000
vn 0.00000000 25.88190000 -96.59258000
vn 0.00000000 25.88190000 -96.59258000
vn 0.00000000 25.88190000 -96.59258000
vn 0.00000000 25.88190000 -96.59258000
vn 0.00000000 25.88190000 -96.59258000
vn 0.00000000 25.88190000 -96.59258000
vn 0.00000000 25.88190000 -96.59258000
vn 0.00000000 25.88190000 -96.59258000
vn 0.00000000 25.88190000 -96.59258000
vn 0.00000000 25.88190000 -96.59258000
vn 0.00000000 25.88190000 -96.59258000
vn 0.00000000 25.88190000 -96.59258000
vn 0.00000000 25.88190000 -96.59258000
vn 0.00000000 25.88190000 -96.59258000
vn 0.00000000 25.88190000 -96.59258000
vn 0.00000000 25.88190000 -96.59258000
vn 0.00000000 25.88190000 -96.59258000
vn 0.00000000 25.88190000 -96.59258000
vn 0.00000000 25.88190000 -96.59258000
vn 0.00000000 25.88190000 -96.59258000
vn 0.00000000 25.88190000 -96.59258000
vn 0.00000000 25.88190000 -96.59258000
vt -7.05113000 8.10924000
vt -5.90010000 9.26770000
vt -13.30010000 9.26770000
vt -7.05113000 10.42616000
vt -13.30010000 10.81232000
vt -8.15793000 11.58462000
vt -13.30010000 12.35693000
vt -9.17796000 12.74308000
vt -13.30010000 13.90155000
vt -10.07203000 13.90155000
vt -10.80577000 15.06001000
vt -13.30010000 15.44616000
vt -11.35099000 16.21847000
vt -13.30010000 16.99078000
vt -11.68673000 17.37693000
vt -13.30010000 18.53540000
vt -11.80010000 18.53540000
vt -13.30010000 7.72308000
vt -8.15793000 6.95077000
vt -13.30010000 6.17846000
vt -9.17796000 5.79231000
vt -13.30010000 4.63385000
vt -10.07203000 4.63385000
vt -10.80577000 3.47539000
vt -13.30010000 3.08923000
vt -11.35099000 2.31692000
vt -13.30010000 1.54462000
vt -11.68673000 1.15846000
vt -13.30010000 0.00000000
vt -11.80010000 0.00000000
vt -7.05113000 8.10924000
vt -5.90010000 9.26770000
vt -13.30010000 9.26770000
vt -7.05113000 10.42616000
vt -13.30010000 10.81232000
vt -8.15793000 11.58462000
vt -13.30010000 12.35693000
vt -9.17796000 12.74308000
vt -13.30010000 13.90155000
vt -10.07203000 13.90155000
vt -10.80577000 15.06001000
vt -13.30010000 15.44616000
vt -11.35099000 16.21847000
vt -13.30010000 16.99078000
vt -11.68673000 17.37693000
vt -13.30010000 18.53540000
vt -11.80010000 18.53540000
vt -13.30010000 7.72308000
vt -8.15793000 6.95077000
vt -13.30010000 6.17846000
vt -9.17796000 5.79231000
vt -13.30010000 4.63385000
vt -10.07203000 4.63385000
vt -10.80577000 3.47539000
vt -13.30010000 3.08923000
vt -11.35099000 2.31692000
vt -13.30010000 1.54462000
vt -11.68673000 1.15846000
vt -13.30010000 0.00000000
vt -11.80010000 0.00000000
vt -5.95000000 0.00000000
vt -5.95000000 1.27092000
vt -25.05000000 0.00000000
vt -25.05000000 1.27092000
vt -5.95000000 2.54183000
vt -25.05000000 2.54183000
vt -5.95000000 3.81275000
vt -25.05000000 3.81275000
vt -5.95000000 5.08367000
vt -25.05000000 5.08367000
vt -5.95000000 6.35458000
vt -25.05000000 6.35458000
vt -5.95000000 7.62550000
vt -25.05000000 7.62550000
vt -5.95000000 8.89642000
vt -25.05000000 8.89642000
vt -5.95000000 10.16734000
vt -25.05000000 10.16734000
vt -5.95000000 11.43825000
vt -25.05000000 11.43825000
vt -5.95000000 12.70917000
vt -25.05000000 12.70917000
vt -25.05000000 13.98009000
vt -5.95000000 13.98009000
vt -8.18000000 0.00000000
vt -2.58819000 0.00000000
vt -7.02897000 1.15846000
vt -2.17902000 1.54462000
vt -5.92217000 2.31692000
vt -1.79774000 3.08923000
vt -4.90214000 3.47539000
vt -1.47032000 4.63385000
vt -4.00807000 4.63385000
vt -3.27433000 5.79231000
vt -1.21909000 6.17846000
vt -2.72911000 6.95077000
vt -1.06116000 7.72308000
vt -2.39337000 8.10924000
vt -1.00729000 9.26770000
vt -2.28000000 9.26770000
vt -2.39337000 10.42616000
vt -1.06116000 10.81232000
vt -2.72911000 11.58462000
vt -1.21909000 12.35693000
vt -3.27433000 12.74308000
vt -1.47032000 13.90155000
vt -4.00807000 13.90155000
vt -4.90214000 15.06001000
vt -1.79774000 15.44616000
vt -5.92217000 16.21847000
vt -2.17902000 16.99078000
vt -7.02897000 17.37693000
vt -2.58819000 18.53540000
vt -8.18000000 18.53540000
vt -9.33103000 1.15846000
vt -14.51000000 0.00000000
vt -14.51000000 1.54462000
vt -10.43783000 2.31692000
vt -14.51000000 3.08923000
vt -11.45786000 3.47539000
vt -14.51000000 4.63385000
vt -12.35193000 4.63385000
vt -13.08567000 5.79231000
vt -14.51000000 6.17846000
vt -13.63089000 6.95077000
vt -14.51000000 7.72308000
vt -13.96663000 8.10924000
vt -14.51000000 9.26770000
vt -14.08000000 9.26770000
vt -13.96663000 10.42616000
vt -14.51000000 10.81232000
vt -13.63089000 11.58462000
vt -14.51000000 12.35693000
vt -13.08567000 12.74308000
vt -14.51000000 13.90155000
vt -12.35193000 13.90155000
vt -11.45786000 15.06001000
vt -14.51000000 15.44616000
vt -10.43783000 16.21847000
vt -14.51000000 16.99078000
vt -9.33103000 17.37693000
vt -14.51000000 18.53540000
vt -3.62347000 0.00000000
vt -4.03263000 1.54462000
vt -8.18000000 0.00000000
vt -14.51000000 1.54462000
vt -14.51000000 0.00000000
vt -4.41392000 3.08923000
vt -14.51000000 3.08923000
vt -4.74133000 4.63385000
vt -14.51000000 4.63385000
vt -4.99257000 6.17846000
vt -14.51000000 6.17846000
vt -5.15050000 7.72308000
vt -14.51000000 7.72308000
vt -5.20437000 9.26770000
vt -14.51000000 9.26770000
vt -14.51000000 10.81232000
vt -5.15050000 10.81232000
vt -14.51000000 12.35693000
vt -4.99257000 12.35693000
vt -14.51000000 13.90155000
vt -4.74133000 13.90155000
vt -14.51000000 15.44616000
vt -4.41392000 15.44616000
vt -14.51000000 16.99078000
vt -4.03263000 16.99078000
vt -8.18000000 18.53540000
vt -3.62347000 18.53540000
vt -14.51000000 18.53540000
vt -8.18000000 -18.53540000
vt -3.62347000 -18.53540000
vt -7.02897000 -17.37693000
vt -3.21430000 -16.99078000
vt -5.92217000 -16.21847000
vt -2.83302000 -15.44616000
vt -4.90214000 -15.06001000
vt -2.50560000 -13.90155000
vt -4.00807000 -13.90155000
vt -3.27433000 -12.74308000
vt -2.25437000 -12.35693000
vt -2.72911000 -11.58462000
vt -2.09643000 -10.81232000
vt -2.39337000 -10.42616000
vt -2.04257000 -9.26770000
vt -2.28000000 -9.26770000
vt -2.39337000 -8.10924000
vt -2.09643000 -7.72308000
vt -2.72911000 -6.95077000
vt -2.25437000 -6.17846000
vt -3.27433000 -5.79231000
vt -2.50560000 -4.63385000
vt -4.00807000 -4.63385000
vt -4.90214000 -3.47539000
vt -2.83302000 -3.08923000
vt -5.92217000 -2.31692000
vt -3.21430000 -1.54462000
vt -7.02897000 -1.15846000
vt -9.33103000 -17.37693000
vt -14.51000000 -18.53540000
vt -14.51000000 -16.99078000
vt -10.43783000 -16.21847000
vt -14.51000000 -15.44616000
vt -11.45786000 -15.06001000
vt -14.51000000 -13.90155000
vt -12.35193000 -13.90155000
vt -13.08567000 -12.74308000
vt -14.51000000 -12.35693000
vt -13.63089000 -11.58462000
vt -14.51000000 -10.81232000
vt -13.96663000 -10.42616000
vt -14.51000000 -9.26770000
vt -14.08000000 -9.26770000
vt -13.96663000 -8.10924000
vt -14.51000000 -7.72308000
vt -13.63089000 -6.95077000
vt -14.51000000 -6.17846000
vt -13.08567000 -5.79231000
vt -14.51000000 -4.63385000
vt -12.35193000 -4.63385000
vt -11.45786000 -3.47539000
vt -14.51000000 -3.08923000
vt -10.43783000 -2.31692000
vt -14.51000000 -1.54462000
vt -9.33103000 -1.15846000
vt -2.58819000 -18.53540000
vt -2.99736000 -16.99078000
vt -8.18000000 -18.53540000
vt -14.51000000 -16.99078000
vt -14.51000000 -18.53540000
vt -3.37864000 -15.44616000
vt -14.51000000 -15.44616000
vt -3.70606000 -13.90155000
vt -14.51000000 -13.90155000
vt -3.95729000 -12.35693000
vt -14.51000000 -12.35693000
vt -4.11522000 -10.81232000
vt -14.51000000 -10.81232000
vt -4.16909000 -9.26770000
vt -14.51000000 -9.26770000
vt -14.51000000 -7.72308000
vt -4.11522000 -7.72308000
vt -14.51000000 -6.17846000
vt -3.95729000 -6.17846000
vt -14.51000000 -4.63385000
vt -3.70606000 -4.63385000
vt -14.51000000 -3.08923000
vt -3.37864000 -3.08923000
vt -14.51000000 -1.54462000
vt -2.99736000 -1.54462000
vt -25.05000000 -13.98009000
vt -5.95000000 -13.98009000
vt -25.05000000 -12.70917000
vt -5.95000000 -12.70917000
vt -5.95000000 -11.43825000
vt -25.05000000 -11.43825000
vt -5.95000000 -10.16734000
vt -25.05000000 -10.16734000
vt -5.95000000 -8.89642000
vt -25.05000000 -8.89642000
vt -5.95000000 -7.62550000
vt -25.05000000 -7.62550000
vt -5.95000000 -6.35458000
vt -25.05000000 -6.35458000
vt -5.95000000 -5.08367000
vt -25.05000000 -5.08367000
vt -5.95000000 -3.81275000
vt -25.05000000 -3.81275000
vt -5.95000000 -2.54183000
vt -25.05000000 -2.54183000
vt -5.95000000 -1.27092000
vt -25.05000000 -1.27092000
vt -11.80010000 -18.53540000
vt -11.68673000 -17.37693000
vt -13.30010000 -18.53540000
vt -13.30010000 -16.99078000
vt -11.35099000 -16.21847000
vt -13.30010000 -15.44616000
vt -10.80577000 -15.06001000
vt -13.30010000 -13.90155000
vt -10.07203000 -13.90155000
vt -9.17796000 -12.74308000
vt -13.30010000 -12.35693000
vt -8.15793000 -11.58462000
vt -13.30010000 -10.81232000
vt -7.05113000 -10.42616000
vt -13.30010000 -9.26770000
vt -5.90010000 -9.26770000
vt -7.05113000 -8.10924000
vt -13.30010000 -7.72308000
vt -8.15793000 -6.95077000
vt -13.30010000 -6.17846000
vt -9.17796000 -5.79231000
vt -13.30010000 -4.63385000
vt -10.07203000 -4.63385000
vt -10.80577000 -3.47539000
vt -13.30010000 -3.08923000
vt -11.35099000 -2.31692000
vt -13.30010000 -1.54462000
vt -11.68673000 -1.15846000
vt -11.80010000 -18.53540000
vt -11.68673000 -17.37693000
vt -13.30010000 -18.53540000
vt -13.30010000 -16.99078000
vt -11.35099000 -16.21847000
vt -13.30010000 -15.44616000
vt -10.80577000 -15.06001000
vt -13.30010000 -13.90155000
vt -10.07203000 -13.90155000
vt -9.17796000 -12.74308000
vt -13.30010000 -12.35693000
vt -8.15793000 -11.58462000
vt -13.30010000 -10.81232000
vt -7.05113000 -10.42616000
vt -13.30010000 -9.26770000
vt -5.90010000 -9.26770000
vt -7.05113000 -8.10924000
vt -13.30010000 -7.72308000
vt -8.15793000 -6.95077000
vt -13.30010000 -6.17846000
vt -9.17796000 -5.79231000
vt -13.30010000 -4.63385000
vt -10.07203000 -4.63385000
vt -10.80577000 -3.47539000
vt -13.30010000 -3.08923000
vt -11.35099000 -2.31692000
vt -13.30010000 -1.54462000
vt -11.68673000 -1.15846000
vt -5.69896000 19.92703000
vt -5.90000000 18.40000000
vt -5.88000000 18.40000000
vt -5.69896000 16.87297000
vt -5.67964000 16.87814000
vt -5.10955000 15.45000000
vt -5.09223000 15.46000000
vt -4.17193000 14.22807000
vt -4.15779000 14.24221000
vt -2.95000000 13.29045000
vt -2.94000000 13.30777000
vt -1.52703000 12.70104000
vt -1.52186000 12.72036000
vt 0.00000000 12.50000000
vt 0.00000000 12.52000000
vt 1.52186000 12.72036000
vt 1.52703000 12.70104000
vt 2.94000000 13.30777000
vt 2.95000000 13.29045000
vt 4.15779000 14.24221000
vt 4.17193000 14.22807000
vt 5.09223000 15.46000000
vt 5.10955000 15.45000000
vt 5.67964000 16.87814000
vt 5.69896000 16.87297000
vt 5.88000000 18.40000000
vt 5.90000000 18.40000000
vt 5.69896000 19.92703000
vt 5.67964000 19.92186000
vt 5.10955000 21.35000000
vt 5.09223000 21.34000000
vt 4.17193000 22.57193000
vt 4.15779000 22.55779000
vt 2.95000000 23.50955000
vt 2.94000000 23.49223000
vt 1.52703000 24.09896000
vt 1.52186000 24.07964000
vt 0.00000000 24.30000000
vt 0.00000000 24.28000000
vt -1.52186000 24.07964000
vt -1.52703000 24.09896000
vt -2.94000000 23.49223000
vt -2.95000000 23.50955000
vt -4.15779000 22.55779000
vt -4.17193000 22.57193000
vt -5.09223000 21.34000000
vt -5.10955000 21.35000000
vt -5.67964000 19.92186000
vt -5.69896000 -16.87297000
vt -5.90000000 -18.40000000
vt -5.88000000 -18.40000000
vt -5.69896000 -19.92703000
vt -5.67964000 -19.92186000
vt -5.10955000 -21.35000000
vt -5.09223000 -21.34000000
vt -4.17193000 -22.57193000
vt -4.15779000 -22.55779000
vt -2.95000000 -23.50955000
vt -2.94000000 -23.49223000
vt -1.52703000 -24.09896000
vt -1.52186000 -24.07964000
vt 0.00000000 -24.30000000
vt 0.00000000 -24.28000000
vt 1.52186000 -24.07964000
vt 1.52703000 -24.09896000
vt 2.94000000 -23.49223000
vt 2.95000000 -23.50955000
vt 4.15779000 -22.55779000
vt 4.17193000 -22.57193000
vt 5.09223000 -21.34000000
vt 5.10955000 -21.35000000
vt 5.67964000 -19.92186000
vt 5.69896000 -19.92703000
vt 5.88000000 -18.40000000
vt 5.90000000 -18.40000000
vt 5.69896000 -16.87297000
vt 5.67964000 -16.87814000
vt 5.10955000 -15.45000000
vt 5.09223000 -15.46000000
vt 4.17193000 -14.22807000
vt 4.15779000 -14.24221000
vt 2.95000000 -13.29045000
vt 2.94000000 -13.30777000
vt 1.52703000 -12.70104000
vt 1.52186000 -12.72036000
vt 0.00000000 -12.50000000
vt 0.00000000 -12.52000000
vt -1.52186000 -12.72036000
vt -1.52703000 -12.70104000
vt -2.94000000 -13.30777000
vt -2.95000000 -13.29045000
vt -4.15779000 -14.24221000
vt -4.17193000 -14.22807000
vt -5.09223000 -15.46000000
vt -5.10955000 -15.45000000
vt -5.67964000 -16.87814000
vt 5.69896000 15.01282000
vt 5.90000000 16.59372000
vt 5.88000000 16.59372000
vt 5.69896000 18.17462000
vt 5.67964000 18.16926000
vt 5.10955000 19.64778000
vt 5.09223000 19.63743000
vt 4.17193000 20.91282000
vt 4.15779000 20.89818000
vt 2.95000000 21.88351000
vt 2.94000000 21.86558000
vt 1.52703000 22.49372000
vt 1.52186000 22.47372000
vt -0.00000000 22.70185000
vt -0.00000000 22.68114000
vt -1.52186000 22.47372000
vt -1.52703000 22.49372000
vt -2.94000000 21.86558000
vt -2.95000000 21.88351000
vt -4.15779000 20.89818000
vt -4.17193000 20.91282000
vt -5.09223000 19.63743000
vt -5.10955000 19.64778000
vt -5.67964000 18.16926000
vt -5.69896000 18.17462000
vt -5.88000000 16.59372000
vt -5.90000000 16.59372000
vt -5.69896000 15.01282000
vt -5.67964000 15.01818000
vt -5.10955000 13.53965000
vt -5.09223000 13.55001000
vt -4.17193000 12.27462000
vt -4.15779000 12.28926000
vt -2.95000000 11.30392000
vt -2.94000000 11.32185000
vt -1.52703000 10.69372000
vt -1.52186000 10.71372000
vt 0.00000000 10.48559000
vt 0.00000000 10.50629000
vt 1.52186000 10.71372000
vt 1.52703000 10.69372000
vt 2.94000000 11.32185000
vt 2.95000000 11.30392000
vt 4.15779000 12.28926000
vt 4.17193000 12.27462000
vt 5.09223000 13.55001000
vt 5.10955000 13.53965000
vt 5.67964000 15.01818000
f 1/1/1 2/2/2 3/3/3
f 3/3/3 2/2/2 4/4/4
f 3/3/3 4/4/4 5/5/5
f 5/5/5 4/4/4 6/6/6
f 5/5/5 6/6/6 7/7/7
f 7/7/7 6/6/6 8/8/8
f 7/7/7 8/8/8 9/9/9
f 9/9/9 8/8/8 10/10/10
f 9/9/9 10/10/10 11/11/11
f 9/9/9 11/11/11 12/12/12
f 12/12/12 11/11/11 13/13/13
f 12/12/12 13/13/13 14/14/14
f 14/14/14 13/13/13 15/15/15
f 14/14/14 15/15/15 16/16/16
f 16/16/16 15/15/15 17/17/17
f 3/3/3 18/18/18 1/1/1
f 1/1/1 18/18/18 19/19/19
f 19/19/19 18/18/18 20/20/20
f 19/19/19 20/20/20 21/21/21
f 21/21/21 20/20/20 22/22/22
f 21/21/21 22/22/22 23/23/23
f 23/23/23 22/22/22 24/24/24
f 24/24/24 22/22/22 25/25/25
f 24/24/24 25/25/25 26/26/26
f 26/26/26 25/25/25 27/27/27
f 26/26/26 27/27/27 28/28/28
f 28/28/28 27/27/27 29/29/29
f 28/28/28 29/29/29 30/30/30
f 31/31/31 32/32/32 33/33/33
f 33/33/33 32/32/32 34/34/34
f 33/33/33 34/34/34 35/35/35
f 35/35/35 34/34/34 36/36/36
f 35/35/35 36/36/36 37/37/37
f 37/37/37 36/36/36 38/38/38
f 37/37/37 38/38/38 39/39/39
f 39/39/39 38/38/38 40/40/40
f 39/39/39 40/40/40 41/41/41
f 39/39/39 41/41/41 42/42/42
f 42/42/42 41/41/41 43/43/43
f 42/42/42 43/43/43 44/44/44
f 44/44/44 43/43/43 45/45/45
f 44/44/44 45/45/45 46/46/46
f 46/46/46 45/45/45 47/47/47
f 33/33/33 48/48/48 31/31/31
f 31/31/31 48/48/48 49/49/49
f 49/49/49 48/48/48 50/50/50
f 49/49/49 50/50/50 51/51/51
f 51/51/51 50/50/50 52/52/52
f 51/51/51 52/52/52 53/53/53
f 53/53/53 52/52/52 54/54/54
f 54/54/54 52/52/52 55/55/55
f 54/54/54 55/55/55 56/56/56
f 56/56/56 55/55/55 57/57/57
f 56/56/56 57/57/57 58/58/58
f 58/58/58 57/57/57 59/59/59
f 58/58/58 59/59/59 60/60/60
f 61/61/61 62/62/62 63/63/63
f 63/63/63 62/62/62 64/64/64
f 64/64/64 62/62/62 65/65/65
f 64/64/64 65/65/65 66/66/66
f 66/66/66 65/65/65 67/67/67
f 66/66/66 67/67/67 68/68/68
f 68/68/68 67/67/67 69/69/69
f 68/68/68 69/69/69 70/70/70
f 70/70/70 69/69/69 71/71/71
f 70/70/70 71/71/71 72/72/72
f 72/72/72 71/71/71 73/73/73
f 72/72/72 73/73/73 74/74/74
f 74/74/74 73/73/73 75/75/75
f 74/74/74 75/75/75 76/76/76
f 76/76/76 75/75/75 77/77/77
f 76/76/76 77/77/77 78/78/78
f 78/78/78 77/77/77 79/79/79
f 78/78/78 79/79/79 80/80/80
f 80/80/80 79/79/79 81/81/81
f 80/80/80 81/81/81 82/82/82
f 82/82/82 81/81/81 83/83/83
f 83/83/83 81/81/81 84/84/84
f 85/85/85 86/86/86 87/87/87
f 87/87/87 86/86/86 88/88/88
f 87/87/87 88/88/88 89/89/89
f 89/89/89 88/88/88 90/90/90
f 89/89/89 90/90/90 91/91/91
f 91/91/91 90/90/90 92/92/92
f 91/91/91 92/92/92 93/93/93
f 93/93/93 92/92/92 94/94/94
f 94/94/94 92/92/92 95/95/95
f 94/94/94 95/95/95 96/96/96
f 96/96/96 95/95/95 97/97/97
f 96/96/96 97/97/97 98/98/98
f 98/98/98 97/97/97 99/99/99
f 98/98/98 99/99/99 100/100/100
f 100/100/100 99/99/99 101/101/101
f 101/101/101 99/99/99 102/102/102
f 101/101/101 102/102/102 103/103/103
f 103/103/103 102/102/102 104/104/104
f 103/103/103 104/104/104 105/105/105
f 105/105/105 104/104/104 106/106/106
f 105/105/105 106/106/106 107/107/107
f 107/107/107 106/106/106 108/108/108
f 108/108/108 106/106/106 109/109/109
f 108/108/108 109/109/109 110/110/110
f 110/110/110 109/109/109 111/111/111
f 110/110/110 111/111/111 112/112/112
f 112/112/112 111/111/111 113/113/113
f 112/112/112 113/113/113 114/114/114
f 85/85/85 115/115/115 116/116/116
f 116/116/116 115/115/115 117/117/117
f 117/117/117 115/115/115 118/118/118
f 117/117/117 118/118/118 119/119/119
f 119/119/119 118/118/118 120/120/120
f 119/119/119 120/120/120 121/121/121
f 121/121/121 120/120/120 122/122/122
f 121/121/121 122/122/122 123/123/123
f 121/121/121 123/123/123 124/124/124
f 124/124/124 123/123/123 125/125/125
f 124/124/124 125/125/125 126/126/126
f 126/126/126 125/125/125 127/127/127
f 126/126/126 127/127/127 128/128/128
f 128/128/128 127/127/127 129/129/129
f 128/128/128 129/129/129 130/130/130
f 128/128/128 130/130/130 131/131/131
f 131/131/131 130/130/130 132/132/132
f 131/131/131 132/132/132 133/133/133
f 133/133/133 132/132/132 134/134/134
f 133/133/133 134/134/134 135/135/135
f 135/135/135 134/134/134 136/136/136
f 135/135/135 136/136/136 137/137/137
f 135/135/135 137/137/137 138/138/138
f 138/138/138 137/137/137 139/139/139
f 138/138/138 139/139/139 140/140/140
f 140/140/140 139/139/139 141/141/141
f 140/140/140 141/141/141 142/142/142
f 142/142/142 141/141/141 114/114/114
f 143/143/143 144/144/144 145/145/145
f 145/145/145 144/144/144 146/146/146
f 145/145/145 146/146/146 147/147/147
f 144/144/144 148/148/148 146/146/146
f 146/146/146 148/148/148 149/149/149
f 149/149/149 148/148/148 150/150/150
f 149/149/149 150/150/150 151/151/151
f 151/151/151 150/150/150 152/152/152
f 151/151/151 152/152/152 153/153/153
f 153/153/153 152/152/152 154/154/154
f 153/153/153 154/154/154 155/155/155
f 155/155/155 154/154/154 156/156/156
f 155/155/155 156/156/156 157/157/157
f 157/157/157 156/156/156 158/158/158
f 158/158/158 156/156/156 159/159/159
f 158/158/158 159/159/159 160/160/160
f 160/160/160 159/159/159 161/161/161
f 160/160/160 161/161/161 162/162/162
f 162/162/162 161/161/161 163/163/163
f 162/162/162 163/163/163 164/164/164
f 164/164/164 163/163/163 165/165/165
f 164/164/164 165/165/165 166/166/166
f 166/166/166 165/165/165 167/167/167
f 166/166/166 167/167/167 168/168/168
f 168/168/168 167/167/167 169/169/169
f 168/168/168 170/170/170 166/166/166
f 171/171/171 172/172/172 173/173/173
f 173/173/173 172/172/172 174/174/174
f 173/173/173 174/174/174 175/175/175
f 175/175/175 174/174/174 176/176/176
f 175/175/175 176/176/176 177/177/177
f 177/177/177 176/176/176 178/178/178
f 177/177/177 178/178/178 179/179/179
f 179/179/179 178/178/178 180/180/180
f 180/180/180 178/178/178 181/181/181
f 180/180/180 181/181/181 182/182/182
f 182/182/182 181/181/181 183/183/183
f 182/182/182 183/183/183 184/184/184
f 184/184/184 183/183/183 185/185/185
f 184/184/184 185/185/185 186/186/186
f 186/186/186 185/185/185 187/187/187
f 187/187/187 185/185/185 188/188/188
f 187/187/187 188/188/188 189/189/189
f 189/189/189 188/188/188 190/190/190
f 189/189/189 190/190/190 191/191/191
f 191/191/191 190/190/190 192/192/192
f 191/191/191 192/192/192 193/193/193
f 193/193/193 192/192/192 194/194/194
f 194/194/194 192/192/192 195/195/195
f 194/194/194 195/195/195 196/196/196
f 196/196/196 195/195/195 197/197/197
f 196/196/196 197/197/197 198/198/198
f 198/198/198 197/197/197 143/143/143
f 198/198/198 143/143/143 145/145/145
f 171/171/171 199/199/199 200/200/200
f 200/200/200 199/199/199 201/201/201
f 201/201/201 199/199/199 202/202/202
f 201/201/201 202/202/202 203/203/203
f 203/203/203 202/202/202 204/204/204
f 203/203/203 204/204/204 205/205/205
f 205/205/205 204/204/204 206/206/206
f 205/205/205 206/206/206 207/207/207
f 205/205/205 207/207/207 208/208/208
f 208/208/208 207/207/207 209/209/209
f 208/208/208 209/209/209 210/210/210
f 210/210/210 209/209/209 211/211/211
f 210/210/210 211/211/211 212/212/212
f 212/212/212 211/211/211 213/213/213
f 212/212/212 213/213/213 214/214/214
f 212/212/212 214/214/214 215/215/215
f 215/215/215 214/214/214 216/216/216
f 215/215/215 216/216/216 217/217/217
f 217/217/217 216/216/216 218/218/218
f 217/217/217 218/218/218 219/219/219
f 219/219/219 218/218/218 220/220/220
f 219/219/219 220/220/220 221/221/221
f 219/219/219 221/221/221 222/222/222
f 222/222/222 221/221/221 223/223/223
f 222/222/222 223/223/223 224/224/224
f 224/224/224 223/223/223 225/225/225
f 224/224/224 225/225/225 147/147/147
f 147/147/147 225/225/225 145/145/145
f 226/226/226 227/227/227 228/228/228
f 228/228/228 227/227/227 229/229/229
f 228/228/228 229/229/229 230/230/230
f 227/227/227 231/231/231 229/229/229
f 229/229/229 231/231/231 232/232/232
f 232/232/232 231/231/231 233/233/233
f 232/232/232 233/233/233 234/234/234
f 234/234/234 233/233/233 235/235/235
f 234/234/234 235/235/235 236/236/236
f 236/236/236 235/235/235 237/237/237
f 236/236/236 237/237/237 238/238/238
f 238/238/238 237/237/237 239/239/239
f 238/238/238 239/239/239 240/240/240
f 240/240/240 239/239/239 241/241/241
f 241/241/241 239/239/239 242/242/242
f 241/241/241 242/242/242 243/243/243
f 243/243/243 242/242/242 244/244/244
f 243/243/243 244/244/244 245/245/245
f 245/245/245 244/244/244 246/246/246
f 245/245/245 246/246/246 247/247/247
f 247/247/247 246/246/246 248/248/248
f 247/247/247 248/248/248 249/249/249
f 249/249/249 248/248/248 250/250/250
f 249/249/249 250/250/250 85/85/85
f 85/85/85 250/250/250 86/86/86
f 85/85/85 116/116/116 249/249/249
f 251/251/251 252/252/252 253/253/253
f 253/253/253 252/252/252 254/254/254
f 253/253/253 254/254/254 255/255/255
f 253/253/253 255/255/255 256/256/256
f 256/256/256 255/255/255 257/257/257
f 256/256/256 257/257/257 258/258/258
f 258/258/258 257/257/257 259/259/259
f 258/258/258 259/259/259 260/260/260
f 260/260/260 259/259/259 261/261/261
f 260/260/260 261/261/261 262/262/262
f 262/262/262 261/261/261 263/263/263
f 262/262/262 263/263/263 264/264/264
f 264/264/264 263/263/263 265/265/265
f 264/264/264 265/265/265 266/266/266
f 266/266/266 265/265/265 267/267/267
f 266/266/266 267/267/267 268/268/268
f 268/268/268 267/267/267 269/269/269
f 268/268/268 269/269/269 270/270/270
f 270/270/270 269/269/269 271/271/271
f 270/270/270 271/271/271 272/272/272
f 272/272/272 271/271/271 61/61/61
f 272/272/272 61/61/61 63/63/63
f 273/273/273 274/274/274 275/275/275
f 275/275/275 274/274/274 276/276/276
f 276/276/276 274/274/274 277/277/277
f 276/276/276 277/277/277 278/278/278
f 278/278/278 277/277/277 279/279/279
f 278/278/278 279/279/279 280/280/280
f 280/280/280 279/279/279 281/281/281
f 280/280/280 281/281/281 282/282/282
f 280/280/280 282/282/282 283/283/283
f 283/283/283 282/282/282 284/284/284
f 283/283/283 284/284/284 285/285/285
f 285/285/285 284/284/284 286/286/286
f 285/285/285 286/286/286 287/287/287
f 287/287/287 286/286/286 288/288/288
f 287/287/287 288/288/288 289/289/289
f 287/287/287 289/289/289 290/290/290
f 290/290/290 289/289/289 291/291/291
f 290/290/290 291/291/291 292/292/292
f 292/292/292 291/291/291 293/293/293
f 292/292/292 293/293/293 294/294/294
f 294/294/294 293/293/293 295/295/295
f 294/294/294 295/295/295 296/296/296
f 294/294/294 296/296/296 297/297/297
f 297/297/297 296/296/296 298/298/298
f 297/297/297 298/298/298 299/299/299
f 299/299/299 298/298/298 300/300/300
f 299/299/299 300/300/300 59/59/59
f 59/59/59 300/300/300 60/60/60
f 301/301/301 302/302/302 303/303/303
f 303/303/303 302/302/302 304/304/304
f 304/304/304 302/302/302 305/305/305
f 304/304/304 305/305/305 306/306/306
f 306/306/306 305/305/305 307/307/307
f 306/306/306 307/307/307 308/308/308
f 308/308/308 307/307/307 309/309/309
f 308/308/308 309/309/309 310/310/310
f 308/308/308 310/310/310 311/311/311
f 311/311/311 310/310/310 312/312/312
f 311/311/311 312/312/312 313/313/313
f 313/313/313 312/312/312 314/314/314
f 313/313/313 314/314/314 315/315/315
f 315/315/315 314/314/314 316/316/316
f 315/315/315 316/316/316 317/317/317
f 315/315/315 317/317/317 318/318/318
f 318/318/318 317/317/317 319/319/319
f 318/318/318 319/319/319 320/320/320
f 320/320/320 319/319/319 321/321/321
f 320/320/320 321/321/321 322/322/322
f 322/322/322 321/321/321 323/323/323
f 322/322/322 323/323/323 324/324/324
f 322/322/322 324/324/324 325/325/325
f 325/325/325 324/324/324 326/326/326
f 325/325/325 326/326/326 327/327/327
f 327/327/327 326/326/326 328/328/328
f 327/327/327 328/328/328 29/29/29
f 29/29/29 328/328/328 30/30/30
f 329/329/329 330/330/330 331/331/331
f 331/331/331 330/330/330 332/332/332
f 331/331/331 332/332/332 333/333/333
f 333/333/333 332/332/332 334/334/334
f 333/333/333 334/334/334 335/335/335
f 335/335/335 334/334/334 336/336/336
f 335/335/335 336/336/336 337/337/337
f 337/337/337 336/336/336 338/338/338
f 337/337/337 338/338/338 339/339/339
f 339/339/339 338/338/338 340/340/340
f 339/339/339 340/340/340 341/341/341
f 341/341/341 340/340/340 342/342/342
f 341/341/341 342/342/342 343/343/343
f 343/343/343 342/342/342 344/344/344
f 344/344/344 342/342/342 345/345/345
f 344/344/344 345/345/345 346/346/346
f 346/346/346 345/345/345 347/347/347
f 346/346/346 347/347/347 348/348/348
f 348/348/348 347/347/347 349/349/349
f 348/348/348 349/349/349 350/350/350
f 350/350/350 349/349/349 351/351/351
f 350/350/350 351/351/351 352/352/352
f 352/352/352 351/351/351 353/353/353
f 352/352/352 353/353/353 354/354/354
f 354/354/354 353/353/353 355/355/355
f 354/354/354 355/355/355 356/356/356
f 354/354/354 356/356/356 357/357/357
f 357/357/357 356/356/356 358/358/358
f 357/357/357 358/358/358 359/359/359
f 359/359/359 358/358/358 360/360/360
f 359/359/359 360/360/360 361/361/361
f 361/361/361 360/360/360 362/362/362
f 361/361/361 362/362/362 363/363/363
f 363/363/363 362/362/362 364/364/364
f 363/363/363 364/364/364 365/365/365
f 365/365/365 364/364/364 366/366/366
f 365/365/365 366/366/366 367/367/367
f 367/367/367 366/366/366 368/368/368
f 368/368/368 366/366/366 369/369/369
f 368/368/368 369/369/369 370/370/370
f 370/370/370 369/369/369 371/371/371
f 370/370/370 371/371/371 372/372/372
f 372/372/372 371/371/371 373/373/373
f 372/372/372 373/373/373 374/374/374
f 374/374/374 373/373/373 375/375/375
f 374/374/374 375/375/375 376/376/376
f 376/376/376 375/375/375 329/329/329
f 376/376/376 329/329/329 331/331/331
f 377/377/377 378/378/378 379/379/379
f 379/379/379 378/378/378 380/380/380
f 379/379/379 380/380/380 381/381/381
f 381/381/381 380/380/380 382/382/382
f 381/381/381 382/382/382 383/383/383
f 383/383/383 382/382/382 384/384/384
f 383/383/383 384/384/384 385/385/385
f 385/385/385 384/384/384 386/386/386
f 385/385/385 386/386/386 387/387/387
f 387/387/387 386/386/386 388/388/388
f 387/387/387 388/388/388 389/389/389
f 389/389/389 388/388/388 390/390/390
f 389/389/389 390/390/390 391/391/391
f 391/391/391 390/390/390 392/392/392
f 392/392/392 390/390/390 393/393/393
f 392/392/392 393/393/393 394/394/394
f 394/394/394 393/393/393 395/395/395
f 394/394/394 395/395/395 396/396/396
f 396/396/396 395/395/395 397/397/397
f 396/396/396 397/397/397 398/398/398
f 398/398/398 397/397/397 399/399/399
f 398/398/398 399/399/399 400/400/400
f 400/400/400 399/399/399 401/401/401
f 400/400/400 401/401/401 402/402/402
f 402/402/402 401/401/401 403/403/403
f 402/402/402 403/403/403 404/404/404
f 402/402/402 404/404/404 405/405/405
f 405/405/405 404/404/404 406/406/406
f 405/405/405 406/406/406 407/407/407
f 407/407/407 406/406/406 408/408/408
f 407/407/407 408/408/408 409/409/409
f 409/409/409 408/408/408 410/410/410
f 409/409/409 410/410/410 411/411/411
f 411/411/411 410/410/410 412/412/412
f 411/411/411 412/412/412 413/413/413
f 413/413/413 412/412/412 414/414/414
f 413/413/413 414/414/414 415/415/415
f 415/415/415 414/414/414 416/416/416
f 416/416/416 414/414/414 417/417/417
f 416/416/416 417/417/417 418/418/418
f 418/418/418 417/417/417 419/419/419
f 418/418/418 419/419/419 420/420/420
f 420/420/420 419/419/419 421/421/421
f 420/420/420 421/421/421 422/422/422
f 422/422/422 421/421/421 423/423/423
f 422/422/422 423/423/423 424/424/424
f 424/424/424 423/423/423 377/377/377
f 424/424/424 377/377/377 379/379/379
f 425/425/425 426/426/426 427/427/427
f 427/427/427 426/426/426 428/428/428
f 427/427/427 428/428/428 429/429/429
f 429/429/429 428/428/428 430/430/430
f 429/429/429 430/430/430 431/431/431
f 431/431/431 430/430/430 432/432/432
f 431/431/431 432/432/432 433/433/433
f 433/433/433 432/432/432 434/434/434
f 433/433/433 434/434/434 435/435/435
f 435/435/435 434/434/434 436/436/436
f 435/435/435 436/436/436 437/437/437
f 437/437/437 436/436/436 438/438/438
f 437/437/437 438/438/438 439/439/439
f 439/439/439 438/438/438 440/440/440
f 440/440/440 438/438/438 441/441/441
f 440/440/440 441/441/441 442/442/442
f 442/442/442 441/441/441 443/443/443
f 442/442/442 443/443/443 444/444/444
f 444/444/444 443/443/443 445/445/445
f 444/444/444 445/445/445 446/446/446
f 446/446/446 445/445/445 447/447/447
f 446/446/446 447/447/447 448/448/448
f 448/448/448 447/447/447 449/449/449
f 448/448/448 449/449/449 450/450/450
f 450/450/450 449/449/449 451/451/451
f 450/450/450 451/451/451 452/452/452
f 450/450/450 452/452/452 453/453/453
f 453/453/453 452/452/452 454/454/454
f 453/453/453 454/454/454 455/455/455
f 455/455/455 454/454/454 456/456/456
f 455/455/455 456/456/456 457/457/457
f 457/457/457 456/456/456 458/458/458
f 457/457/457 458/458/458 459/459/459
f 459/459/459 458/458/458 460/460/460
f 459/459/459 460/460/460 461/461/461
f 461/461/461 460/460/460 462/462/462
f 461/461/461 462/462/462 463/463/463
f 463/463/463 462/462/462 464/464/464
f 464/464/464 462/462/462 465/465/465
f 464/464/464 465/465/465 466/466/466
f 466/466/466 465/465/465 467/467/467
f 466/466/466 467/467/467 468/468/468
f 468/468/468 467/467/467 469/469/469
f 468/468/468 469/469/469 470/470/470
f 470/470/470 469/469/469 471/471/471
f 470/470/470 471/471/471 472/472/472
f 472/472/472 471/471/471 425/425/425
f 472/472/472 425/425/425 427/427/427

