# Soda Can with Center Points for PyBullet
# Bottom Ring (1-16)
v 0.030 0.003 0.04
v 0.027 0.012 0.04
v 0.021 0.020 0.04
v 0.012 0.026 0.04
v 0.003 0.028 0.04
v -0.006 0.027 0.04
v -0.014 0.022 0.04
v -0.021 0.014 0.04
v -0.024 0.005 0.04
v -0.024 -0.003 0.04
v -0.021 -0.012 0.04
v -0.014 -0.020 0.04
v -0.006 -0.025 0.04
v 0.003 -0.027 0.04
v 0.012 -0.026 0.04
v 0.021 -0.021 0.04
# Vertex 17: Center of Bottom
v 0.000 0.000 0.04

# Top Ring (18-33)
v 0.030 0.003 0.10
v 0.027 0.012 0.10
v 0.021 0.020 0.10
v 0.012 0.026 0.10
v 0.003 0.028 0.10
v -0.006 0.027 0.10
v -0.014 0.022 0.10
v -0.021 0.014 0.10
v -0.024 0.005 0.10
v -0.024 -0.003 0.10
v -0.021 -0.012 0.10
v -0.014 -0.020 0.10
v -0.006 -0.025 0.10
v 0.003 -0.027 0.10
v 0.012 -0.026 0.10
v 0.021 -0.021 0.10
# Vertex 34: Center of Top
v 0.000 0.000 0.10

# Side Walls
f 1 2 19 18
f 2 3 20 19
f 3 4 21 20
f 4 5 22 21
f 5 6 23 22
f 6 7 24 23
f 7 8 25 24
f 8 9 26 25
f 9 10 27 26
f 10 11 28 27
f 11 12 29 28
f 12 13 30 29
f 13 14 31 30
f 14 15 32 31
f 15 16 33 32
f 16 1 18 33

# Bottom Cap (Triangles to Center 17)
f 1 2 17
f 2 3 17
f 3 4 17
f 4 5 17
f 5 6 17
f 6 7 17
f 7 8 17
f 8 9 17
f 9 10 17
f 10 11 17
f 11 12 17
f 12 13 17
f 13 14 17
f 14 15 17
f 15 16 17
f 16 1 17

# Top Cap (Triangles to Center 34)
f 18 19 34
f 19 20 34
f 20 21 34
f 21 22 34
f 22 23 34
f 23 24 34
f 24 25 34
f 25 26 34
f 26 27 34
f 27 28 34
f 28 29 34
f 29 30 34
f 30 31 34
f 31 32 34
f 32 33 34
f 33 18 34